<?xml version="1.0" encoding="UTF-8"?>
<svg version="1.1" xmlns="http://www.w3.org/2000/svg" width="128" height="128">
<path d="M0 0 C0.74652832 -0.00807175 1.49305664 -0.01614349 2.26220703 -0.02445984 C3.84584239 -0.0382886 5.4295074 -0.04901617 7.01318359 -0.05688477 C8.61516193 -0.06833899 10.21710412 -0.08868547 11.81884766 -0.1184082 C24.86368164 -0.36027948 35.58987559 0.48665256 45.4921875 9.9453125 C51.37612958 16.88080246 53.61710109 24.36711702 53.625 33.30078125 C53.63724609 34.03361328 53.64949219 34.76644531 53.66210938 35.52148438 C53.66736299 37.42854632 53.55968272 39.33513011 53.4375 41.23828125 C50.93312836 43.74265289 49.42434863 43.48140011 46.00704956 43.50933838 C45.25062164 43.50528992 44.49419373 43.50124146 43.71484375 43.49707031 C42.9179715 43.50057495 42.12109924 43.50407959 41.30007935 43.50769043 C38.65829838 43.51651403 36.01678383 43.51065643 33.375 43.50390625 C31.54418893 43.50525272 29.7133782 43.5071931 27.88256836 43.50970459 C24.0424459 43.5126567 20.20241637 43.50835542 16.36230469 43.49902344 C11.43231306 43.48762885 6.50253917 43.49418785 1.57255554 43.50616837 C-2.20887909 43.51338462 -5.99026183 43.51110012 -9.771698 43.50591278 C-11.58983384 43.50457563 -13.40797434 43.50622627 -15.22610474 43.51087189 C-17.76414526 43.51593329 -20.30182984 43.50823248 -22.83984375 43.49707031 C-23.59627167 43.50111877 -24.35269958 43.50516724 -25.13204956 43.50933838 C-30.33397139 43.46680986 -30.33397139 43.46680986 -32.5625 41.23828125 C-33.74757108 29.44268999 -32.58255815 19.86603524 -24.9375 10.42578125 C-18.10105365 3.17889159 -9.78648816 0.10102439 0 0 Z " fill="#454545" transform="translate(53.5625,68.76171875)"/>
<path d="M0 0 C5.65842186 3.35748683 9.01834623 8.14105438 11.0546875 14.30859375 C12.61328751 20.65089687 11.70385218 25.48921562 8.90234375 31.26171875 C5.99765338 35.84316916 1.60911022 39.38856832 -3.4375 41.375 C-10.81953986 42.2386623 -17.72157656 42.50233474 -23.82421875 37.86328125 C-29.33731269 32.77735197 -32.05274241 28.22257589 -32.8125 20.625 C-32.62001392 14.71454509 -30.68736936 8.96608178 -26.7890625 4.4765625 C-19.38125262 -2.15488303 -9.29654974 -4.24177174 0 0 Z " fill="#454545" transform="translate(74.4375,22.625)"/>
</svg>
