<svg xmlns="http://www.w3.org/2000/svg" xmlns:xlink="http://www.w3.org/1999/xlink" width="1524" height="1287" viewBox="0 0 1524 1287"><g transform="translate(-78 1060)"><path fill="none" stroke="#008a0e" stroke-width="4" d="M120-788a12 12 0 0 1 12-12h1416a12 12 0 0 1 12 12V28a12 12 0 0 1-12 12H132a12 12 0 0 1-12-12z"/><path fill="#f4d9ff" stroke="#3a414a" d="M221.33-480H420l-21.33 80H200z" class="qc-clickable" data-target="10"/><use xlink:href="#a" transform="translate(255.965 -451.057)"/><use xlink:href="#b" transform="translate(277.218 -416.39)"/><path fill="#ffcf99" stroke="#3a414a" d="M1221.33-249.33H1420l-21.33 80H1200z"/><use xlink:href="#c" transform="translate(1251.953 -220.39)"/><use xlink:href="#d" transform="translate(1259.977 -220.39)"/><use xlink:href="#e" transform="translate(1278.341 -185.724)"/><path fill="#979ea8" stroke="#979ea8" stroke-width=".05" d="m644.7-320.98 1.06.1 1.06.24 1 .42.95.58.83.7.7.84.58.93.42 1 .26 1.08.08 1.06v35.54h-1.95v-35.46l-.07-.83-.2-.75-.3-.73-.4-.67-.5-.6-.6-.5-.68-.43-.73-.3-.77-.18-.82-.06H531.2v-1.96zm-333.66-4.23.18.75.3.73.42.67.5.6.6.5.68.43.73.3.76.18.84.06h192.93v1.96h-193l-1.06-.1-1.06-.24-1-.42-.94-.58-.83-.7-.7-.84-.6-.93-.4-1-.26-1.08-.08-1.06v-72.54h1.96v72.46z"/><path fill="#979ea8" d="M310.98-398.47h-1.96v-1.03h1.96zm339.69 135.23-4.64-14.26h9.27z"/><path fill="#979ea8" stroke="#979ea8" stroke-width=".05" d="m650.67-260.08-5.98-18.4h11.94zm-3.3-16.45 3.3 10.14 3.3-10.13z"/><use xlink:href="#f" transform="translate(508.975 -316)"/><path fill="#008a0e" d="M120-788a12 12 0 0 1 12-12h416a12 12 0 0 1 12 12v39.33a12 12 0 0 1-12 12H132a12 12 0 0 1-12-12z"/><use xlink:href="#g" transform="translate(137.738 -762.186)"/><use xlink:href="#h" transform="translate(204.503 -762.186)"/><use xlink:href="#i" transform="translate(315.003 -762.186)"/><use xlink:href="#j" transform="translate(374.225 -762.186)"/><use xlink:href="#k" transform="translate(503.904 -762.186)"/><path fill="#dfe3e8" d="M120-1002.45a17.55 17.55 0 0 1 17.55-17.55h184.9a17.55 17.55 0 0 1 17.55 17.55v140.4a17.55 17.55 0 0 1-17.55 17.55h-184.9A17.55 17.55 0 0 1 120-862.05z"/><use xlink:href="#l" transform="translate(140 -946.222)"/><use xlink:href="#m" transform="translate(140 -903.556)"/><use xlink:href="#n" transform="translate(246.47 -903.556)"/><path fill="#979ea8" stroke="#979ea8" stroke-width=".05" d="m684.7-360.98 1.06.1 1.06.24 1 .42.95.58.83.7.7.84.58.93.42 1 .26 1.08.08 1.06V-279h-1.95v-74.96l-.07-.83-.2-.75-.3-.73-.4-.67-.5-.6-.6-.5-.68-.43-.73-.3-.77-.18-.82-.06H637.2v-1.96zm-113.66-4.23.18.75.3.73.42.67.5.6.6.5.68.43.73.3.76.18.84.06h38.93v1.96h-39l-1.06-.1-1.06-.24-1-.42-.94-.58-.83-.7-.72-.84-.57-.93-.42-1-.25-1.08-.08-1.06v-32.54H571v32.46z"/><path fill="#979ea8" d="M570.98-398.47H569v-1.03h2zm119.69 134.73L686.03-278h9.27z"/><path fill="#979ea8" stroke="#979ea8" stroke-width=".05" d="m690.67-260.58-5.98-18.4h11.94zm-3.3-16.45 3.3 10.14 3.3-10.13z"/><use xlink:href="#f" transform="translate(614.976 -356)"/><path fill="#f4d9ff" stroke="#3a414a" d="M481.33-480H680l-21.33 80H460z" class="qc-clickable" data-target="16"/><use xlink:href="#o" transform="translate(508.783 -451.057)"/><use xlink:href="#p" transform="translate(595.289 -451.057)"/><use xlink:href="#q" transform="translate(534.718 -416.39)"/><path fill="#cfe682" stroke="#3a414a" d="M127.73 65h51.44l-7.74 29H120z"/><path fill="#cfe4ff" stroke="#3a414a" d="M127.73 161.5h51.44l-7.74 29H120z"/><path fill="#fff7a1" stroke="#3a414a" d="M127.73 113.25h51.44l-7.74 29H120z"/><path fill="none" d="M200 60h225.93v38.67H200z"/><use xlink:href="#r" transform="translate(205 88.564)"/><use xlink:href="#s" transform="translate(269.117 88.564)"/><path fill="none" d="M200 108.5h240v38.67H200z"/><use xlink:href="#r" transform="translate(205 137.064)"/><use xlink:href="#t" transform="translate(269.117 137.064)"/><path fill="none" d="M200 157.67h240v38.66H200z"/><use xlink:href="#u" transform="translate(205 186.23)"/><use xlink:href="#v" transform="translate(278.747 186.23)"/><path fill="#f4d9ff" stroke="#3a414a" d="M507.73 68.83h51.44l-7.74 29H500z"/><path fill="none" d="M580 65h340v36.67H580z"/><use xlink:href="#w" transform="translate(585 93.111)"/><use xlink:href="#x" transform="translate(740.599 93.111)"/><use xlink:href="#y" transform="translate(811.136 93.111)"/><use xlink:href="#z" transform="translate(585 127.778)"/><path fill="#ffcf99" stroke="#3a414a" d="M507.73 117.08h51.44l-7.74 29H500z"/><path fill="none" d="M580 113.25h260v36.67H580z"/><use xlink:href="#w" transform="translate(585 141.361)"/><use xlink:href="#A" transform="translate(740.599 141.361)"/><use xlink:href="#z" transform="translate(585 176.028)"/><path fill="#fff" stroke="#3a414a" d="M621.05-248a12 12 0 0 1 12-12h196a12 12 0 0 1 12 12v76a12 12 0 0 1-12 12h-196a12 12 0 0 1-12-12z"/><path fill="none" d="M621.05-260h220v40h-220z"/><use xlink:href="#B" transform="translate(635.157 -235.347)"/><use xlink:href="#C" transform="translate(721.454 -235.347)"/><use xlink:href="#D" transform="translate(733.367 -235.347)"/><path fill="none" stroke="#3a414a" stroke-width="2" d="M622.05-220h218.5m-218.47 0h-1.03m219.48 0h1.02"/><path fill="none" d="M621.05-220h220v60h-220z"/><use xlink:href="#E" transform="translate(647.287 -196.832)"/><use xlink:href="#F" transform="translate(754.447 -196.832)"/><use xlink:href="#G" transform="translate(705.086 -170.165)"/><path fill="#f4d9ff" stroke="#3a414a" d="M801.33-480H1000l-21.33 80H780z" class="qc-clickable" data-target="12"/><use xlink:href="#H" transform="translate(832.835 -451.057)"/><use xlink:href="#I" transform="translate(877.613 -451.057)"/><use xlink:href="#J" transform="translate(858.382 -416.39)"/><path fill="#979ea8" stroke="#979ea8" stroke-width=".05" d="M825.68-359.02h-50.3l-.83.06-.77.18-.73.3-.67.42-.6.5-.5.6-.42.68-.3.73-.2.76-.05.84V-279h-1.94v-75.04l.08-1.05.26-1.06.42-1 .57-.94.7-.83.83-.7.93-.6 1.02-.4 1.06-.26 1.05-.08h50.38zm65.3-6.94-.1 1.05-.24 1.06-.42 1-.58.94-.7.83-.84.7-.93.6-1 .4-1.08.26-1.06.08H847.9V-361h36.06l.83-.06.75-.18.73-.3.67-.42.6-.5.5-.6.43-.68.3-.73.18-.76.06-.84v-32.46H891z"/><path fill="#979ea8" d="M890.98-398.47H889v-1.03h2zM769.33-263.74 764.7-278h9.27z"/><path fill="#979ea8" stroke="#979ea8" stroke-width=".05" d="m769.33-260.58-5.97-18.4h11.95zm-3.3-16.45 3.3 10.14 3.3-10.13z"/><use xlink:href="#f" transform="translate(825.681 -356)"/><path fill="#cfe4ff" stroke="#3a414a" d="M1061.33-480H1260l-21.33 80H1040z"/><use xlink:href="#K" transform="translate(1060.736 -451.057)"/><use xlink:href="#L" transform="translate(1192.1 -451.057)"/><use xlink:href="#M" transform="translate(1113.165 -416.39)"/><path fill="#979ea8" stroke="#979ea8" stroke-width=".05" d="M924.85-319.02h-110.8l-.84.06-.75.18-.73.3-.67.42-.6.5-.5.6-.43.68-.3.73-.18.76-.06.84V-279H807v-35.04l.1-1.05.24-1.06.42-1 .58-.94.7-.83.84-.7.93-.6 1-.4 1.08-.26 1.06-.08h110.9zm226.12-6.94-.08 1.05-.26 1.06-.42 1-.58.94-.7.83-.84.7-.93.6-1 .4-1.08.26-1.06.08H947.07V-321h196.9l.82-.06.75-.18.73-.3.67-.42.6-.5.5-.6.42-.68.3-.73.2-.76.06-.84v-72.46h1.94z"/><path fill="#979ea8" d="M1150.97-398.47h-1.94v-1.03h1.94zM808-263.74 803.37-278h9.26z"/><path fill="#979ea8" stroke="#979ea8" stroke-width=".05" d="m808-260.58-5.98-18.4h11.96zm-3.3-16.45 3.3 10.14 3.3-10.13z"/><use xlink:href="#f" transform="translate(924.853 -316)"/><path fill="#f4d9ff" stroke="#3a414a" d="M921.33-740H1120l-21.33 80H900z" class="qc-clickable" data-target="10"/><use xlink:href="#K" transform="translate(920.736 -711.057)"/><use xlink:href="#L" transform="translate(1052.1 -711.057)"/><use xlink:href="#N" transform="translate(973.755 -676.39)"/><path fill="none" stroke="#1071e5" d="M1070-590h160l-80 40z"/><path fill="#f4d9ff" stroke="#3a414a" d="M1203.53-740h198.67l-21.33 80H1182.2z" class="qc-clickable" data-target="18"/><use xlink:href="#O" transform="translate(1223.8 -711.057)"/><use xlink:href="#P" transform="translate(1324.67 -711.057)"/><use xlink:href="#Q" transform="translate(1263.659 -676.39)"/><path fill="#979ea8" stroke="#979ea8" stroke-width=".05" d="M1224.65-629.02h-29.28l-.82.06-.77.18-.73.3-.67.42-.6.5-.5.6-.42.68-.3.73-.2.76-.05.84V-609h-1.94v-15.04l.08-1.05.26-1.06.42-1 .57-.94.7-.83.83-.72.93-.57 1.02-.42 1.06-.25 1.06-.08h29.36zm68.52-6.94-.08 1.05-.26 1.06-.42 1-.58.94-.7.83-.84.72-.93.57-1 .42-1.08.25-1.06.08h-39.36V-631h39.28l.82-.06.77-.18.73-.3.67-.42.6-.5.5-.6.42-.68.3-.73.2-.76.05-.84v-22.46h1.95z"/><path fill="#979ea8" d="M1293.17-658.47h-1.95v-1.03h1.95zm-103.84 64.73L1184.7-608h9.27z"/><path fill="#979ea8" stroke="#979ea8" stroke-width=".05" d="m1189.33-590.58-5.97-18.4h11.95zm-3.3-16.45 3.3 10.14 3.3-10.13z"/><use xlink:href="#R" transform="translate(1224.66 -626)"/><path fill="#979ea8" stroke="#979ea8" stroke-width=".05" d="m1106.04-630.98 1.05.1 1.06.24 1 .42.94.58.83.7.7.84.6.93.4 1 .26 1.08.07 1.06V-609h-1.94v-14.96l-.07-.83-.18-.75-.3-.73-.42-.67-.5-.6-.6-.5-.68-.43-.73-.3-.76-.18-.84-.06h-28.85V-631zm-95-4.23.18.75.3.73.42.67.5.6.6.5.68.43.73.3.76.18.84.06h38.85v1.96h-38.94l-1.05-.1-1.06-.24-1-.42-.94-.58-.83-.7-.72-.84-.57-.93-.42-1-.25-1.08-.08-1.06v-22.54h1.96v22.46z"/><path fill="#979ea8" d="M1010.98-658.47H1009v-1.03h1.96zM1112-593.74l-4.63-14.26h9.27z"/><path fill="#979ea8" stroke="#979ea8" stroke-width=".05" d="m1112-590.58-5.98-18.4h11.96zm-3.3-16.45 3.3 10.14 3.3-10.13z"/><use xlink:href="#R" transform="translate(1054.894 -626)"/><path fill="#979ea8" stroke="#979ea8" stroke-width=".05" d="M1150.97-498.5h-1.94v-9.06h1.94zm0-33.06h-1.94v-16.88h1.94z"/><path fill="#979ea8" d="M1150.97-548.4h-1.94v-1.53l.97.5.97-.5zm-.97 65.16-4.63-14.26h9.27z"/><path fill="#979ea8" stroke="#979ea8" stroke-width=".05" d="m1150-480.08-5.98-18.4h11.96zm-3.3-16.45 3.3 10.14 3.3-10.13z"/><use xlink:href="#S" transform="translate(1138.894 -515.559)"/><path fill="#979ea8" stroke="#979ea8" stroke-width=".05" d="M1021.5-115.67h-1.95v-10.38h1.95zm-.33-34.38h-1.95v-9h1.95z"/><path fill="#979ea8" d="m1020.2-160.06.97-.68v1.7h-1.95v-1.7zm.33 59.66-4.64-14.27h9.26z"/><path fill="#979ea8" stroke="#979ea8" stroke-width=".05" d="m1020.53-97.25-5.98-18.4h11.95zm-3.3-16.44 3.3 10.14 3.3-10.13z"/><use xlink:href="#T" transform="translate(993.559 -134.053)"/><use xlink:href="#U" transform="translate(1024.614 -134.053)"/><path fill="none" stroke="#1071e5" d="m1020.2-258 69.66 48.67-69.67 48.66-69.67-48.66z"/><use xlink:href="#V" transform="translate(990.915 -211.222)"/><use xlink:href="#W" transform="translate(1002.952 -176.556)"/><path fill="#979ea8" stroke="#979ea8" stroke-width=".05" d="M931.15-210.3v1.94H900.1v-1.95zm-53.26 0v1.94h-35.85v-1.95z"/><path fill="#979ea8" d="m946.42-209.33-14.27 4.63v-9.27z"/><path fill="#979ea8" stroke="#979ea8" stroke-width=".05" d="m949.57-209.33-18.4 5.97v-11.95zm-16.44 3.3 10.13-3.3-10.13-3.3z"/><path fill="#979ea8" d="M842.08-208.36h-1.03v-1.95h1.03z"/><use xlink:href="#X" transform="translate(877.895 -205.338)"/><path fill="#fff7a1" stroke="#3a414a" d="M931.86-96.67h198.67l-21.34 80H910.52z"/><use xlink:href="#Y" transform="translate(932.105 -67.724)"/><use xlink:href="#Z" transform="translate(1000.877 -67.724)"/><use xlink:href="#aa" transform="translate(988.908 -33.057)"/><path fill="#e81313" stroke="#e81313" stroke-width=".05" d="m1021.5 106.05.07.82.18.77.3.72.4.67.52.6.6.52.68.4.72.3.77.2.82.06h47.82v1.96h-47.9l-1.05-.1-1.06-.24-1-.42-.95-.57-.83-.7-.72-.84-.57-.95-.4-1-.27-1.08-.08-1.05v-121.3h1.95zm218.5 5.06v1.96h-80.18v-1.95z"/><path fill="#e81313" d="M1021.5-15.14h-1.95v-1.03h1.95z"/><path fill="#e81313" stroke="#e81313" stroke-width=".05" d="M1239.97 127.08h-1.94v-30h1.94z"/><use xlink:href="#ab" transform="translate(1074.38 116.083)"/><use xlink:href="#ac" transform="translate(1102.158 116.083)"/><path fill="none" d="M1242.63 143.1h53.75v40h-53.75z"/><use xlink:href="#ad" transform="translate(1250.45 171.676)"/><path fill="#454545" d="M1263 113.75h4.84c1.14 0 2.23-.07 3.38-.07 9.1-.2 16.54.45 23.48 7.05 4.1 4.8 5.62 10.05 5.68 16.26v1.53c0 1.34-.06 2.7-.18 3.97-1.75 1.8-2.78 1.6-5.13 1.6h-49.66c-3.62 0-3.62 0-5.13-1.6-.84-8.2-.06-14.86 5.32-21.45 4.77-5.06 10.56-7.24 17.4-7.3zm14.5-32.15c3.98 2.38 6.34 5.7 7.72 10 1.1 4.4.5 7.74-1.5 11.78-2 3.2-5.08 5.7-8.58 7.04-5.13.64-9.96.83-14.25-2.43-3.8-3.54-5.75-6.74-6.23-12 .12-4.15 1.45-8.12 4.17-11.26 5.2-4.6 12.2-6.08 18.66-3.13z"/><path fill="#979ea8" stroke="#979ea8" stroke-width=".05" d="M1109.67-208.36h-17.94v-1.95h17.94zm81.98 0h-21.6v-1.95h21.6z"/><path fill="#979ea8" d="M1091.76-208.36h-2.42l1.4-.97-1.4-.98h2.42zm115.14-.97-14.25 4.63v-9.27z"/><path fill="#979ea8" stroke="#979ea8" stroke-width=".05" d="m1210.07-209.33-18.4 5.97v-11.95zm-16.45 3.3 10.14-3.3-10.14-3.3z"/><use xlink:href="#ae" transform="translate(1109.678 -205.333)"/><use xlink:href="#U" transform="translate(1147.845 -205.333)"/><defs><path id="af" fill="#3a414a" d="M210-169c-67 3-38 105-44 169h-31v-121c0-29-5-50-35-48C34-165 62-65 56 0H25l-1-190h30c1 10-1 24 2 32 10-44 99-50 107 0 11-21 27-35 58-36 85-2 47 119 55 194h-31v-121c0-29-5-49-35-48"/><path id="ag" fill="#3a414a" d="M100-194c63 0 86 42 84 106H49c0 40 14 67 53 68 26 1 43-12 49-29l28 8c-11 28-37 45-77 45C44 4 14-33 15-96c1-61 26-98 85-98m52 81c6-60-76-77-97-28-3 7-6 17-6 28z"/><path id="ah" fill="#3a414a" d="M135-143c-3-34-86-38-87 0 15 53 115 12 119 90S17 21 10-45l28-5c4 36 97 45 98 0-10-56-113-15-118-90-4-57 82-63 122-42 12 7 21 19 24 35"/><path id="ai" fill="#3a414a" d="M141-36C126-15 110 5 73 4 37 3 15-17 15-53c-1-64 63-63 125-63 3-35-9-54-41-54-24 1-41 7-42 31l-33-3c5-37 33-52 76-52 45 0 72 20 72 64v82c-1 20 7 32 28 27v20c-31 9-61-2-59-35M48-53c0 20 12 33 32 33 41-3 63-29 60-74-43 2-92-5-92 41"/><path id="aj" fill="#3a414a" d="M177-190C167-65 218 103 67 71c-23-6-38-20-44-43l32-5c15 47 100 32 89-28v-30C133-14 115 1 83 1 29 1 15-40 15-95c0-56 16-97 71-98 29-1 48 16 59 35 1-10 0-23 2-32zM94-22c36 0 50-32 50-73 0-42-14-75-50-75-39 0-46 34-46 75s6 73 46 73"/><path id="ak" fill="#3a414a" d="M87 75C49 33 22-17 22-94c0-76 28-126 65-167h31c-38 41-64 92-64 168S80 34 118 75z"/><path id="al" fill="#3a414a" d="M30 0v-248h187v28H63v79h144v27H63v87h162V0z"/><path id="am" fill="#3a414a" d="M33-261c38 41 65 92 65 168S71 34 33 75H2C39 34 66-17 66-93S39-220 2-261z"/><path id="an" fill="#3a414a" d="M101-251c68 0 85 55 85 127S166 4 100 4C33 4 14-52 14-124c0-73 17-127 87-127m-1 229c47 0 54-49 54-102s-4-102-53-102c-51 0-55 48-55 102 0 53 5 102 54 102"/><path id="ao" fill="#333" d="M126-127c33 6 58 20 58 59 0 88-139 92-164 29-3-8-5-16-6-25l32-3c6 27 21 44 54 44 32 0 52-15 52-46 0-38-36-46-79-43v-28c39 1 72-4 72-42 0-27-17-43-46-43-28 0-47 15-49 41l-32-3c6-42 35-63 81-64 48-1 79 21 79 65 0 36-21 52-52 59"/><path id="ap" fill="#333" d="M110-160c48 1 74 30 74 79 0 53-28 85-80 85-65 0-83-55-86-122-5-90 50-162 133-122 14 7 22 21 27 39l-31 6c-5-40-67-38-82-6-9 19-15 44-15 74 11-20 30-34 60-33m-7 138c34 0 49-23 49-58s-16-56-50-56c-29 0-50 16-49 49 1 36 15 65 50 65"/><path id="aq" fill="#fff" d="M266 0h-40l-56-210L115 0H75L2-248h35L96-30l15-64 43-154h32l59 218 59-218h35"/><path id="ar" fill="#fff" d="M100-194c63 0 86 42 84 106H49c0 40 14 67 53 68 26 1 43-12 49-29l28 8c-11 28-37 45-77 45C44 4 14-33 15-96c1-61 26-98 85-98m52 81c6-60-76-77-97-28-3 7-6 17-6 28z"/><path id="as" fill="#fff" d="M115-194c53 0 69 39 70 98 0 66-23 100-70 100C84 3 66-7 56-30L54 0H23l1-261h32v101c10-23 28-34 59-34m-8 174c40 0 45-34 45-75 0-40-5-75-45-74-42 0-51 32-51 76 0 43 10 73 51 73"/><path id="at" fill="#fff" d="M114-163C36-179 61-72 57 0H25l-1-190h30c1 12-1 29 2 39 6-27 23-49 58-41z"/><path id="au" fill="#fff" d="M100-194c62-1 85 37 85 99 1 63-27 99-86 99S16-35 15-95c0-66 28-99 85-99M99-20c44 1 53-31 53-75 0-43-8-75-51-75s-53 32-53 75 10 74 51 75"/><path id="av" fill="#fff" d="M206 0h-36l-40-164L89 0H53L-1-190h32L70-26l43-164h34l41 164 42-164h31"/><path id="aw" fill="#fff" d="M135-143c-3-34-86-38-87 0 15 53 115 12 119 90S17 21 10-45l28-5c4 36 97 45 98 0-10-56-113-15-118-90-4-57 82-63 122-42 12 7 21 19 24 35"/><path id="ax" fill="#fff" d="M24-231v-30h32v30zM24 0v-190h32V0z"/><path id="ay" fill="#fff" d="M59-47c-2 24 18 29 38 22v24C64 9 27 4 27-40v-127H5v-23h24l9-43h21v43h35v23H59z"/><path id="az" fill="#fff" d="M106-169C34-169 62-67 57 0H25v-261h32l-1 103c12-21 28-36 61-36 89 0 53 116 60 194h-32v-121c2-32-8-49-39-48"/><path id="aA" fill="#fff" d="M24 0v-261h32V0z"/><path id="aB" fill="#fff" d="M85-194c31 0 48 13 60 33l-1-100h32l1 261h-30c-2-10 0-23-3-31C134-8 116 4 85 4 32 4 16-35 15-94c0-66 23-100 70-100m9 24c-40 0-46 34-46 75 0 40 6 74 45 74 42 0 51-32 51-76 0-42-9-74-50-73"/><path id="aC" fill="#fff" d="M84 4C-5 8 30-112 23-190h32v120c0 31 7 50 39 49 72-2 45-101 50-169h31l1 190h-30c-1-10 1-25-2-33-11 22-28 36-60 37"/><path id="aD" fill="#fff" d="M210-169c-67 3-38 105-44 169h-31v-121c0-29-5-50-35-48C34-165 62-65 56 0H25l-1-190h30c1 10-1 24 2 32 10-44 99-50 107 0 11-21 27-35 58-36 85-2 47 119 55 194h-31v-121c0-29-5-49-35-48"/><path id="aE" fill="#fff" d="M87 75C49 33 22-17 22-94c0-76 28-126 65-167h31c-38 41-64 92-64 168S80 34 118 75z"/><path id="aF" fill="#fff" d="M160-131c35 5 61 23 61 61C221 17 115-2 30 0v-248c76 3 177-17 177 60 0 33-19 50-47 57m-97-11c50-1 110 9 110-42 0-47-63-36-110-37zm0 115c55-2 124 14 124-45 0-56-70-42-124-44z"/><path id="aG" fill="#fff" d="M33-261c38 41 65 92 65 168S71 34 33 75H2C39 34 66-17 66-93S39-220 2-261z"/><path id="aH" fill="#3a414a" d="M24-248c120-7 223 5 221 122C244-46 201 0 124 0H24zM76-40c74 7 117-18 117-86 0-67-45-88-117-82z"/><path id="aI" fill="#3a414a" d="M185-48c-13 30-37 53-82 52C43 2 14-33 14-96s30-98 90-98c62 0 83 45 84 108H66c0 31 8 55 39 56 18 0 30-7 34-22zm-45-69c5-46-57-63-70-21-2 6-4 13-4 21z"/><path id="aJ" fill="#3a414a" d="M190-63c-7 42-38 67-86 67-59 0-84-38-90-98-12-110 154-137 174-36l-49 2c-2-19-15-32-35-32-30 0-35 28-38 64-6 74 65 87 74 30"/><path id="aK" fill="#3a414a" d="M135-150c-39-12-60 13-60 57V0H25l-1-190h47c2 13-1 29 3 40 6-28 27-53 61-41z"/><path id="aL" fill="#3a414a" d="M123 10C108 53 80 86 19 72V37c35 8 53-11 59-39L3-190h52l48 148c12-52 28-100 44-148h51"/><path id="aM" fill="#3a414a" d="M135-194c53 0 70 44 70 98 0 56-19 98-73 100-31 1-45-17-59-34 3 33 2 69 2 105H25l-1-265h48c2 10 0 23 3 31 11-24 29-35 60-35M114-30c33 0 39-31 40-66 0-38-9-64-40-64-56 0-55 130 0 130"/><path id="aN" fill="#3a414a" d="M115-3C79 11 28 4 28-45v-112H4v-33h27l15-45h31v45h36v33H77v99c-1 23 16 31 38 25z"/><path id="aO" fill="#3a414a" d="M182-130c37 4 62 22 62 59C244 23 116-4 24 0v-248c84 5 203-23 205 63 0 31-19 50-47 55M76-148c40-3 101 13 101-30 0-44-60-28-101-31zm0 110c48-3 116 14 116-37 0-48-69-32-116-35z"/><path id="aP" fill="#3a414a" d="M25 0v-261h50V0z"/><path id="aQ" fill="#3a414a" d="M110-194c64 0 96 36 96 99 0 64-35 99-97 99-61 0-95-36-95-99 0-62 34-99 96-99m-1 164c35 0 45-28 45-65 0-40-10-65-43-65-34 0-45 26-45 65 0 36 10 65 43 65"/><path id="aR" fill="#3a414a" d="M147 0 96-86 75-71V0H25v-261h50v150l67-79h53l-66 74L201 0z"/><path id="aS" fill="#3a414a" d="M101-251c68 0 84 54 84 127C185-50 166 4 99 4S15-52 14-124c-1-75 17-127 87-127m-1 216c37-5 36-46 36-89s4-89-36-89c-39 0-36 45-36 89 0 43-3 85 36 89"/><path id="aT" fill="#3a414a" d="M96-169c-40 0-48 33-48 73s9 75 48 75c24 0 41-14 43-38l32 2c-6 37-31 61-74 61-59 0-76-41-82-99-10-93 101-131 147-64 4 7 5 14 7 22l-32 3c-4-21-16-35-41-35"/><path id="aU" fill="#3a414a" d="M24-231v-30h32v30zM24 0v-190h32V0z"/><path id="aV" fill="#3a414a" d="M115-194c55 1 70 41 70 98S169 2 115 4C84 4 66-9 55-30l1 105H24l-1-265h31l2 30c10-21 28-34 59-34m-8 174c40 0 45-34 45-75s-6-73-45-74c-42 0-51 32-51 76 0 43 10 73 51 73"/><path id="aW" fill="#3a414a" d="M106-169C34-169 62-67 57 0H25v-261h32l-1 103c12-21 28-36 61-36 89 0 53 116 60 194h-32v-121c2-32-8-49-39-48"/><path id="aX" fill="#3a414a" d="M114-163C36-179 61-72 57 0H25l-1-190h30c1 12-1 29 2 39 6-27 23-49 58-41z"/><path id="aY" fill="#3a414a" d="M143 0 79-87 56-68V0H24v-261h32v163l83-92h37l-77 82L181 0z"/><path id="aZ" fill="#3a414a" d="M179-190 93 31C79 59 56 82 12 73V49c39 6 53-20 64-50L1-190h34L92-34l54-156z"/><path id="ba" fill="#3a414a" d="m240 0 2-218c-23 76-54 145-80 218h-23L58-218 59 0H30v-248h44l77 211c21-75 51-140 76-211h43V0z"/><path id="bb" fill="#3a414a" d="M84 4C-5 8 30-112 23-190h32v120c0 31 7 50 39 49 72-2 45-101 50-169h31l1 190h-30c-1-10 1-25-2-33-11 22-28 36-60 37"/><path id="bc" fill="#3a414a" d="M117-194c89-4 53 116 60 194h-32v-121c0-31-8-49-39-48C34-167 62-67 57 0H25l-1-190h30c1 10-1 24 2 32 11-22 29-35 61-36"/><path id="bd" fill="#3a414a" d="M59-47c-2 24 18 29 38 22v24C64 9 27 4 27-40v-127H5v-23h24l9-43h21v43h35v23H59z"/><path id="be" fill="#3a414a" d="M100-194c62-1 85 37 85 99 1 63-27 99-86 99S16-35 15-95c0-66 28-99 85-99M99-20c44 1 53-31 53-75 0-43-8-75-51-75s-53 32-53 75 10 74 51 75"/><path id="bf" fill="#3a414a" d="M85-194c31 0 48 13 60 33l-1-100h32l1 261h-30c-2-10 0-23-3-31C134-8 116 4 85 4 32 4 16-35 15-94c0-66 23-100 70-100m9 24c-40 0-46 34-46 75 0 40 6 74 45 74 42 0 51-32 51-76 0-42-9-74-50-73"/><path id="bg" fill="#3a414a" d="M115-194c53 0 69 39 70 98 0 66-23 100-70 100C84 3 66-7 56-30L54 0H23l1-261h32v101c10-23 28-34 59-34m-8 174c40 0 45-34 45-75 0-40-5-75-45-74-42 0-51 32-51 76 0 43 10 73 51 73"/><path id="bh" fill="#3a414a" d="M24 0v-261h32V0z"/><path id="bi" fill="#3a414a" d="M185-189c-5-48-123-54-124 2 14 75 158 14 163 119 3 78-121 87-175 55-17-10-28-26-33-46l33-7c5 56 141 63 141-1 0-78-155-14-162-118-5-82 145-84 179-34 5 7 8 16 11 25"/><path id="bj" fill="#3a414a" d="M212-179c-10-28-35-45-73-45-59 0-87 40-87 99 0 60 29 101 89 101 43 0 62-24 78-52l27 14C228-24 195 4 139 4 59 4 22-46 18-125c-6-104 99-153 187-111 19 9 31 26 39 46"/><path id="bk" fill="#3a414a" d="M32 76v-337h29V76z"/><path id="bl" fill="#3a414a" d="M16-82v-28h88v28z"/><path id="bm" fill="#3a414a" d="M27 0v-27h64v-190l-56 39v-29l58-41h29v221h61V0z"/><path id="bn" fill="#3a414a" d="M108 0H70L1-190h34L89-25l56-165h34"/><path id="bo" fill="#3a414a" d="M33 0v-248h34V0z"/><path id="bp" fill="#3a414a" d="M137 0h-34L2-248h35l83 218 83-218h36"/><path id="bq" fill="#3a414a" d="m195 0-74-108L45 0H8l94-129-87-119h37l69 98 67-98h37l-84 118L233 0z"/><path id="br" fill="#3a414a" d="M63-220v92h138v28H63V0H30v-248h175v28z"/><path id="bs" fill="#333" d="M155-56V0h-30v-56H8v-25l114-167h33v167h35v25zm-30-156c-27 46-58 90-88 131h88z"/><path id="bt" fill="#333" d="M54-142c48-35 137-8 131 61C196 18 31 33 14-55l32-4c7 23 22 37 52 37 35-1 51-22 54-58 4-55-73-65-99-34H22l8-134h141v27H59"/><path id="bu" fill="#333" d="M190 0 58-211 59 0H30v-248h39L202-35l-2-213h31V0z"/><path id="bv" fill="#333" d="M100-194c62-1 85 37 85 99 1 63-27 99-86 99S16-35 15-95c0-66 28-99 85-99M99-20c44 1 53-31 53-75 0-43-8-75-51-75s-53 32-53 75 10 74 51 75"/><path id="bw" fill="#333" d="M134-131c28 9 52 24 51 62-1 50-34 73-85 73S17-19 16-69c0-36 21-54 49-61-75-25-45-126 34-121 46 3 78 18 79 63 0 33-17 51-44 57m-34-11c31 1 46-15 46-44 0-28-17-43-47-42-29 0-46 13-45 42 1 28 16 44 46 44m1 122c35 0 51-18 51-52 0-30-18-46-53-46-33 0-51 17-51 47 0 34 19 51 53 51"/><path id="bx" fill="#333" d="M64 0c3-98 48-159 88-221H18v-27h164v26C143-157 98-101 97 0z"/><path id="by" fill="#333" d="M99-251c64 0 84 50 84 122C183-37 130 33 47-8c-14-7-20-23-25-40l30-5c6 39 69 39 84 7 9-19 16-44 16-74-10 22-31 35-62 35-49 0-73-33-73-83 0-54 28-83 82-83m-1 141c31-1 51-18 51-49 0-36-14-67-51-67-34 0-49 23-49 58 0 34 15 58 49 58"/><path id="bz" fill="#333" d="M87 75C49 33 22-17 22-94c0-76 28-126 65-167h31c-38 41-64 92-64 168S80 34 118 75z"/><path id="bA" fill="#333" d="M85-194c31 0 48 13 60 33l-1-100h32l1 261h-30c-2-10 0-23-3-31C134-8 116 4 85 4 32 4 16-35 15-94c0-66 23-100 70-100m9 24c-40 0-46 34-46 75 0 40 6 74 45 74 42 0 51-32 51-76 0-42-9-74-50-73"/><path id="bB" fill="#333" d="M117-194c89-4 53 116 60 194h-32v-121c0-31-8-49-39-48C34-167 62-67 57 0H25l-1-190h30c1 10-1 24 2 32 11-22 29-35 61-36"/><path id="bC" fill="#333" d="M100-194c63 0 86 42 84 106H49c0 40 14 67 53 68 26 1 43-12 49-29l28 8c-11 28-37 45-77 45C44 4 14-33 15-96c1-61 26-98 85-98m52 81c6-60-76-77-97-28-3 7-6 17-6 28z"/><path id="bD" fill="#333" d="M33-261c38 41 65 92 65 168S71 34 33 75H2C39 34 66-17 66-93S39-220 2-261z"/><path id="bE" fill="#3a414a" d="m205 0-28-72H64L36 0H1l101-248h38L239 0zm-38-99-47-123c-12 45-31 82-46 123z"/><path id="bF" fill="#333" d="M137-103V0h-34v-103L8-248h37l75 118 75-118h37"/><path id="bG" fill="#333" d="M135-143c-3-34-86-38-87 0 15 53 115 12 119 90S17 21 10-45l28-5c4 36 97 45 98 0-10-56-113-15-118-90-4-57 82-63 122-42 12 7 21 19 24 35"/><g id="a"><use xlink:href="#af" transform="scale(.08025)"/><use xlink:href="#ag" transform="translate(23.994)scale(.08025)"/><use xlink:href="#ah" transform="translate(40.043)scale(.08025)"/><use xlink:href="#ah" transform="translate(54.488)scale(.08025)"/><use xlink:href="#ai" transform="translate(68.932)scale(.08025)"/><use xlink:href="#aj" transform="translate(84.981)scale(.08025)"/><use xlink:href="#ag" transform="translate(101.03)scale(.08025)"/></g><g id="b"><use xlink:href="#ak" transform="scale(.08025)"/><use xlink:href="#af" transform="translate(9.55)scale(.08025)"/><use xlink:href="#al" transform="translate(33.543 4.044)scale(.05617)"/><use xlink:href="#am" transform="translate(47.025)scale(.08025)"/></g><g id="d"><use xlink:href="#af" transform="scale(.08025)"/><use xlink:href="#ag" transform="translate(23.994)scale(.08025)"/><use xlink:href="#ah" transform="translate(40.043)scale(.08025)"/><use xlink:href="#ah" transform="translate(54.488)scale(.08025)"/><use xlink:href="#ai" transform="translate(68.932)scale(.08025)"/><use xlink:href="#aj" transform="translate(84.981)scale(.08025)"/><use xlink:href="#ag" transform="translate(101.03)scale(.08025)"/></g><g id="e"><use xlink:href="#ak" transform="scale(.08025)"/><use xlink:href="#af" transform="translate(9.55)scale(.08025)"/><use xlink:href="#an" transform="translate(33.543 4.044)scale(.05617)"/><use xlink:href="#am" transform="translate(44.778)scale(.08025)"/></g><g id="f"><use xlink:href="#ao" transform="scale(.05556)"/><use xlink:href="#ap" transform="translate(11.111)scale(.05556)"/></g><g id="g"><use xlink:href="#aq" transform="scale(.08025)"/><use xlink:href="#ar" transform="translate(26.642)scale(.08025)"/><use xlink:href="#as" transform="translate(42.691)scale(.08025)"/></g><g id="h"><use xlink:href="#as" transform="scale(.08025)"/><use xlink:href="#at" transform="translate(16.05)scale(.08025)"/><use xlink:href="#au" transform="translate(25.599)scale(.08025)"/><use xlink:href="#av" transform="translate(41.648)scale(.08025)"/><use xlink:href="#aw" transform="translate(62.432)scale(.08025)"/><use xlink:href="#ar" transform="translate(76.877)scale(.08025)"/><use xlink:href="#at" transform="translate(92.926)scale(.08025)"/></g><g id="i"><use xlink:href="#av" transform="scale(.08025)"/><use xlink:href="#ax" transform="translate(20.784)scale(.08025)"/><use xlink:href="#ay" transform="translate(27.123)scale(.08025)"/><use xlink:href="#az" transform="translate(35.148)scale(.08025)"/></g><g id="j"><use xlink:href="#aA" transform="scale(.08025)"/><use xlink:href="#ax" transform="translate(6.34)scale(.08025)"/><use xlink:href="#as" transform="translate(12.679)scale(.08025)"/><use xlink:href="#aw" transform="translate(28.728)scale(.08025)"/><use xlink:href="#au" transform="translate(43.173)scale(.08025)"/><use xlink:href="#aB" transform="translate(59.222)scale(.08025)"/><use xlink:href="#ax" transform="translate(75.272)scale(.08025)"/><use xlink:href="#aC" transform="translate(81.611)scale(.08025)"/><use xlink:href="#aD" transform="translate(97.66)scale(.08025)"/></g><g id="k"><use xlink:href="#aE" transform="scale(.08025)"/><use xlink:href="#aF" transform="translate(9.55)scale(.08025)"/><use xlink:href="#aG" transform="translate(28.809)scale(.08025)"/></g><g id="l"><use xlink:href="#aH" transform="scale(.09877)"/><use xlink:href="#aI" transform="translate(25.58)scale(.09877)"/><use xlink:href="#aJ" transform="translate(45.333)scale(.09877)"/><use xlink:href="#aK" transform="translate(65.086)scale(.09877)"/><use xlink:href="#aL" transform="translate(78.914)scale(.09877)"/><use xlink:href="#aM" transform="translate(98.667)scale(.09877)"/><use xlink:href="#aN" transform="translate(120.296)scale(.09877)"/></g><g id="m"><use xlink:href="#aO" transform="scale(.09877)"/><use xlink:href="#aP" transform="translate(25.58)scale(.09877)"/><use xlink:href="#aQ" transform="translate(35.457)scale(.09877)"/><use xlink:href="#aJ" transform="translate(57.086)scale(.09877)"/><use xlink:href="#aR" transform="translate(76.84)scale(.09877)"/></g><g id="o"><use xlink:href="#aT" transform="scale(.08025)"/><use xlink:href="#aU" transform="translate(14.444)scale(.08025)"/><use xlink:href="#aV" transform="translate(20.784)scale(.08025)"/><use xlink:href="#aW" transform="translate(36.833)scale(.08025)"/><use xlink:href="#ag" transform="translate(52.883)scale(.08025)"/><use xlink:href="#aX" transform="translate(68.932)scale(.08025)"/></g><g id="p"><use xlink:href="#aY" transform="scale(.08025)"/><use xlink:href="#ag" transform="translate(14.444)scale(.08025)"/><use xlink:href="#aZ" transform="translate(30.494)scale(.08025)"/></g><g id="q"><use xlink:href="#ak" transform="scale(.08025)"/><use xlink:href="#aY" transform="translate(9.55)scale(.08025)"/><use xlink:href="#ba" transform="translate(23.994 4.044)scale(.05617)"/><use xlink:href="#an" transform="translate(40.79 4.044)scale(.05617)"/><use xlink:href="#am" transform="translate(52.024)scale(.08025)"/></g><g id="r"><use xlink:href="#bb" transform="scale(.08025)"/><use xlink:href="#ah" transform="translate(16.05)scale(.08025)"/><use xlink:href="#ag" transform="translate(30.494)scale(.08025)"/><use xlink:href="#aX" transform="translate(46.543)scale(.08025)"/></g><g id="s"><use xlink:href="#aU" transform="scale(.08025)"/><use xlink:href="#bc" transform="translate(6.34)scale(.08025)"/><use xlink:href="#aV" transform="translate(22.389)scale(.08025)"/><use xlink:href="#bb" transform="translate(38.438)scale(.08025)"/><use xlink:href="#bd" transform="translate(54.488)scale(.08025)"/></g><g id="t"><use xlink:href="#be" transform="scale(.08025)"/><use xlink:href="#bb" transform="translate(16.05)scale(.08025)"/><use xlink:href="#bd" transform="translate(32.099)scale(.08025)"/><use xlink:href="#aV" transform="translate(40.123)scale(.08025)"/><use xlink:href="#bb" transform="translate(56.173)scale(.08025)"/><use xlink:href="#bd" transform="translate(72.222)scale(.08025)"/></g><g id="u"><use xlink:href="#be" transform="scale(.08025)"/><use xlink:href="#bd" transform="translate(16.05)scale(.08025)"/><use xlink:href="#aW" transform="translate(24.074)scale(.08025)"/><use xlink:href="#ag" transform="translate(40.123)scale(.08025)"/><use xlink:href="#aX" transform="translate(56.173)scale(.08025)"/></g><g id="v"><use xlink:href="#bf" transform="scale(.08025)"/><use xlink:href="#ai" transform="translate(16.05)scale(.08025)"/><use xlink:href="#bd" transform="translate(32.099)scale(.08025)"/><use xlink:href="#ai" transform="translate(40.123)scale(.08025)"/></g><g id="w"><use xlink:href="#ah" transform="scale(.08025)"/><use xlink:href="#bb" transform="translate(14.444)scale(.08025)"/><use xlink:href="#bg" transform="translate(30.494)scale(.08025)"/><use xlink:href="#aV" transform="translate(46.543)scale(.08025)"/><use xlink:href="#aX" transform="translate(62.593)scale(.08025)"/><use xlink:href="#be" transform="translate(72.142)scale(.08025)"/><use xlink:href="#aT" transform="translate(88.191)scale(.08025)"/><use xlink:href="#ag" transform="translate(102.636)scale(.08025)"/><use xlink:href="#ah" transform="translate(118.685)scale(.08025)"/><use xlink:href="#ah" transform="translate(133.13)scale(.08025)"/></g><g id="x"><use xlink:href="#aU" transform="scale(.08025)"/><use xlink:href="#bc" transform="translate(6.34)scale(.08025)"/><use xlink:href="#aV" transform="translate(22.389)scale(.08025)"/><use xlink:href="#bb" transform="translate(38.438)scale(.08025)"/><use xlink:href="#bd" transform="translate(54.488)scale(.08025)"/></g><g id="y"><use xlink:href="#ak" transform="scale(.08025)"/><use xlink:href="#bh" transform="translate(9.55)scale(.08025)"/><use xlink:href="#aU" transform="translate(15.889)scale(.08025)"/><use xlink:href="#bc" transform="translate(22.228)scale(.08025)"/><use xlink:href="#aY" transform="translate(38.278)scale(.08025)"/><use xlink:href="#am" transform="translate(52.722)scale(.08025)"/></g><g id="A"><use xlink:href="#be" transform="scale(.08025)"/><use xlink:href="#bb" transform="translate(16.05)scale(.08025)"/><use xlink:href="#bd" transform="translate(32.099)scale(.08025)"/><use xlink:href="#aV" transform="translate(40.123)scale(.08025)"/><use xlink:href="#bb" transform="translate(56.173)scale(.08025)"/><use xlink:href="#bd" transform="translate(72.222)scale(.08025)"/></g><g id="B"><use xlink:href="#bi" transform="scale(.06173)"/><use xlink:href="#bj" transform="translate(14.815)scale(.06173)"/><use xlink:href="#aX" transform="translate(30.802)scale(.06173)"/><use xlink:href="#aZ" transform="translate(38.148)scale(.06173)"/><use xlink:href="#aV" transform="translate(49.26)scale(.06173)"/><use xlink:href="#bd" transform="translate(61.605)scale(.06173)"/><use xlink:href="#be" transform="translate(67.778)scale(.06173)"/></g><g id="D"><use xlink:href="#bh" transform="scale(.06173)"/><use xlink:href="#aU" transform="translate(4.877)scale(.06173)"/><use xlink:href="#bg" transform="translate(9.753)scale(.06173)"/><use xlink:href="#ah" transform="translate(22.099)scale(.06173)"/><use xlink:href="#be" transform="translate(33.21)scale(.06173)"/><use xlink:href="#bf" transform="translate(45.556)scale(.06173)"/><use xlink:href="#aU" transform="translate(57.901)scale(.06173)"/><use xlink:href="#bb" transform="translate(62.778)scale(.06173)"/><use xlink:href="#af" transform="translate(75.123)scale(.06173)"/></g><g id="E"><use xlink:href="#ah" transform="scale(.06173)"/><use xlink:href="#aZ" transform="translate(11.111)scale(.06173)"/><use xlink:href="#af" transform="translate(22.222)scale(.06173)"/><use xlink:href="#af" transform="translate(40.679)scale(.06173)"/><use xlink:href="#ag" transform="translate(59.136)scale(.06173)"/><use xlink:href="#bd" transform="translate(71.481)scale(.06173)"/><use xlink:href="#aX" transform="translate(77.654)scale(.06173)"/><use xlink:href="#aU" transform="translate(85)scale(.06173)"/><use xlink:href="#aT" transform="translate(89.877)scale(.06173)"/></g><g id="F"><use xlink:href="#aT" transform="scale(.06173)"/><use xlink:href="#aU" transform="translate(11.111)scale(.06173)"/><use xlink:href="#aV" transform="translate(15.988)scale(.06173)"/><use xlink:href="#aW" transform="translate(28.333)scale(.06173)"/><use xlink:href="#ag" transform="translate(40.679)scale(.06173)"/><use xlink:href="#aX" transform="translate(53.025)scale(.06173)"/></g><g id="G"><use xlink:href="#ak" transform="scale(.06173)"/><use xlink:href="#al" transform="translate(7.346)scale(.06173)"/><use xlink:href="#ai" transform="translate(22.16 3.111)scale(.04321)"/><use xlink:href="#bl" transform="translate(30.802 -6.222)scale(.04321)"/><use xlink:href="#bm" transform="translate(35.944 -6.222)scale(.04321)"/><use xlink:href="#am" transform="translate(44.586)scale(.06173)"/></g><g id="H"><use xlink:href="#aU" transform="scale(.08025)"/><use xlink:href="#bc" transform="translate(6.34)scale(.08025)"/><use xlink:href="#aU" transform="translate(22.389)scale(.08025)"/><use xlink:href="#bd" transform="translate(28.728)scale(.08025)"/></g><g id="I"><use xlink:href="#bn" transform="scale(.08025)"/><use xlink:href="#ag" transform="translate(14.444)scale(.08025)"/><use xlink:href="#aT" transform="translate(30.494)scale(.08025)"/><use xlink:href="#bd" transform="translate(44.938)scale(.08025)"/><use xlink:href="#be" transform="translate(52.963)scale(.08025)"/><use xlink:href="#aX" transform="translate(69.012)scale(.08025)"/></g><g id="J"><use xlink:href="#ak" transform="scale(.08025)"/><use xlink:href="#bc" transform="translate(9.55)scale(.08025)"/><use xlink:href="#bo" transform="translate(25.599 4.044)scale(.05617)"/><use xlink:href="#bp" transform="translate(31.216 4.044)scale(.05617)"/><use xlink:href="#am" transform="translate(44.698)scale(.08025)"/></g><g id="K"><use xlink:href="#ai" transform="scale(.08025)"/><use xlink:href="#bf" transform="translate(16.05)scale(.08025)"/><use xlink:href="#bf" transform="translate(32.099)scale(.08025)"/><use xlink:href="#aU" transform="translate(48.148)scale(.08025)"/><use xlink:href="#bd" transform="translate(54.488)scale(.08025)"/><use xlink:href="#aU" transform="translate(62.512)scale(.08025)"/><use xlink:href="#be" transform="translate(68.852)scale(.08025)"/><use xlink:href="#bc" transform="translate(84.901)scale(.08025)"/><use xlink:href="#ai" transform="translate(100.95)scale(.08025)"/><use xlink:href="#bh" transform="translate(117)scale(.08025)"/></g><g id="L"><use xlink:href="#bf" transform="scale(.08025)"/><use xlink:href="#ai" transform="translate(16.05)scale(.08025)"/><use xlink:href="#bd" transform="translate(32.099)scale(.08025)"/><use xlink:href="#ai" transform="translate(40.123)scale(.08025)"/></g><g id="M"><use xlink:href="#ak" transform="scale(.08025)"/><use xlink:href="#ai" transform="translate(9.55)scale(.08025)"/><use xlink:href="#bf" transform="translate(25.599)scale(.08025)"/><use xlink:href="#bq" transform="translate(41.648 4.044)scale(.05617)"/><use xlink:href="#am" transform="translate(55.13)scale(.08025)"/></g><g id="N"><use xlink:href="#ak" transform="scale(.08025)"/><use xlink:href="#ai" transform="translate(9.55)scale(.08025)"/><use xlink:href="#bf" transform="translate(25.599)scale(.08025)"/><use xlink:href="#br" transform="translate(41.648 4.044)scale(.05617)"/><use xlink:href="#am" transform="translate(53.95)scale(.08025)"/></g><g id="O"><use xlink:href="#aT" transform="scale(.08025)"/><use xlink:href="#be" transform="translate(14.444)scale(.08025)"/><use xlink:href="#af" transform="translate(30.494)scale(.08025)"/><use xlink:href="#af" transform="translate(54.488)scale(.08025)"/><use xlink:href="#aU" transform="translate(78.481)scale(.08025)"/><use xlink:href="#bd" transform="translate(84.821)scale(.08025)"/></g><g id="P"><use xlink:href="#aY" transform="scale(.08025)"/><use xlink:href="#ag" transform="translate(14.444)scale(.08025)"/><use xlink:href="#aZ" transform="translate(30.494)scale(.08025)"/></g><g id="Q"><use xlink:href="#ak" transform="scale(.08025)"/><use xlink:href="#aY" transform="translate(9.55)scale(.08025)"/><use xlink:href="#bj" transform="translate(23.994 4.044)scale(.05617)"/><use xlink:href="#am" transform="translate(38.543)scale(.08025)"/></g><g id="R"><use xlink:href="#ao" transform="scale(.05556)"/><use xlink:href="#bs" transform="translate(11.111)scale(.05556)"/></g><g id="S"><use xlink:href="#ao" transform="scale(.05556)"/><use xlink:href="#bt" transform="translate(11.111)scale(.05556)"/></g><g id="T"><use xlink:href="#bu" transform="scale(.05556)"/><use xlink:href="#bv" transform="translate(14.389)scale(.05556)"/></g><g id="U"><use xlink:href="#ao" transform="scale(.05556)"/><use xlink:href="#bw" transform="translate(11.111)scale(.05556)"/></g><g id="V"><use xlink:href="#bn" transform="scale(.08025)"/><use xlink:href="#ai" transform="translate(14.444)scale(.08025)"/><use xlink:href="#bh" transform="translate(30.494)scale(.08025)"/><use xlink:href="#aU" transform="translate(36.833)scale(.08025)"/><use xlink:href="#bf" transform="translate(43.173)scale(.08025)"/></g><g id="W"><use xlink:href="#ak" transform="scale(.08025)"/><use xlink:href="#bg" transform="translate(9.55)scale(.08025)"/><use xlink:href="#am" transform="translate(25.599)scale(.08025)"/></g><g id="X"><use xlink:href="#ao" transform="scale(.05556)"/><use xlink:href="#bx" transform="translate(11.111)scale(.05556)"/></g><g id="Y"><use xlink:href="#ag" transform="scale(.08025)"/><use xlink:href="#aX" transform="translate(16.05)scale(.08025)"/><use xlink:href="#aX" transform="translate(25.599)scale(.08025)"/><use xlink:href="#be" transform="translate(35.148)scale(.08025)"/><use xlink:href="#aX" transform="translate(51.198)scale(.08025)"/></g><g id="Z"><use xlink:href="#af" transform="scale(.08025)"/><use xlink:href="#ag" transform="translate(23.994)scale(.08025)"/><use xlink:href="#ah" transform="translate(40.043)scale(.08025)"/><use xlink:href="#ah" transform="translate(54.488)scale(.08025)"/><use xlink:href="#ai" transform="translate(68.932)scale(.08025)"/><use xlink:href="#aj" transform="translate(84.981)scale(.08025)"/><use xlink:href="#ag" transform="translate(101.03)scale(.08025)"/></g><g id="aa"><use xlink:href="#ak" transform="scale(.08025)"/><use xlink:href="#ag" transform="translate(9.55)scale(.08025)"/><use xlink:href="#aX" transform="translate(25.599)scale(.08025)"/><use xlink:href="#aX" transform="translate(35.148)scale(.08025)"/><use xlink:href="#am" transform="translate(44.698)scale(.08025)"/></g><g id="ab"><use xlink:href="#ao" transform="scale(.05556)"/><use xlink:href="#by" transform="translate(11.111)scale(.05556)"/></g><g id="ac"><use xlink:href="#bz" transform="scale(.05556)"/><use xlink:href="#bA" transform="translate(6.611)scale(.05556)"/><use xlink:href="#bv" transform="translate(17.722)scale(.05556)"/><use xlink:href="#bB" transform="translate(28.833)scale(.05556)"/><use xlink:href="#bC" transform="translate(39.944)scale(.05556)"/><use xlink:href="#bD" transform="translate(51.056)scale(.05556)"/></g><g id="ad"><use xlink:href="#ak" transform="scale(.08025)"/><use xlink:href="#bE" transform="translate(9.55)scale(.08025)"/><use xlink:href="#am" transform="translate(28.809)scale(.08025)"/></g><g id="ae"><use xlink:href="#bF" transform="scale(.05556)"/><use xlink:href="#bC" transform="translate(11.5)scale(.05556)"/><use xlink:href="#bG" transform="translate(22.611)scale(.05556)"/></g><use xlink:href="#aS" id="n" transform="scale(.09877)"/><use xlink:href="#bk" id="C" transform="scale(.06173)"/></defs></g></svg>