<svg xmlns="http://www.w3.org/2000/svg" xmlns:xlink="http://www.w3.org/1999/xlink" width="1524" height="1289" viewBox="0 0 1524 1289"><g transform="translate(-78 1060)"><path fill="none" stroke="#008a0e" stroke-width="4" d="M120-788a12 12 0 0 1 12-12h1416a12 12 0 0 1 12 12V28a12 12 0 0 1-12 12H132a12 12 0 0 1-12-12z"/><path fill="#fff" stroke="#3a414a" d="M779.85-288a12 12 0 0 1 12-12h196a12 12 0 0 1 12 12v76a12 12 0 0 1-12 12h-196a12 12 0 0 1-12-12z"/><path fill="none" d="M779.85-300h220v40h-220z"/><use xlink:href="#a" transform="translate(824.11 -275.347)"/><use xlink:href="#b" transform="translate(875.468 -275.347)"/><path fill="none" stroke="#3a414a" stroke-width="2" d="M780.85-260h218.5m-218.47 0h-1.03m219.48 0h1.02"/><path fill="none" d="M779.85-260h220v60h-220z"/><use xlink:href="#c" transform="translate(846.703 -236.832)"/><use xlink:href="#d" transform="translate(869.326 -210.165)"/><path fill="none" d="M1002.7-922.5h53.74v40h-53.75z"/><use xlink:href="#e" transform="translate(1010.51 -893.92)"/><path fill="#f4d9ff" stroke="#3a414a" d="M241.83-320H440.5l-21.33 80H220.5z" class="qc-clickable" data-target="12"/><use xlink:href="#f" transform="translate(312.576 -291.057)"/><use xlink:href="#g" transform="translate(301.69 -256.39)"/><path fill="#979ea8" stroke="#979ea8" stroke-width=".05" d="M890.83-318.5h-1.95v-19.22h1.95zm0-43.22h-1.95v-36.72h1.95z"/><path fill="#979ea8" d="M890.83-398.42h-1.95v-1.5l.97.48.98-.5zm-.98 95.18-4.63-14.26h9.27z"/><path fill="#979ea8" stroke="#979ea8" stroke-width=".05" d="m889.85-300.08-5.98-18.4h11.96zm-3.3-16.45 3.3 10.14 3.3-10.13z"/><use xlink:href="#h" transform="translate(878.745 -345.72)"/><path fill="#979ea8" stroke="#979ea8" stroke-width=".05" d="M1030.97-699h-1.94v-45.46h1.94zm-.43-83.22.12.06.3.6v13.1h-1.94v-12.35l-.24-.2-.2-.56v-99.94h1.96z"/><path fill="#979ea8" d="M1030.54-881.47h-1.95v-1.03h1.94zm-.54 197.73-4.63-14.26h9.27z"/><path fill="#979ea8" stroke="#979ea8" stroke-width=".05" d="m1030-680.58-5.98-18.4h11.96zm-3.3-16.45 3.3 10.14 3.3-10.13z"/><use xlink:href="#i" transform="translate(1018.894 -752.46)"/><path fill="#f4d9ff" stroke="#3a414a" d="M241.83-440H440.5l-21.33 80H220.5z" class="qc-clickable" data-target="12"/><use xlink:href="#j" transform="translate(268.44 -411.057)"/><use xlink:href="#k" transform="translate(330.953 -411.057)"/><use xlink:href="#l" transform="translate(305.261 -376.39)"/><path fill="#979ea8" stroke="#979ea8" stroke-width=".05" d="m883.9-540.98 1.04.1 1.07.24 1.02.42.93.58.83.7.72.84.57.93.42 1 .24 1.08.1 1.06V-459h-1.96v-74.96l-.07-.83-.17-.75-.3-.73-.42-.67-.5-.6-.6-.5-.67-.43-.73-.3-.76-.18-.83-.06h-97.74V-541zm-372.86-4.23.18.75.3.73.42.67.5.6.6.5.68.43.73.3.76.18.84.06h247.8v1.96H515.96l-1.05-.1-1.06-.24-1-.42-.94-.58-.83-.7-.7-.84-.6-.93-.4-1-.26-1.08-.08-1.06v-60.87H511v60.8z"/><path fill="#979ea8" d="M510.98-606.8h-1.96v-1.03h1.96zm378.87 163.06L885.22-458h9.27z"/><path fill="#979ea8" stroke="#979ea8" stroke-width=".05" d="m889.85-440.58-5.98-18.4h11.96zm-3.3-16.45 3.3 10.14 3.3-10.13z"/><use xlink:href="#m" transform="translate(763.842 -536)"/><path fill="#979ea8" stroke="#979ea8" stroke-width=".05" d="M977.6-559.02h-21.7l-.83.06-.77.18-.73.3-.67.42-.6.5-.5.6-.42.68-.3.73-.2.76-.05.84V-459h-1.95v-95.04l.08-1.05.25-1.06.43-1 .58-.94.72-.83.83-.72.93-.57 1-.42 1.08-.25 1.05-.08h21.8zm53.37-6.94-.08 1.05-.26 1.06-.42 1-.58.94-.7.83-.84.72-.93.57-1 .42-1.08.25-1.06.08h-24.2V-561h24.12l.83-.06.75-.18.73-.3.67-.42.6-.5.5-.6.42-.68.3-.73.2-.76.06-.84v-32.46h1.94z"/><path fill="#979ea8" d="M1030.97-598.47h-1.94v-1.03h1.94zm-81.12 154.73L945.22-458h9.27z"/><path fill="#979ea8" stroke="#979ea8" stroke-width=".05" d="m949.85-440.58-5.98-18.4h11.96zm-3.3-16.45 3.3 10.14 3.3-10.13z"/><use xlink:href="#m" transform="translate(977.613 -556)"/><path fill="#ffcf99" stroke="#3a414a" d="M802.18-100h198.67l-21.33 80H780.85z"/><use xlink:href="#n" transform="translate(829.634 -71.057)"/><use xlink:href="#o" transform="translate(916.14 -71.057)"/><use xlink:href="#p" transform="translate(855.569 -36.39)"/><path fill="#f4d9ff" stroke="#3a414a" d="M1281.33-320H1480l-21.33 80H1260z" class="qc-clickable" data-target="12"/><use xlink:href="#q" transform="translate(1283.946 -291.615)"/><use xlink:href="#r" transform="translate(1394.446 -291.615)"/><use xlink:href="#s" transform="translate(1352.786 -256.949)"/><path fill="#979ea8" stroke="#979ea8" stroke-width=".05" d="M630.8-279.02H431.36v-1.96H630.8zm130.05 0H653.03v-1.96h107.82z"/><path fill="#979ea8" d="M431.38-279.02h-1.3l.53-1.96h.78zM776.1-280l-14.25 4.63v-9.26z"/><path fill="#979ea8" stroke="#979ea8" stroke-width=".05" d="m779.27-280-18.4 5.98v-11.96zm-16.45 3.3 10.14-3.3-10.14-3.3z"/><use xlink:href="#h" transform="translate(630.817 -276)"/><path fill="none" stroke="#1071e5" d="M809.85-440h160l-80 40z"/><path fill="#979ea8" stroke="#979ea8" stroke-width=".05" d="M1123.9-279.02h-105.55v-1.96h105.54zm145.25 0H1146.1v-1.96h123.05z"/><path fill="#979ea8" d="M1269.9-279.02h-.78v-1.96h1.3zm-252.55 3.65L1003.1-280l14.25-4.63z"/><path fill="#979ea8" stroke="#979ea8" stroke-width=".05" d="m1018.33-274.02-18.4-5.98 18.4-5.98zm-12.1-5.98 10.15 3.3v-6.6z"/><use xlink:href="#h" transform="translate(1123.894 -276)"/><path fill="#979ea8" stroke="#979ea8" stroke-width=".05" d="M890.83-119h-1.95v-19.25h1.95zm0-43.25h-1.95V-199h1.95z"/><path fill="#979ea8" d="M890.83-198.97h-1.95V-200h1.95zm-.98 95.23L885.22-118h9.27z"/><path fill="#979ea8" stroke="#979ea8" stroke-width=".05" d="m889.85-100.58-5.98-18.4h11.96zm-3.3-16.45 3.3 10.14 3.3-10.13z"/><use xlink:href="#t" transform="translate(878.745 -146.25)"/><path fill="#979ea8" stroke="#979ea8" stroke-width=".05" d="M672.35-499.02H476.4l-.83.06-.77.18-.73.3-.67.42-.6.5-.5.6-.42.68-.3.73-.2.76-.05.84v88l-.1 1.05-.24 1.06-.43 1-.57.94-.7.83-.85.7-.93.6-1 .4-1.08.26-1.05.08h-33.05v-1.96h32.96l.84-.06.76-.18.73-.3.67-.42.6-.5.5-.6.43-.68.3-.73.18-.76.08-.84v-88l.08-1.05.25-1.06.43-1 .57-.94.72-.83.83-.7.93-.6 1-.4 1.08-.26 1.05-.08h196.05zm151.6-1.87 1.06.26 1.02.42.93.58.83.7.72.84.57.93.42 1 .24 1.08.1 1.06V-459h-1.96v-34.96l-.07-.83-.17-.75-.3-.73-.42-.67-.5-.6-.6-.5-.67-.43-.73-.3-.76-.18-.83-.06H694.58v-1.96H822.9z"/><path fill="#979ea8" d="M431.38-399.02h-1.3l.53-1.96h.78zm397.47-44.72L824.22-458h9.27z"/><path fill="#979ea8" stroke="#979ea8" stroke-width=".05" d="m828.85-440.58-5.98-18.4h11.96zm-3.3-16.45 3.3 10.14 3.3-10.13z"/><use xlink:href="#m" transform="translate(672.35 -496)"/><path fill="#008a0e" d="M120-788a12 12 0 0 1 12-12h416a12 12 0 0 1 12 12v39.33a12 12 0 0 1-12 12H132a12 12 0 0 1-12-12z"/><use xlink:href="#u" transform="translate(137.738 -762.186)"/><use xlink:href="#v" transform="translate(204.503 -762.186)"/><use xlink:href="#w" transform="translate(315.003 -762.186)"/><use xlink:href="#x" transform="translate(374.225 -762.186)"/><use xlink:href="#y" transform="translate(503.904 -762.186)"/><path fill="#454545" d="M1019.7-971.68h6.92c1.65 0 3.2-.1 4.85-.1 13.08-.27 23.74.65 33.7 10.1 5.9 6.9 8.05 14.43 8.14 23.34v2.2c0 1.93-.08 3.86-.25 5.7-2.5 2.57-3.98 2.3-7.36 2.3h-71.23c-5.2 0-5.2 0-7.36-2.3-1.2-11.76-.1-21.3 7.63-30.77 6.84-7.27 15.15-10.4 24.94-10.48zm20.78-46.12c5.72 3.4 9.1 8.18 11.1 14.33 1.55 6.34.68 11.12-2.18 16.9-2.86 4.6-7.27 8.18-12.3 10.1-7.36.93-14.3 1.2-20.44-3.48-5.46-5.05-8.23-9.65-8.92-17.18.17-5.97 2.08-11.66 5.98-16.16 7.44-6.6 17.5-8.72 26.76-4.5z"/><path fill="#dfe3e8" d="M120-1002.45a17.55 17.55 0 0 1 17.55-17.55h184.9a17.55 17.55 0 0 1 17.55 17.55v140.4a17.55 17.55 0 0 1-17.55 17.55h-184.9A17.55 17.55 0 0 1 120-862.05z"/><use xlink:href="#z" transform="translate(140 -967.556)"/><use xlink:href="#A" transform="translate(140 -924.889)"/><use xlink:href="#B" transform="translate(246.47 -924.889)"/><use xlink:href="#C" transform="translate(140 -882.222)"/><path fill="#f4d9ff" stroke="#3a414a" d="M241.33-560H440l-21.33 80H220z" class="qc-clickable" data-target="10"/><use xlink:href="#D" transform="translate(276.005 -531.057)"/><use xlink:href="#E" transform="translate(376.956 -531.057)"/><use xlink:href="#F" transform="translate(308.733 -496.39)"/><path fill="#979ea8" stroke="#979ea8" stroke-width=".05" d="m852.94-520.9 1.07.26 1.02.42.93.58.83.7.72.84.57.93.42 1 .24 1.08.1 1.06V-459h-1.96v-54.96l-.07-.83-.17-.75-.3-.73-.42-.67-.5-.6-.6-.5-.67-.43-.73-.3-.76-.18-.83-.06H739.64V-521H851.9zm-422.1 1.9v-2h286.57v1.96z"/><path fill="#979ea8" d="M430.88-519.02h-1.3l.53-1.96h.78zm426.97 75.28L853.22-458h9.27z"/><path fill="#979ea8" stroke="#979ea8" stroke-width=".05" d="m857.85-440.58-5.98-18.4h11.96zm-3.3-16.45 3.3 10.14 3.3-10.13z"/><use xlink:href="#m" transform="translate(717.413 -516)"/><path fill="#979ea8" stroke="#979ea8" stroke-width=".05" d="m914.9-560.98 1.04.1 1.07.24 1.02.42.93.58.83.7.72.84.57.93.42 1 .24 1.08.1 1.06V-459h-1.96v-94.96l-.07-.83-.17-.75-.3-.73-.42-.67-.5-.6-.6-.5-.67-.43-.73-.3-.76-.18-.83-.06h-89.14V-561zm-143.86-4.23.18.75.3.73.42.67.5.6.6.5.68.43.73.3.76.18.84.06h27.4v1.96h-27.48l-1.05-.1-1.06-.24-1-.42-.94-.58-.83-.7-.72-.84-.57-.93-.42-1-.25-1.08-.08-1.06v-40.87H771v40.8z"/><path fill="#979ea8" d="M770.98-606.8H769v-1.03h2zm149.87 163.06L916.22-458h9.27z"/><path fill="#979ea8" stroke="#979ea8" stroke-width=".05" d="m920.85-440.58-5.98-18.4h11.96zm-3.3-16.45 3.3 10.14 3.3-10.13z"/><use xlink:href="#m" transform="translate(803.443 -556)"/><path fill="#cfe682" stroke="#3a414a" d="M127.73 65h51.44l-7.74 29H120z"/><path fill="#cfe4ff" stroke="#3a414a" d="M127.73 161.5h51.44l-7.74 29H120z"/><path fill="#fff7a1" stroke="#3a414a" d="M127.73 113.25h51.44l-7.74 29H120z"/><path fill="none" d="M200 60h225.93v38.67H200z"/><use xlink:href="#G" transform="translate(205 88.564)"/><use xlink:href="#H" transform="translate(269.117 88.564)"/><path fill="none" d="M200 108.5h240v38.67H200z"/><use xlink:href="#G" transform="translate(205 137.064)"/><use xlink:href="#I" transform="translate(269.117 137.064)"/><path fill="none" d="M200 157.67h240v38.66H200z"/><use xlink:href="#J" transform="translate(205 186.23)"/><use xlink:href="#K" transform="translate(278.747 186.23)"/><path fill="#f4d9ff" stroke="#3a414a" d="M507.73 68.83h51.44l-7.74 29H500z"/><path fill="none" d="M580 65h340v36.67H580z"/><use xlink:href="#L" transform="translate(585 93.111)"/><use xlink:href="#M" transform="translate(740.599 93.111)"/><use xlink:href="#N" transform="translate(811.136 93.111)"/><use xlink:href="#O" transform="translate(585 127.778)"/><path fill="#ffcf99" stroke="#3a414a" d="M507.73 117.08h51.44l-7.74 29H500z"/><path fill="none" d="M580 113.25h260v36.67H580z"/><use xlink:href="#L" transform="translate(585 141.361)"/><use xlink:href="#P" transform="translate(740.599 141.361)"/><use xlink:href="#O" transform="translate(585 176.028)"/><path fill="#f4d9ff" stroke="#3a414a" d="M1281.33-680H1480l-21.33 80H1260z" class="qc-clickable" data-target="17"/><use xlink:href="#Q" transform="translate(1351.274 -651.057)"/><use xlink:href="#R" transform="translate(1347.93 -616.39)"/><path fill="#979ea8" stroke="#979ea8" stroke-width=".05" d="m1371.76-974.97 1.06.26 1.02.4.93.58.83.7.7.85.58.93.42 1 .26 1.08.08 1.05v286.6h-1.95v-286.53l-.07-.83-.2-.76-.3-.73-.4-.67-.5-.6-.6-.52-.68-.4-.73-.3-.77-.2-.82-.06h-135.26v-1.95h135.34zm-279.95 1.87v-1.95h121.35v1.95z"/><path fill="#979ea8" d="M1377.64-680.5h-1.95v-1.03h1.94zM1090.8-969.44l-14.25-4.63 14.26-4.64z"/><path fill="#979ea8" stroke="#979ea8" stroke-width=".05" d="m1091.8-968.1-18.4-5.97 18.4-5.98zm-12.1-5.97 10.14 3.3v-6.6z"/><use xlink:href="#S" transform="translate(1213.155 -970.073)"/><path fill="#f4d9ff" stroke="#3a414a" d="M681.33-688.33H880l-21.33 80H660z" class="qc-clickable" data-target="0f"/><use xlink:href="#G" transform="translate(679.474 -658.003)"/><use xlink:href="#T" transform="translate(743.591 -658.003)"/><use xlink:href="#U" transform="translate(740.157 -623.337)"/><path fill="#f4d9ff" stroke="#3a414a" d="M421.33-688.33H620l-21.33 80H400z" class="qc-clickable" data-target="12"/><use xlink:href="#V" transform="translate(455.283 -659.39)"/><use xlink:href="#W" transform="translate(487.93 -624.724)"/><path fill="#cfe682" stroke="#3a414a" d="M941.33-680H1140l-21.33 80H920z"/><use xlink:href="#X" transform="translate(972.795 -651.057)"/><use xlink:href="#Y" transform="translate(1007.93 -616.39)"/><path fill="#fff7a1" stroke="#3a414a" d="M1408.73-636.33h51.44l-7.74 29H1401z"/><defs><path id="Z" fill="#3a414a" d="M266 0h-40l-56-210L115 0H75L2-248h35L96-30l15-64 43-154h32l59 218 59-218h35"/><path id="aa" fill="#3a414a" d="M100-194c63 0 86 42 84 106H49c0 40 14 67 53 68 26 1 43-12 49-29l28 8c-11 28-37 45-77 45C44 4 14-33 15-96c1-61 26-98 85-98m52 81c6-60-76-77-97-28-3 7-6 17-6 28z"/><path id="ab" fill="#3a414a" d="M115-194c53 0 69 39 70 98 0 66-23 100-70 100C84 3 66-7 56-30L54 0H23l1-261h32v101c10-23 28-34 59-34m-8 174c40 0 45-34 45-75 0-40-5-75-45-74-42 0-51 32-51 76 0 43 10 73 51 73"/><path id="ac" fill="#3a414a" d="M185-189c-5-48-123-54-124 2 14 75 158 14 163 119 3 78-121 87-175 55-17-10-28-26-33-46l33-7c5 56 141 63 141-1 0-78-155-14-162-118-5-82 145-84 179-34 5 7 8 16 11 25"/><path id="ad" fill="#3a414a" d="M212-179c-10-28-35-45-73-45-59 0-87 40-87 99 0 60 29 101 89 101 43 0 62-24 78-52l27 14C228-24 195 4 139 4 59 4 22-46 18-125c-6-104 99-153 187-111 19 9 31 26 39 46"/><path id="ae" fill="#3a414a" d="M114-163C36-179 61-72 57 0H25l-1-190h30c1 12-1 29 2 39 6-27 23-49 58-41z"/><path id="af" fill="#3a414a" d="M179-190 93 31C79 59 56 82 12 73V49c39 6 53-20 64-50L1-190h34L92-34l54-156z"/><path id="ag" fill="#3a414a" d="M115-194c55 1 70 41 70 98S169 2 115 4C84 4 66-9 55-30l1 105H24l-1-265h31l2 30c10-21 28-34 59-34m-8 174c40 0 45-34 45-75s-6-73-45-74c-42 0-51 32-51 76 0 43 10 73 51 73"/><path id="ah" fill="#3a414a" d="M59-47c-2 24 18 29 38 22v24C64 9 27 4 27-40v-127H5v-23h24l9-43h21v43h35v23H59z"/><path id="ai" fill="#3a414a" d="M100-194c62-1 85 37 85 99 1 63-27 99-86 99S16-35 15-95c0-66 28-99 85-99M99-20c44 1 53-31 53-75 0-43-8-75-51-75s-53 32-53 75 10 74 51 75"/><path id="aj" fill="#3a414a" d="M30-248c87 1 191-15 191 75 0 78-77 80-158 76V0H30zm33 125c57 0 124 11 124-50 0-59-68-47-124-48z"/><path id="ak" fill="#3a414a" d="M160-131c35 5 61 23 61 61C221 17 115-2 30 0v-248c76 3 177-17 177 60 0 33-19 50-47 57m-97-11c50-1 110 9 110-42 0-47-63-36-110-37zm0 115c55-2 124 14 124-45 0-56-70-42-124-44z"/><path id="al" fill="#3a414a" d="M194 0 95-120 63-95V0H30v-248h33v124l119-124h40L117-140 236 0z"/><path id="am" fill="#3a414a" d="M30-248c118-7 216 8 213 122C240-48 200 0 122 0H30zM63-27c89 8 146-16 146-99s-60-101-146-95z"/><path id="an" fill="#3a414a" d="M63-220v92h138v28H63V0H30v-248h175v28z"/><path id="ao" fill="#3a414a" d="M101-251c82-7 93 87 43 132L82-64C71-53 59-42 53-27h129V0H18c2-99 128-94 128-182 0-28-16-43-45-43s-46 15-49 41l-32-3c6-41 34-60 81-64"/><path id="ap" fill="#3a414a" d="M87 75C49 33 22-17 22-94c0-76 28-126 65-167h31c-38 41-64 92-64 168S80 34 118 75z"/><path id="aq" fill="#3a414a" d="M33-261c38 41 65 92 65 168S71 34 33 75H2C39 34 66-17 66-93S39-220 2-261z"/><path id="ar" fill="#3a414a" d="m205 0-28-72H64L36 0H1l101-248h38L239 0zm-38-99-47-123c-12 45-31 82-46 123z"/><path id="as" fill="#3a414a" d="M135-143c-3-34-86-38-87 0 15 53 115 12 119 90S17 21 10-45l28-5c4 36 97 45 98 0-10-56-113-15-118-90-4-57 82-63 122-42 12 7 21 19 24 35"/><path id="at" fill="#3a414a" d="M141-36C126-15 110 5 73 4 37 3 15-17 15-53c-1-64 63-63 125-63 3-35-9-54-41-54-24 1-41 7-42 31l-33-3c5-37 33-52 76-52 45 0 72 20 72 64v82c-1 20 7 32 28 27v20c-31 9-61-2-59-35M48-53c0 20 12 33 32 33 41-3 63-29 60-74-43 2-92-5-92 41"/><path id="au" fill="#3a414a" d="M24 0v-261h32V0z"/><path id="av" fill="#3a414a" d="M117-194c89-4 53 116 60 194h-32v-121c0-31-8-49-39-48C34-167 62-67 57 0H25l-1-190h30c1 10-1 24 2 32 11-22 29-35 61-36"/><path id="aw" fill="#333" d="M101-251c82-7 93 87 43 132L82-64C71-53 59-42 53-27h129V0H18c2-99 128-94 128-182 0-28-16-43-45-43s-46 15-49 41l-32-3c6-41 34-60 81-64"/><path id="ax" fill="#333" d="M99-251c64 0 84 50 84 122C183-37 130 33 47-8c-14-7-20-23-25-40l30-5c6 39 69 39 84 7 9-19 16-44 16-74-10 22-31 35-62 35-49 0-73-33-73-83 0-54 28-83 82-83m-1 141c31-1 51-18 51-49 0-36-14-67-51-67-34 0-49 23-49 58 0 34 15 58 49 58"/><path id="ay" fill="#333" d="M64 0c3-98 48-159 88-221H18v-27h164v26C143-157 98-101 97 0z"/><path id="az" fill="#3a414a" d="M96-169c-40 0-48 33-48 73s9 75 48 75c24 0 41-14 43-38l32 2c-6 37-31 61-74 61-59 0-76-41-82-99-10-93 101-131 147-64 4 7 5 14 7 22l-32 3c-4-21-16-35-41-35"/><path id="aA" fill="#3a414a" d="M84 4C-5 8 30-112 23-190h32v120c0 31 7 50 39 49 72-2 45-101 50-169h31l1 190h-30c-1-10 1-25-2-33-11 22-28 36-60 37"/><path id="aB" fill="#333" d="M134-131c28 9 52 24 51 62-1 50-34 73-85 73S17-19 16-69c0-36 21-54 49-61-75-25-45-126 34-121 46 3 78 18 79 63 0 33-17 51-44 57m-34-11c31 1 46-15 46-44 0-28-17-43-47-42-29 0-46 13-45 42 1 28 16 44 46 44m1 122c35 0 51-18 51-52 0-30-18-46-53-46-33 0-51 17-51 47 0 34 19 51 53 51"/><path id="aC" fill="#3a414a" d="M24-231v-30h32v30zM24 0v-190h32V0z"/><path id="aD" fill="#3a414a" d="M106-169C34-169 62-67 57 0H25v-261h32l-1 103c12-21 28-36 61-36 89 0 53 116 60 194h-32v-121c2-32-8-49-39-48"/><path id="aE" fill="#3a414a" d="M143 0 79-87 56-68V0H24v-261h32v163l83-92h37l-77 82L181 0z"/><path id="aF" fill="#3a414a" d="m240 0 2-218c-23 76-54 145-80 218h-23L58-218 59 0H30v-248h44l77 211c21-75 51-140 76-211h43V0z"/><path id="aG" fill="#3a414a" d="M101-251c68 0 85 55 85 127S166 4 100 4C33 4 14-52 14-124c0-73 17-127 87-127m-1 229c47 0 54-49 54-102s-4-102-53-102c-51 0-55 48-55 102 0 53 5 102 54 102"/><path id="aH" fill="#333" d="M126-127c33 6 58 20 58 59 0 88-139 92-164 29-3-8-5-16-6-25l32-3c6 27 21 44 54 44 32 0 52-15 52-46 0-38-36-46-79-43v-28c39 1 72-4 72-42 0-27-17-43-46-43-28 0-47 15-49 41l-32-3c6-42 35-63 81-64 48-1 79 21 79 65 0 36-21 52-52 59"/><path id="aI" fill="#333" d="M101-251c68 0 85 55 85 127S166 4 100 4C33 4 14-52 14-124c0-73 17-127 87-127m-1 229c47 0 54-49 54-102s-4-102-53-102c-51 0-55 48-55 102 0 53 5 102 54 102"/><path id="aJ" fill="#fff" d="M266 0h-40l-56-210L115 0H75L2-248h35L96-30l15-64 43-154h32l59 218 59-218h35"/><path id="aK" fill="#fff" d="M100-194c63 0 86 42 84 106H49c0 40 14 67 53 68 26 1 43-12 49-29l28 8c-11 28-37 45-77 45C44 4 14-33 15-96c1-61 26-98 85-98m52 81c6-60-76-77-97-28-3 7-6 17-6 28z"/><path id="aL" fill="#fff" d="M115-194c53 0 69 39 70 98 0 66-23 100-70 100C84 3 66-7 56-30L54 0H23l1-261h32v101c10-23 28-34 59-34m-8 174c40 0 45-34 45-75 0-40-5-75-45-74-42 0-51 32-51 76 0 43 10 73 51 73"/><path id="aM" fill="#fff" d="M114-163C36-179 61-72 57 0H25l-1-190h30c1 12-1 29 2 39 6-27 23-49 58-41z"/><path id="aN" fill="#fff" d="M100-194c62-1 85 37 85 99 1 63-27 99-86 99S16-35 15-95c0-66 28-99 85-99M99-20c44 1 53-31 53-75 0-43-8-75-51-75s-53 32-53 75 10 74 51 75"/><path id="aO" fill="#fff" d="M206 0h-36l-40-164L89 0H53L-1-190h32L70-26l43-164h34l41 164 42-164h31"/><path id="aP" fill="#fff" d="M135-143c-3-34-86-38-87 0 15 53 115 12 119 90S17 21 10-45l28-5c4 36 97 45 98 0-10-56-113-15-118-90-4-57 82-63 122-42 12 7 21 19 24 35"/><path id="aQ" fill="#fff" d="M24-231v-30h32v30zM24 0v-190h32V0z"/><path id="aR" fill="#fff" d="M59-47c-2 24 18 29 38 22v24C64 9 27 4 27-40v-127H5v-23h24l9-43h21v43h35v23H59z"/><path id="aS" fill="#fff" d="M106-169C34-169 62-67 57 0H25v-261h32l-1 103c12-21 28-36 61-36 89 0 53 116 60 194h-32v-121c2-32-8-49-39-48"/><path id="aT" fill="#fff" d="M24 0v-261h32V0z"/><path id="aU" fill="#fff" d="M85-194c31 0 48 13 60 33l-1-100h32l1 261h-30c-2-10 0-23-3-31C134-8 116 4 85 4 32 4 16-35 15-94c0-66 23-100 70-100m9 24c-40 0-46 34-46 75 0 40 6 74 45 74 42 0 51-32 51-76 0-42-9-74-50-73"/><path id="aV" fill="#fff" d="M84 4C-5 8 30-112 23-190h32v120c0 31 7 50 39 49 72-2 45-101 50-169h31l1 190h-30c-1-10 1-25-2-33-11 22-28 36-60 37"/><path id="aW" fill="#fff" d="M210-169c-67 3-38 105-44 169h-31v-121c0-29-5-50-35-48C34-165 62-65 56 0H25l-1-190h30c1 10-1 24 2 32 10-44 99-50 107 0 11-21 27-35 58-36 85-2 47 119 55 194h-31v-121c0-29-5-49-35-48"/><path id="aX" fill="#fff" d="M87 75C49 33 22-17 22-94c0-76 28-126 65-167h31c-38 41-64 92-64 168S80 34 118 75z"/><path id="aY" fill="#fff" d="M160-131c35 5 61 23 61 61C221 17 115-2 30 0v-248c76 3 177-17 177 60 0 33-19 50-47 57m-97-11c50-1 110 9 110-42 0-47-63-36-110-37zm0 115c55-2 124 14 124-45 0-56-70-42-124-44z"/><path id="aZ" fill="#fff" d="M33-261c38 41 65 92 65 168S71 34 33 75H2C39 34 66-17 66-93S39-220 2-261z"/><path id="ba" fill="#3a414a" d="M24-248c120-7 223 5 221 122C244-46 201 0 124 0H24zM76-40c74 7 117-18 117-86 0-67-45-88-117-82z"/><path id="bb" fill="#3a414a" d="M185-48c-13 30-37 53-82 52C43 2 14-33 14-96s30-98 90-98c62 0 83 45 84 108H66c0 31 8 55 39 56 18 0 30-7 34-22zm-45-69c5-46-57-63-70-21-2 6-4 13-4 21z"/><path id="bc" fill="#3a414a" d="M135-150c-39-12-60 13-60 57V0H25l-1-190h47c2 13-1 29 3 40 6-28 27-53 61-41z"/><path id="bd" fill="#3a414a" d="M25-224v-37h50v37zM25 0v-190h50V0z"/><path id="be" fill="#3a414a" d="M128 0H69L1-190h53L99-40l48-150h52"/><path id="bf" fill="#3a414a" d="M182-130c37 4 62 22 62 59C244 23 116-4 24 0v-248c84 5 203-23 205 63 0 31-19 50-47 55M76-148c40-3 101 13 101-30 0-44-60-28-101-31zm0 110c48-3 116 14 116-37 0-48-69-32-116-35z"/><path id="bg" fill="#3a414a" d="M25 0v-261h50V0z"/><path id="bh" fill="#3a414a" d="M110-194c64 0 96 36 96 99 0 64-35 99-97 99-61 0-95-36-95-99 0-62 34-99 96-99m-1 164c35 0 45-28 45-65 0-40-10-65-43-65-34 0-45 26-45 65 0 36 10 65 43 65"/><path id="bi" fill="#3a414a" d="M190-63c-7 42-38 67-86 67-59 0-84-38-90-98-12-110 154-137 174-36l-49 2c-2-19-15-32-35-32-30 0-35 28-38 64-6 74 65 87 74 30"/><path id="bj" fill="#3a414a" d="M147 0 96-86 75-71V0H25v-261h50v150l67-79h53l-66 74L201 0z"/><path id="bk" fill="#3a414a" d="M101-251c68 0 84 54 84 127C185-50 166 4 99 4S15-52 14-124c-1-75 17-127 87-127m-1 216c37-5 36-46 36-89s4-89-36-89c-39 0-36 45-36 89 0 43-3 85 36 89"/><path id="bl" fill="#3a414a" d="m195 0-88-114-31 24V0H24v-248h52v113l112-113h60L142-143 257 0z"/><path id="bm" fill="#3a414a" d="M123 10C108 53 80 86 19 72V37c35 8 53-11 59-39L3-190h52l48 148c12-52 28-100 44-148h51"/><path id="bn" fill="#3a414a" d="M108 0H70L1-190h34L89-25l56-165h34"/><path id="bo" fill="#3a414a" d="M64 0c3-98 48-159 88-221H18v-27h164v26C143-157 98-101 97 0z"/><path id="bp" fill="#3a414a" d="M85-194c31 0 48 13 60 33l-1-100h32l1 261h-30c-2-10 0-23-3-31C134-8 116 4 85 4 32 4 16-35 15-94c0-66 23-100 70-100m9 24c-40 0-46 34-46 75 0 40 6 74 45 74 42 0 51-32 51-76 0-42-9-74-50-73"/><path id="bq" fill="#333" d="M110-160c48 1 74 30 74 79 0 53-28 85-80 85-65 0-83-55-86-122-5-90 50-162 133-122 14 7 22 21 27 39l-31 6c-5-40-67-38-82-6-9 19-15 44-15 74 11-20 30-34 60-33m-7 138c34 0 49-23 49-58s-16-56-50-56c-29 0-50 16-49 49 1 36 15 65 50 65"/><path id="br" fill="#3a414a" d="M177-190C167-65 218 103 67 71c-23-6-38-20-44-43l32-5c15 47 100 32 89-28v-30C133-14 115 1 83 1 29 1 15-40 15-95c0-56 16-97 71-98 29-1 48 16 59 35 1-10 0-23 2-32zM94-22c36 0 50-32 50-73 0-42-14-75-50-75-39 0-46 34-46 75s6 73 46 73"/><path id="bs" fill="#3a414a" d="M210-169c-67 3-38 105-44 169h-31v-121c0-29-5-50-35-48C34-165 62-65 56 0H25l-1-190h30c1 10-1 24 2 32 10-44 99-50 107 0 11-21 27-35 58-36 85-2 47 119 55 194h-31v-121c0-29-5-49-35-48"/><path id="bt" fill="#3a414a" d="M206 0h-36l-40-164L89 0H53L-1-190h32L70-26l43-164h34l41 164 42-164h31"/><g id="a"><use xlink:href="#Z" transform="scale(.06173)"/><use xlink:href="#aa" transform="translate(20.494)scale(.06173)"/><use xlink:href="#ab" transform="translate(32.84)scale(.06173)"/></g><g id="b"><use xlink:href="#ac" transform="scale(.06173)"/><use xlink:href="#ad" transform="translate(14.815)scale(.06173)"/><use xlink:href="#ae" transform="translate(30.802)scale(.06173)"/><use xlink:href="#af" transform="translate(38.148)scale(.06173)"/><use xlink:href="#ag" transform="translate(49.26)scale(.06173)"/><use xlink:href="#ah" transform="translate(61.605)scale(.06173)"/><use xlink:href="#ai" transform="translate(67.778)scale(.06173)"/></g><g id="c"><use xlink:href="#aj" transform="scale(.06173)"/><use xlink:href="#ak" transform="translate(14.815)scale(.06173)"/><use xlink:href="#al" transform="translate(29.63)scale(.06173)"/><use xlink:href="#am" transform="translate(44.444)scale(.06173)"/><use xlink:href="#an" transform="translate(60.432)scale(.06173)"/><use xlink:href="#ao" transform="translate(73.95)scale(.06173)"/></g><g id="d"><use xlink:href="#ap" transform="scale(.06173)"/><use xlink:href="#am" transform="translate(7.346)scale(.06173)"/><use xlink:href="#aj" transform="translate(23.333 3.111)scale(.04321)"/><use xlink:href="#aq" transform="translate(33.704)scale(.06173)"/></g><g id="e"><use xlink:href="#ap" transform="scale(.08025)"/><use xlink:href="#ar" transform="translate(9.55)scale(.08025)"/><use xlink:href="#aq" transform="translate(28.809)scale(.08025)"/></g><g id="f"><use xlink:href="#as" transform="scale(.08025)"/><use xlink:href="#at" transform="translate(14.444)scale(.08025)"/><use xlink:href="#au" transform="translate(30.494)scale(.08025)"/><use xlink:href="#ah" transform="translate(36.833)scale(.08025)"/></g><g id="g"><use xlink:href="#ap" transform="scale(.08025)"/><use xlink:href="#av" transform="translate(9.55)scale(.08025)"/><use xlink:href="#ac" transform="translate(25.599 4.044)scale(.05617)"/><use xlink:href="#aq" transform="translate(39.08)scale(.08025)"/></g><g id="h"><use xlink:href="#aw" transform="scale(.05556)"/><use xlink:href="#ax" transform="translate(11.111)scale(.05556)"/></g><g id="i"><use xlink:href="#aw" transform="scale(.05556)"/><use xlink:href="#ay" transform="translate(11.111)scale(.05556)"/></g><g id="j"><use xlink:href="#au" transform="scale(.08025)"/><use xlink:href="#ai" transform="translate(6.34)scale(.08025)"/><use xlink:href="#ai" transform="translate(22.389)scale(.08025)"/><use xlink:href="#ag" transform="translate(38.438)scale(.08025)"/></g><g id="k"><use xlink:href="#az" transform="scale(.08025)"/><use xlink:href="#ai" transform="translate(14.444)scale(.08025)"/><use xlink:href="#aA" transform="translate(30.494)scale(.08025)"/><use xlink:href="#av" transform="translate(46.543)scale(.08025)"/><use xlink:href="#ah" transform="translate(62.593)scale(.08025)"/></g><g id="l"><use xlink:href="#ap" transform="scale(.08025)"/><use xlink:href="#au" transform="translate(9.55)scale(.08025)"/><use xlink:href="#ag" transform="translate(15.889)scale(.08025)"/><use xlink:href="#aq" transform="translate(31.938)scale(.08025)"/></g><g id="m"><use xlink:href="#aw" transform="scale(.05556)"/><use xlink:href="#aB" transform="translate(11.111)scale(.05556)"/></g><g id="n"><use xlink:href="#az" transform="scale(.08025)"/><use xlink:href="#aC" transform="translate(14.444)scale(.08025)"/><use xlink:href="#ag" transform="translate(20.784)scale(.08025)"/><use xlink:href="#aD" transform="translate(36.833)scale(.08025)"/><use xlink:href="#aa" transform="translate(52.883)scale(.08025)"/><use xlink:href="#ae" transform="translate(68.932)scale(.08025)"/></g><g id="o"><use xlink:href="#aE" transform="scale(.08025)"/><use xlink:href="#aa" transform="translate(14.444)scale(.08025)"/><use xlink:href="#af" transform="translate(30.494)scale(.08025)"/></g><g id="p"><use xlink:href="#ap" transform="scale(.08025)"/><use xlink:href="#aE" transform="translate(9.55)scale(.08025)"/><use xlink:href="#aF" transform="translate(23.994 4.044)scale(.05617)"/><use xlink:href="#aG" transform="translate(40.79 4.044)scale(.05617)"/><use xlink:href="#aq" transform="translate(52.024)scale(.08025)"/></g><g id="q"><use xlink:href="#aC" transform="scale(.08025)"/><use xlink:href="#ah" transform="translate(6.34)scale(.08025)"/><use xlink:href="#aa" transform="translate(14.364)scale(.08025)"/><use xlink:href="#ae" transform="translate(30.414)scale(.08025)"/><use xlink:href="#at" transform="translate(39.963)scale(.08025)"/><use xlink:href="#ah" transform="translate(56.012)scale(.08025)"/><use xlink:href="#aC" transform="translate(64.037)scale(.08025)"/><use xlink:href="#ai" transform="translate(70.377)scale(.08025)"/><use xlink:href="#av" transform="translate(86.426)scale(.08025)"/></g><g id="r"><use xlink:href="#az" transform="scale(.08025)"/><use xlink:href="#ai" transform="translate(14.444)scale(.08025)"/><use xlink:href="#aA" transform="translate(30.494)scale(.08025)"/><use xlink:href="#av" transform="translate(46.543)scale(.08025)"/><use xlink:href="#ah" transform="translate(62.593)scale(.08025)"/></g><g id="s"><use xlink:href="#ap" transform="scale(.08025)"/><use xlink:href="#aC" transform="translate(9.55)scale(.08025)"/><use xlink:href="#aq" transform="translate(15.889)scale(.08025)"/></g><g id="t"><use xlink:href="#aH" transform="scale(.05556)"/><use xlink:href="#aI" transform="translate(11.111)scale(.05556)"/></g><g id="u"><use xlink:href="#aJ" transform="scale(.08025)"/><use xlink:href="#aK" transform="translate(26.642)scale(.08025)"/><use xlink:href="#aL" transform="translate(42.691)scale(.08025)"/></g><g id="v"><use xlink:href="#aL" transform="scale(.08025)"/><use xlink:href="#aM" transform="translate(16.05)scale(.08025)"/><use xlink:href="#aN" transform="translate(25.599)scale(.08025)"/><use xlink:href="#aO" transform="translate(41.648)scale(.08025)"/><use xlink:href="#aP" transform="translate(62.432)scale(.08025)"/><use xlink:href="#aK" transform="translate(76.877)scale(.08025)"/><use xlink:href="#aM" transform="translate(92.926)scale(.08025)"/></g><g id="w"><use xlink:href="#aO" transform="scale(.08025)"/><use xlink:href="#aQ" transform="translate(20.784)scale(.08025)"/><use xlink:href="#aR" transform="translate(27.123)scale(.08025)"/><use xlink:href="#aS" transform="translate(35.148)scale(.08025)"/></g><g id="x"><use xlink:href="#aT" transform="scale(.08025)"/><use xlink:href="#aQ" transform="translate(6.34)scale(.08025)"/><use xlink:href="#aL" transform="translate(12.679)scale(.08025)"/><use xlink:href="#aP" transform="translate(28.728)scale(.08025)"/><use xlink:href="#aN" transform="translate(43.173)scale(.08025)"/><use xlink:href="#aU" transform="translate(59.222)scale(.08025)"/><use xlink:href="#aQ" transform="translate(75.272)scale(.08025)"/><use xlink:href="#aV" transform="translate(81.611)scale(.08025)"/><use xlink:href="#aW" transform="translate(97.66)scale(.08025)"/></g><g id="y"><use xlink:href="#aX" transform="scale(.08025)"/><use xlink:href="#aY" transform="translate(9.55)scale(.08025)"/><use xlink:href="#aZ" transform="translate(28.809)scale(.08025)"/></g><g id="z"><use xlink:href="#ba" transform="scale(.09877)"/><use xlink:href="#bb" transform="translate(25.58)scale(.09877)"/><use xlink:href="#bc" transform="translate(45.333)scale(.09877)"/><use xlink:href="#bd" transform="translate(59.16)scale(.09877)"/><use xlink:href="#be" transform="translate(69.037)scale(.09877)"/><use xlink:href="#bb" transform="translate(88.79)scale(.09877)"/></g><g id="A"><use xlink:href="#bf" transform="scale(.09877)"/><use xlink:href="#bg" transform="translate(25.58)scale(.09877)"/><use xlink:href="#bh" transform="translate(35.457)scale(.09877)"/><use xlink:href="#bi" transform="translate(57.086)scale(.09877)"/><use xlink:href="#bj" transform="translate(76.84)scale(.09877)"/></g><g id="C"><use xlink:href="#bl" transform="scale(.09877)"/><use xlink:href="#bb" transform="translate(25.58)scale(.09877)"/><use xlink:href="#bm" transform="translate(45.333)scale(.09877)"/></g><g id="D"><use xlink:href="#bn" transform="scale(.08025)"/><use xlink:href="#aa" transform="translate(14.444)scale(.08025)"/><use xlink:href="#ae" transform="translate(30.494)scale(.08025)"/><use xlink:href="#as" transform="translate(40.043)scale(.08025)"/><use xlink:href="#aC" transform="translate(54.488)scale(.08025)"/><use xlink:href="#ai" transform="translate(60.827)scale(.08025)"/><use xlink:href="#av" transform="translate(76.877)scale(.08025)"/></g><g id="F"><use xlink:href="#ap" transform="scale(.08025)"/><use xlink:href="#bn" transform="translate(9.55)scale(.08025)"/><use xlink:href="#aq" transform="translate(23.994)scale(.08025)"/></g><g id="G"><use xlink:href="#aA" transform="scale(.08025)"/><use xlink:href="#as" transform="translate(16.05)scale(.08025)"/><use xlink:href="#aa" transform="translate(30.494)scale(.08025)"/><use xlink:href="#ae" transform="translate(46.543)scale(.08025)"/></g><g id="H"><use xlink:href="#aC" transform="scale(.08025)"/><use xlink:href="#av" transform="translate(6.34)scale(.08025)"/><use xlink:href="#ag" transform="translate(22.389)scale(.08025)"/><use xlink:href="#aA" transform="translate(38.438)scale(.08025)"/><use xlink:href="#ah" transform="translate(54.488)scale(.08025)"/></g><g id="I"><use xlink:href="#ai" transform="scale(.08025)"/><use xlink:href="#aA" transform="translate(16.05)scale(.08025)"/><use xlink:href="#ah" transform="translate(32.099)scale(.08025)"/><use xlink:href="#ag" transform="translate(40.123)scale(.08025)"/><use xlink:href="#aA" transform="translate(56.173)scale(.08025)"/><use xlink:href="#ah" transform="translate(72.222)scale(.08025)"/></g><g id="J"><use xlink:href="#ai" transform="scale(.08025)"/><use xlink:href="#ah" transform="translate(16.05)scale(.08025)"/><use xlink:href="#aD" transform="translate(24.074)scale(.08025)"/><use xlink:href="#aa" transform="translate(40.123)scale(.08025)"/><use xlink:href="#ae" transform="translate(56.173)scale(.08025)"/></g><g id="K"><use xlink:href="#bp" transform="scale(.08025)"/><use xlink:href="#at" transform="translate(16.05)scale(.08025)"/><use xlink:href="#ah" transform="translate(32.099)scale(.08025)"/><use xlink:href="#at" transform="translate(40.123)scale(.08025)"/></g><g id="L"><use xlink:href="#as" transform="scale(.08025)"/><use xlink:href="#aA" transform="translate(14.444)scale(.08025)"/><use xlink:href="#ab" transform="translate(30.494)scale(.08025)"/><use xlink:href="#ag" transform="translate(46.543)scale(.08025)"/><use xlink:href="#ae" transform="translate(62.593)scale(.08025)"/><use xlink:href="#ai" transform="translate(72.142)scale(.08025)"/><use xlink:href="#az" transform="translate(88.191)scale(.08025)"/><use xlink:href="#aa" transform="translate(102.636)scale(.08025)"/><use xlink:href="#as" transform="translate(118.685)scale(.08025)"/><use xlink:href="#as" transform="translate(133.13)scale(.08025)"/></g><g id="M"><use xlink:href="#aC" transform="scale(.08025)"/><use xlink:href="#av" transform="translate(6.34)scale(.08025)"/><use xlink:href="#ag" transform="translate(22.389)scale(.08025)"/><use xlink:href="#aA" transform="translate(38.438)scale(.08025)"/><use xlink:href="#ah" transform="translate(54.488)scale(.08025)"/></g><g id="N"><use xlink:href="#ap" transform="scale(.08025)"/><use xlink:href="#au" transform="translate(9.55)scale(.08025)"/><use xlink:href="#aC" transform="translate(15.889)scale(.08025)"/><use xlink:href="#av" transform="translate(22.228)scale(.08025)"/><use xlink:href="#aE" transform="translate(38.278)scale(.08025)"/><use xlink:href="#aq" transform="translate(52.722)scale(.08025)"/></g><g id="P"><use xlink:href="#ai" transform="scale(.08025)"/><use xlink:href="#aA" transform="translate(16.05)scale(.08025)"/><use xlink:href="#ah" transform="translate(32.099)scale(.08025)"/><use xlink:href="#ag" transform="translate(40.123)scale(.08025)"/><use xlink:href="#aA" transform="translate(56.173)scale(.08025)"/><use xlink:href="#ah" transform="translate(72.222)scale(.08025)"/></g><g id="Q"><use xlink:href="#aD" transform="scale(.08025)"/><use xlink:href="#aC" transform="translate(16.05)scale(.08025)"/><use xlink:href="#av" transform="translate(22.389)scale(.08025)"/><use xlink:href="#ah" transform="translate(38.438)scale(.08025)"/></g><g id="R"><use xlink:href="#ap" transform="scale(.08025)"/><use xlink:href="#aD" transform="translate(9.55)scale(.08025)"/><use xlink:href="#aq" transform="translate(25.599)scale(.08025)"/></g><g id="S"><use xlink:href="#aw" transform="scale(.05556)"/><use xlink:href="#bq" transform="translate(11.111)scale(.05556)"/></g><g id="T"><use xlink:href="#az" transform="scale(.08025)"/><use xlink:href="#ae" transform="translate(14.444)scale(.08025)"/><use xlink:href="#aa" transform="translate(23.994)scale(.08025)"/><use xlink:href="#bp" transform="translate(40.043)scale(.08025)"/><use xlink:href="#aa" transform="translate(56.093)scale(.08025)"/><use xlink:href="#av" transform="translate(72.142)scale(.08025)"/><use xlink:href="#ah" transform="translate(88.191)scale(.08025)"/><use xlink:href="#aC" transform="translate(96.216)scale(.08025)"/><use xlink:href="#at" transform="translate(102.556)scale(.08025)"/><use xlink:href="#au" transform="translate(118.605)scale(.08025)"/></g><g id="U"><use xlink:href="#ap" transform="scale(.08025)"/><use xlink:href="#aA" transform="translate(9.55)scale(.08025)"/><use xlink:href="#ad" transform="translate(25.599 4.044)scale(.05617)"/><use xlink:href="#aq" transform="translate(40.148)scale(.08025)"/></g><g id="V"><use xlink:href="#at" transform="scale(.08025)"/><use xlink:href="#au" transform="translate(16.05)scale(.08025)"/><use xlink:href="#br" transform="translate(22.389)scale(.08025)"/><use xlink:href="#ai" transform="translate(38.438)scale(.08025)"/><use xlink:href="#ae" transform="translate(54.488)scale(.08025)"/><use xlink:href="#aC" transform="translate(64.037)scale(.08025)"/><use xlink:href="#ah" transform="translate(70.377)scale(.08025)"/><use xlink:href="#aD" transform="translate(78.401)scale(.08025)"/><use xlink:href="#bs" transform="translate(94.45)scale(.08025)"/></g><g id="W"><use xlink:href="#ap" transform="scale(.08025)"/><use xlink:href="#at" transform="translate(9.55)scale(.08025)"/><use xlink:href="#aq" transform="translate(25.599)scale(.08025)"/></g><g id="X"><use xlink:href="#ag" transform="scale(.08025)"/><use xlink:href="#at" transform="translate(16.05)scale(.08025)"/><use xlink:href="#as" transform="translate(32.099)scale(.08025)"/><use xlink:href="#as" transform="translate(46.543)scale(.08025)"/><use xlink:href="#bt" transform="translate(60.988)scale(.08025)"/><use xlink:href="#ai" transform="translate(81.772)scale(.08025)"/><use xlink:href="#ae" transform="translate(97.821)scale(.08025)"/><use xlink:href="#bp" transform="translate(107.37)scale(.08025)"/></g><g id="Y"><use xlink:href="#ap" transform="scale(.08025)"/><use xlink:href="#ag" transform="translate(9.55)scale(.08025)"/><use xlink:href="#aq" transform="translate(25.599)scale(.08025)"/></g><use xlink:href="#bk" id="B" transform="scale(.09877)"/><use xlink:href="#bo" id="E" transform="scale(.08025)"/></defs></g></svg>