<svg xmlns="http://www.w3.org/2000/svg" xmlns:xlink="http://www.w3.org/1999/xlink" width="1524" height="1284" viewBox="0 0 1524 1284"><g transform="translate(-78 1060)"><path fill="none" stroke="#008a0e" stroke-width="4" d="M120-788a12 12 0 0 1 12-12h1416a12 12 0 0 1 12 12V28a12 12 0 0 1-12 12H132a12 12 0 0 1-12-12z"/><path fill="#f4d9ff" stroke="#3a414a" d="M1262.17-700h198.66l-21.33 80h-198.67z" class="qc-clickable" data-target="06"/><use xlink:href="#a" transform="translate(1293.669 -671.057)"/><use xlink:href="#b" transform="translate(1338.446 -671.057)"/><use xlink:href="#c" transform="translate(1319.215 -636.39)"/><path fill="#f4d9ff" stroke="#3a414a" d="M742.17-700h198.66l-21.33 80H720.83z" class="qc-clickable" data-target="06"/><use xlink:href="#d" transform="translate(812.91 -671.057)"/><use xlink:href="#e" transform="translate(802.023 -636.39)"/><path fill="#cfe4ff" stroke="#3a414a" d="M482.17-700h198.66l-21.33 80H460.83z"/><use xlink:href="#f" transform="translate(508.773 -671.057)"/><use xlink:href="#g" transform="translate(571.286 -671.057)"/><use xlink:href="#h" transform="translate(545.594 -636.39)"/><path fill="#979ea8" stroke="#979ea8" stroke-width=".05" d="M1019.35-519.02H909.76l-.82.06-.77.18-.73.3-.67.42-.6.5-.5.6-.42.68-.3.73-.2.76-.05.84V-479h-1.94v-35.04l.08-1.05.26-1.06.4-1 .6-.94.7-.83.83-.72.94-.57 1-.42 1.07-.25 1.05-.08h109.64zm332.46-6.94-.08 1.05-.25 1.06-.42 1-.57.94-.7.83-.85.72-.93.57-1 .42-1.08.25-1.05.08h-314.4V-521h314.33l.82-.06.77-.18.7-.3.7-.42.58-.5.52-.6.4-.68.3-.73.2-.76.06-.84v-92.46h1.95z"/><path fill="#979ea8" d="M1351.8-618.47h-1.94v-1.03h1.95zM903.73-463.74 899.1-478h9.27z"/><path fill="#979ea8" stroke="#979ea8" stroke-width=".05" d="m903.73-460.58-5.98-18.4h11.96zm-3.3-16.45 3.3 10.14 3.3-10.13z"/><use xlink:href="#i" transform="translate(1019.35 -516)"/><path fill="#ffcf99" stroke="#3a414a" d="M741.33-100H940l-21.33 80H720z"/><use xlink:href="#j" transform="translate(745.591 -71.057)"/><use xlink:href="#k" transform="translate(800.08 -71.057)"/><use xlink:href="#l" transform="translate(844.857 -71.057)"/><use xlink:href="#m" transform="translate(791.107 -36.39)"/><path fill="#979ea8" stroke="#979ea8" stroke-width=".05" d="M831.8-478.5h-1.94V-549h1.95zm0-94.5h-1.94v-45.5h1.95z"/><path fill="#979ea8" d="M831.8-618.47h-1.94v-1.03h1.95zm-.97 155.23-4.63-14.26h9.27z"/><path fill="#979ea8" stroke="#979ea8" stroke-width=".05" d="m830.83-460.08-5.97-18.4h11.95zm-3.3-16.45 3.3 10.14 3.3-10.13z"/><use xlink:href="#i" transform="translate(825.283 -557)"/><path fill="#f4d9ff" stroke="#3a414a" d="M1002.17-700h198.66l-21.33 80H980.83z" class="qc-clickable" data-target="06"/><use xlink:href="#n" transform="translate(1036.116 -671.057)"/><use xlink:href="#o" transform="translate(1068.764 -636.39)"/><path fill="#979ea8" stroke="#979ea8" stroke-width=".05" d="M830.98-119H829v-18.3h2zm0-42.3H829V-179h2z"/><path fill="#979ea8" d="M830.98-178.97H829V-180h2zm-.98 75.23L825.37-118h9.26z"/><path fill="#979ea8" stroke="#979ea8" stroke-width=".05" d="m830-100.58-5.98-18.4h11.96zm-3.3-16.45 3.3 10.14 3.3-10.13z"/><use xlink:href="#p" transform="translate(818.894 -145.292)"/><path fill="#979ea8" stroke="#979ea8" stroke-width=".05" d="m784.44-560.98 1.05.1 1.05.24 1.02.42.93.58.83.7.7.84.6.93.4 1 .26 1.08.07 1.06v75.54h-1.95v-75.46l-.06-.83-.2-.75-.3-.73-.4-.67-.5-.6-.6-.5-.68-.43-.73-.3-.77-.18-.82-.06H706.4v-2zm-212.57-4.23.2.75.3.73.4.67.5.6.6.5.68.43.73.3.77.18.82.06H695.3v1.96H576.8l-1.06-.1-1.06-.24-1-.42-.95-.58-.83-.7-.7-.84-.58-.93-.42-1-.26-1.08-.08-1.06v-52.54h1.95v52.46z"/><path fill="#979ea8" d="M571.8-618.47h-1.94v-1.03h1.95zm218.6 155.23-4.64-14.26h9.27z"/><path fill="#979ea8" stroke="#979ea8" stroke-width=".05" d="m790.4-460.08-5.98-18.4h11.96zm-3.3-16.45 3.3 10.14 3.3-10.13z"/><use xlink:href="#i" transform="translate(695.316 -556)"/><path fill="#008a0e" d="M120-788a12 12 0 0 1 12-12h416a12 12 0 0 1 12 12v39.33a12 12 0 0 1-12 12H132a12 12 0 0 1-12-12z"/><use xlink:href="#q" transform="translate(137.738 -762.186)"/><use xlink:href="#r" transform="translate(204.503 -762.186)"/><use xlink:href="#s" transform="translate(315.003 -762.186)"/><use xlink:href="#t" transform="translate(374.225 -762.186)"/><use xlink:href="#u" transform="translate(503.904 -762.186)"/><path fill="#dfe3e8" d="M120-1002.45a17.55 17.55 0 0 1 17.55-17.55h184.9a17.55 17.55 0 0 1 17.55 17.55v140.4a17.55 17.55 0 0 1-17.55 17.55h-184.9A17.55 17.55 0 0 1 120-862.05z"/><use xlink:href="#v" transform="translate(140 -967.556)"/><use xlink:href="#w" transform="translate(140 -924.889)"/><use xlink:href="#x" transform="translate(140 -882.222)"/><path fill="#cfe4ff" stroke="#3a414a" d="M221.33-700H420l-21.33 80H200z"/><use xlink:href="#y" transform="translate(256.005 -671.057)"/><use xlink:href="#z" transform="translate(356.956 -671.057)"/><use xlink:href="#A" transform="translate(288.733 -636.39)"/><path fill="#979ea8" stroke="#979ea8" stroke-width=".05" d="m752.4-520.98 1.05.1 1.07.24 1 .42.94.58.84.7.7.84.58.93.42 1 .25 1.08.1 1.06v35.54h-1.96v-35.46l-.08-.83-.18-.75-.3-.73-.42-.67-.5-.6-.6-.5-.68-.43-.73-.3-.75-.18-.83-.06h-97.86v-2zm-441.36-4.23.18.75.3.73.42.67.5.6.6.5.68.43.73.3.76.18.84.06h327.3v1.96H315.97l-1.05-.1-1.06-.24-1-.42-.94-.58-.83-.7-.7-.84-.6-.93-.4-1-.26-1.08-.08-1.06v-92.54h1.96v92.46z"/><path fill="#979ea8" d="M310.98-618.47h-1.96v-1.03h1.96zm447.38 155.23-4.63-14.26H763z"/><path fill="#979ea8" stroke="#979ea8" stroke-width=".05" d="m758.36-460.08-5.98-18.4h11.96zm-3.3-16.45 3.3 10.14 3.3-10.13z"/><use xlink:href="#i" transform="translate(643.357 -516)"/><path fill="#979ea8" stroke="#979ea8" stroke-width=".05" d="M953.73-559.02h-79.96l-.82.06-.77.18-.73.3-.67.42-.6.5-.5.6-.42.68-.3.73-.2.76-.05.84V-479h-1.94v-75.04l.08-1.05.26-1.06.4-1 .6-.94.7-.83.83-.72.94-.57 1-.42 1.07-.25 1.05-.08h80.03zm138.08-6.94-.08 1.05-.25 1.06-.42 1-.57.94-.7.83-.85.72-.93.57-1 .42-1.08.25-1.05.08H964.84V-561h119.96l.82-.06.77-.18.7-.3.7-.42.58-.5.52-.6.4-.68.3-.73.2-.76.06-.84v-52.46h1.95z"/><path fill="#979ea8" d="M1091.8-618.47h-1.94v-1.03h1.95zM867.73-463.74 863.1-478h9.27z"/><path fill="#979ea8" stroke="#979ea8" stroke-width=".05" d="m867.73-460.58-5.98-18.4h11.96zm-3.3-16.45 3.3 10.14 3.3-10.13z"/><use xlink:href="#i" transform="translate(953.732 -556)"/><path fill="#fff" stroke="#3a414a" d="M720.83-448a12 12 0 0 1 12-12h196a12 12 0 0 1 12 12v76a12 12 0 0 1-12 12h-196a12 12 0 0 1-12-12z"/><path fill="none" stroke="#3a414a" stroke-width="2" d="M721.83-420h218.5m-218.47 0h-1.03m219.47 0h1.03"/><path fill="none" d="M720.83-460h220v40h-220z"/><use xlink:href="#B" transform="translate(784.043 -435.347)"/><path fill="none" d="M720.83-435h220v90h-220z"/><use xlink:href="#C" transform="translate(731.481 -398.785)"/><use xlink:href="#D" transform="translate(833.95 -398.785)"/><use xlink:href="#E" transform="translate(878.395 -398.785)"/><use xlink:href="#F" transform="translate(815.494 -372.118)"/><path fill="#fff" stroke="#3a414a" d="M720-268a12 12 0 0 1 12-12h196a12 12 0 0 1 12 12v76a12 12 0 0 1-12 12H732a12 12 0 0 1-12-12z"/><path fill="none" d="M720-280h220v40H720z"/><use xlink:href="#B" transform="translate(783.21 -255.347)"/><path fill="none" stroke="#3a414a" stroke-width="2" d="M721-240h218.5m-218.47 0H720m219.47 0h1.03"/><path fill="none" d="M720-240h220v60H720z"/><use xlink:href="#C" transform="translate(756.605 -216.832)"/><use xlink:href="#G" transform="translate(859.074 -216.832)"/><use xlink:href="#H" transform="translate(809.065 -190.165)"/><path fill="#979ea8" stroke="#979ea8" stroke-width=".05" d="M830.98-298.5H829v-9.25h2zm.83-33.25h-1.94v-26.75h1.95z"/><path fill="#979ea8" d="M831.8-358.47h-1.94v-1.03h1.95zm-1.8 75.23-4.63-14.26h9.26z"/><path fill="#979ea8" stroke="#979ea8" stroke-width=".05" d="m830-280.08-5.98-18.4h11.96zm-3.3-16.45 3.3 10.14 3.3-10.13z"/><use xlink:href="#I" transform="translate(824.866 -315.75)"/><path fill="#cfe4ff" stroke="#3a414a" d="M1168.16-271.33h198.66l-21.33 80h-198.67z"/><use xlink:href="#J" transform="translate(1176.589 -242.39)"/><use xlink:href="#K" transform="translate(1330.02 -242.39)"/><use xlink:href="#L" transform="translate(1220.259 -207.724)"/><path fill="#979ea8" stroke="#979ea8" stroke-width=".05" d="M1018.9-230.36h-60.4v-1.95h60.4zm137.07 0h-125.95v-1.95h125.95z"/><path fill="#979ea8" d="M1156.7-230.36h-.75v-1.95h1.28zm-199.2 3.66-14.26-4.63 14.26-4.64z"/><path fill="#979ea8" stroke="#979ea8" stroke-width=".05" d="m958.48-225.36-18.4-5.97 18.4-5.98zm-12.1-5.97 10.15 3.3v-6.6z"/><use xlink:href="#I" transform="translate(1018.918 -227.333)"/><path fill="#cfe682" stroke="#3a414a" d="M127.73 65h51.44l-7.74 29H120z"/><path fill="#cfe4ff" stroke="#3a414a" d="M127.73 161.5h51.44l-7.74 29H120z"/><path fill="#fff7a1" stroke="#3a414a" d="M127.73 113.25h51.44l-7.74 29H120z"/><path fill="none" d="M200 60h225.93v38.67H200z"/><use xlink:href="#M" transform="translate(205 88.564)"/><use xlink:href="#N" transform="translate(269.117 88.564)"/><path fill="none" d="M200 108.5h240v38.67H200z"/><use xlink:href="#M" transform="translate(205 137.064)"/><use xlink:href="#O" transform="translate(269.117 137.064)"/><path fill="none" d="M200 157.67h240v38.66H200z"/><use xlink:href="#P" transform="translate(205 186.23)"/><use xlink:href="#Q" transform="translate(278.747 186.23)"/><path fill="#f4d9ff" stroke="#3a414a" d="M507.73 68.83h51.44l-7.74 29H500z"/><path fill="none" d="M580 65h340v36.67H580z"/><use xlink:href="#R" transform="translate(585 93.111)"/><use xlink:href="#S" transform="translate(740.599 93.111)"/><use xlink:href="#T" transform="translate(811.136 93.111)"/><use xlink:href="#U" transform="translate(585 127.778)"/><path fill="#ffcf99" stroke="#3a414a" d="M507.73 117.08h51.44l-7.74 29H500z"/><path fill="none" d="M580 113.25h260v36.67H580z"/><use xlink:href="#R" transform="translate(585 141.361)"/><use xlink:href="#V" transform="translate(740.599 141.361)"/><use xlink:href="#U" transform="translate(585 176.028)"/><path fill="#cfe682" stroke="#3a414a" d="M1130.73-655h51.44l-7.74 29H1123z"/><defs><path id="W" fill="#3a414a" d="M24-231v-30h32v30zM24 0v-190h32V0z"/><path id="X" fill="#3a414a" d="M117-194c89-4 53 116 60 194h-32v-121c0-31-8-49-39-48C34-167 62-67 57 0H25l-1-190h30c1 10-1 24 2 32 11-22 29-35 61-36"/><path id="Y" fill="#3a414a" d="M59-47c-2 24 18 29 38 22v24C64 9 27 4 27-40v-127H5v-23h24l9-43h21v43h35v23H59z"/><path id="Z" fill="#3a414a" d="M108 0H70L1-190h34L89-25l56-165h34"/><path id="aa" fill="#3a414a" d="M100-194c63 0 86 42 84 106H49c0 40 14 67 53 68 26 1 43-12 49-29l28 8c-11 28-37 45-77 45C44 4 14-33 15-96c1-61 26-98 85-98m52 81c6-60-76-77-97-28-3 7-6 17-6 28z"/><path id="ab" fill="#3a414a" d="M96-169c-40 0-48 33-48 73s9 75 48 75c24 0 41-14 43-38l32 2c-6 37-31 61-74 61-59 0-76-41-82-99-10-93 101-131 147-64 4 7 5 14 7 22l-32 3c-4-21-16-35-41-35"/><path id="ac" fill="#3a414a" d="M100-194c62-1 85 37 85 99 1 63-27 99-86 99S16-35 15-95c0-66 28-99 85-99M99-20c44 1 53-31 53-75 0-43-8-75-51-75s-53 32-53 75 10 74 51 75"/><path id="ad" fill="#3a414a" d="M114-163C36-179 61-72 57 0H25l-1-190h30c1 12-1 29 2 39 6-27 23-49 58-41z"/><path id="ae" fill="#3a414a" d="M87 75C49 33 22-17 22-94c0-76 28-126 65-167h31c-38 41-64 92-64 168S80 34 118 75z"/><path id="af" fill="#3a414a" d="M33 0v-248h34V0z"/><path id="ag" fill="#3a414a" d="M137 0h-34L2-248h35l83 218 83-218h36"/><path id="ah" fill="#3a414a" d="M33-261c38 41 65 92 65 168S71 34 33 75H2C39 34 66-17 66-93S39-220 2-261z"/><path id="ai" fill="#3a414a" d="M135-143c-3-34-86-38-87 0 15 53 115 12 119 90S17 21 10-45l28-5c4 36 97 45 98 0-10-56-113-15-118-90-4-57 82-63 122-42 12 7 21 19 24 35"/><path id="aj" fill="#3a414a" d="M141-36C126-15 110 5 73 4 37 3 15-17 15-53c-1-64 63-63 125-63 3-35-9-54-41-54-24 1-41 7-42 31l-33-3c5-37 33-52 76-52 45 0 72 20 72 64v82c-1 20 7 32 28 27v20c-31 9-61-2-59-35M48-53c0 20 12 33 32 33 41-3 63-29 60-74-43 2-92-5-92 41"/><path id="ak" fill="#3a414a" d="M24 0v-261h32V0z"/><path id="al" fill="#3a414a" d="M185-189c-5-48-123-54-124 2 14 75 158 14 163 119 3 78-121 87-175 55-17-10-28-26-33-46l33-7c5 56 141 63 141-1 0-78-155-14-162-118-5-82 145-84 179-34 5 7 8 16 11 25"/><path id="am" fill="#3a414a" d="M115-194c55 1 70 41 70 98S169 2 115 4C84 4 66-9 55-30l1 105H24l-1-265h31l2 30c10-21 28-34 59-34m-8 174c40 0 45-34 45-75s-6-73-45-74c-42 0-51 32-51 76 0 43 10 73 51 73"/><path id="an" fill="#3a414a" d="M84 4C-5 8 30-112 23-190h32v120c0 31 7 50 39 49 72-2 45-101 50-169h31l1 190h-30c-1-10 1-25-2-33-11 22-28 36-60 37"/><path id="ao" fill="#333" d="M134-131c28 9 52 24 51 62-1 50-34 73-85 73S17-19 16-69c0-36 21-54 49-61-75-25-45-126 34-121 46 3 78 18 79 63 0 33-17 51-44 57m-34-11c31 1 46-15 46-44 0-28-17-43-47-42-29 0-46 13-45 42 1 28 16 44 46 44m1 122c35 0 51-18 51-52 0-30-18-46-53-46-33 0-51 17-51 47 0 34 19 51 53 51"/><path id="ap" fill="#3a414a" d="M106-169C34-169 62-67 57 0H25v-261h32l-1 103c12-21 28-36 61-36 89 0 53 116 60 194h-32v-121c2-32-8-49-39-48"/><path id="aq" fill="#3a414a" d="M197 0v-115H63V0H30v-248h33v105h134v-105h34V0z"/><path id="ar" fill="#3a414a" d="M177-190C167-65 218 103 67 71c-23-6-38-20-44-43l32-5c15 47 100 32 89-28v-30C133-14 115 1 83 1 29 1 15-40 15-95c0-56 16-97 71-98 29-1 48 16 59 35 1-10 0-23 2-32zM94-22c36 0 50-32 50-73 0-42-14-75-50-75-39 0-46 34-46 75s6 73 46 73"/><path id="as" fill="#3a414a" d="M210-169c-67 3-38 105-44 169h-31v-121c0-29-5-50-35-48C34-165 62-65 56 0H25l-1-190h30c1 10-1 24 2 32 10-44 99-50 107 0 11-21 27-35 58-36 85-2 47 119 55 194h-31v-121c0-29-5-49-35-48"/><path id="at" fill="#333" d="M27 0v-27h64v-190l-56 39v-29l58-41h29v221h61V0z"/><path id="au" fill="#333" d="M101-251c68 0 85 55 85 127S166 4 100 4C33 4 14-52 14-124c0-73 17-127 87-127m-1 229c47 0 54-49 54-102s-4-102-53-102c-51 0-55 48-55 102 0 53 5 102 54 102"/><path id="av" fill="#fff" d="M266 0h-40l-56-210L115 0H75L2-248h35L96-30l15-64 43-154h32l59 218 59-218h35"/><path id="aw" fill="#fff" d="M100-194c63 0 86 42 84 106H49c0 40 14 67 53 68 26 1 43-12 49-29l28 8c-11 28-37 45-77 45C44 4 14-33 15-96c1-61 26-98 85-98m52 81c6-60-76-77-97-28-3 7-6 17-6 28z"/><path id="ax" fill="#fff" d="M115-194c53 0 69 39 70 98 0 66-23 100-70 100C84 3 66-7 56-30L54 0H23l1-261h32v101c10-23 28-34 59-34m-8 174c40 0 45-34 45-75 0-40-5-75-45-74-42 0-51 32-51 76 0 43 10 73 51 73"/><path id="ay" fill="#fff" d="M114-163C36-179 61-72 57 0H25l-1-190h30c1 12-1 29 2 39 6-27 23-49 58-41z"/><path id="az" fill="#fff" d="M100-194c62-1 85 37 85 99 1 63-27 99-86 99S16-35 15-95c0-66 28-99 85-99M99-20c44 1 53-31 53-75 0-43-8-75-51-75s-53 32-53 75 10 74 51 75"/><path id="aA" fill="#fff" d="M206 0h-36l-40-164L89 0H53L-1-190h32L70-26l43-164h34l41 164 42-164h31"/><path id="aB" fill="#fff" d="M135-143c-3-34-86-38-87 0 15 53 115 12 119 90S17 21 10-45l28-5c4 36 97 45 98 0-10-56-113-15-118-90-4-57 82-63 122-42 12 7 21 19 24 35"/><path id="aC" fill="#fff" d="M24-231v-30h32v30zM24 0v-190h32V0z"/><path id="aD" fill="#fff" d="M59-47c-2 24 18 29 38 22v24C64 9 27 4 27-40v-127H5v-23h24l9-43h21v43h35v23H59z"/><path id="aE" fill="#fff" d="M106-169C34-169 62-67 57 0H25v-261h32l-1 103c12-21 28-36 61-36 89 0 53 116 60 194h-32v-121c2-32-8-49-39-48"/><path id="aF" fill="#fff" d="M24 0v-261h32V0z"/><path id="aG" fill="#fff" d="M85-194c31 0 48 13 60 33l-1-100h32l1 261h-30c-2-10 0-23-3-31C134-8 116 4 85 4 32 4 16-35 15-94c0-66 23-100 70-100m9 24c-40 0-46 34-46 75 0 40 6 74 45 74 42 0 51-32 51-76 0-42-9-74-50-73"/><path id="aH" fill="#fff" d="M84 4C-5 8 30-112 23-190h32v120c0 31 7 50 39 49 72-2 45-101 50-169h31l1 190h-30c-1-10 1-25-2-33-11 22-28 36-60 37"/><path id="aI" fill="#fff" d="M210-169c-67 3-38 105-44 169h-31v-121c0-29-5-50-35-48C34-165 62-65 56 0H25l-1-190h30c1 10-1 24 2 32 10-44 99-50 107 0 11-21 27-35 58-36 85-2 47 119 55 194h-31v-121c0-29-5-49-35-48"/><path id="aJ" fill="#fff" d="M87 75C49 33 22-17 22-94c0-76 28-126 65-167h31c-38 41-64 92-64 168S80 34 118 75z"/><path id="aK" fill="#fff" d="M160-131c35 5 61 23 61 61C221 17 115-2 30 0v-248c76 3 177-17 177 60 0 33-19 50-47 57m-97-11c50-1 110 9 110-42 0-47-63-36-110-37zm0 115c55-2 124 14 124-45 0-56-70-42-124-44z"/><path id="aL" fill="#fff" d="M33-261c38 41 65 92 65 168S71 34 33 75H2C39 34 66-17 66-93S39-220 2-261z"/><path id="aM" fill="#3a414a" d="M24-248c120-7 223 5 221 122C244-46 201 0 124 0H24zM76-40c74 7 117-18 117-86 0-67-45-88-117-82z"/><path id="aN" fill="#3a414a" d="M185-48c-13 30-37 53-82 52C43 2 14-33 14-96s30-98 90-98c62 0 83 45 84 108H66c0 31 8 55 39 56 18 0 30-7 34-22zm-45-69c5-46-57-63-70-21-2 6-4 13-4 21z"/><path id="aO" fill="#3a414a" d="M135-150c-39-12-60 13-60 57V0H25l-1-190h47c2 13-1 29 3 40 6-28 27-53 61-41z"/><path id="aP" fill="#3a414a" d="M25-224v-37h50v37zM25 0v-190h50V0z"/><path id="aQ" fill="#3a414a" d="M128 0H69L1-190h53L99-40l48-150h52"/><path id="aR" fill="#3a414a" d="M186 0v-106H76V0H24v-248h52v99h110v-99h50V0z"/><path id="aS" fill="#3a414a" d="M135-194c87-1 58 113 63 194h-50c-7-57 23-157-34-157-59 0-34 97-39 157H25l-1-190h47c2 12-1 28 3 38 12-26 28-41 61-42"/><path id="aT" fill="#3a414a" d="M115-3C79 11 28 4 28-45v-112H4v-33h27l15-45h31v45h36v33H77v99c-1 23 16 31 38 25z"/><path id="aU" fill="#3a414a" d="M175 0 67-191c6 58 2 128 3 191H24v-248h59L193-55c-6-58-2-129-3-193h46V0z"/><path id="aV" fill="#3a414a" d="M110-194c64 0 96 36 96 99 0 64-35 99-97 99-61 0-95-36-95-99 0-62 34-99 96-99m-1 164c35 0 45-28 45-65 0-40-10-65-43-65-34 0-45 26-45 65 0 36 10 65 43 65"/><path id="aW" fill="#3a414a" d="M190-63c-7 42-38 67-86 67-59 0-84-38-90-98-12-110 154-137 174-36l-49 2c-2-19-15-32-35-32-30 0-35 28-38 64-6 74 65 87 74 30"/><path id="aX" fill="#3a414a" d="M64 0c3-98 48-159 88-221H18v-27h164v26C143-157 98-101 97 0z"/><path id="aY" fill="#3a414a" d="M115-194c53 0 69 39 70 98 0 66-23 100-70 100C84 3 66-7 56-30L54 0H23l1-261h32v101c10-23 28-34 59-34m-8 174c40 0 45-34 45-75 0-40-5-75-45-74-42 0-51 32-51 76 0 43 10 73 51 73"/><path id="aZ" fill="#3a414a" d="M85-194c31 0 48 13 60 33l-1-100h32l1 261h-30c-2-10 0-23-3-31C134-8 116 4 85 4 32 4 16-35 15-94c0-66 23-100 70-100m9 24c-40 0-46 34-46 75 0 40 6 74 45 74 42 0 51-32 51-76 0-42-9-74-50-73"/><path id="ba" fill="#3a414a" d="M160-131c35 5 61 23 61 61C221 17 115-2 30 0v-248c76 3 177-17 177 60 0 33-19 50-47 57m-97-11c50-1 110 9 110-42 0-47-63-36-110-37zm0 115c55-2 124 14 124-45 0-56-70-42-124-44z"/><path id="bb" fill="#3a414a" d="M30 0v-248h33v221h125V0z"/><path id="bc" fill="#3a414a" d="m205 0-28-72H64L36 0H1l101-248h38L239 0zm-38-99-47-123c-12 45-31 82-46 123z"/><path id="bd" fill="#3a414a" d="M194 0 95-120 63-95V0H30v-248h33v124l119-124h40L117-140 236 0z"/><path id="be" fill="#3a414a" d="M30 0v-248h187v28H63v79h144v27H63v87h162V0z"/><path id="bf" fill="#3a414a" d="M101-251c82-7 93 87 43 132L82-64C71-53 59-42 53-27h129V0H18c2-99 128-94 128-182 0-28-16-43-45-43s-46 15-49 41l-32-3c6-41 34-60 81-64"/><path id="bg" fill="#3a414a" d="M179-190 93 31C79 59 56 82 12 73V49c39 6 53-20 64-50L1-190h34L92-34l54-156z"/><path id="bh" fill="#3a414a" d="M30-248c118-7 216 8 213 122C240-48 200 0 122 0H30zM63-27c89 8 146-16 146-99s-60-101-146-95z"/><path id="bi" fill="#3a414a" d="M63-220v92h138v28H63V0H30v-248h175v28z"/><path id="bj" fill="#333" d="M99-251c64 0 84 50 84 122C183-37 130 33 47-8c-14-7-20-23-25-40l30-5c6 39 69 39 84 7 9-19 16-44 16-74-10 22-31 35-62 35-49 0-73-33-73-83 0-54 28-83 82-83m-1 141c31-1 51-18 51-49 0-36-14-67-51-67-34 0-49 23-49 58 0 34 15 58 49 58"/><path id="bk" fill="#3a414a" d="M109-170H84l-4-78h32zm-65 0H19l-4-78h33"/><path id="bl" fill="#3a414a" d="M-5 72V49h209v23z"/><path id="bm" fill="#3a414a" d="M68-38c1 34 0 65-14 84H32c9-13 17-26 17-46H33v-38z"/><path id="bn" fill="#3a414a" d="M143 0 79-87 56-68V0H24v-261h32v163l83-92h37l-77 82L181 0z"/><g id="a"><use xlink:href="#W" transform="scale(.08025)"/><use xlink:href="#X" transform="translate(6.34)scale(.08025)"/><use xlink:href="#W" transform="translate(22.389)scale(.08025)"/><use xlink:href="#Y" transform="translate(28.728)scale(.08025)"/></g><g id="b"><use xlink:href="#Z" transform="scale(.08025)"/><use xlink:href="#aa" transform="translate(14.444)scale(.08025)"/><use xlink:href="#ab" transform="translate(30.494)scale(.08025)"/><use xlink:href="#Y" transform="translate(44.938)scale(.08025)"/><use xlink:href="#ac" transform="translate(52.963)scale(.08025)"/><use xlink:href="#ad" transform="translate(69.012)scale(.08025)"/></g><g id="c"><use xlink:href="#ae" transform="scale(.08025)"/><use xlink:href="#X" transform="translate(9.55)scale(.08025)"/><use xlink:href="#af" transform="translate(25.599 4.044)scale(.05617)"/><use xlink:href="#ag" transform="translate(31.216 4.044)scale(.05617)"/><use xlink:href="#ah" transform="translate(44.698)scale(.08025)"/></g><g id="d"><use xlink:href="#ai" transform="scale(.08025)"/><use xlink:href="#aj" transform="translate(14.444)scale(.08025)"/><use xlink:href="#ak" transform="translate(30.494)scale(.08025)"/><use xlink:href="#Y" transform="translate(36.833)scale(.08025)"/></g><g id="e"><use xlink:href="#ae" transform="scale(.08025)"/><use xlink:href="#X" transform="translate(9.55)scale(.08025)"/><use xlink:href="#al" transform="translate(25.599 4.044)scale(.05617)"/><use xlink:href="#ah" transform="translate(39.08)scale(.08025)"/></g><g id="f"><use xlink:href="#ak" transform="scale(.08025)"/><use xlink:href="#ac" transform="translate(6.34)scale(.08025)"/><use xlink:href="#ac" transform="translate(22.389)scale(.08025)"/><use xlink:href="#am" transform="translate(38.438)scale(.08025)"/></g><g id="g"><use xlink:href="#ab" transform="scale(.08025)"/><use xlink:href="#ac" transform="translate(14.444)scale(.08025)"/><use xlink:href="#an" transform="translate(30.494)scale(.08025)"/><use xlink:href="#X" transform="translate(46.543)scale(.08025)"/><use xlink:href="#Y" transform="translate(62.593)scale(.08025)"/></g><g id="h"><use xlink:href="#ae" transform="scale(.08025)"/><use xlink:href="#ak" transform="translate(9.55)scale(.08025)"/><use xlink:href="#am" transform="translate(15.889)scale(.08025)"/><use xlink:href="#ah" transform="translate(31.938)scale(.08025)"/></g><g id="j"><use xlink:href="#ap" transform="scale(.08025)"/><use xlink:href="#W" transform="translate(16.05)scale(.08025)"/><use xlink:href="#X" transform="translate(22.389)scale(.08025)"/><use xlink:href="#Y" transform="translate(38.438)scale(.08025)"/></g><g id="k"><use xlink:href="#W" transform="scale(.08025)"/><use xlink:href="#X" transform="translate(6.34)scale(.08025)"/><use xlink:href="#W" transform="translate(22.389)scale(.08025)"/><use xlink:href="#Y" transform="translate(28.728)scale(.08025)"/></g><g id="l"><use xlink:href="#Z" transform="scale(.08025)"/><use xlink:href="#aa" transform="translate(14.444)scale(.08025)"/><use xlink:href="#ab" transform="translate(30.494)scale(.08025)"/><use xlink:href="#Y" transform="translate(44.938)scale(.08025)"/><use xlink:href="#ac" transform="translate(52.963)scale(.08025)"/><use xlink:href="#ad" transform="translate(69.012)scale(.08025)"/></g><g id="m"><use xlink:href="#ae" transform="scale(.08025)"/><use xlink:href="#X" transform="translate(9.55)scale(.08025)"/><use xlink:href="#af" transform="translate(25.599 4.044)scale(.05617)"/><use xlink:href="#ag" transform="translate(31.216 4.044)scale(.05617)"/><use xlink:href="#aq" transform="translate(44.698 4.044)scale(.05617)"/><use xlink:href="#ah" transform="translate(59.246)scale(.08025)"/></g><g id="n"><use xlink:href="#aj" transform="scale(.08025)"/><use xlink:href="#ak" transform="translate(16.05)scale(.08025)"/><use xlink:href="#ar" transform="translate(22.389)scale(.08025)"/><use xlink:href="#ac" transform="translate(38.438)scale(.08025)"/><use xlink:href="#ad" transform="translate(54.488)scale(.08025)"/><use xlink:href="#W" transform="translate(64.037)scale(.08025)"/><use xlink:href="#Y" transform="translate(70.377)scale(.08025)"/><use xlink:href="#ap" transform="translate(78.401)scale(.08025)"/><use xlink:href="#as" transform="translate(94.45)scale(.08025)"/></g><g id="o"><use xlink:href="#ae" transform="scale(.08025)"/><use xlink:href="#aj" transform="translate(9.55)scale(.08025)"/><use xlink:href="#ah" transform="translate(25.599)scale(.08025)"/></g><g id="p"><use xlink:href="#at" transform="scale(.05556)"/><use xlink:href="#au" transform="translate(11.111)scale(.05556)"/></g><g id="q"><use xlink:href="#av" transform="scale(.08025)"/><use xlink:href="#aw" transform="translate(26.642)scale(.08025)"/><use xlink:href="#ax" transform="translate(42.691)scale(.08025)"/></g><g id="r"><use xlink:href="#ax" transform="scale(.08025)"/><use xlink:href="#ay" transform="translate(16.05)scale(.08025)"/><use xlink:href="#az" transform="translate(25.599)scale(.08025)"/><use xlink:href="#aA" transform="translate(41.648)scale(.08025)"/><use xlink:href="#aB" transform="translate(62.432)scale(.08025)"/><use xlink:href="#aw" transform="translate(76.877)scale(.08025)"/><use xlink:href="#ay" transform="translate(92.926)scale(.08025)"/></g><g id="s"><use xlink:href="#aA" transform="scale(.08025)"/><use xlink:href="#aC" transform="translate(20.784)scale(.08025)"/><use xlink:href="#aD" transform="translate(27.123)scale(.08025)"/><use xlink:href="#aE" transform="translate(35.148)scale(.08025)"/></g><g id="t"><use xlink:href="#aF" transform="scale(.08025)"/><use xlink:href="#aC" transform="translate(6.34)scale(.08025)"/><use xlink:href="#ax" transform="translate(12.679)scale(.08025)"/><use xlink:href="#aB" transform="translate(28.728)scale(.08025)"/><use xlink:href="#az" transform="translate(43.173)scale(.08025)"/><use xlink:href="#aG" transform="translate(59.222)scale(.08025)"/><use xlink:href="#aC" transform="translate(75.272)scale(.08025)"/><use xlink:href="#aH" transform="translate(81.611)scale(.08025)"/><use xlink:href="#aI" transform="translate(97.66)scale(.08025)"/></g><g id="u"><use xlink:href="#aJ" transform="scale(.08025)"/><use xlink:href="#aK" transform="translate(9.55)scale(.08025)"/><use xlink:href="#aL" transform="translate(28.809)scale(.08025)"/></g><g id="v"><use xlink:href="#aM" transform="scale(.09877)"/><use xlink:href="#aN" transform="translate(25.58)scale(.09877)"/><use xlink:href="#aO" transform="translate(45.333)scale(.09877)"/><use xlink:href="#aP" transform="translate(59.16)scale(.09877)"/><use xlink:href="#aQ" transform="translate(69.037)scale(.09877)"/><use xlink:href="#aN" transform="translate(88.79)scale(.09877)"/></g><g id="w"><use xlink:href="#aR" transform="scale(.09877)"/><use xlink:href="#aP" transform="translate(25.58)scale(.09877)"/><use xlink:href="#aS" transform="translate(35.457)scale(.09877)"/><use xlink:href="#aT" transform="translate(57.086)scale(.09877)"/></g><g id="x"><use xlink:href="#aU" transform="scale(.09877)"/><use xlink:href="#aV" transform="translate(25.58)scale(.09877)"/><use xlink:href="#aS" transform="translate(47.21)scale(.09877)"/><use xlink:href="#aW" transform="translate(68.84)scale(.09877)"/><use xlink:href="#aN" transform="translate(88.593)scale(.09877)"/></g><g id="y"><use xlink:href="#Z" transform="scale(.08025)"/><use xlink:href="#aa" transform="translate(14.444)scale(.08025)"/><use xlink:href="#ad" transform="translate(30.494)scale(.08025)"/><use xlink:href="#ai" transform="translate(40.043)scale(.08025)"/><use xlink:href="#W" transform="translate(54.488)scale(.08025)"/><use xlink:href="#ac" transform="translate(60.827)scale(.08025)"/><use xlink:href="#X" transform="translate(76.877)scale(.08025)"/></g><g id="A"><use xlink:href="#ae" transform="scale(.08025)"/><use xlink:href="#Z" transform="translate(9.55)scale(.08025)"/><use xlink:href="#ah" transform="translate(23.994)scale(.08025)"/></g><g id="B"><use xlink:href="#ak" transform="scale(.06173)"/><use xlink:href="#W" transform="translate(4.877)scale(.06173)"/><use xlink:href="#aY" transform="translate(9.753)scale(.06173)"/><use xlink:href="#ai" transform="translate(22.099)scale(.06173)"/><use xlink:href="#ac" transform="translate(33.21)scale(.06173)"/><use xlink:href="#aZ" transform="translate(45.556)scale(.06173)"/><use xlink:href="#W" transform="translate(57.901)scale(.06173)"/><use xlink:href="#an" transform="translate(62.778)scale(.06173)"/><use xlink:href="#as" transform="translate(75.123)scale(.06173)"/></g><g id="C"><use xlink:href="#ba" transform="scale(.06173)"/><use xlink:href="#bb" transform="translate(14.815)scale(.06173)"/><use xlink:href="#bc" transform="translate(27.16)scale(.06173)"/><use xlink:href="#bd" transform="translate(41.975)scale(.06173)"/><use xlink:href="#be" transform="translate(56.79)scale(.06173)"/><use xlink:href="#bf" transform="translate(71.605)scale(.06173)"/><use xlink:href="#aY" transform="translate(83.95)scale(.06173)"/></g><g id="D"><use xlink:href="#bd" transform="scale(.06173)"/><use xlink:href="#bg" transform="translate(14.815)scale(.06173)"/><use xlink:href="#aZ" transform="translate(25.926)scale(.06173)"/></g><g id="E"><use xlink:href="#aq" transform="scale(.06173)"/><use xlink:href="#aj" transform="translate(15.988)scale(.06173)"/><use xlink:href="#ai" transform="translate(28.333)scale(.06173)"/><use xlink:href="#ap" transform="translate(39.444)scale(.06173)"/></g><g id="F"><use xlink:href="#ae" transform="scale(.06173)"/><use xlink:href="#aq" transform="translate(7.346)scale(.06173)"/><use xlink:href="#ah" transform="translate(23.333)scale(.06173)"/></g><g id="G"><use xlink:href="#bd" transform="scale(.06173)"/><use xlink:href="#bh" transform="translate(14.815)scale(.06173)"/><use xlink:href="#bi" transform="translate(30.802)scale(.06173)"/></g><g id="H"><use xlink:href="#ae" transform="scale(.06173)"/><use xlink:href="#bh" transform="translate(7.346)scale(.06173)"/><use xlink:href="#aq" transform="translate(23.333 3.111)scale(.04321)"/><use xlink:href="#ah" transform="translate(34.525)scale(.06173)"/></g><g id="J"><use xlink:href="#bk" transform="scale(.08025)"/><use xlink:href="#aq" transform="translate(10.191)scale(.08025)"/><use xlink:href="#W" transform="translate(30.975)scale(.08025)"/><use xlink:href="#X" transform="translate(37.315)scale(.08025)"/><use xlink:href="#Y" transform="translate(53.364)scale(.08025)"/><use xlink:href="#bl" transform="translate(61.389)scale(.08025)"/><use xlink:href="#bd" transform="translate(77.438)scale(.08025)"/><use xlink:href="#aa" transform="translate(96.698)scale(.08025)"/><use xlink:href="#bg" transform="translate(112.747)scale(.08025)"/><use xlink:href="#bk" transform="translate(127.191)scale(.08025)"/><use xlink:href="#bm" transform="translate(137.383)scale(.08025)"/></g><g id="L"><use xlink:href="#ae" transform="scale(.08025)"/><use xlink:href="#bn" transform="translate(9.55)scale(.08025)"/><use xlink:href="#am" transform="translate(23.994)scale(.08025)"/><use xlink:href="#aq" transform="translate(40.043 4.044)scale(.05617)"/><use xlink:href="#ah" transform="translate(54.592)scale(.08025)"/></g><g id="M"><use xlink:href="#an" transform="scale(.08025)"/><use xlink:href="#ai" transform="translate(16.05)scale(.08025)"/><use xlink:href="#aa" transform="translate(30.494)scale(.08025)"/><use xlink:href="#ad" transform="translate(46.543)scale(.08025)"/></g><g id="N"><use xlink:href="#W" transform="scale(.08025)"/><use xlink:href="#X" transform="translate(6.34)scale(.08025)"/><use xlink:href="#am" transform="translate(22.389)scale(.08025)"/><use xlink:href="#an" transform="translate(38.438)scale(.08025)"/><use xlink:href="#Y" transform="translate(54.488)scale(.08025)"/></g><g id="O"><use xlink:href="#ac" transform="scale(.08025)"/><use xlink:href="#an" transform="translate(16.05)scale(.08025)"/><use xlink:href="#Y" transform="translate(32.099)scale(.08025)"/><use xlink:href="#am" transform="translate(40.123)scale(.08025)"/><use xlink:href="#an" transform="translate(56.173)scale(.08025)"/><use xlink:href="#Y" transform="translate(72.222)scale(.08025)"/></g><g id="P"><use xlink:href="#ac" transform="scale(.08025)"/><use xlink:href="#Y" transform="translate(16.05)scale(.08025)"/><use xlink:href="#ap" transform="translate(24.074)scale(.08025)"/><use xlink:href="#aa" transform="translate(40.123)scale(.08025)"/><use xlink:href="#ad" transform="translate(56.173)scale(.08025)"/></g><g id="Q"><use xlink:href="#aZ" transform="scale(.08025)"/><use xlink:href="#aj" transform="translate(16.05)scale(.08025)"/><use xlink:href="#Y" transform="translate(32.099)scale(.08025)"/><use xlink:href="#aj" transform="translate(40.123)scale(.08025)"/></g><g id="R"><use xlink:href="#ai" transform="scale(.08025)"/><use xlink:href="#an" transform="translate(14.444)scale(.08025)"/><use xlink:href="#aY" transform="translate(30.494)scale(.08025)"/><use xlink:href="#am" transform="translate(46.543)scale(.08025)"/><use xlink:href="#ad" transform="translate(62.593)scale(.08025)"/><use xlink:href="#ac" transform="translate(72.142)scale(.08025)"/><use xlink:href="#ab" transform="translate(88.191)scale(.08025)"/><use xlink:href="#aa" transform="translate(102.636)scale(.08025)"/><use xlink:href="#ai" transform="translate(118.685)scale(.08025)"/><use xlink:href="#ai" transform="translate(133.13)scale(.08025)"/></g><g id="S"><use xlink:href="#W" transform="scale(.08025)"/><use xlink:href="#X" transform="translate(6.34)scale(.08025)"/><use xlink:href="#am" transform="translate(22.389)scale(.08025)"/><use xlink:href="#an" transform="translate(38.438)scale(.08025)"/><use xlink:href="#Y" transform="translate(54.488)scale(.08025)"/></g><g id="T"><use xlink:href="#ae" transform="scale(.08025)"/><use xlink:href="#ak" transform="translate(9.55)scale(.08025)"/><use xlink:href="#W" transform="translate(15.889)scale(.08025)"/><use xlink:href="#X" transform="translate(22.228)scale(.08025)"/><use xlink:href="#bn" transform="translate(38.278)scale(.08025)"/><use xlink:href="#ah" transform="translate(52.722)scale(.08025)"/></g><g id="V"><use xlink:href="#ac" transform="scale(.08025)"/><use xlink:href="#an" transform="translate(16.05)scale(.08025)"/><use xlink:href="#Y" transform="translate(32.099)scale(.08025)"/><use xlink:href="#am" transform="translate(40.123)scale(.08025)"/><use xlink:href="#an" transform="translate(56.173)scale(.08025)"/><use xlink:href="#Y" transform="translate(72.222)scale(.08025)"/></g><use xlink:href="#ao" id="i" transform="scale(.05556)"/><use xlink:href="#aX" id="z" transform="scale(.08025)"/><use xlink:href="#bj" id="I" transform="scale(.05556)"/><use xlink:href="#bf" id="K" transform="scale(.08025)"/></defs></g></svg>