<svg xmlns="http://www.w3.org/2000/svg" xmlns:lucid="lucid" xmlns:xlink="http://www.w3.org/1999/xlink" width="1524" height="1287" viewBox="0 0 1524 1287"><g lucid:page-tab-id="AG8Z43jWasxt" transform="translate(-78 1060)"><path fill="none" stroke="#008a0e" stroke-width="4" d="M120-788a12 12 0 0 1 12-12h1416a12 12 0 0 1 12 12V28a12 12 0 0 1-12 12H132a12 12 0 0 1-12-12z"/><path fill="#f4d9ff" stroke="#3a414a" d="M1262.17-700h198.66l-21.33 80h-198.67z" class="qc-clickable" data-target="06"/><use xlink:href="#a" transform="translate(1260.307 -669.67)"/><use xlink:href="#b" transform="translate(1324.425 -669.67)"/><use xlink:href="#c" transform="translate(1320.99 -635.003)"/><path fill="#f4d9ff" stroke="#3a414a" d="M742.17-700h198.66l-21.33 80H720.83z" class="qc-clickable" data-target="06"/><use xlink:href="#d" transform="translate(812.91 -671.057)"/><use xlink:href="#e" transform="translate(802.023 -636.39)"/><path fill="#cfe4ff" stroke="#3a414a" d="M482.17-700h198.66l-21.33 80H460.83z"/><use xlink:href="#f" transform="translate(508.773 -671.057)"/><use xlink:href="#g" transform="translate(571.286 -671.057)"/><use xlink:href="#h" transform="translate(545.594 -636.39)"/><path fill="#979ea8" stroke="#979ea8" stroke-width=".05" d="M1002.5-519.02h-93.06l-.83.06-.75.18-.73.3-.67.42-.6.5-.5.6-.43.68-.3.73-.18.76-.07.84V-479h-1.95v-35.04l.1-1.05.24-1.06.42-1 .57-.94.72-.83.83-.72.93-.57 1-.42 1.08-.25 1.06-.08h93.14zm349.3-6.94-.08 1.05-.25 1.06-.42 1-.57.94-.7.83-.85.72-.93.57-1 .42-1.08.25-1.05.08h-321.65V-521h321.58l.82-.06.77-.18.7-.3.7-.42.58-.5.52-.6.4-.68.3-.73.2-.76.06-.84v-92.46h1.95z"/><path fill="#979ea8" d="M1351.8-618.47h-1.94v-1.03h1.95zM903.4-463.74 898.76-478h9.27z"/><path fill="#979ea8" stroke="#979ea8" stroke-width=".05" d="m903.4-460.58-5.98-18.4h11.96zm-3.3-16.45 3.3 10.14 3.3-10.13z"/><use xlink:href="#i" transform="translate(1002.503 -516)"/><path fill="#ffcf99" stroke="#3a414a" d="M741.33-100H940l-21.33 80H720z"/><use xlink:href="#j" transform="translate(741.539 -71.057)"/><use xlink:href="#k" transform="translate(796.027 -71.057)"/><use xlink:href="#l" transform="translate(882.533 -71.057)"/><use xlink:href="#m" transform="translate(801.459 -36.39)"/><path fill="#979ea8" stroke="#979ea8" stroke-width=".05" d="m831.8-499.97-.27.67-.05.02v20.78h-1.96v-21.53l.28-.67.06-.02v-48.16h1.95zm0-72.9h-1.94v-45.63h1.95z"/><path fill="#979ea8" d="M831.8-618.47h-1.94v-1.03h1.95zm-1.3 155.23-4.63-14.26h9.26z"/><path fill="#979ea8" stroke="#979ea8" stroke-width=".05" d="m830.5-460.08-5.98-18.4h11.96zm-3.3-16.45 3.3 10.14 3.3-10.13z"/><use xlink:href="#i" transform="translate(820.477 -556.878)"/><path fill="#f4d9ff" stroke="#3a414a" d="M1002.17-700h198.66l-21.33 80H980.83z" class="qc-clickable" data-target="06"/><use xlink:href="#n" transform="translate(1036.116 -671.057)"/><use xlink:href="#o" transform="translate(1068.764 -636.39)"/><path fill="#979ea8" stroke="#979ea8" stroke-width=".05" d="M830.98-119H829v-18.3h2zm0-42.3H829V-179h2z"/><path fill="#979ea8" d="M830.98-178.97H829V-180h2zm-.98 75.23L825.37-118h9.26z"/><path fill="#979ea8" stroke="#979ea8" stroke-width=".05" d="m830-100.58-5.98-18.4h11.96zm-3.3-16.45 3.3 10.14 3.3-10.13z"/><use xlink:href="#p" transform="translate(818.894 -145.292)"/><path fill="#979ea8" stroke="#979ea8" stroke-width=".05" d="m784.1-560.98 1.06.1 1.06.24 1 .42.95.58.83.7.7.84.58.93.42 1 .26 1.08.08 1.06v75.54h-1.95v-75.46l-.07-.83-.2-.75-.3-.73-.4-.67-.5-.6-.6-.5-.68-.43-.73-.3-.77-.18-.82-.06h-72.97v-2zm-212.23-4.23.2.75.3.73.4.67.5.6.6.5.68.43.73.3.77.18.82.06h113.47v1.96H576.8l-1.06-.1-1.06-.24-1-.42-.95-.58-.83-.7-.7-.84-.58-.93-.42-1-.26-1.08-.08-1.06v-52.54h1.95v52.46z"/><path fill="#979ea8" d="M571.8-618.47h-1.94v-1.03h1.95zm218.27 155.23-4.64-14.26h9.27z"/><path fill="#979ea8" stroke="#979ea8" stroke-width=".05" d="m790.07-460.08-5.98-18.4h11.94zm-3.3-16.45 3.3 10.14 3.3-10.13z"/><use xlink:href="#i" transform="translate(690.343 -556)"/><path fill="#008a0e" d="M120-788a12 12 0 0 1 12-12h416a12 12 0 0 1 12 12v39.33a12 12 0 0 1-12 12H132a12 12 0 0 1-12-12z"/><use xlink:href="#q" transform="translate(137.738 -762.186)"/><use xlink:href="#r" transform="translate(204.503 -762.186)"/><use xlink:href="#s" transform="translate(315.003 -762.186)"/><use xlink:href="#t" transform="translate(374.225 -762.186)"/><use xlink:href="#u" transform="translate(503.904 -762.186)"/><path fill="#dfe3e8" d="M120-1002.45a17.55 17.55 0 0 1 17.55-17.55h184.9a17.55 17.55 0 0 1 17.55 17.55v140.4a17.55 17.55 0 0 1-17.55 17.55h-184.9A17.55 17.55 0 0 1 120-862.05z"/><use xlink:href="#v" transform="translate(140 -946.222)"/><use xlink:href="#w" transform="translate(140 -903.556)"/><use xlink:href="#x" transform="translate(218.716 -903.556)"/><path fill="#cfe4ff" stroke="#3a414a" d="M221.33-700H420l-21.33 80H200z"/><use xlink:href="#y" transform="translate(256.005 -671.057)"/><use xlink:href="#z" transform="translate(356.956 -671.057)"/><use xlink:href="#A" transform="translate(288.733 -636.39)"/><path fill="#979ea8" stroke="#979ea8" stroke-width=".05" d="m752.07-520.98 1.05.1 1.07.24 1 .42.93.58.83.7.7.84.6.93.4 1 .26 1.08.08 1.06v35.54h-1.95v-35.46l-.06-.83-.2-.75-.3-.73-.4-.67-.52-.6-.6-.5-.67-.43-.72-.3-.76-.18-.83-.06H635.13v-2zm-441.03-4.23.18.75.3.73.42.67.5.6.6.5.68.43.73.3.76.18.84.06h298.38v1.96H315.96l-1.05-.1-1.06-.24-1-.42-.94-.58-.83-.7-.7-.84-.6-.93-.4-1-.26-1.08-.08-1.06v-92.54H311v92.46z"/><path fill="#979ea8" d="M310.98-618.47h-1.96v-1.03h1.96zm447.05 155.23-4.64-14.26h9.26z"/><path fill="#979ea8" stroke="#979ea8" stroke-width=".05" d="m758.03-460.08-5.98-18.4H764zm-3.3-16.45 3.3 10.14 3.3-10.13z"/><use xlink:href="#i" transform="translate(614.424 -516)"/><path fill="#979ea8" stroke="#979ea8" stroke-width=".05" d="M948.75-559.02h-75.3l-.84.06-.75.18-.73.3-.67.42-.6.5-.5.6-.43.68-.3.73-.18.76-.07.84V-479h-1.95v-75.04l.1-1.05.24-1.06.42-1 .57-.94.72-.83.83-.72.93-.57 1-.42 1.08-.25 1.06-.08h75.4zm143.06-6.94-.08 1.05-.25 1.06-.42 1-.57.94-.7.83-.85.72-.93.57-1 .42-1.08.25-1.05.08h-115.4V-561h115.33l.82-.06.77-.18.7-.3.7-.42.58-.5.52-.6.4-.68.3-.73.2-.76.06-.84v-52.46h1.95z"/><path fill="#979ea8" d="M1091.8-618.47h-1.94v-1.03h1.95zM867.4-463.74 862.76-478h9.27z"/><path fill="#979ea8" stroke="#979ea8" stroke-width=".05" d="m867.4-460.58-5.98-18.4h11.96zm-3.3-16.45 3.3 10.14 3.3-10.13z"/><use xlink:href="#i" transform="translate(948.76 -556)"/><path fill="#fff" stroke="#3a414a" d="M720.5-448a12 12 0 0 1 12-12h196a12 12 0 0 1 12 12v76a12 12 0 0 1-12 12h-196a12 12 0 0 1-12-12z"/><path fill="none" stroke="#3a414a" stroke-width="2" d="M721.5-420H940m-218.47 0h-1.03m219.47 0H941"/><path fill="none" d="M720.5-460h220v40h-220z"/><use xlink:href="#B" transform="translate(783.71 -435.347)"/><path fill="none" d="M720.5-435h220v90h-220z"/><use xlink:href="#C" transform="translate(731.148 -398.785)"/><use xlink:href="#D" transform="translate(833.617 -398.785)"/><use xlink:href="#E" transform="translate(878.062 -398.785)"/><use xlink:href="#F" transform="translate(815.16 -372.118)"/><path fill="#fff" stroke="#3a414a" d="M720-268a12 12 0 0 1 12-12h196a12 12 0 0 1 12 12v76a12 12 0 0 1-12 12H732a12 12 0 0 1-12-12z"/><path fill="none" d="M720-280h220v40H720z"/><use xlink:href="#B" transform="translate(783.21 -255.347)"/><path fill="none" stroke="#3a414a" stroke-width="2" d="M721-240h218.5m-218.47 0H720m219.47 0h1.03"/><path fill="none" d="M720-240h220v60H720z"/><use xlink:href="#C" transform="translate(756.605 -216.832)"/><use xlink:href="#G" transform="translate(859.074 -216.832)"/><use xlink:href="#H" transform="translate(809.065 -190.165)"/><path fill="#979ea8" stroke="#979ea8" stroke-width=".05" d="M830.98-298.5H829v-9.25h2zm.5-33.25h-1.96v-26.75h1.96z"/><path fill="#979ea8" d="M831.48-358.47h-1.96v-1.03h1.96zM830-283.24l-4.63-14.26h9.26z"/><path fill="#979ea8" stroke="#979ea8" stroke-width=".05" d="m830-280.08-5.98-18.4h11.96zm-3.3-16.45 3.3 10.14 3.3-10.13z"/><use xlink:href="#I" transform="translate(819.144 -315.75)"/><path fill="#cfe4ff" stroke="#3a414a" d="M1168.16-270.5h198.66l-21.33 80h-198.67z"/><use xlink:href="#J" transform="translate(1176.589 -241.543)"/><use xlink:href="#K" transform="translate(1330.02 -241.543)"/><use xlink:href="#L" transform="translate(1220.259 -206.876)"/><path fill="#979ea8" stroke="#979ea8" stroke-width=".05" d="M1013.36-229.5H958.5v-1.96h54.86zm142.6 0H1035.6v-1.96H1156z"/><path fill="#979ea8" d="M1156.7-229.5h-.75v-1.96h1.28zm-199.2 3.65-14.26-4.64 14.26-4.62z"/><path fill="#979ea8" stroke="#979ea8" stroke-width=".05" d="m958.48-224.5-18.4-6 18.4-5.96zm-12.1-6 10.15 3.3v-6.58z"/><use xlink:href="#I" transform="translate(1013.362 -226.486)"/><path fill="#cfe682" stroke="#3a414a" d="M127.73 65h51.44l-7.74 29H120z"/><path fill="#cfe4ff" stroke="#3a414a" d="M127.73 161.5h51.44l-7.74 29H120z"/><path fill="#fff7a1" stroke="#3a414a" d="M127.73 113.25h51.44l-7.74 29H120z"/><path fill="none" d="M200 60h225.93v38.67H200z"/><use xlink:href="#a" transform="translate(205 88.564)"/><use xlink:href="#M" transform="translate(269.117 88.564)"/><path fill="none" d="M200 108.5h240v38.67H200z"/><use xlink:href="#a" transform="translate(205 137.064)"/><use xlink:href="#N" transform="translate(269.117 137.064)"/><path fill="none" d="M200 157.67h240v38.66H200z"/><use xlink:href="#O" transform="translate(205 186.23)"/><use xlink:href="#P" transform="translate(278.747 186.23)"/><path fill="#f4d9ff" stroke="#3a414a" d="M507.73 68.83h51.44l-7.74 29H500z"/><path fill="none" d="M580 65h340v36.67H580z"/><use xlink:href="#Q" transform="translate(585 93.111)"/><use xlink:href="#R" transform="translate(740.599 93.111)"/><use xlink:href="#S" transform="translate(811.136 93.111)"/><use xlink:href="#T" transform="translate(585 127.778)"/><path fill="#ffcf99" stroke="#3a414a" d="M507.73 117.08h51.44l-7.74 29H500z"/><path fill="none" d="M580 113.25h260v36.67H580z"/><use xlink:href="#Q" transform="translate(585 141.361)"/><use xlink:href="#U" transform="translate(740.599 141.361)"/><use xlink:href="#T" transform="translate(585 176.028)"/><path fill="#cfe682" stroke="#3a414a" d="M1128.73-654h51.44l-7.74 29H1121z"/><defs><path id="V" fill="#3a414a" d="M84 4C-5 8 30-112 23-190h32v120c0 31 7 50 39 49 72-2 45-101 50-169h31l1 190h-30c-1-10 1-25-2-33-11 22-28 36-60 37"/><path id="W" fill="#3a414a" d="M135-143c-3-34-86-38-87 0 15 53 115 12 119 90S17 21 10-45l28-5c4 36 97 45 98 0-10-56-113-15-118-90-4-57 82-63 122-42 12 7 21 19 24 35"/><path id="X" fill="#3a414a" d="M100-194c63 0 86 42 84 106H49c0 40 14 67 53 68 26 1 43-12 49-29l28 8c-11 28-37 45-77 45C44 4 14-33 15-96c1-61 26-98 85-98m52 81c6-60-76-77-97-28-3 7-6 17-6 28z"/><path id="Y" fill="#3a414a" d="M114-163C36-179 61-72 57 0H25l-1-190h30c1 12-1 29 2 39 6-27 23-49 58-41z"/><path id="Z" fill="#3a414a" d="M96-169c-40 0-48 33-48 73s9 75 48 75c24 0 41-14 43-38l32 2c-6 37-31 61-74 61-59 0-76-41-82-99-10-93 101-131 147-64 4 7 5 14 7 22l-32 3c-4-21-16-35-41-35"/><path id="aa" fill="#3a414a" d="M85-194c31 0 48 13 60 33l-1-100h32l1 261h-30c-2-10 0-23-3-31C134-8 116 4 85 4 32 4 16-35 15-94c0-66 23-100 70-100m9 24c-40 0-46 34-46 75 0 40 6 74 45 74 42 0 51-32 51-76 0-42-9-74-50-73"/><path id="ab" fill="#3a414a" d="M117-194c89-4 53 116 60 194h-32v-121c0-31-8-49-39-48C34-167 62-67 57 0H25l-1-190h30c1 10-1 24 2 32 11-22 29-35 61-36"/><path id="ac" fill="#3a414a" d="M59-47c-2 24 18 29 38 22v24C64 9 27 4 27-40v-127H5v-23h24l9-43h21v43h35v23H59z"/><path id="ad" fill="#3a414a" d="M24-231v-30h32v30zM24 0v-190h32V0z"/><path id="ae" fill="#3a414a" d="M141-36C126-15 110 5 73 4 37 3 15-17 15-53c-1-64 63-63 125-63 3-35-9-54-41-54-24 1-41 7-42 31l-33-3c5-37 33-52 76-52 45 0 72 20 72 64v82c-1 20 7 32 28 27v20c-31 9-61-2-59-35M48-53c0 20 12 33 32 33 41-3 63-29 60-74-43 2-92-5-92 41"/><path id="af" fill="#3a414a" d="M24 0v-261h32V0z"/><path id="ag" fill="#3a414a" d="M87 75C49 33 22-17 22-94c0-76 28-126 65-167h31c-38 41-64 92-64 168S80 34 118 75z"/><path id="ah" fill="#3a414a" d="M212-179c-10-28-35-45-73-45-59 0-87 40-87 99 0 60 29 101 89 101 43 0 62-24 78-52l27 14C228-24 195 4 139 4 59 4 22-46 18-125c-6-104 99-153 187-111 19 9 31 26 39 46"/><path id="ai" fill="#3a414a" d="M33-261c38 41 65 92 65 168S71 34 33 75H2C39 34 66-17 66-93S39-220 2-261z"/><path id="aj" fill="#3a414a" d="M185-189c-5-48-123-54-124 2 14 75 158 14 163 119 3 78-121 87-175 55-17-10-28-26-33-46l33-7c5 56 141 63 141-1 0-78-155-14-162-118-5-82 145-84 179-34 5 7 8 16 11 25"/><path id="ak" fill="#3a414a" d="M100-194c62-1 85 37 85 99 1 63-27 99-86 99S16-35 15-95c0-66 28-99 85-99M99-20c44 1 53-31 53-75 0-43-8-75-51-75s-53 32-53 75 10 74 51 75"/><path id="al" fill="#3a414a" d="M115-194c55 1 70 41 70 98S169 2 115 4C84 4 66-9 55-30l1 105H24l-1-265h31l2 30c10-21 28-34 59-34m-8 174c40 0 45-34 45-75s-6-73-45-74c-42 0-51 32-51 76 0 43 10 73 51 73"/><path id="am" fill="#333" d="M27 0v-27h64v-190l-56 39v-29l58-41h29v221h61V0z"/><path id="an" fill="#3a414a" d="M106-169C34-169 62-67 57 0H25v-261h32l-1 103c12-21 28-36 61-36 89 0 53 116 60 194h-32v-121c2-32-8-49-39-48"/><path id="ao" fill="#3a414a" d="M143 0 79-87 56-68V0H24v-261h32v163l83-92h37l-77 82L181 0z"/><path id="ap" fill="#3a414a" d="M179-190 93 31C79 59 56 82 12 73V49c39 6 53-20 64-50L1-190h34L92-34l54-156z"/><path id="aq" fill="#3a414a" d="M197 0v-115H63V0H30v-248h33v105h134v-105h34V0z"/><path id="ar" fill="#3a414a" d="M177-190C167-65 218 103 67 71c-23-6-38-20-44-43l32-5c15 47 100 32 89-28v-30C133-14 115 1 83 1 29 1 15-40 15-95c0-56 16-97 71-98 29-1 48 16 59 35 1-10 0-23 2-32zM94-22c36 0 50-32 50-73 0-42-14-75-50-75-39 0-46 34-46 75s6 73 46 73"/><path id="as" fill="#3a414a" d="M210-169c-67 3-38 105-44 169h-31v-121c0-29-5-50-35-48C34-165 62-65 56 0H25l-1-190h30c1 10-1 24 2 32 10-44 99-50 107 0 11-21 27-35 58-36 85-2 47 119 55 194h-31v-121c0-29-5-49-35-48"/><path id="at" fill="#333" d="M126-127c33 6 58 20 58 59 0 88-139 92-164 29-3-8-5-16-6-25l32-3c6 27 21 44 54 44 32 0 52-15 52-46 0-38-36-46-79-43v-28c39 1 72-4 72-42 0-27-17-43-46-43-28 0-47 15-49 41l-32-3c6-42 35-63 81-64 48-1 79 21 79 65 0 36-21 52-52 59"/><path id="au" fill="#fff" d="M266 0h-40l-56-210L115 0H75L2-248h35L96-30l15-64 43-154h32l59 218 59-218h35"/><path id="av" fill="#fff" d="M100-194c63 0 86 42 84 106H49c0 40 14 67 53 68 26 1 43-12 49-29l28 8c-11 28-37 45-77 45C44 4 14-33 15-96c1-61 26-98 85-98m52 81c6-60-76-77-97-28-3 7-6 17-6 28z"/><path id="aw" fill="#fff" d="M115-194c53 0 69 39 70 98 0 66-23 100-70 100C84 3 66-7 56-30L54 0H23l1-261h32v101c10-23 28-34 59-34m-8 174c40 0 45-34 45-75 0-40-5-75-45-74-42 0-51 32-51 76 0 43 10 73 51 73"/><path id="ax" fill="#fff" d="M114-163C36-179 61-72 57 0H25l-1-190h30c1 12-1 29 2 39 6-27 23-49 58-41z"/><path id="ay" fill="#fff" d="M100-194c62-1 85 37 85 99 1 63-27 99-86 99S16-35 15-95c0-66 28-99 85-99M99-20c44 1 53-31 53-75 0-43-8-75-51-75s-53 32-53 75 10 74 51 75"/><path id="az" fill="#fff" d="M206 0h-36l-40-164L89 0H53L-1-190h32L70-26l43-164h34l41 164 42-164h31"/><path id="aA" fill="#fff" d="M135-143c-3-34-86-38-87 0 15 53 115 12 119 90S17 21 10-45l28-5c4 36 97 45 98 0-10-56-113-15-118-90-4-57 82-63 122-42 12 7 21 19 24 35"/><path id="aB" fill="#fff" d="M24-231v-30h32v30zM24 0v-190h32V0z"/><path id="aC" fill="#fff" d="M59-47c-2 24 18 29 38 22v24C64 9 27 4 27-40v-127H5v-23h24l9-43h21v43h35v23H59z"/><path id="aD" fill="#fff" d="M106-169C34-169 62-67 57 0H25v-261h32l-1 103c12-21 28-36 61-36 89 0 53 116 60 194h-32v-121c2-32-8-49-39-48"/><path id="aE" fill="#fff" d="M24 0v-261h32V0z"/><path id="aF" fill="#fff" d="M85-194c31 0 48 13 60 33l-1-100h32l1 261h-30c-2-10 0-23-3-31C134-8 116 4 85 4 32 4 16-35 15-94c0-66 23-100 70-100m9 24c-40 0-46 34-46 75 0 40 6 74 45 74 42 0 51-32 51-76 0-42-9-74-50-73"/><path id="aG" fill="#fff" d="M84 4C-5 8 30-112 23-190h32v120c0 31 7 50 39 49 72-2 45-101 50-169h31l1 190h-30c-1-10 1-25-2-33-11 22-28 36-60 37"/><path id="aH" fill="#fff" d="M210-169c-67 3-38 105-44 169h-31v-121c0-29-5-50-35-48C34-165 62-65 56 0H25l-1-190h30c1 10-1 24 2 32 10-44 99-50 107 0 11-21 27-35 58-36 85-2 47 119 55 194h-31v-121c0-29-5-49-35-48"/><path id="aI" fill="#fff" d="M87 75C49 33 22-17 22-94c0-76 28-126 65-167h31c-38 41-64 92-64 168S80 34 118 75z"/><path id="aJ" fill="#fff" d="M160-131c35 5 61 23 61 61C221 17 115-2 30 0v-248c76 3 177-17 177 60 0 33-19 50-47 57m-97-11c50-1 110 9 110-42 0-47-63-36-110-37zm0 115c55-2 124 14 124-45 0-56-70-42-124-44z"/><path id="aK" fill="#fff" d="M33-261c38 41 65 92 65 168S71 34 33 75H2C39 34 66-17 66-93S39-220 2-261z"/><path id="aL" fill="#3a414a" d="M24-248c120-7 223 5 221 122C244-46 201 0 124 0H24zM76-40c74 7 117-18 117-86 0-67-45-88-117-82z"/><path id="aM" fill="#3a414a" d="M185-48c-13 30-37 53-82 52C43 2 14-33 14-96s30-98 90-98c62 0 83 45 84 108H66c0 31 8 55 39 56 18 0 30-7 34-22zm-45-69c5-46-57-63-70-21-2 6-4 13-4 21z"/><path id="aN" fill="#3a414a" d="M135-150c-39-12-60 13-60 57V0H25l-1-190h47c2 13-1 29 3 40 6-28 27-53 61-41z"/><path id="aO" fill="#3a414a" d="M25-224v-37h50v37zM25 0v-190h50V0z"/><path id="aP" fill="#3a414a" d="M128 0H69L1-190h53L99-40l48-150h52"/><path id="aQ" fill="#3a414a" d="M186 0v-106H76V0H24v-248h52v99h110v-99h50V0z"/><path id="aR" fill="#3a414a" d="M135-194c87-1 58 113 63 194h-50c-7-57 23-157-34-157-59 0-34 97-39 157H25l-1-190h47c2 12-1 28 3 38 12-26 28-41 61-42"/><path id="aS" fill="#3a414a" d="M115-3C79 11 28 4 28-45v-112H4v-33h27l15-45h31v45h36v33H77v99c-1 23 16 31 38 25z"/><path id="aT" fill="#3a414a" d="m195 0-88-114-31 24V0H24v-248h52v113l112-113h60L142-143 257 0z"/><path id="aU" fill="#3a414a" d="M123 10C108 53 80 86 19 72V37c35 8 53-11 59-39L3-190h52l48 148c12-52 28-100 44-148h51"/><path id="aV" fill="#3a414a" d="M108 0H70L1-190h34L89-25l56-165h34"/><path id="aW" fill="#3a414a" d="M64 0c3-98 48-159 88-221H18v-27h164v26C143-157 98-101 97 0z"/><path id="aX" fill="#3a414a" d="M115-194c53 0 69 39 70 98 0 66-23 100-70 100C84 3 66-7 56-30L54 0H23l1-261h32v101c10-23 28-34 59-34m-8 174c40 0 45-34 45-75 0-40-5-75-45-74-42 0-51 32-51 76 0 43 10 73 51 73"/><path id="aY" fill="#3a414a" d="M160-131c35 5 61 23 61 61C221 17 115-2 30 0v-248c76 3 177-17 177 60 0 33-19 50-47 57m-97-11c50-1 110 9 110-42 0-47-63-36-110-37zm0 115c55-2 124 14 124-45 0-56-70-42-124-44z"/><path id="aZ" fill="#3a414a" d="M30 0v-248h33v221h125V0z"/><path id="ba" fill="#3a414a" d="m205 0-28-72H64L36 0H1l101-248h38L239 0zm-38-99-47-123c-12 45-31 82-46 123z"/><path id="bb" fill="#3a414a" d="M194 0 95-120 63-95V0H30v-248h33v124l119-124h40L117-140 236 0z"/><path id="bc" fill="#3a414a" d="M30 0v-248h187v28H63v79h144v27H63v87h162V0z"/><path id="bd" fill="#3a414a" d="M101-251c82-7 93 87 43 132L82-64C71-53 59-42 53-27h129V0H18c2-99 128-94 128-182 0-28-16-43-45-43s-46 15-49 41l-32-3c6-41 34-60 81-64"/><path id="be" fill="#3a414a" d="M30-248c118-7 216 8 213 122C240-48 200 0 122 0H30zM63-27c89 8 146-16 146-99s-60-101-146-95z"/><path id="bf" fill="#3a414a" d="M63-220v92h138v28H63V0H30v-248h175v28z"/><path id="bg" fill="#333" d="M101-251c82-7 93 87 43 132L82-64C71-53 59-42 53-27h129V0H18c2-99 128-94 128-182 0-28-16-43-45-43s-46 15-49 41l-32-3c6-41 34-60 81-64"/><path id="bh" fill="#3a414a" d="M109-170H84l-4-78h32zm-65 0H19l-4-78h33"/><path id="bi" fill="#3a414a" d="M-5 72V49h209v23z"/><path id="bj" fill="#3a414a" d="M68-38c1 34 0 65-14 84H32c9-13 17-26 17-46H33v-38z"/><path id="bk" fill="#3a414a" d="M27 0v-27h64v-190l-56 39v-29l58-41h29v221h61V0z"/><g id="a"><use xlink:href="#V" transform="scale(.08025)"/><use xlink:href="#W" transform="translate(16.05)scale(.08025)"/><use xlink:href="#X" transform="translate(30.494)scale(.08025)"/><use xlink:href="#Y" transform="translate(46.543)scale(.08025)"/></g><g id="b"><use xlink:href="#Z" transform="scale(.08025)"/><use xlink:href="#Y" transform="translate(14.444)scale(.08025)"/><use xlink:href="#X" transform="translate(23.994)scale(.08025)"/><use xlink:href="#aa" transform="translate(40.043)scale(.08025)"/><use xlink:href="#X" transform="translate(56.093)scale(.08025)"/><use xlink:href="#ab" transform="translate(72.142)scale(.08025)"/><use xlink:href="#ac" transform="translate(88.191)scale(.08025)"/><use xlink:href="#ad" transform="translate(96.216)scale(.08025)"/><use xlink:href="#ae" transform="translate(102.556)scale(.08025)"/><use xlink:href="#af" transform="translate(118.605)scale(.08025)"/></g><g id="c"><use xlink:href="#ag" transform="scale(.08025)"/><use xlink:href="#V" transform="translate(9.55)scale(.08025)"/><use xlink:href="#ah" transform="translate(25.599 4.044)scale(.05617)"/><use xlink:href="#ai" transform="translate(40.148)scale(.08025)"/></g><g id="d"><use xlink:href="#W" transform="scale(.08025)"/><use xlink:href="#ae" transform="translate(14.444)scale(.08025)"/><use xlink:href="#af" transform="translate(30.494)scale(.08025)"/><use xlink:href="#ac" transform="translate(36.833)scale(.08025)"/></g><g id="e"><use xlink:href="#ag" transform="scale(.08025)"/><use xlink:href="#ab" transform="translate(9.55)scale(.08025)"/><use xlink:href="#aj" transform="translate(25.599 4.044)scale(.05617)"/><use xlink:href="#ai" transform="translate(39.08)scale(.08025)"/></g><g id="f"><use xlink:href="#af" transform="scale(.08025)"/><use xlink:href="#ak" transform="translate(6.34)scale(.08025)"/><use xlink:href="#ak" transform="translate(22.389)scale(.08025)"/><use xlink:href="#al" transform="translate(38.438)scale(.08025)"/></g><g id="g"><use xlink:href="#Z" transform="scale(.08025)"/><use xlink:href="#ak" transform="translate(14.444)scale(.08025)"/><use xlink:href="#V" transform="translate(30.494)scale(.08025)"/><use xlink:href="#ab" transform="translate(46.543)scale(.08025)"/><use xlink:href="#ac" transform="translate(62.593)scale(.08025)"/></g><g id="h"><use xlink:href="#ag" transform="scale(.08025)"/><use xlink:href="#af" transform="translate(9.55)scale(.08025)"/><use xlink:href="#al" transform="translate(15.889)scale(.08025)"/><use xlink:href="#ai" transform="translate(31.938)scale(.08025)"/></g><g id="i"><use xlink:href="#am" transform="scale(.05556)"/><use xlink:href="#am" transform="translate(9.611)scale(.05556)"/></g><g id="j"><use xlink:href="#an" transform="scale(.08025)"/><use xlink:href="#ad" transform="translate(16.05)scale(.08025)"/><use xlink:href="#ab" transform="translate(22.389)scale(.08025)"/><use xlink:href="#ac" transform="translate(38.438)scale(.08025)"/></g><g id="k"><use xlink:href="#Z" transform="scale(.08025)"/><use xlink:href="#ad" transform="translate(14.444)scale(.08025)"/><use xlink:href="#al" transform="translate(20.784)scale(.08025)"/><use xlink:href="#an" transform="translate(36.833)scale(.08025)"/><use xlink:href="#X" transform="translate(52.883)scale(.08025)"/><use xlink:href="#Y" transform="translate(68.932)scale(.08025)"/></g><g id="l"><use xlink:href="#ao" transform="scale(.08025)"/><use xlink:href="#X" transform="translate(14.444)scale(.08025)"/><use xlink:href="#ap" transform="translate(30.494)scale(.08025)"/></g><g id="m"><use xlink:href="#ag" transform="scale(.08025)"/><use xlink:href="#ao" transform="translate(9.55)scale(.08025)"/><use xlink:href="#aq" transform="translate(23.994 4.044)scale(.05617)"/><use xlink:href="#ai" transform="translate(38.543)scale(.08025)"/></g><g id="n"><use xlink:href="#ae" transform="scale(.08025)"/><use xlink:href="#af" transform="translate(16.05)scale(.08025)"/><use xlink:href="#ar" transform="translate(22.389)scale(.08025)"/><use xlink:href="#ak" transform="translate(38.438)scale(.08025)"/><use xlink:href="#Y" transform="translate(54.488)scale(.08025)"/><use xlink:href="#ad" transform="translate(64.037)scale(.08025)"/><use xlink:href="#ac" transform="translate(70.377)scale(.08025)"/><use xlink:href="#an" transform="translate(78.401)scale(.08025)"/><use xlink:href="#as" transform="translate(94.45)scale(.08025)"/></g><g id="o"><use xlink:href="#ag" transform="scale(.08025)"/><use xlink:href="#ae" transform="translate(9.55)scale(.08025)"/><use xlink:href="#ai" transform="translate(25.599)scale(.08025)"/></g><g id="p"><use xlink:href="#am" transform="scale(.05556)"/><use xlink:href="#at" transform="translate(11.111)scale(.05556)"/></g><g id="q"><use xlink:href="#au" transform="scale(.08025)"/><use xlink:href="#av" transform="translate(26.642)scale(.08025)"/><use xlink:href="#aw" transform="translate(42.691)scale(.08025)"/></g><g id="r"><use xlink:href="#aw" transform="scale(.08025)"/><use xlink:href="#ax" transform="translate(16.05)scale(.08025)"/><use xlink:href="#ay" transform="translate(25.599)scale(.08025)"/><use xlink:href="#az" transform="translate(41.648)scale(.08025)"/><use xlink:href="#aA" transform="translate(62.432)scale(.08025)"/><use xlink:href="#av" transform="translate(76.877)scale(.08025)"/><use xlink:href="#ax" transform="translate(92.926)scale(.08025)"/></g><g id="s"><use xlink:href="#az" transform="scale(.08025)"/><use xlink:href="#aB" transform="translate(20.784)scale(.08025)"/><use xlink:href="#aC" transform="translate(27.123)scale(.08025)"/><use xlink:href="#aD" transform="translate(35.148)scale(.08025)"/></g><g id="t"><use xlink:href="#aE" transform="scale(.08025)"/><use xlink:href="#aB" transform="translate(6.34)scale(.08025)"/><use xlink:href="#aw" transform="translate(12.679)scale(.08025)"/><use xlink:href="#aA" transform="translate(28.728)scale(.08025)"/><use xlink:href="#ay" transform="translate(43.173)scale(.08025)"/><use xlink:href="#aF" transform="translate(59.222)scale(.08025)"/><use xlink:href="#aB" transform="translate(75.272)scale(.08025)"/><use xlink:href="#aG" transform="translate(81.611)scale(.08025)"/><use xlink:href="#aH" transform="translate(97.66)scale(.08025)"/></g><g id="u"><use xlink:href="#aI" transform="scale(.08025)"/><use xlink:href="#aJ" transform="translate(9.55)scale(.08025)"/><use xlink:href="#aK" transform="translate(28.809)scale(.08025)"/></g><g id="v"><use xlink:href="#aL" transform="scale(.09877)"/><use xlink:href="#aM" transform="translate(25.58)scale(.09877)"/><use xlink:href="#aN" transform="translate(45.333)scale(.09877)"/><use xlink:href="#aO" transform="translate(59.16)scale(.09877)"/><use xlink:href="#aP" transform="translate(69.037)scale(.09877)"/><use xlink:href="#aM" transform="translate(88.79)scale(.09877)"/></g><g id="w"><use xlink:href="#aQ" transform="scale(.09877)"/><use xlink:href="#aO" transform="translate(25.58)scale(.09877)"/><use xlink:href="#aR" transform="translate(35.457)scale(.09877)"/><use xlink:href="#aS" transform="translate(57.086)scale(.09877)"/></g><g id="x"><use xlink:href="#aT" transform="scale(.09877)"/><use xlink:href="#aM" transform="translate(25.58)scale(.09877)"/><use xlink:href="#aU" transform="translate(45.333)scale(.09877)"/></g><g id="y"><use xlink:href="#aV" transform="scale(.08025)"/><use xlink:href="#X" transform="translate(14.444)scale(.08025)"/><use xlink:href="#Y" transform="translate(30.494)scale(.08025)"/><use xlink:href="#W" transform="translate(40.043)scale(.08025)"/><use xlink:href="#ad" transform="translate(54.488)scale(.08025)"/><use xlink:href="#ak" transform="translate(60.827)scale(.08025)"/><use xlink:href="#ab" transform="translate(76.877)scale(.08025)"/></g><g id="A"><use xlink:href="#ag" transform="scale(.08025)"/><use xlink:href="#aV" transform="translate(9.55)scale(.08025)"/><use xlink:href="#ai" transform="translate(23.994)scale(.08025)"/></g><g id="B"><use xlink:href="#af" transform="scale(.06173)"/><use xlink:href="#ad" transform="translate(4.877)scale(.06173)"/><use xlink:href="#aX" transform="translate(9.753)scale(.06173)"/><use xlink:href="#W" transform="translate(22.099)scale(.06173)"/><use xlink:href="#ak" transform="translate(33.21)scale(.06173)"/><use xlink:href="#aa" transform="translate(45.556)scale(.06173)"/><use xlink:href="#ad" transform="translate(57.901)scale(.06173)"/><use xlink:href="#V" transform="translate(62.778)scale(.06173)"/><use xlink:href="#as" transform="translate(75.123)scale(.06173)"/></g><g id="C"><use xlink:href="#aY" transform="scale(.06173)"/><use xlink:href="#aZ" transform="translate(14.815)scale(.06173)"/><use xlink:href="#ba" transform="translate(27.16)scale(.06173)"/><use xlink:href="#bb" transform="translate(41.975)scale(.06173)"/><use xlink:href="#bc" transform="translate(56.79)scale(.06173)"/><use xlink:href="#bd" transform="translate(71.605)scale(.06173)"/><use xlink:href="#aX" transform="translate(83.95)scale(.06173)"/></g><g id="D"><use xlink:href="#bb" transform="scale(.06173)"/><use xlink:href="#ap" transform="translate(14.815)scale(.06173)"/><use xlink:href="#aa" transform="translate(25.926)scale(.06173)"/></g><g id="E"><use xlink:href="#aq" transform="scale(.06173)"/><use xlink:href="#ae" transform="translate(15.988)scale(.06173)"/><use xlink:href="#W" transform="translate(28.333)scale(.06173)"/><use xlink:href="#an" transform="translate(39.444)scale(.06173)"/></g><g id="F"><use xlink:href="#ag" transform="scale(.06173)"/><use xlink:href="#aq" transform="translate(7.346)scale(.06173)"/><use xlink:href="#ai" transform="translate(23.333)scale(.06173)"/></g><g id="G"><use xlink:href="#bb" transform="scale(.06173)"/><use xlink:href="#be" transform="translate(14.815)scale(.06173)"/><use xlink:href="#bf" transform="translate(30.802)scale(.06173)"/></g><g id="H"><use xlink:href="#ag" transform="scale(.06173)"/><use xlink:href="#be" transform="translate(7.346)scale(.06173)"/><use xlink:href="#aq" transform="translate(23.333 3.111)scale(.04321)"/><use xlink:href="#ai" transform="translate(34.525)scale(.06173)"/></g><g id="I"><use xlink:href="#am" transform="scale(.05556)"/><use xlink:href="#bg" transform="translate(11.111)scale(.05556)"/></g><g id="J"><use xlink:href="#bh" transform="scale(.08025)"/><use xlink:href="#aq" transform="translate(10.191)scale(.08025)"/><use xlink:href="#ad" transform="translate(30.975)scale(.08025)"/><use xlink:href="#ab" transform="translate(37.315)scale(.08025)"/><use xlink:href="#ac" transform="translate(53.364)scale(.08025)"/><use xlink:href="#bi" transform="translate(61.389)scale(.08025)"/><use xlink:href="#bb" transform="translate(77.438)scale(.08025)"/><use xlink:href="#X" transform="translate(96.698)scale(.08025)"/><use xlink:href="#ap" transform="translate(112.747)scale(.08025)"/><use xlink:href="#bh" transform="translate(127.191)scale(.08025)"/><use xlink:href="#bj" transform="translate(137.383)scale(.08025)"/></g><g id="L"><use xlink:href="#ag" transform="scale(.08025)"/><use xlink:href="#ao" transform="translate(9.55)scale(.08025)"/><use xlink:href="#al" transform="translate(23.994)scale(.08025)"/><use xlink:href="#aq" transform="translate(40.043 4.044)scale(.05617)"/><use xlink:href="#ai" transform="translate(54.592)scale(.08025)"/></g><g id="M"><use xlink:href="#ad" transform="scale(.08025)"/><use xlink:href="#ab" transform="translate(6.34)scale(.08025)"/><use xlink:href="#al" transform="translate(22.389)scale(.08025)"/><use xlink:href="#V" transform="translate(38.438)scale(.08025)"/><use xlink:href="#ac" transform="translate(54.488)scale(.08025)"/></g><g id="N"><use xlink:href="#ak" transform="scale(.08025)"/><use xlink:href="#V" transform="translate(16.05)scale(.08025)"/><use xlink:href="#ac" transform="translate(32.099)scale(.08025)"/><use xlink:href="#al" transform="translate(40.123)scale(.08025)"/><use xlink:href="#V" transform="translate(56.173)scale(.08025)"/><use xlink:href="#ac" transform="translate(72.222)scale(.08025)"/></g><g id="O"><use xlink:href="#ak" transform="scale(.08025)"/><use xlink:href="#ac" transform="translate(16.05)scale(.08025)"/><use xlink:href="#an" transform="translate(24.074)scale(.08025)"/><use xlink:href="#X" transform="translate(40.123)scale(.08025)"/><use xlink:href="#Y" transform="translate(56.173)scale(.08025)"/></g><g id="P"><use xlink:href="#aa" transform="scale(.08025)"/><use xlink:href="#ae" transform="translate(16.05)scale(.08025)"/><use xlink:href="#ac" transform="translate(32.099)scale(.08025)"/><use xlink:href="#ae" transform="translate(40.123)scale(.08025)"/></g><g id="Q"><use xlink:href="#W" transform="scale(.08025)"/><use xlink:href="#V" transform="translate(14.444)scale(.08025)"/><use xlink:href="#aX" transform="translate(30.494)scale(.08025)"/><use xlink:href="#al" transform="translate(46.543)scale(.08025)"/><use xlink:href="#Y" transform="translate(62.593)scale(.08025)"/><use xlink:href="#ak" transform="translate(72.142)scale(.08025)"/><use xlink:href="#Z" transform="translate(88.191)scale(.08025)"/><use xlink:href="#X" transform="translate(102.636)scale(.08025)"/><use xlink:href="#W" transform="translate(118.685)scale(.08025)"/><use xlink:href="#W" transform="translate(133.13)scale(.08025)"/></g><g id="R"><use xlink:href="#ad" transform="scale(.08025)"/><use xlink:href="#ab" transform="translate(6.34)scale(.08025)"/><use xlink:href="#al" transform="translate(22.389)scale(.08025)"/><use xlink:href="#V" transform="translate(38.438)scale(.08025)"/><use xlink:href="#ac" transform="translate(54.488)scale(.08025)"/></g><g id="S"><use xlink:href="#ag" transform="scale(.08025)"/><use xlink:href="#af" transform="translate(9.55)scale(.08025)"/><use xlink:href="#ad" transform="translate(15.889)scale(.08025)"/><use xlink:href="#ab" transform="translate(22.228)scale(.08025)"/><use xlink:href="#ao" transform="translate(38.278)scale(.08025)"/><use xlink:href="#ai" transform="translate(52.722)scale(.08025)"/></g><g id="U"><use xlink:href="#ak" transform="scale(.08025)"/><use xlink:href="#V" transform="translate(16.05)scale(.08025)"/><use xlink:href="#ac" transform="translate(32.099)scale(.08025)"/><use xlink:href="#al" transform="translate(40.123)scale(.08025)"/><use xlink:href="#V" transform="translate(56.173)scale(.08025)"/><use xlink:href="#ac" transform="translate(72.222)scale(.08025)"/></g><use xlink:href="#aW" id="z" transform="scale(.08025)"/><use xlink:href="#bk" id="K" transform="scale(.08025)"/></defs></g></svg>