<svg xmlns="http://www.w3.org/2000/svg" xmlns:lucid="lucid" xmlns:xlink="http://www.w3.org/1999/xlink" width="1524" height="1289" viewBox="0 0 1524 1289"><g lucid:page-tab-id="IJD0K~6BNZND" transform="translate(-78 1060)"><path fill="none" stroke="#008a0e" stroke-width="4" d="M120-788a12 12 0 0 1 12-12h1416a12 12 0 0 1 12 12V28a12 12 0 0 1-12 12H132a12 12 0 0 1-12-12z"/><path fill="#f4d9ff" stroke="#3a414a" d="M661.33-720H860l-21.33 80H640z" class="qc-clickable" data-target="06"/><use xlink:href="#a" transform="translate(732.076 -691.057)"/><use xlink:href="#b" transform="translate(721.19 -656.39)"/><path fill="#979ea8" stroke="#979ea8" stroke-width=".05" d="M952.64-559.02h-28.6l-.83.06-.75.18-.73.3-.67.42-.6.5-.5.6-.43.68-.3.73-.18.76-.06.84v55.46H917v-55.54l.1-1.05.24-1.06.42-1 .58-.94.7-.83.84-.72.93-.57 1-.42 1.08-.25 1.06-.08h28.68zm58.34-6.94-.1 1.05-.24 1.06-.42 1-.58.94-.7.83-.84.72-.93.57-1 .42-1.08.25-1.06.08h-29.18V-561h29.1l.83-.06.75-.18.73-.3.67-.42.6-.5.5-.6.43-.68.3-.73.18-.76.06-.84v-72.46h1.96z"/><path fill="#979ea8" d="M1010.98-638.47H1009v-1.03h1.96zM918-483.24l-4.63-14.26h9.26z"/><path fill="#979ea8" stroke="#979ea8" stroke-width=".05" d="m918-480.08-5.98-18.4h11.96zm-3.3-16.45 3.3 10.14 3.3-10.13z"/><use xlink:href="#c" transform="translate(952.644 -556)"/><path fill="#979ea8" stroke="#979ea8" stroke-width=".05" d="m833.37-560.98 1.05.1 1.07.24 1 .42.93.58.84.7.7.84.58.93.42 1 .25 1.08.1 1.06v55.54h-1.96v-55.46l-.07-.83-.2-.75-.3-.73-.4-.67-.52-.6-.6-.5-.67-.43-.72-.3-.76-.18-.83-.06h-27.27v-2zm-82.33-4.23.18.75.3.73.42.67.5.6.6.5.68.43.73.3.76.18.84.06h27.77v1.96h-27.84l-1.05-.1-1.06-.24-1-.42-.94-.58-.83-.7-.72-.84-.57-.93-.42-1-.25-1.08-.08-1.06v-72.54H751v72.46z"/><path fill="#979ea8" d="M750.98-638.47H749v-1.03h2zm88.35 155.23-4.63-14.26h9.27z"/><path fill="#979ea8" stroke="#979ea8" stroke-width=".05" d="m839.33-480.08-5.97-18.4h11.95zm-3.3-16.45 3.3 10.14 3.3-10.13z"/><use xlink:href="#c" transform="translate(783.81 -556)"/><path fill="#979ea8" stroke="#979ea8" stroke-width=".05" d="M884.65-139h-1.95v-18.1h1.95zm-.5-42.1h-1.95V-199h1.95z"/><path fill="#979ea8" d="M884.15-198.97h-1.95V-200h1.95zm-.48 75.23L879.04-138h9.27z"/><path fill="#979ea8" stroke="#979ea8" stroke-width=".05" d="m883.67-120.58-5.97-18.4h11.95zm-3.3-16.45 3.3 10.14 3.3-10.13z"/><use xlink:href="#d" transform="translate(872.07 -165.1)"/><path fill="#008a0e" d="M120-788a12 12 0 0 1 12-12h416a12 12 0 0 1 12 12v39.33a12 12 0 0 1-12 12H132a12 12 0 0 1-12-12z"/><use xlink:href="#e" transform="translate(137.738 -762.186)"/><use xlink:href="#f" transform="translate(204.503 -762.186)"/><use xlink:href="#g" transform="translate(315.003 -762.186)"/><use xlink:href="#h" transform="translate(374.225 -762.186)"/><use xlink:href="#i" transform="translate(503.904 -762.186)"/><path fill="#dfe3e8" d="M120-1002.45a17.55 17.55 0 0 1 17.55-17.55h184.9a17.55 17.55 0 0 1 17.55 17.55v140.4a17.55 17.55 0 0 1-17.55 17.55h-184.9A17.55 17.55 0 0 1 120-862.05z"/><use xlink:href="#j" transform="translate(140 -967.556)"/><use xlink:href="#k" transform="translate(140 -924.889)"/><use xlink:href="#l" transform="translate(246.47 -924.889)"/><use xlink:href="#m" transform="translate(140 -882.222)"/><path fill="#fff" stroke="#3a414a" d="M773.67-468a12 12 0 0 1 12-12h196a12 12 0 0 1 12 12v76a12 12 0 0 1-12 12h-196a12 12 0 0 1-12-12z"/><path fill="none" stroke="#3a414a" stroke-width="2" d="M774.67-440h218.5m-218.47 0h-1.03m219.48 0h1.02"/><path fill="none" d="M773.67-480h220v40h-220z"/><use xlink:href="#n" transform="translate(836.885 -455.347)"/><path fill="none" d="M773.67-455h220v90h-220z"/><use xlink:href="#o" transform="translate(784.324 -418.785)"/><use xlink:href="#p" transform="translate(886.793 -418.785)"/><use xlink:href="#q" transform="translate(931.237 -418.785)"/><use xlink:href="#r" transform="translate(868.336 -392.118)"/><path fill="#fff" stroke="#3a414a" d="M773.17-288a12 12 0 0 1 12-12h196a12 12 0 0 1 12 12v76a12 12 0 0 1-12 12h-196a12 12 0 0 1-12-12z"/><path fill="none" d="M773.17-300h220v40h-220z"/><use xlink:href="#n" transform="translate(836.385 -275.347)"/><path fill="none" stroke="#3a414a" stroke-width="2" d="M774.17-260h218.5m-218.47 0h-1.03m219.48 0h1.02"/><path fill="none" d="M773.17-260h220v60h-220z"/><use xlink:href="#o" transform="translate(809.78 -236.832)"/><use xlink:href="#s" transform="translate(912.25 -236.832)"/><use xlink:href="#t" transform="translate(862.24 -210.165)"/><path fill="#979ea8" stroke="#979ea8" stroke-width=".05" d="M884.15-318.5h-1.95V-332h1.95zm.5-37.5h-1.95v-22.5h1.95z"/><path fill="#979ea8" d="M884.65-378.47h-1.95v-1.03h1.95zm-1.48 75.23-4.63-14.26h9.27z"/><path fill="#979ea8" stroke="#979ea8" stroke-width=".05" d="m883.17-300.08-5.97-18.4h11.95zm-3.3-16.45 3.3 10.14 3.3-10.13z"/><use xlink:href="#u" transform="translate(872.57 -340)"/><path fill="#cfe4ff" stroke="#3a414a" d="M1221.33-290H1420l-21.33 80H1200z"/><use xlink:href="#v" transform="translate(1225.752 -261.057)"/><use xlink:href="#w" transform="translate(1382.474 -261.057)"/><use xlink:href="#x" transform="translate(1273.968 -226.39)"/><path fill="#979ea8" stroke="#979ea8" stroke-width=".05" d="M1066.53-249.03h-54.85v-1.94h54.85zm142.62 0h-120.4v-1.94h120.4z"/><path fill="#979ea8" d="M1209.9-249.03h-.78v-1.94h1.3zm-199.22 3.66L996.4-250l14.28-4.63z"/><path fill="#979ea8" stroke="#979ea8" stroke-width=".05" d="m1011.65-244.02-18.4-5.98 18.4-5.98zM999.57-250l10.13 3.3v-6.6z"/><use xlink:href="#u" transform="translate(1066.538 -246)"/><path fill="#cfe682" stroke="#3a414a" d="M127.73 65h51.44l-7.74 29H120z"/><path fill="#cfe4ff" stroke="#3a414a" d="M127.73 161.5h51.44l-7.74 29H120z"/><path fill="#fff7a1" stroke="#3a414a" d="M127.73 113.25h51.44l-7.74 29H120z"/><path fill="none" d="M200 60h225.93v38.67H200z"/><use xlink:href="#y" transform="translate(205 88.564)"/><use xlink:href="#z" transform="translate(269.117 88.564)"/><path fill="none" d="M200 108.5h240v38.67H200z"/><use xlink:href="#y" transform="translate(205 137.064)"/><use xlink:href="#A" transform="translate(269.117 137.064)"/><path fill="none" d="M200 157.67h240v38.66H200z"/><use xlink:href="#B" transform="translate(205 186.23)"/><use xlink:href="#C" transform="translate(278.747 186.23)"/><path fill="#f4d9ff" stroke="#3a414a" d="M507.73 68.83h51.44l-7.74 29H500z"/><path fill="none" d="M580 65h340v36.67H580z"/><use xlink:href="#D" transform="translate(585 93.111)"/><use xlink:href="#E" transform="translate(740.599 93.111)"/><use xlink:href="#F" transform="translate(811.136 93.111)"/><use xlink:href="#G" transform="translate(585 127.778)"/><path fill="#ffcf99" stroke="#3a414a" d="M507.73 117.08h51.44l-7.74 29H500z"/><path fill="none" d="M580 113.25h260v36.67H580z"/><use xlink:href="#D" transform="translate(585 141.361)"/><use xlink:href="#H" transform="translate(740.599 141.361)"/><use xlink:href="#G" transform="translate(585 176.028)"/><path fill="#f4d9ff" stroke="#3a414a" d="M921.33-720H1120l-21.33 80H900z" class="qc-clickable" data-target="07"/><use xlink:href="#I" transform="translate(948.783 -691.057)"/><use xlink:href="#J" transform="translate(1035.289 -691.057)"/><use xlink:href="#K" transform="translate(974.718 -656.39)"/><path fill="#ffcf99" stroke="#3a414a" d="M795-120h198.67l-21.33 80H773.67z"/><use xlink:href="#I" transform="translate(822.458 -91.057)"/><use xlink:href="#J" transform="translate(908.964 -91.057)"/><use xlink:href="#L" transform="translate(846.737 -56.39)"/><defs><path id="M" fill="#3a414a" d="M135-143c-3-34-86-38-87 0 15 53 115 12 119 90S17 21 10-45l28-5c4 36 97 45 98 0-10-56-113-15-118-90-4-57 82-63 122-42 12 7 21 19 24 35"/><path id="N" fill="#3a414a" d="M141-36C126-15 110 5 73 4 37 3 15-17 15-53c-1-64 63-63 125-63 3-35-9-54-41-54-24 1-41 7-42 31l-33-3c5-37 33-52 76-52 45 0 72 20 72 64v82c-1 20 7 32 28 27v20c-31 9-61-2-59-35M48-53c0 20 12 33 32 33 41-3 63-29 60-74-43 2-92-5-92 41"/><path id="O" fill="#3a414a" d="M24 0v-261h32V0z"/><path id="P" fill="#3a414a" d="M59-47c-2 24 18 29 38 22v24C64 9 27 4 27-40v-127H5v-23h24l9-43h21v43h35v23H59z"/><path id="Q" fill="#3a414a" d="M87 75C49 33 22-17 22-94c0-76 28-126 65-167h31c-38 41-64 92-64 168S80 34 118 75z"/><path id="R" fill="#3a414a" d="M117-194c89-4 53 116 60 194h-32v-121c0-31-8-49-39-48C34-167 62-67 57 0H25l-1-190h30c1 10-1 24 2 32 11-22 29-35 61-36"/><path id="S" fill="#3a414a" d="M185-189c-5-48-123-54-124 2 14 75 158 14 163 119 3 78-121 87-175 55-17-10-28-26-33-46l33-7c5 56 141 63 141-1 0-78-155-14-162-118-5-82 145-84 179-34 5 7 8 16 11 25"/><path id="T" fill="#3a414a" d="M33-261c38 41 65 92 65 168S71 34 33 75H2C39 34 66-17 66-93S39-220 2-261z"/><path id="U" fill="#333" d="M155-56V0h-30v-56H8v-25l114-167h33v167h35v25zm-30-156c-27 46-58 90-88 131h88z"/><path id="V" fill="#333" d="M126-127c33 6 58 20 58 59 0 88-139 92-164 29-3-8-5-16-6-25l32-3c6 27 21 44 54 44 32 0 52-15 52-46 0-38-36-46-79-43v-28c39 1 72-4 72-42 0-27-17-43-46-43-28 0-47 15-49 41l-32-3c6-42 35-63 81-64 48-1 79 21 79 65 0 36-21 52-52 59"/><path id="W" fill="#333" d="M54-142c48-35 137-8 131 61C196 18 31 33 14-55l32-4c7 23 22 37 52 37 35-1 51-22 54-58 4-55-73-65-99-34H22l8-134h141v27H59"/><path id="X" fill="#fff" d="M266 0h-40l-56-210L115 0H75L2-248h35L96-30l15-64 43-154h32l59 218 59-218h35"/><path id="Y" fill="#fff" d="M100-194c63 0 86 42 84 106H49c0 40 14 67 53 68 26 1 43-12 49-29l28 8c-11 28-37 45-77 45C44 4 14-33 15-96c1-61 26-98 85-98m52 81c6-60-76-77-97-28-3 7-6 17-6 28z"/><path id="Z" fill="#fff" d="M115-194c53 0 69 39 70 98 0 66-23 100-70 100C84 3 66-7 56-30L54 0H23l1-261h32v101c10-23 28-34 59-34m-8 174c40 0 45-34 45-75 0-40-5-75-45-74-42 0-51 32-51 76 0 43 10 73 51 73"/><path id="aa" fill="#fff" d="M114-163C36-179 61-72 57 0H25l-1-190h30c1 12-1 29 2 39 6-27 23-49 58-41z"/><path id="ab" fill="#fff" d="M100-194c62-1 85 37 85 99 1 63-27 99-86 99S16-35 15-95c0-66 28-99 85-99M99-20c44 1 53-31 53-75 0-43-8-75-51-75s-53 32-53 75 10 74 51 75"/><path id="ac" fill="#fff" d="M206 0h-36l-40-164L89 0H53L-1-190h32L70-26l43-164h34l41 164 42-164h31"/><path id="ad" fill="#fff" d="M135-143c-3-34-86-38-87 0 15 53 115 12 119 90S17 21 10-45l28-5c4 36 97 45 98 0-10-56-113-15-118-90-4-57 82-63 122-42 12 7 21 19 24 35"/><path id="ae" fill="#fff" d="M24-231v-30h32v30zM24 0v-190h32V0z"/><path id="af" fill="#fff" d="M59-47c-2 24 18 29 38 22v24C64 9 27 4 27-40v-127H5v-23h24l9-43h21v43h35v23H59z"/><path id="ag" fill="#fff" d="M106-169C34-169 62-67 57 0H25v-261h32l-1 103c12-21 28-36 61-36 89 0 53 116 60 194h-32v-121c2-32-8-49-39-48"/><path id="ah" fill="#fff" d="M24 0v-261h32V0z"/><path id="ai" fill="#fff" d="M85-194c31 0 48 13 60 33l-1-100h32l1 261h-30c-2-10 0-23-3-31C134-8 116 4 85 4 32 4 16-35 15-94c0-66 23-100 70-100m9 24c-40 0-46 34-46 75 0 40 6 74 45 74 42 0 51-32 51-76 0-42-9-74-50-73"/><path id="aj" fill="#fff" d="M84 4C-5 8 30-112 23-190h32v120c0 31 7 50 39 49 72-2 45-101 50-169h31l1 190h-30c-1-10 1-25-2-33-11 22-28 36-60 37"/><path id="ak" fill="#fff" d="M210-169c-67 3-38 105-44 169h-31v-121c0-29-5-50-35-48C34-165 62-65 56 0H25l-1-190h30c1 10-1 24 2 32 10-44 99-50 107 0 11-21 27-35 58-36 85-2 47 119 55 194h-31v-121c0-29-5-49-35-48"/><path id="al" fill="#fff" d="M87 75C49 33 22-17 22-94c0-76 28-126 65-167h31c-38 41-64 92-64 168S80 34 118 75z"/><path id="am" fill="#fff" d="M160-131c35 5 61 23 61 61C221 17 115-2 30 0v-248c76 3 177-17 177 60 0 33-19 50-47 57m-97-11c50-1 110 9 110-42 0-47-63-36-110-37zm0 115c55-2 124 14 124-45 0-56-70-42-124-44z"/><path id="an" fill="#fff" d="M33-261c38 41 65 92 65 168S71 34 33 75H2C39 34 66-17 66-93S39-220 2-261z"/><path id="ao" fill="#3a414a" d="M24-248c120-7 223 5 221 122C244-46 201 0 124 0H24zM76-40c74 7 117-18 117-86 0-67-45-88-117-82z"/><path id="ap" fill="#3a414a" d="M185-48c-13 30-37 53-82 52C43 2 14-33 14-96s30-98 90-98c62 0 83 45 84 108H66c0 31 8 55 39 56 18 0 30-7 34-22zm-45-69c5-46-57-63-70-21-2 6-4 13-4 21z"/><path id="aq" fill="#3a414a" d="M135-150c-39-12-60 13-60 57V0H25l-1-190h47c2 13-1 29 3 40 6-28 27-53 61-41z"/><path id="ar" fill="#3a414a" d="M25-224v-37h50v37zM25 0v-190h50V0z"/><path id="as" fill="#3a414a" d="M128 0H69L1-190h53L99-40l48-150h52"/><path id="at" fill="#3a414a" d="M182-130c37 4 62 22 62 59C244 23 116-4 24 0v-248c84 5 203-23 205 63 0 31-19 50-47 55M76-148c40-3 101 13 101-30 0-44-60-28-101-31zm0 110c48-3 116 14 116-37 0-48-69-32-116-35z"/><path id="au" fill="#3a414a" d="M25 0v-261h50V0z"/><path id="av" fill="#3a414a" d="M110-194c64 0 96 36 96 99 0 64-35 99-97 99-61 0-95-36-95-99 0-62 34-99 96-99m-1 164c35 0 45-28 45-65 0-40-10-65-43-65-34 0-45 26-45 65 0 36 10 65 43 65"/><path id="aw" fill="#3a414a" d="M190-63c-7 42-38 67-86 67-59 0-84-38-90-98-12-110 154-137 174-36l-49 2c-2-19-15-32-35-32-30 0-35 28-38 64-6 74 65 87 74 30"/><path id="ax" fill="#3a414a" d="M147 0 96-86 75-71V0H25v-261h50v150l67-79h53l-66 74L201 0z"/><path id="ay" fill="#3a414a" d="M175 0 67-191c6 58 2 128 3 191H24v-248h59L193-55c-6-58-2-129-3-193h46V0z"/><path id="az" fill="#3a414a" d="m195 0-88-114-31 24V0H24v-248h52v113l112-113h60L142-143 257 0z"/><path id="aA" fill="#3a414a" d="M123 10C108 53 80 86 19 72V37c35 8 53-11 59-39L3-190h52l48 148c12-52 28-100 44-148h51"/><path id="aB" fill="#3a414a" d="M24-231v-30h32v30zM24 0v-190h32V0z"/><path id="aC" fill="#3a414a" d="M115-194c53 0 69 39 70 98 0 66-23 100-70 100C84 3 66-7 56-30L54 0H23l1-261h32v101c10-23 28-34 59-34m-8 174c40 0 45-34 45-75 0-40-5-75-45-74-42 0-51 32-51 76 0 43 10 73 51 73"/><path id="aD" fill="#3a414a" d="M100-194c62-1 85 37 85 99 1 63-27 99-86 99S16-35 15-95c0-66 28-99 85-99M99-20c44 1 53-31 53-75 0-43-8-75-51-75s-53 32-53 75 10 74 51 75"/><path id="aE" fill="#3a414a" d="M85-194c31 0 48 13 60 33l-1-100h32l1 261h-30c-2-10 0-23-3-31C134-8 116 4 85 4 32 4 16-35 15-94c0-66 23-100 70-100m9 24c-40 0-46 34-46 75 0 40 6 74 45 74 42 0 51-32 51-76 0-42-9-74-50-73"/><path id="aF" fill="#3a414a" d="M84 4C-5 8 30-112 23-190h32v120c0 31 7 50 39 49 72-2 45-101 50-169h31l1 190h-30c-1-10 1-25-2-33-11 22-28 36-60 37"/><path id="aG" fill="#3a414a" d="M210-169c-67 3-38 105-44 169h-31v-121c0-29-5-50-35-48C34-165 62-65 56 0H25l-1-190h30c1 10-1 24 2 32 10-44 99-50 107 0 11-21 27-35 58-36 85-2 47 119 55 194h-31v-121c0-29-5-49-35-48"/><path id="aH" fill="#3a414a" d="M160-131c35 5 61 23 61 61C221 17 115-2 30 0v-248c76 3 177-17 177 60 0 33-19 50-47 57m-97-11c50-1 110 9 110-42 0-47-63-36-110-37zm0 115c55-2 124 14 124-45 0-56-70-42-124-44z"/><path id="aI" fill="#3a414a" d="M30 0v-248h33v221h125V0z"/><path id="aJ" fill="#3a414a" d="m205 0-28-72H64L36 0H1l101-248h38L239 0zm-38-99-47-123c-12 45-31 82-46 123z"/><path id="aK" fill="#3a414a" d="M194 0 95-120 63-95V0H30v-248h33v124l119-124h40L117-140 236 0z"/><path id="aL" fill="#3a414a" d="M30 0v-248h187v28H63v79h144v27H63v87h162V0z"/><path id="aM" fill="#3a414a" d="M101-251c82-7 93 87 43 132L82-64C71-53 59-42 53-27h129V0H18c2-99 128-94 128-182 0-28-16-43-45-43s-46 15-49 41l-32-3c6-41 34-60 81-64"/><path id="aN" fill="#3a414a" d="M179-190 93 31C79 59 56 82 12 73V49c39 6 53-20 64-50L1-190h34L92-34l54-156z"/><path id="aO" fill="#3a414a" d="M197 0v-115H63V0H30v-248h33v105h134v-105h34V0z"/><path id="aP" fill="#3a414a" d="M106-169C34-169 62-67 57 0H25v-261h32l-1 103c12-21 28-36 61-36 89 0 53 116 60 194h-32v-121c2-32-8-49-39-48"/><path id="aQ" fill="#3a414a" d="M30-248c118-7 216 8 213 122C240-48 200 0 122 0H30zM63-27c89 8 146-16 146-99s-60-101-146-95z"/><path id="aR" fill="#3a414a" d="M63-220v92h138v28H63V0H30v-248h175v28z"/><path id="aS" fill="#3a414a" d="M109-170H84l-4-78h32zm-65 0H19l-4-78h33"/><path id="aT" fill="#3a414a" d="M96-169c-40 0-48 33-48 73s9 75 48 75c24 0 41-14 43-38l32 2c-6 37-31 61-74 61-59 0-76-41-82-99-10-93 101-131 147-64 4 7 5 14 7 22l-32 3c-4-21-16-35-41-35"/><path id="aU" fill="#3a414a" d="M143 0 79-87 56-68V0H24v-261h32v163l83-92h37l-77 82L181 0z"/><path id="aV" fill="#3a414a" d="M-5 72V49h209v23z"/><path id="aW" fill="#3a414a" d="M100-194c63 0 86 42 84 106H49c0 40 14 67 53 68 26 1 43-12 49-29l28 8c-11 28-37 45-77 45C44 4 14-33 15-96c1-61 26-98 85-98m52 81c6-60-76-77-97-28-3 7-6 17-6 28z"/><path id="aX" fill="#3a414a" d="M68-38c1 34 0 65-14 84H32c9-13 17-26 17-46H33v-38z"/><path id="aY" fill="#3a414a" d="M190 0 58-211 59 0H30v-248h39L202-35l-2-213h31V0z"/><path id="aZ" fill="#3a414a" d="M115-194c55 1 70 41 70 98S169 2 115 4C84 4 66-9 55-30l1 105H24l-1-265h31l2 30c10-21 28-34 59-34m-8 174c40 0 45-34 45-75s-6-73-45-74c-42 0-51 32-51 76 0 43 10 73 51 73"/><path id="ba" fill="#3a414a" d="M114-163C36-179 61-72 57 0H25l-1-190h30c1 12-1 29 2 39 6-27 23-49 58-41z"/><path id="bb" fill="#3a414a" d="m240 0 2-218c-23 76-54 145-80 218h-23L58-218 59 0H30v-248h44l77 211c21-75 51-140 76-211h43V0z"/><path id="bc" fill="#3a414a" d="M101-251c68 0 85 55 85 127S166 4 100 4C33 4 14-52 14-124c0-73 17-127 87-127m-1 229c47 0 54-49 54-102s-4-102-53-102c-51 0-55 48-55 102 0 53 5 102 54 102"/><g id="a"><use xlink:href="#M" transform="scale(.08025)"/><use xlink:href="#N" transform="translate(14.444)scale(.08025)"/><use xlink:href="#O" transform="translate(30.494)scale(.08025)"/><use xlink:href="#P" transform="translate(36.833)scale(.08025)"/></g><g id="b"><use xlink:href="#Q" transform="scale(.08025)"/><use xlink:href="#R" transform="translate(9.55)scale(.08025)"/><use xlink:href="#S" transform="translate(25.599 4.044)scale(.05617)"/><use xlink:href="#T" transform="translate(39.08)scale(.08025)"/></g><g id="c"><use xlink:href="#U" transform="scale(.05556)"/><use xlink:href="#V" transform="translate(11.111)scale(.05556)"/></g><g id="d"><use xlink:href="#U" transform="scale(.05556)"/><use xlink:href="#W" transform="translate(11.111)scale(.05556)"/></g><g id="e"><use xlink:href="#X" transform="scale(.08025)"/><use xlink:href="#Y" transform="translate(26.642)scale(.08025)"/><use xlink:href="#Z" transform="translate(42.691)scale(.08025)"/></g><g id="f"><use xlink:href="#Z" transform="scale(.08025)"/><use xlink:href="#aa" transform="translate(16.05)scale(.08025)"/><use xlink:href="#ab" transform="translate(25.599)scale(.08025)"/><use xlink:href="#ac" transform="translate(41.648)scale(.08025)"/><use xlink:href="#ad" transform="translate(62.432)scale(.08025)"/><use xlink:href="#Y" transform="translate(76.877)scale(.08025)"/><use xlink:href="#aa" transform="translate(92.926)scale(.08025)"/></g><g id="g"><use xlink:href="#ac" transform="scale(.08025)"/><use xlink:href="#ae" transform="translate(20.784)scale(.08025)"/><use xlink:href="#af" transform="translate(27.123)scale(.08025)"/><use xlink:href="#ag" transform="translate(35.148)scale(.08025)"/></g><g id="h"><use xlink:href="#ah" transform="scale(.08025)"/><use xlink:href="#ae" transform="translate(6.34)scale(.08025)"/><use xlink:href="#Z" transform="translate(12.679)scale(.08025)"/><use xlink:href="#ad" transform="translate(28.728)scale(.08025)"/><use xlink:href="#ab" transform="translate(43.173)scale(.08025)"/><use xlink:href="#ai" transform="translate(59.222)scale(.08025)"/><use xlink:href="#ae" transform="translate(75.272)scale(.08025)"/><use xlink:href="#aj" transform="translate(81.611)scale(.08025)"/><use xlink:href="#ak" transform="translate(97.66)scale(.08025)"/></g><g id="i"><use xlink:href="#al" transform="scale(.08025)"/><use xlink:href="#am" transform="translate(9.55)scale(.08025)"/><use xlink:href="#an" transform="translate(28.809)scale(.08025)"/></g><g id="j"><use xlink:href="#ao" transform="scale(.09877)"/><use xlink:href="#ap" transform="translate(25.58)scale(.09877)"/><use xlink:href="#aq" transform="translate(45.333)scale(.09877)"/><use xlink:href="#ar" transform="translate(59.16)scale(.09877)"/><use xlink:href="#as" transform="translate(69.037)scale(.09877)"/><use xlink:href="#ap" transform="translate(88.79)scale(.09877)"/></g><g id="k"><use xlink:href="#at" transform="scale(.09877)"/><use xlink:href="#au" transform="translate(25.58)scale(.09877)"/><use xlink:href="#av" transform="translate(35.457)scale(.09877)"/><use xlink:href="#aw" transform="translate(57.086)scale(.09877)"/><use xlink:href="#ax" transform="translate(76.84)scale(.09877)"/></g><g id="m"><use xlink:href="#az" transform="scale(.09877)"/><use xlink:href="#ap" transform="translate(25.58)scale(.09877)"/><use xlink:href="#aA" transform="translate(45.333)scale(.09877)"/></g><g id="n"><use xlink:href="#O" transform="scale(.06173)"/><use xlink:href="#aB" transform="translate(4.877)scale(.06173)"/><use xlink:href="#aC" transform="translate(9.753)scale(.06173)"/><use xlink:href="#M" transform="translate(22.099)scale(.06173)"/><use xlink:href="#aD" transform="translate(33.21)scale(.06173)"/><use xlink:href="#aE" transform="translate(45.556)scale(.06173)"/><use xlink:href="#aB" transform="translate(57.901)scale(.06173)"/><use xlink:href="#aF" transform="translate(62.778)scale(.06173)"/><use xlink:href="#aG" transform="translate(75.123)scale(.06173)"/></g><g id="o"><use xlink:href="#aH" transform="scale(.06173)"/><use xlink:href="#aI" transform="translate(14.815)scale(.06173)"/><use xlink:href="#aJ" transform="translate(27.16)scale(.06173)"/><use xlink:href="#aK" transform="translate(41.975)scale(.06173)"/><use xlink:href="#aL" transform="translate(56.79)scale(.06173)"/><use xlink:href="#aM" transform="translate(71.605)scale(.06173)"/><use xlink:href="#aC" transform="translate(83.95)scale(.06173)"/></g><g id="p"><use xlink:href="#aK" transform="scale(.06173)"/><use xlink:href="#aN" transform="translate(14.815)scale(.06173)"/><use xlink:href="#aE" transform="translate(25.926)scale(.06173)"/></g><g id="q"><use xlink:href="#aO" transform="scale(.06173)"/><use xlink:href="#N" transform="translate(15.988)scale(.06173)"/><use xlink:href="#M" transform="translate(28.333)scale(.06173)"/><use xlink:href="#aP" transform="translate(39.444)scale(.06173)"/></g><g id="r"><use xlink:href="#Q" transform="scale(.06173)"/><use xlink:href="#aO" transform="translate(7.346)scale(.06173)"/><use xlink:href="#T" transform="translate(23.333)scale(.06173)"/></g><g id="s"><use xlink:href="#aK" transform="scale(.06173)"/><use xlink:href="#aQ" transform="translate(14.815)scale(.06173)"/><use xlink:href="#aR" transform="translate(30.802)scale(.06173)"/></g><g id="t"><use xlink:href="#Q" transform="scale(.06173)"/><use xlink:href="#aQ" transform="translate(7.346)scale(.06173)"/><use xlink:href="#aO" transform="translate(23.333 3.111)scale(.04321)"/><use xlink:href="#T" transform="translate(34.525)scale(.06173)"/></g><g id="u"><use xlink:href="#U" transform="scale(.05556)"/><use xlink:href="#U" transform="translate(11.111)scale(.05556)"/></g><g id="v"><use xlink:href="#aS" transform="scale(.08025)"/><use xlink:href="#aH" transform="translate(10.191)scale(.08025)"/><use xlink:href="#O" transform="translate(29.45)scale(.08025)"/><use xlink:href="#aT" transform="translate(35.79)scale(.08025)"/><use xlink:href="#aU" transform="translate(50.235)scale(.08025)"/><use xlink:href="#aV" transform="translate(64.679)scale(.08025)"/><use xlink:href="#aK" transform="translate(80.728)scale(.08025)"/><use xlink:href="#aW" transform="translate(99.988)scale(.08025)"/><use xlink:href="#aN" transform="translate(116.037)scale(.08025)"/><use xlink:href="#aS" transform="translate(130.481)scale(.08025)"/><use xlink:href="#aX" transform="translate(140.673)scale(.08025)"/></g><g id="x"><use xlink:href="#Q" transform="scale(.08025)"/><use xlink:href="#aU" transform="translate(9.55)scale(.08025)"/><use xlink:href="#aZ" transform="translate(23.994)scale(.08025)"/><use xlink:href="#aH" transform="translate(40.043 4.044)scale(.05617)"/><use xlink:href="#T" transform="translate(53.525)scale(.08025)"/></g><g id="y"><use xlink:href="#aF" transform="scale(.08025)"/><use xlink:href="#M" transform="translate(16.05)scale(.08025)"/><use xlink:href="#aW" transform="translate(30.494)scale(.08025)"/><use xlink:href="#ba" transform="translate(46.543)scale(.08025)"/></g><g id="z"><use xlink:href="#aB" transform="scale(.08025)"/><use xlink:href="#R" transform="translate(6.34)scale(.08025)"/><use xlink:href="#aZ" transform="translate(22.389)scale(.08025)"/><use xlink:href="#aF" transform="translate(38.438)scale(.08025)"/><use xlink:href="#P" transform="translate(54.488)scale(.08025)"/></g><g id="A"><use xlink:href="#aD" transform="scale(.08025)"/><use xlink:href="#aF" transform="translate(16.05)scale(.08025)"/><use xlink:href="#P" transform="translate(32.099)scale(.08025)"/><use xlink:href="#aZ" transform="translate(40.123)scale(.08025)"/><use xlink:href="#aF" transform="translate(56.173)scale(.08025)"/><use xlink:href="#P" transform="translate(72.222)scale(.08025)"/></g><g id="B"><use xlink:href="#aD" transform="scale(.08025)"/><use xlink:href="#P" transform="translate(16.05)scale(.08025)"/><use xlink:href="#aP" transform="translate(24.074)scale(.08025)"/><use xlink:href="#aW" transform="translate(40.123)scale(.08025)"/><use xlink:href="#ba" transform="translate(56.173)scale(.08025)"/></g><g id="C"><use xlink:href="#aE" transform="scale(.08025)"/><use xlink:href="#N" transform="translate(16.05)scale(.08025)"/><use xlink:href="#P" transform="translate(32.099)scale(.08025)"/><use xlink:href="#N" transform="translate(40.123)scale(.08025)"/></g><g id="D"><use xlink:href="#M" transform="scale(.08025)"/><use xlink:href="#aF" transform="translate(14.444)scale(.08025)"/><use xlink:href="#aC" transform="translate(30.494)scale(.08025)"/><use xlink:href="#aZ" transform="translate(46.543)scale(.08025)"/><use xlink:href="#ba" transform="translate(62.593)scale(.08025)"/><use xlink:href="#aD" transform="translate(72.142)scale(.08025)"/><use xlink:href="#aT" transform="translate(88.191)scale(.08025)"/><use xlink:href="#aW" transform="translate(102.636)scale(.08025)"/><use xlink:href="#M" transform="translate(118.685)scale(.08025)"/><use xlink:href="#M" transform="translate(133.13)scale(.08025)"/></g><g id="E"><use xlink:href="#aB" transform="scale(.08025)"/><use xlink:href="#R" transform="translate(6.34)scale(.08025)"/><use xlink:href="#aZ" transform="translate(22.389)scale(.08025)"/><use xlink:href="#aF" transform="translate(38.438)scale(.08025)"/><use xlink:href="#P" transform="translate(54.488)scale(.08025)"/></g><g id="F"><use xlink:href="#Q" transform="scale(.08025)"/><use xlink:href="#O" transform="translate(9.55)scale(.08025)"/><use xlink:href="#aB" transform="translate(15.889)scale(.08025)"/><use xlink:href="#R" transform="translate(22.228)scale(.08025)"/><use xlink:href="#aU" transform="translate(38.278)scale(.08025)"/><use xlink:href="#T" transform="translate(52.722)scale(.08025)"/></g><g id="H"><use xlink:href="#aD" transform="scale(.08025)"/><use xlink:href="#aF" transform="translate(16.05)scale(.08025)"/><use xlink:href="#P" transform="translate(32.099)scale(.08025)"/><use xlink:href="#aZ" transform="translate(40.123)scale(.08025)"/><use xlink:href="#aF" transform="translate(56.173)scale(.08025)"/><use xlink:href="#P" transform="translate(72.222)scale(.08025)"/></g><g id="I"><use xlink:href="#aT" transform="scale(.08025)"/><use xlink:href="#aB" transform="translate(14.444)scale(.08025)"/><use xlink:href="#aZ" transform="translate(20.784)scale(.08025)"/><use xlink:href="#aP" transform="translate(36.833)scale(.08025)"/><use xlink:href="#aW" transform="translate(52.883)scale(.08025)"/><use xlink:href="#ba" transform="translate(68.932)scale(.08025)"/></g><g id="J"><use xlink:href="#aU" transform="scale(.08025)"/><use xlink:href="#aW" transform="translate(14.444)scale(.08025)"/><use xlink:href="#aN" transform="translate(30.494)scale(.08025)"/></g><g id="K"><use xlink:href="#Q" transform="scale(.08025)"/><use xlink:href="#aU" transform="translate(9.55)scale(.08025)"/><use xlink:href="#bb" transform="translate(23.994 4.044)scale(.05617)"/><use xlink:href="#bc" transform="translate(40.79 4.044)scale(.05617)"/><use xlink:href="#T" transform="translate(52.024)scale(.08025)"/></g><g id="L"><use xlink:href="#Q" transform="scale(.08025)"/><use xlink:href="#aU" transform="translate(9.55)scale(.08025)"/><use xlink:href="#bb" transform="translate(23.994 4.044)scale(.05617)"/><use xlink:href="#aY" transform="translate(40.79 4.044)scale(.05617)"/><use xlink:href="#T" transform="translate(55.338)scale(.08025)"/></g><use xlink:href="#ay" id="l" transform="scale(.09877)"/><use xlink:href="#aY" id="w" transform="scale(.08025)"/></defs></g></svg>