<svg xmlns="http://www.w3.org/2000/svg" xmlns:xlink="http://www.w3.org/1999/xlink" width="1524" height="1287" viewBox="0 0 1524 1287"><g transform="translate(-78 1060)"><path fill="none" stroke="#008a0e" stroke-width="4" d="M120-788a12 12 0 0 1 12-12h1416a12 12 0 0 1 12 12V28a12 12 0 0 1-12 12H132a12 12 0 0 1-12-12z"/><path fill="#f4d9ff" stroke="#3a414a" d="M501.33-640H700l-21.33 80H480z" class="qc-clickable" data-target="0a"/><use xlink:href="#a" transform="translate(505.591 -611.057)"/><use xlink:href="#b" transform="translate(560.08 -611.057)"/><use xlink:href="#c" transform="translate(604.857 -611.057)"/><use xlink:href="#d" transform="translate(551.107 -576.39)"/><path fill="#ffcf99" stroke="#3a414a" d="M761.33-256.67H960l-21.33 80H740z"/><use xlink:href="#e" transform="translate(763.906 -227.724)"/><use xlink:href="#f" transform="translate(898.64 -227.724)"/><use xlink:href="#g" transform="translate(821.19 -193.057)"/><path fill="#979ea8" stroke="#979ea8" stroke-width=".05" d="m772.7-500.98 1.06.1 1.06.24 1 .42.95.58.83.7.7.84.58.93.42 1 .26 1.08.08 1.06v35.54h-1.95v-35.46l-.07-.83-.2-.75-.3-.73-.4-.67-.5-.6-.6-.5-.68-.43-.73-.3-.77-.18-.82-.06H695.7v-1.96zm-181.66-4.23.18.75.3.73.42.67.5.6.6.5.68.43.73.3.76.18.84.06h77.43v1.96h-77.5l-1.06-.1-1.06-.24-1-.42-.94-.58-.83-.7-.72-.84-.57-.93-.42-1-.25-1.08-.08-1.06v-52.54H591v52.46z"/><path fill="#979ea8" d="M590.98-558.47H589v-1.03h2zm187.69 115.23-4.64-14.26h9.27z"/><path fill="#979ea8" stroke="#979ea8" stroke-width=".05" d="m778.67-440.08-5.98-18.4h11.94zm-3.3-16.45 3.3 10.14 3.3-10.13z"/><use xlink:href="#h" transform="translate(673.477 -496)"/><path fill="#008a0e" d="M120-788a12 12 0 0 1 12-12h416a12 12 0 0 1 12 12v39.33a12 12 0 0 1-12 12H132a12 12 0 0 1-12-12z"/><use xlink:href="#i" transform="translate(137.738 -762.186)"/><use xlink:href="#j" transform="translate(204.503 -762.186)"/><use xlink:href="#k" transform="translate(315.003 -762.186)"/><use xlink:href="#l" transform="translate(374.225 -762.186)"/><use xlink:href="#m" transform="translate(503.904 -762.186)"/><path fill="#dfe3e8" d="M120-1002.45a17.55 17.55 0 0 1 17.55-17.55h184.9a17.55 17.55 0 0 1 17.55 17.55v140.4a17.55 17.55 0 0 1-17.55 17.55h-184.9A17.55 17.55 0 0 1 120-862.05z"/><use xlink:href="#n" transform="translate(140 -946.222)"/><use xlink:href="#o" transform="translate(140 -903.556)"/><path fill="#979ea8" stroke="#979ea8" stroke-width=".05" d="M851.33-456.83h-1.95v-30.1h1.95zm0-54.1h-1.95v-47.57h1.95z"/><path fill="#979ea8" d="M851.33-558.47h-1.95v-1.03h1.95zm-.98 116.9-4.63-14.26H855z"/><path fill="#979ea8" stroke="#979ea8" stroke-width=".05" d="m850.35-438.4-5.98-18.4h11.96zm-3.3-16.46 3.3 10.13 3.3-10.13z"/><use xlink:href="#h" transform="translate(839.245 -494.917)"/><path fill="#979ea8" stroke="#979ea8" stroke-width=".05" d="M850.98-275.67H849v-10.66h1.95zm-.9-34.66h-1.95v-28.17h1.95z"/><path fill="#979ea8" stroke="#979ea8" stroke-width=".05" d="M850.08-338.47h-1.95v-1.03h1.95z"/><path fill="#979ea8" d="m850-260.4-4.63-14.27h9.26z"/><path fill="#979ea8" stroke="#979ea8" stroke-width=".05" d="m850-257.25-5.98-18.4h11.96zm-3.3-16.44 3.3 10.14 3.3-10.13z"/><use xlink:href="#p" transform="translate(838.444 -294.333)"/><path fill="#f4d9ff" stroke="#3a414a" d="M761.68-640h198.67l-21.33 80H740.35z" class="qc-clickable" data-target="0b"/><use xlink:href="#a" transform="translate(761.89 -611.057)"/><use xlink:href="#q" transform="translate(816.377 -611.057)"/><use xlink:href="#r" transform="translate(902.884 -611.057)"/><use xlink:href="#s" transform="translate(821.81 -576.39)"/><path fill="#cfe682" stroke="#3a414a" d="M127.73 65h51.44l-7.74 29H120z"/><path fill="#cfe4ff" stroke="#3a414a" d="M127.73 161.5h51.44l-7.74 29H120z"/><path fill="#fff7a1" stroke="#3a414a" d="M127.73 113.25h51.44l-7.74 29H120z"/><path fill="none" d="M200 60h225.93v38.67H200z"/><use xlink:href="#t" transform="translate(205 88.564)"/><use xlink:href="#u" transform="translate(269.117 88.564)"/><path fill="none" d="M200 108.5h240v38.67H200z"/><use xlink:href="#t" transform="translate(205 137.064)"/><use xlink:href="#v" transform="translate(269.117 137.064)"/><path fill="none" d="M200 157.67h240v38.66H200z"/><use xlink:href="#w" transform="translate(205 186.23)"/><use xlink:href="#x" transform="translate(278.747 186.23)"/><path fill="#f4d9ff" stroke="#3a414a" d="M507.73 68.83h51.44l-7.74 29H500z"/><path fill="none" d="M580 65h340v36.67H580z"/><use xlink:href="#y" transform="translate(585 93.111)"/><use xlink:href="#z" transform="translate(740.599 93.111)"/><use xlink:href="#A" transform="translate(811.136 93.111)"/><use xlink:href="#B" transform="translate(585 127.778)"/><path fill="#ffcf99" stroke="#3a414a" d="M507.73 117.08h51.44l-7.74 29H500z"/><path fill="none" d="M580 113.25h260v36.67H580z"/><use xlink:href="#y" transform="translate(585 141.361)"/><use xlink:href="#C" transform="translate(740.599 141.361)"/><use xlink:href="#B" transform="translate(585 176.028)"/><path fill="#fff" stroke="#3a414a" d="M740.35-426.33a12 12 0 0 1 12-12h196a12 12 0 0 1 12 12v76a12 12 0 0 1-12 12h-196a12 12 0 0 1-12-12z"/><path fill="none" d="M740.35-438.33h220v40h-220z"/><use xlink:href="#D" transform="translate(754.456 -413.68)"/><use xlink:href="#E" transform="translate(840.752 -413.68)"/><use xlink:href="#F" transform="translate(852.666 -413.68)"/><path fill="none" stroke="#3a414a" stroke-width="2" d="M741.35-398.33h218.5m-218.47 0h-1.03m219.48 0h1.02"/><path fill="none" d="M740.35-398.33h220v60h-220z"/><use xlink:href="#G" transform="translate(766.585 -375.165)"/><use xlink:href="#H" transform="translate(873.746 -375.165)"/><use xlink:href="#I" transform="translate(831.277 -348.498)"/><path fill="#f4d9ff" stroke="#3a414a" d="M1022.03-640h198.67l-21.33 80H1000.7z" class="qc-clickable" data-target="07"/><use xlink:href="#J" transform="translate(1091.975 -611.057)"/><use xlink:href="#K" transform="translate(1088.632 -576.39)"/><path fill="#cfe682" stroke="#3a414a" d="M1149.73-595h51.44l-7.74 29H1142z"/><path fill="#979ea8" stroke="#979ea8" stroke-width=".05" d="M1004.5-497.77h-78.3l-.82.06-.76.17-.73.3-.68.42-.6.5-.52.6-.4.67-.3.73-.2.76-.06.83v35.87h-1.95v-35.96l.07-1.04.26-1.07.42-1.02.57-.93.7-.83.85-.7.93-.6 1-.4 1.08-.26 1.05-.1h78.36zm107.18-6.94-.1 1.04-.24 1.07-.42 1.02-.57.93-.7.83-.85.7-.93.6-1 .4-1.08.26-1.06.1h-78.03v-1.97h77.96l.83-.06.75-.17.73-.3.67-.42.6-.5.5-.6.43-.67.3-.73.18-.76.07-.83v-53.7h1.95z"/><path fill="#979ea8" d="M1111.68-558.47h-1.95v-1.03h1.95zm-191.51 116.9-4.64-14.26h9.27z"/><path fill="#979ea8" stroke="#979ea8" stroke-width=".05" d="m920.17-438.4-5.98-18.4h11.94zm-3.3-16.46 3.3 10.13 3.3-10.13z"/><use xlink:href="#h" transform="translate(1004.495 -494.75)"/><path fill="#ffcf99" stroke="#3a414a" d="M761.33-143H960l-21.33 80H740z"/><use xlink:href="#a" transform="translate(760.696 -114.057)"/><use xlink:href="#L" transform="translate(815.184 -114.057)"/><use xlink:href="#M" transform="translate(869.752 -114.057)"/><use xlink:href="#N" transform="translate(818.02 -79.39)"/><path fill="none" stroke="#979ea8" stroke-width="2" d="M850-175.17v.92"/><path fill="#979ea8" stroke="#979ea8" stroke-width=".05" d="M850.98-175.14H849v-1.03h2z"/><path fill="#979ea8" stroke="#979ea8" stroke-width="2" d="m850-144.9 14.85-14.86L850-174.6l-14.85 14.84z"/><defs><path id="O" fill="#3a414a" d="M106-169C34-169 62-67 57 0H25v-261h32l-1 103c12-21 28-36 61-36 89 0 53 116 60 194h-32v-121c2-32-8-49-39-48"/><path id="P" fill="#3a414a" d="M24-231v-30h32v30zM24 0v-190h32V0z"/><path id="Q" fill="#3a414a" d="M117-194c89-4 53 116 60 194h-32v-121c0-31-8-49-39-48C34-167 62-67 57 0H25l-1-190h30c1 10-1 24 2 32 11-22 29-35 61-36"/><path id="R" fill="#3a414a" d="M59-47c-2 24 18 29 38 22v24C64 9 27 4 27-40v-127H5v-23h24l9-43h21v43h35v23H59z"/><path id="S" fill="#3a414a" d="M108 0H70L1-190h34L89-25l56-165h34"/><path id="T" fill="#3a414a" d="M100-194c63 0 86 42 84 106H49c0 40 14 67 53 68 26 1 43-12 49-29l28 8c-11 28-37 45-77 45C44 4 14-33 15-96c1-61 26-98 85-98m52 81c6-60-76-77-97-28-3 7-6 17-6 28z"/><path id="U" fill="#3a414a" d="M96-169c-40 0-48 33-48 73s9 75 48 75c24 0 41-14 43-38l32 2c-6 37-31 61-74 61-59 0-76-41-82-99-10-93 101-131 147-64 4 7 5 14 7 22l-32 3c-4-21-16-35-41-35"/><path id="V" fill="#3a414a" d="M100-194c62-1 85 37 85 99 1 63-27 99-86 99S16-35 15-95c0-66 28-99 85-99M99-20c44 1 53-31 53-75 0-43-8-75-51-75s-53 32-53 75 10 74 51 75"/><path id="W" fill="#3a414a" d="M114-163C36-179 61-72 57 0H25l-1-190h30c1 12-1 29 2 39 6-27 23-49 58-41z"/><path id="X" fill="#3a414a" d="M87 75C49 33 22-17 22-94c0-76 28-126 65-167h31c-38 41-64 92-64 168S80 34 118 75z"/><path id="Y" fill="#3a414a" d="M33 0v-248h34V0z"/><path id="Z" fill="#3a414a" d="M137 0h-34L2-248h35l83 218 83-218h36"/><path id="aa" fill="#3a414a" d="M197 0v-115H63V0H30v-248h33v105h134v-105h34V0z"/><path id="ab" fill="#3a414a" d="M33-261c38 41 65 92 65 168S71 34 33 75H2C39 34 66-17 66-93S39-220 2-261z"/><path id="ac" fill="#3a414a" d="M179-190 93 31C79 59 56 82 12 73V49c39 6 53-20 64-50L1-190h34L92-34l54-156z"/><path id="ad" fill="#3a414a" d="M115-194c55 1 70 41 70 98S169 2 115 4C84 4 66-9 55-30l1 105H24l-1-265h31l2 30c10-21 28-34 59-34m-8 174c40 0 45-34 45-75s-6-73-45-74c-42 0-51 32-51 76 0 43 10 73 51 73"/><path id="ae" fill="#3a414a" d="M85-194c31 0 48 13 60 33l-1-100h32l1 261h-30c-2-10 0-23-3-31C134-8 116 4 85 4 32 4 16-35 15-94c0-66 23-100 70-100m9 24c-40 0-46 34-46 75 0 40 6 74 45 74 42 0 51-32 51-76 0-42-9-74-50-73"/><path id="af" fill="#3a414a" d="M30 0v-248h187v28H63v79h144v27H63v87h162V0z"/><path id="ag" fill="#333" d="M101-251c82-7 93 87 43 132L82-64C71-53 59-42 53-27h129V0H18c2-99 128-94 128-182 0-28-16-43-45-43s-46 15-49 41l-32-3c6-41 34-60 81-64"/><path id="ah" fill="#333" d="M155-56V0h-30v-56H8v-25l114-167h33v167h35v25zm-30-156c-27 46-58 90-88 131h88z"/><path id="ai" fill="#fff" d="M266 0h-40l-56-210L115 0H75L2-248h35L96-30l15-64 43-154h32l59 218 59-218h35"/><path id="aj" fill="#fff" d="M100-194c63 0 86 42 84 106H49c0 40 14 67 53 68 26 1 43-12 49-29l28 8c-11 28-37 45-77 45C44 4 14-33 15-96c1-61 26-98 85-98m52 81c6-60-76-77-97-28-3 7-6 17-6 28z"/><path id="ak" fill="#fff" d="M115-194c53 0 69 39 70 98 0 66-23 100-70 100C84 3 66-7 56-30L54 0H23l1-261h32v101c10-23 28-34 59-34m-8 174c40 0 45-34 45-75 0-40-5-75-45-74-42 0-51 32-51 76 0 43 10 73 51 73"/><path id="al" fill="#fff" d="M114-163C36-179 61-72 57 0H25l-1-190h30c1 12-1 29 2 39 6-27 23-49 58-41z"/><path id="am" fill="#fff" d="M100-194c62-1 85 37 85 99 1 63-27 99-86 99S16-35 15-95c0-66 28-99 85-99M99-20c44 1 53-31 53-75 0-43-8-75-51-75s-53 32-53 75 10 74 51 75"/><path id="an" fill="#fff" d="M206 0h-36l-40-164L89 0H53L-1-190h32L70-26l43-164h34l41 164 42-164h31"/><path id="ao" fill="#fff" d="M135-143c-3-34-86-38-87 0 15 53 115 12 119 90S17 21 10-45l28-5c4 36 97 45 98 0-10-56-113-15-118-90-4-57 82-63 122-42 12 7 21 19 24 35"/><path id="ap" fill="#fff" d="M24-231v-30h32v30zM24 0v-190h32V0z"/><path id="aq" fill="#fff" d="M59-47c-2 24 18 29 38 22v24C64 9 27 4 27-40v-127H5v-23h24l9-43h21v43h35v23H59z"/><path id="ar" fill="#fff" d="M106-169C34-169 62-67 57 0H25v-261h32l-1 103c12-21 28-36 61-36 89 0 53 116 60 194h-32v-121c2-32-8-49-39-48"/><path id="as" fill="#fff" d="M24 0v-261h32V0z"/><path id="at" fill="#fff" d="M85-194c31 0 48 13 60 33l-1-100h32l1 261h-30c-2-10 0-23-3-31C134-8 116 4 85 4 32 4 16-35 15-94c0-66 23-100 70-100m9 24c-40 0-46 34-46 75 0 40 6 74 45 74 42 0 51-32 51-76 0-42-9-74-50-73"/><path id="au" fill="#fff" d="M84 4C-5 8 30-112 23-190h32v120c0 31 7 50 39 49 72-2 45-101 50-169h31l1 190h-30c-1-10 1-25-2-33-11 22-28 36-60 37"/><path id="av" fill="#fff" d="M210-169c-67 3-38 105-44 169h-31v-121c0-29-5-50-35-48C34-165 62-65 56 0H25l-1-190h30c1 10-1 24 2 32 10-44 99-50 107 0 11-21 27-35 58-36 85-2 47 119 55 194h-31v-121c0-29-5-49-35-48"/><path id="aw" fill="#fff" d="M87 75C49 33 22-17 22-94c0-76 28-126 65-167h31c-38 41-64 92-64 168S80 34 118 75z"/><path id="ax" fill="#fff" d="M160-131c35 5 61 23 61 61C221 17 115-2 30 0v-248c76 3 177-17 177 60 0 33-19 50-47 57m-97-11c50-1 110 9 110-42 0-47-63-36-110-37zm0 115c55-2 124 14 124-45 0-56-70-42-124-44z"/><path id="ay" fill="#fff" d="M33-261c38 41 65 92 65 168S71 34 33 75H2C39 34 66-17 66-93S39-220 2-261z"/><path id="az" fill="#3a414a" d="M24 0v-248h195v40H76v63h132v40H76v65h150V0z"/><path id="aA" fill="#3a414a" d="M135-194c87-1 58 113 63 194h-50c-7-57 23-157-34-157-59 0-34 97-39 157H25l-1-190h47c2 12-1 28 3 38 12-26 28-41 61-42"/><path id="aB" fill="#3a414a" d="M190-63c-7 42-38 67-86 67-59 0-84-38-90-98-12-110 154-137 174-36l-49 2c-2-19-15-32-35-32-30 0-35 28-38 64-6 74 65 87 74 30"/><path id="aC" fill="#3a414a" d="M135-150c-39-12-60 13-60 57V0H25l-1-190h47c2 13-1 29 3 40 6-28 27-53 61-41z"/><path id="aD" fill="#3a414a" d="M123 10C108 53 80 86 19 72V37c35 8 53-11 59-39L3-190h52l48 148c12-52 28-100 44-148h51"/><path id="aE" fill="#3a414a" d="M135-194c53 0 70 44 70 98 0 56-19 98-73 100-31 1-45-17-59-34 3 33 2 69 2 105H25l-1-265h48c2 10 0 23 3 31 11-24 29-35 60-35M114-30c33 0 39-31 40-66 0-38-9-64-40-64-56 0-55 130 0 130"/><path id="aF" fill="#3a414a" d="M115-3C79 11 28 4 28-45v-112H4v-33h27l15-45h31v45h36v33H77v99c-1 23 16 31 38 25z"/><path id="aG" fill="#3a414a" d="M186 0v-106H76V0H24v-248h52v99h110v-99h50V0z"/><path id="aH" fill="#3a414a" d="M25-224v-37h50v37zM25 0v-190h50V0z"/><path id="aI" fill="#333" d="M54-142c48-35 137-8 131 61C196 18 31 33 14-55l32-4c7 23 22 37 52 37 35-1 51-22 54-58 4-55-73-65-99-34H22l8-134h141v27H59"/><path id="aJ" fill="#3a414a" d="M143 0 79-87 56-68V0H24v-261h32v163l83-92h37l-77 82L181 0z"/><path id="aK" fill="#3a414a" d="M84 4C-5 8 30-112 23-190h32v120c0 31 7 50 39 49 72-2 45-101 50-169h31l1 190h-30c-1-10 1-25-2-33-11 22-28 36-60 37"/><path id="aL" fill="#3a414a" d="M135-143c-3-34-86-38-87 0 15 53 115 12 119 90S17 21 10-45l28-5c4 36 97 45 98 0-10-56-113-15-118-90-4-57 82-63 122-42 12 7 21 19 24 35"/><path id="aM" fill="#3a414a" d="M141-36C126-15 110 5 73 4 37 3 15-17 15-53c-1-64 63-63 125-63 3-35-9-54-41-54-24 1-41 7-42 31l-33-3c5-37 33-52 76-52 45 0 72 20 72 64v82c-1 20 7 32 28 27v20c-31 9-61-2-59-35M48-53c0 20 12 33 32 33 41-3 63-29 60-74-43 2-92-5-92 41"/><path id="aN" fill="#3a414a" d="M115-194c53 0 69 39 70 98 0 66-23 100-70 100C84 3 66-7 56-30L54 0H23l1-261h32v101c10-23 28-34 59-34m-8 174c40 0 45-34 45-75 0-40-5-75-45-74-42 0-51 32-51 76 0 43 10 73 51 73"/><path id="aO" fill="#3a414a" d="M24 0v-261h32V0z"/><path id="aP" fill="#3a414a" d="M185-189c-5-48-123-54-124 2 14 75 158 14 163 119 3 78-121 87-175 55-17-10-28-26-33-46l33-7c5 56 141 63 141-1 0-78-155-14-162-118-5-82 145-84 179-34 5 7 8 16 11 25"/><path id="aQ" fill="#3a414a" d="M212-179c-10-28-35-45-73-45-59 0-87 40-87 99 0 60 29 101 89 101 43 0 62-24 78-52l27 14C228-24 195 4 139 4 59 4 22-46 18-125c-6-104 99-153 187-111 19 9 31 26 39 46"/><path id="aR" fill="#3a414a" d="M32 76v-337h29V76z"/><path id="aS" fill="#3a414a" d="M210-169c-67 3-38 105-44 169h-31v-121c0-29-5-50-35-48C34-165 62-65 56 0H25l-1-190h30c1 10-1 24 2 32 10-44 99-50 107 0 11-21 27-35 58-36 85-2 47 119 55 194h-31v-121c0-29-5-49-35-48"/><path id="aT" fill="#3a414a" d="M177-190C167-65 218 103 67 71c-23-6-38-20-44-43l32-5c15 47 100 32 89-28v-30C133-14 115 1 83 1 29 1 15-40 15-95c0-56 16-97 71-98 29-1 48 16 59 35 1-10 0-23 2-32zM94-22c36 0 50-32 50-73 0-42-14-75-50-75-39 0-46 34-46 75s6 73 46 73"/><g id="a"><use xlink:href="#O" transform="scale(.08025)"/><use xlink:href="#P" transform="translate(16.05)scale(.08025)"/><use xlink:href="#Q" transform="translate(22.389)scale(.08025)"/><use xlink:href="#R" transform="translate(38.438)scale(.08025)"/></g><g id="b"><use xlink:href="#P" transform="scale(.08025)"/><use xlink:href="#Q" transform="translate(6.34)scale(.08025)"/><use xlink:href="#P" transform="translate(22.389)scale(.08025)"/><use xlink:href="#R" transform="translate(28.728)scale(.08025)"/></g><g id="c"><use xlink:href="#S" transform="scale(.08025)"/><use xlink:href="#T" transform="translate(14.444)scale(.08025)"/><use xlink:href="#U" transform="translate(30.494)scale(.08025)"/><use xlink:href="#R" transform="translate(44.938)scale(.08025)"/><use xlink:href="#V" transform="translate(52.963)scale(.08025)"/><use xlink:href="#W" transform="translate(69.012)scale(.08025)"/></g><g id="d"><use xlink:href="#X" transform="scale(.08025)"/><use xlink:href="#Q" transform="translate(9.55)scale(.08025)"/><use xlink:href="#Y" transform="translate(25.599 4.044)scale(.05617)"/><use xlink:href="#Z" transform="translate(31.216 4.044)scale(.05617)"/><use xlink:href="#aa" transform="translate(44.698 4.044)scale(.05617)"/><use xlink:href="#ab" transform="translate(59.246)scale(.08025)"/></g><g id="e"><use xlink:href="#T" transform="scale(.08025)"/><use xlink:href="#Q" transform="translate(16.05)scale(.08025)"/><use xlink:href="#U" transform="translate(32.099)scale(.08025)"/><use xlink:href="#W" transform="translate(46.543)scale(.08025)"/><use xlink:href="#ac" transform="translate(56.093)scale(.08025)"/><use xlink:href="#ad" transform="translate(70.537)scale(.08025)"/><use xlink:href="#R" transform="translate(86.586)scale(.08025)"/><use xlink:href="#T" transform="translate(94.611)scale(.08025)"/><use xlink:href="#ae" transform="translate(110.66)scale(.08025)"/></g><g id="f"><use xlink:href="#O" transform="scale(.08025)"/><use xlink:href="#P" transform="translate(16.05)scale(.08025)"/><use xlink:href="#Q" transform="translate(22.389)scale(.08025)"/><use xlink:href="#R" transform="translate(38.438)scale(.08025)"/></g><g id="g"><use xlink:href="#X" transform="scale(.08025)"/><use xlink:href="#O" transform="translate(9.55)scale(.08025)"/><use xlink:href="#af" transform="translate(25.599 4.044)scale(.05617)"/><use xlink:href="#ab" transform="translate(39.08)scale(.08025)"/></g><g id="h"><use xlink:href="#ag" transform="scale(.05556)"/><use xlink:href="#ah" transform="translate(11.111)scale(.05556)"/></g><g id="i"><use xlink:href="#ai" transform="scale(.08025)"/><use xlink:href="#aj" transform="translate(26.642)scale(.08025)"/><use xlink:href="#ak" transform="translate(42.691)scale(.08025)"/></g><g id="j"><use xlink:href="#ak" transform="scale(.08025)"/><use xlink:href="#al" transform="translate(16.05)scale(.08025)"/><use xlink:href="#am" transform="translate(25.599)scale(.08025)"/><use xlink:href="#an" transform="translate(41.648)scale(.08025)"/><use xlink:href="#ao" transform="translate(62.432)scale(.08025)"/><use xlink:href="#aj" transform="translate(76.877)scale(.08025)"/><use xlink:href="#al" transform="translate(92.926)scale(.08025)"/></g><g id="k"><use xlink:href="#an" transform="scale(.08025)"/><use xlink:href="#ap" transform="translate(20.784)scale(.08025)"/><use xlink:href="#aq" transform="translate(27.123)scale(.08025)"/><use xlink:href="#ar" transform="translate(35.148)scale(.08025)"/></g><g id="l"><use xlink:href="#as" transform="scale(.08025)"/><use xlink:href="#ap" transform="translate(6.34)scale(.08025)"/><use xlink:href="#ak" transform="translate(12.679)scale(.08025)"/><use xlink:href="#ao" transform="translate(28.728)scale(.08025)"/><use xlink:href="#am" transform="translate(43.173)scale(.08025)"/><use xlink:href="#at" transform="translate(59.222)scale(.08025)"/><use xlink:href="#ap" transform="translate(75.272)scale(.08025)"/><use xlink:href="#au" transform="translate(81.611)scale(.08025)"/><use xlink:href="#av" transform="translate(97.66)scale(.08025)"/></g><g id="m"><use xlink:href="#aw" transform="scale(.08025)"/><use xlink:href="#ax" transform="translate(9.55)scale(.08025)"/><use xlink:href="#ay" transform="translate(28.809)scale(.08025)"/></g><g id="n"><use xlink:href="#az" transform="scale(.09877)"/><use xlink:href="#aA" transform="translate(23.704)scale(.09877)"/><use xlink:href="#aB" transform="translate(45.333)scale(.09877)"/><use xlink:href="#aC" transform="translate(65.086)scale(.09877)"/><use xlink:href="#aD" transform="translate(78.914)scale(.09877)"/><use xlink:href="#aE" transform="translate(98.667)scale(.09877)"/><use xlink:href="#aF" transform="translate(120.296)scale(.09877)"/></g><g id="o"><use xlink:href="#aG" transform="scale(.09877)"/><use xlink:href="#aH" transform="translate(25.58)scale(.09877)"/><use xlink:href="#aA" transform="translate(35.457)scale(.09877)"/><use xlink:href="#aF" transform="translate(57.086)scale(.09877)"/></g><g id="p"><use xlink:href="#ag" transform="scale(.05556)"/><use xlink:href="#aI" transform="translate(11.111)scale(.05556)"/></g><g id="q"><use xlink:href="#U" transform="scale(.08025)"/><use xlink:href="#P" transform="translate(14.444)scale(.08025)"/><use xlink:href="#ad" transform="translate(20.784)scale(.08025)"/><use xlink:href="#O" transform="translate(36.833)scale(.08025)"/><use xlink:href="#T" transform="translate(52.883)scale(.08025)"/><use xlink:href="#W" transform="translate(68.932)scale(.08025)"/></g><g id="r"><use xlink:href="#aJ" transform="scale(.08025)"/><use xlink:href="#T" transform="translate(14.444)scale(.08025)"/><use xlink:href="#ac" transform="translate(30.494)scale(.08025)"/></g><g id="s"><use xlink:href="#X" transform="scale(.08025)"/><use xlink:href="#aJ" transform="translate(9.55)scale(.08025)"/><use xlink:href="#aa" transform="translate(23.994 4.044)scale(.05617)"/><use xlink:href="#ab" transform="translate(38.543)scale(.08025)"/></g><g id="t"><use xlink:href="#aK" transform="scale(.08025)"/><use xlink:href="#aL" transform="translate(16.05)scale(.08025)"/><use xlink:href="#T" transform="translate(30.494)scale(.08025)"/><use xlink:href="#W" transform="translate(46.543)scale(.08025)"/></g><g id="u"><use xlink:href="#P" transform="scale(.08025)"/><use xlink:href="#Q" transform="translate(6.34)scale(.08025)"/><use xlink:href="#ad" transform="translate(22.389)scale(.08025)"/><use xlink:href="#aK" transform="translate(38.438)scale(.08025)"/><use xlink:href="#R" transform="translate(54.488)scale(.08025)"/></g><g id="v"><use xlink:href="#V" transform="scale(.08025)"/><use xlink:href="#aK" transform="translate(16.05)scale(.08025)"/><use xlink:href="#R" transform="translate(32.099)scale(.08025)"/><use xlink:href="#ad" transform="translate(40.123)scale(.08025)"/><use xlink:href="#aK" transform="translate(56.173)scale(.08025)"/><use xlink:href="#R" transform="translate(72.222)scale(.08025)"/></g><g id="w"><use xlink:href="#V" transform="scale(.08025)"/><use xlink:href="#R" transform="translate(16.05)scale(.08025)"/><use xlink:href="#O" transform="translate(24.074)scale(.08025)"/><use xlink:href="#T" transform="translate(40.123)scale(.08025)"/><use xlink:href="#W" transform="translate(56.173)scale(.08025)"/></g><g id="x"><use xlink:href="#ae" transform="scale(.08025)"/><use xlink:href="#aM" transform="translate(16.05)scale(.08025)"/><use xlink:href="#R" transform="translate(32.099)scale(.08025)"/><use xlink:href="#aM" transform="translate(40.123)scale(.08025)"/></g><g id="y"><use xlink:href="#aL" transform="scale(.08025)"/><use xlink:href="#aK" transform="translate(14.444)scale(.08025)"/><use xlink:href="#aN" transform="translate(30.494)scale(.08025)"/><use xlink:href="#ad" transform="translate(46.543)scale(.08025)"/><use xlink:href="#W" transform="translate(62.593)scale(.08025)"/><use xlink:href="#V" transform="translate(72.142)scale(.08025)"/><use xlink:href="#U" transform="translate(88.191)scale(.08025)"/><use xlink:href="#T" transform="translate(102.636)scale(.08025)"/><use xlink:href="#aL" transform="translate(118.685)scale(.08025)"/><use xlink:href="#aL" transform="translate(133.13)scale(.08025)"/></g><g id="z"><use xlink:href="#P" transform="scale(.08025)"/><use xlink:href="#Q" transform="translate(6.34)scale(.08025)"/><use xlink:href="#ad" transform="translate(22.389)scale(.08025)"/><use xlink:href="#aK" transform="translate(38.438)scale(.08025)"/><use xlink:href="#R" transform="translate(54.488)scale(.08025)"/></g><g id="A"><use xlink:href="#X" transform="scale(.08025)"/><use xlink:href="#aO" transform="translate(9.55)scale(.08025)"/><use xlink:href="#P" transform="translate(15.889)scale(.08025)"/><use xlink:href="#Q" transform="translate(22.228)scale(.08025)"/><use xlink:href="#aJ" transform="translate(38.278)scale(.08025)"/><use xlink:href="#ab" transform="translate(52.722)scale(.08025)"/></g><g id="C"><use xlink:href="#V" transform="scale(.08025)"/><use xlink:href="#aK" transform="translate(16.05)scale(.08025)"/><use xlink:href="#R" transform="translate(32.099)scale(.08025)"/><use xlink:href="#ad" transform="translate(40.123)scale(.08025)"/><use xlink:href="#aK" transform="translate(56.173)scale(.08025)"/><use xlink:href="#R" transform="translate(72.222)scale(.08025)"/></g><g id="D"><use xlink:href="#aP" transform="scale(.06173)"/><use xlink:href="#aQ" transform="translate(14.815)scale(.06173)"/><use xlink:href="#W" transform="translate(30.802)scale(.06173)"/><use xlink:href="#ac" transform="translate(38.148)scale(.06173)"/><use xlink:href="#ad" transform="translate(49.26)scale(.06173)"/><use xlink:href="#R" transform="translate(61.605)scale(.06173)"/><use xlink:href="#V" transform="translate(67.778)scale(.06173)"/></g><g id="F"><use xlink:href="#aO" transform="scale(.06173)"/><use xlink:href="#P" transform="translate(4.877)scale(.06173)"/><use xlink:href="#aN" transform="translate(9.753)scale(.06173)"/><use xlink:href="#aL" transform="translate(22.099)scale(.06173)"/><use xlink:href="#V" transform="translate(33.21)scale(.06173)"/><use xlink:href="#ae" transform="translate(45.556)scale(.06173)"/><use xlink:href="#P" transform="translate(57.901)scale(.06173)"/><use xlink:href="#aK" transform="translate(62.778)scale(.06173)"/><use xlink:href="#aS" transform="translate(75.123)scale(.06173)"/></g><g id="G"><use xlink:href="#aL" transform="scale(.06173)"/><use xlink:href="#ac" transform="translate(11.111)scale(.06173)"/><use xlink:href="#aS" transform="translate(22.222)scale(.06173)"/><use xlink:href="#aS" transform="translate(40.679)scale(.06173)"/><use xlink:href="#T" transform="translate(59.136)scale(.06173)"/><use xlink:href="#R" transform="translate(71.481)scale(.06173)"/><use xlink:href="#W" transform="translate(77.654)scale(.06173)"/><use xlink:href="#P" transform="translate(85)scale(.06173)"/><use xlink:href="#U" transform="translate(89.877)scale(.06173)"/></g><g id="H"><use xlink:href="#U" transform="scale(.06173)"/><use xlink:href="#P" transform="translate(11.111)scale(.06173)"/><use xlink:href="#ad" transform="translate(15.988)scale(.06173)"/><use xlink:href="#O" transform="translate(28.333)scale(.06173)"/><use xlink:href="#T" transform="translate(40.679)scale(.06173)"/><use xlink:href="#W" transform="translate(53.025)scale(.06173)"/></g><g id="I"><use xlink:href="#X" transform="scale(.06173)"/><use xlink:href="#af" transform="translate(7.346)scale(.06173)"/><use xlink:href="#aM" transform="translate(22.16 3.111)scale(.04321)"/><use xlink:href="#ab" transform="translate(30.802)scale(.06173)"/></g><g id="J"><use xlink:href="#O" transform="scale(.08025)"/><use xlink:href="#P" transform="translate(16.05)scale(.08025)"/><use xlink:href="#Q" transform="translate(22.389)scale(.08025)"/><use xlink:href="#R" transform="translate(38.438)scale(.08025)"/></g><g id="K"><use xlink:href="#X" transform="scale(.08025)"/><use xlink:href="#O" transform="translate(9.55)scale(.08025)"/><use xlink:href="#ab" transform="translate(25.599)scale(.08025)"/></g><g id="L"><use xlink:href="#T" transform="scale(.08025)"/><use xlink:href="#Q" transform="translate(16.05)scale(.08025)"/><use xlink:href="#U" transform="translate(32.099)scale(.08025)"/></g><g id="M"><use xlink:href="#aO" transform="scale(.08025)"/><use xlink:href="#T" transform="translate(6.34)scale(.08025)"/><use xlink:href="#Q" transform="translate(22.389)scale(.08025)"/><use xlink:href="#aT" transform="translate(38.438)scale(.08025)"/><use xlink:href="#R" transform="translate(54.488)scale(.08025)"/><use xlink:href="#O" transform="translate(62.512)scale(.08025)"/></g><g id="N"><use xlink:href="#X" transform="scale(.08025)"/><use xlink:href="#O" transform="translate(9.55)scale(.08025)"/><use xlink:href="#af" transform="translate(25.599 4.044)scale(.05617)"/><use xlink:href="#aO" transform="translate(39.08)scale(.08025)"/><use xlink:href="#ab" transform="translate(45.42)scale(.08025)"/></g><use xlink:href="#aR" id="E" transform="scale(.06173)"/></defs></g></svg>