<svg xmlns="http://www.w3.org/2000/svg" xmlns:xlink="http://www.w3.org/1999/xlink" width="1524" height="1287" viewBox="0 0 1524 1287"><g transform="translate(-78 1060)"><path fill="none" stroke="#008a0e" stroke-width="4" d="M120-788a12 12 0 0 1 12-12h1416a12 12 0 0 1 12 12V28a12 12 0 0 1-12 12H132a12 12 0 0 1-12-12z"/><path fill="#008a0e" d="M120-788a12 12 0 0 1 12-12h416a12 12 0 0 1 12 12v39.33a12 12 0 0 1-12 12H132a12 12 0 0 1-12-12z"/><use xlink:href="#a" transform="translate(137.738 -762.186)"/><use xlink:href="#b" transform="translate(204.503 -762.186)"/><use xlink:href="#c" transform="translate(315.003 -762.186)"/><use xlink:href="#d" transform="translate(374.225 -762.186)"/><use xlink:href="#e" transform="translate(503.904 -762.186)"/><path fill="#dfe3e8" d="M120-1002.45a17.55 17.55 0 0 1 17.55-17.55h184.9a17.55 17.55 0 0 1 17.55 17.55v140.4a17.55 17.55 0 0 1-17.55 17.55h-184.9A17.55 17.55 0 0 1 120-862.05z"/><use xlink:href="#f" transform="translate(140 -924.889)"/><path fill="#cfe682" stroke="#3a414a" d="M127.73 65h51.44l-7.74 29H120z"/><path fill="#cfe4ff" stroke="#3a414a" d="M127.73 161.5h51.44l-7.74 29H120z"/><path fill="#fff7a1" stroke="#3a414a" d="M127.73 113.25h51.44l-7.74 29H120z"/><path fill="none" d="M200 60h225.93v38.67H200z"/><use xlink:href="#g" transform="translate(205 88.564)"/><use xlink:href="#h" transform="translate(269.117 88.564)"/><path fill="none" d="M200 108.5h240v38.67H200z"/><use xlink:href="#g" transform="translate(205 137.064)"/><use xlink:href="#i" transform="translate(269.117 137.064)"/><path fill="none" d="M200 157.67h240v38.66H200z"/><use xlink:href="#j" transform="translate(205 186.23)"/><use xlink:href="#k" transform="translate(278.747 186.23)"/><path fill="#f4d9ff" stroke="#3a414a" d="M507.73 68.83h51.44l-7.74 29H500z"/><path fill="none" d="M580 65h340v36.67H580z"/><use xlink:href="#l" transform="translate(585 93.111)"/><use xlink:href="#m" transform="translate(740.599 93.111)"/><use xlink:href="#n" transform="translate(811.136 93.111)"/><use xlink:href="#o" transform="translate(585 127.778)"/><path fill="#ffcf99" stroke="#3a414a" d="M507.73 117.08h51.44l-7.74 29H500z"/><path fill="none" d="M580 113.25h260v36.67H580z"/><use xlink:href="#l" transform="translate(585 141.361)"/><use xlink:href="#p" transform="translate(740.599 141.361)"/><use xlink:href="#o" transform="translate(585 176.028)"/><path fill="#f4d9ff" stroke="#3a414a" d="M621.33-600H820l-21.33 80H600z" class="qc-clickable" data-target="01"/><use xlink:href="#q" transform="translate(643.165 -571.057)"/><use xlink:href="#r" transform="translate(729.672 -571.057)"/><use xlink:href="#s" transform="translate(675.091 -536.39)"/><path fill="#fff7a1" stroke="#3a414a" d="M1061.33 71.78H1260l-21.33 80H1040z"/><use xlink:href="#q" transform="translate(1083.165 100.728)"/><use xlink:href="#t" transform="translate(1169.672 100.728)"/><use xlink:href="#u" transform="translate(1120.709 135.395)"/><path fill="none" d="M1401.12 143.88h53.75v40h-53.75z"/><use xlink:href="#v" transform="translate(1408.942 172.461)"/><path fill="#f4d9ff" stroke="#3a414a" d="M881.58-600h199.17l-21.33 80H860.25z" class="qc-clickable" data-target="02"/><use xlink:href="#q" transform="translate(903.915 -571.057)"/><use xlink:href="#r" transform="translate(990.422 -571.057)"/><use xlink:href="#w" transform="translate(933.684 -536.39)"/><path fill="#979ea8" stroke="#979ea8" stroke-width=".05" d="m1144.04-170.97 1.05.08 1.06.26 1 .42.94.57.83.72.7.83.6.93.4 1 .26 1.08.07 1.06v216.8h-1.94v-216.74l-.07-.83-.18-.75-.3-.73-.42-.67-.5-.6-.6-.5-.68-.42-.73-.3-.76-.2-.84-.06h-82.53v-1.94zm-304.2-4.24.18.75.3.73.4.67.52.6.6.5.67.42.74.3.77.2.83.06h194.38v1.94H844.76l-1.05-.08-1.07-.26-1-.42-.94-.57-.84-.72-.7-.83-.6-.93-.4-1-.26-1.08-.08-1.06v-122.48h1.95v122.4z"/><path fill="#979ea8" d="M839.77-298.42h-1.95v-1.5l.97.48.97-.5zM1150 68.05l-4.63-14.27h9.27z"/><path fill="#979ea8" stroke="#979ea8" stroke-width=".05" d="m1150 71.2-5.98-18.4h11.96zm-3.3-16.44 3.3 10.13 3.3-10.14z"/><use xlink:href="#x" transform="translate(1039.212 -166)"/><path fill="#979ea8" stroke="#979ea8" stroke-width=".05" d="M1271.44 112.76h-20.6v-1.95h20.6zm126.68 0h-41.23v-1.95h41.22z"/><path fill="#979ea8" d="M1250.88 112.76h-1.3l.53-1.95h.78z"/><path fill="#979ea8" stroke="#979ea8" stroke-width=".05" d="M1398.1 126.78h-1.95v-30h1.95z"/><use xlink:href="#y" transform="translate(1271.45 115.785)"/><use xlink:href="#z" transform="translate(1299.227 115.785)"/><path fill="#979ea8" stroke="#979ea8" stroke-width=".05" d="m803.1-434.14 1.04.08 1.07.26 1.02.42.93.57.84.7.7.83.57.94.42 1 .24 1.07.08 1.05v68.2h-1.94v-68.13l-.07-.82-.17-.77-.3-.73-.42-.67-.5-.6-.6-.5-.67-.42-.73-.3-.76-.2-.83-.05h-26.57v-1.94zm-86.8-4.24.18.76.3.73.42.68.5.6.6.5.68.43.73.3.77.2.83.06h32.9v1.95h-32.98l-1.05-.07-1.07-.26-1-.42-.94-.57-.83-.7-.72-.85-.56-.93-.42-1-.25-1.08-.1-1.05v-79.37h1.97v79.3z"/><path fill="#979ea8" d="M716.24-518.47h-1.96v-1.03h1.96zm92.81 174.73L804.42-358h9.27z"/><path fill="#979ea8" stroke="#979ea8" stroke-width=".05" d="m809.05-340.58-5.98-18.4h11.96zm-3.3-16.45 3.3 10.14 3.3-10.13z"/><use xlink:href="#A" transform="translate(754.217 -429.167)"/><path fill="#454545" d="M1421.13 113.45h4.82c1.14 0 2.23-.06 3.38-.06 9.1-.2 16.54.43 23.48 7.03 4.1 4.8 5.62 10.05 5.68 16.26v1.53c0 1.34-.06 2.7-.18 3.97-1.75 1.8-2.78 1.6-5.13 1.6h-49.63c-3.62 0-3.62 0-5.13-1.6-.84-8.2-.06-14.86 5.32-21.45 4.77-5.06 10.56-7.24 17.38-7.3zm14.49-32.15c3.98 2.38 6.34 5.7 7.73 10 1.08 4.42.48 7.74-1.5 11.78-2 3.2-5.1 5.7-8.6 7.04-5.12.64-9.95.83-14.24-2.43-3.8-3.53-5.72-6.73-6.2-11.98.1-4.17 1.44-8.14 4.16-11.27 5.2-4.6 12.2-6.1 18.66-3.14z"/><path fill="#979ea8" stroke="#979ea8" stroke-width=".05" d="M904.97-432.2h-30.93l-.83.07-.75.2-.73.3-.67.4-.6.5-.5.6-.43.68-.3.73-.18.77-.06.82V-359H867v-68.2l.1-1.06.24-1.06.42-1 .58-.95.7-.83.84-.7.93-.58 1-.42 1.08-.26 1.06-.08h31zm66.5-6.93-.08 1.05-.26 1.07-.42 1-.58.93-.7.84-.84.7-.93.58-1 .42-1.08.25-1.06.1H927.2v-1.96h37.26l.83-.07.75-.2.73-.3.67-.4.6-.52.5-.6.43-.67.3-.72.18-.76.06-.83v-79.3h1.96z"/><path fill="#979ea8" d="M971.48-518.47h-1.96v-1.03h1.96zM868-343.74 863.37-358h9.26z"/><path fill="#979ea8" stroke="#979ea8" stroke-width=".05" d="m868-340.58-5.98-18.4h11.96zm-3.3-16.45 3.3 10.14 3.3-10.13z"/><use xlink:href="#B" transform="translate(904.976 -429.167)"/><path fill="none" stroke="#1071e5" d="M758.8-340h160l-80 40z"/><path fill="none" d="M1080-600h47.05v63.34H1080z"/><use xlink:href="#C" transform="translate(1085 -559.111)"/><defs><path id="D" fill="#fff" d="M266 0h-40l-56-210L115 0H75L2-248h35L96-30l15-64 43-154h32l59 218 59-218h35"/><path id="E" fill="#fff" d="M100-194c63 0 86 42 84 106H49c0 40 14 67 53 68 26 1 43-12 49-29l28 8c-11 28-37 45-77 45C44 4 14-33 15-96c1-61 26-98 85-98m52 81c6-60-76-77-97-28-3 7-6 17-6 28z"/><path id="F" fill="#fff" d="M115-194c53 0 69 39 70 98 0 66-23 100-70 100C84 3 66-7 56-30L54 0H23l1-261h32v101c10-23 28-34 59-34m-8 174c40 0 45-34 45-75 0-40-5-75-45-74-42 0-51 32-51 76 0 43 10 73 51 73"/><path id="G" fill="#fff" d="M114-163C36-179 61-72 57 0H25l-1-190h30c1 12-1 29 2 39 6-27 23-49 58-41z"/><path id="H" fill="#fff" d="M100-194c62-1 85 37 85 99 1 63-27 99-86 99S16-35 15-95c0-66 28-99 85-99M99-20c44 1 53-31 53-75 0-43-8-75-51-75s-53 32-53 75 10 74 51 75"/><path id="I" fill="#fff" d="M206 0h-36l-40-164L89 0H53L-1-190h32L70-26l43-164h34l41 164 42-164h31"/><path id="J" fill="#fff" d="M135-143c-3-34-86-38-87 0 15 53 115 12 119 90S17 21 10-45l28-5c4 36 97 45 98 0-10-56-113-15-118-90-4-57 82-63 122-42 12 7 21 19 24 35"/><path id="K" fill="#fff" d="M24-231v-30h32v30zM24 0v-190h32V0z"/><path id="L" fill="#fff" d="M59-47c-2 24 18 29 38 22v24C64 9 27 4 27-40v-127H5v-23h24l9-43h21v43h35v23H59z"/><path id="M" fill="#fff" d="M106-169C34-169 62-67 57 0H25v-261h32l-1 103c12-21 28-36 61-36 89 0 53 116 60 194h-32v-121c2-32-8-49-39-48"/><path id="N" fill="#fff" d="M24 0v-261h32V0z"/><path id="O" fill="#fff" d="M85-194c31 0 48 13 60 33l-1-100h32l1 261h-30c-2-10 0-23-3-31C134-8 116 4 85 4 32 4 16-35 15-94c0-66 23-100 70-100m9 24c-40 0-46 34-46 75 0 40 6 74 45 74 42 0 51-32 51-76 0-42-9-74-50-73"/><path id="P" fill="#fff" d="M84 4C-5 8 30-112 23-190h32v120c0 31 7 50 39 49 72-2 45-101 50-169h31l1 190h-30c-1-10 1-25-2-33-11 22-28 36-60 37"/><path id="Q" fill="#fff" d="M210-169c-67 3-38 105-44 169h-31v-121c0-29-5-50-35-48C34-165 62-65 56 0H25l-1-190h30c1 10-1 24 2 32 10-44 99-50 107 0 11-21 27-35 58-36 85-2 47 119 55 194h-31v-121c0-29-5-49-35-48"/><path id="R" fill="#fff" d="M87 75C49 33 22-17 22-94c0-76 28-126 65-167h31c-38 41-64 92-64 168S80 34 118 75z"/><path id="S" fill="#fff" d="M160-131c35 5 61 23 61 61C221 17 115-2 30 0v-248c76 3 177-17 177 60 0 33-19 50-47 57m-97-11c50-1 110 9 110-42 0-47-63-36-110-37zm0 115c55-2 124 14 124-45 0-56-70-42-124-44z"/><path id="T" fill="#fff" d="M33-261c38 41 65 92 65 168S71 34 33 75H2C39 34 66-17 66-93S39-220 2-261z"/><path id="U" fill="#3a414a" d="M24 0v-248h195v40H76v63h132v40H76v65h150V0z"/><path id="V" fill="#3a414a" d="M135-194c87-1 58 113 63 194h-50c-7-57 23-157-34-157-59 0-34 97-39 157H25l-1-190h47c2 12-1 28 3 38 12-26 28-41 61-42"/><path id="W" fill="#3a414a" d="M190-63c-7 42-38 67-86 67-59 0-84-38-90-98-12-110 154-137 174-36l-49 2c-2-19-15-32-35-32-30 0-35 28-38 64-6 74 65 87 74 30"/><path id="X" fill="#3a414a" d="M135-150c-39-12-60 13-60 57V0H25l-1-190h47c2 13-1 29 3 40 6-28 27-53 61-41z"/><path id="Y" fill="#3a414a" d="M123 10C108 53 80 86 19 72V37c35 8 53-11 59-39L3-190h52l48 148c12-52 28-100 44-148h51"/><path id="Z" fill="#3a414a" d="M135-194c53 0 70 44 70 98 0 56-19 98-73 100-31 1-45-17-59-34 3 33 2 69 2 105H25l-1-265h48c2 10 0 23 3 31 11-24 29-35 60-35M114-30c33 0 39-31 40-66 0-38-9-64-40-64-56 0-55 130 0 130"/><path id="aa" fill="#3a414a" d="M115-3C79 11 28 4 28-45v-112H4v-33h27l15-45h31v45h36v33H77v99c-1 23 16 31 38 25z"/><path id="ab" fill="#3a414a" d="M25-224v-37h50v37zM25 0v-190h50V0z"/><path id="ac" fill="#3a414a" d="M110-194c64 0 96 36 96 99 0 64-35 99-97 99-61 0-95-36-95-99 0-62 34-99 96-99m-1 164c35 0 45-28 45-65 0-40-10-65-43-65-34 0-45 26-45 65 0 36 10 65 43 65"/><path id="ad" fill="#3a414a" d="M84 4C-5 8 30-112 23-190h32v120c0 31 7 50 39 49 72-2 45-101 50-169h31l1 190h-30c-1-10 1-25-2-33-11 22-28 36-60 37"/><path id="ae" fill="#3a414a" d="M135-143c-3-34-86-38-87 0 15 53 115 12 119 90S17 21 10-45l28-5c4 36 97 45 98 0-10-56-113-15-118-90-4-57 82-63 122-42 12 7 21 19 24 35"/><path id="af" fill="#3a414a" d="M100-194c63 0 86 42 84 106H49c0 40 14 67 53 68 26 1 43-12 49-29l28 8c-11 28-37 45-77 45C44 4 14-33 15-96c1-61 26-98 85-98m52 81c6-60-76-77-97-28-3 7-6 17-6 28z"/><path id="ag" fill="#3a414a" d="M114-163C36-179 61-72 57 0H25l-1-190h30c1 12-1 29 2 39 6-27 23-49 58-41z"/><path id="ah" fill="#3a414a" d="M24-231v-30h32v30zM24 0v-190h32V0z"/><path id="ai" fill="#3a414a" d="M117-194c89-4 53 116 60 194h-32v-121c0-31-8-49-39-48C34-167 62-67 57 0H25l-1-190h30c1 10-1 24 2 32 11-22 29-35 61-36"/><path id="aj" fill="#3a414a" d="M115-194c55 1 70 41 70 98S169 2 115 4C84 4 66-9 55-30l1 105H24l-1-265h31l2 30c10-21 28-34 59-34m-8 174c40 0 45-34 45-75s-6-73-45-74c-42 0-51 32-51 76 0 43 10 73 51 73"/><path id="ak" fill="#3a414a" d="M59-47c-2 24 18 29 38 22v24C64 9 27 4 27-40v-127H5v-23h24l9-43h21v43h35v23H59z"/><path id="al" fill="#3a414a" d="M100-194c62-1 85 37 85 99 1 63-27 99-86 99S16-35 15-95c0-66 28-99 85-99M99-20c44 1 53-31 53-75 0-43-8-75-51-75s-53 32-53 75 10 74 51 75"/><path id="am" fill="#3a414a" d="M106-169C34-169 62-67 57 0H25v-261h32l-1 103c12-21 28-36 61-36 89 0 53 116 60 194h-32v-121c2-32-8-49-39-48"/><path id="an" fill="#3a414a" d="M85-194c31 0 48 13 60 33l-1-100h32l1 261h-30c-2-10 0-23-3-31C134-8 116 4 85 4 32 4 16-35 15-94c0-66 23-100 70-100m9 24c-40 0-46 34-46 75 0 40 6 74 45 74 42 0 51-32 51-76 0-42-9-74-50-73"/><path id="ao" fill="#3a414a" d="M141-36C126-15 110 5 73 4 37 3 15-17 15-53c-1-64 63-63 125-63 3-35-9-54-41-54-24 1-41 7-42 31l-33-3c5-37 33-52 76-52 45 0 72 20 72 64v82c-1 20 7 32 28 27v20c-31 9-61-2-59-35M48-53c0 20 12 33 32 33 41-3 63-29 60-74-43 2-92-5-92 41"/><path id="ap" fill="#3a414a" d="M115-194c53 0 69 39 70 98 0 66-23 100-70 100C84 3 66-7 56-30L54 0H23l1-261h32v101c10-23 28-34 59-34m-8 174c40 0 45-34 45-75 0-40-5-75-45-74-42 0-51 32-51 76 0 43 10 73 51 73"/><path id="aq" fill="#3a414a" d="M96-169c-40 0-48 33-48 73s9 75 48 75c24 0 41-14 43-38l32 2c-6 37-31 61-74 61-59 0-76-41-82-99-10-93 101-131 147-64 4 7 5 14 7 22l-32 3c-4-21-16-35-41-35"/><path id="ar" fill="#3a414a" d="M87 75C49 33 22-17 22-94c0-76 28-126 65-167h31c-38 41-64 92-64 168S80 34 118 75z"/><path id="as" fill="#3a414a" d="M24 0v-261h32V0z"/><path id="at" fill="#3a414a" d="M143 0 79-87 56-68V0H24v-261h32v163l83-92h37l-77 82L181 0z"/><path id="au" fill="#3a414a" d="M33-261c38 41 65 92 65 168S71 34 33 75H2C39 34 66-17 66-93S39-220 2-261z"/><path id="av" fill="#3a414a" d="M101-251c68 0 85 55 85 127S166 4 100 4C33 4 14-52 14-124c0-73 17-127 87-127m-1 229c47 0 54-49 54-102s-4-102-53-102c-51 0-55 48-55 102 0 53 5 102 54 102"/><path id="aw" fill="#3a414a" d="m205 0-28-72H64L36 0H1l101-248h38L239 0zm-38-99-47-123c-12 45-31 82-46 123z"/><path id="ax" fill="#3a414a" d="M190 0 58-211 59 0H30v-248h39L202-35l-2-213h31V0z"/><path id="ay" fill="#333" d="M54-142c48-35 137-8 131 61C196 18 31 33 14-55l32-4c7 23 22 37 52 37 35-1 51-22 54-58 4-55-73-65-99-34H22l8-134h141v27H59"/><path id="az" fill="#333" d="M99-251c64 0 84 50 84 122C183-37 130 33 47-8c-14-7-20-23-25-40l30-5c6 39 69 39 84 7 9-19 16-44 16-74-10 22-31 35-62 35-49 0-73-33-73-83 0-54 28-83 82-83m-1 141c31-1 51-18 51-49 0-36-14-67-51-67-34 0-49 23-49 58 0 34 15 58 49 58"/><path id="aA" fill="#333" d="M110-160c48 1 74 30 74 79 0 53-28 85-80 85-65 0-83-55-86-122-5-90 50-162 133-122 14 7 22 21 27 39l-31 6c-5-40-67-38-82-6-9 19-15 44-15 74 11-20 30-34 60-33m-7 138c34 0 49-23 49-58s-16-56-50-56c-29 0-50 16-49 49 1 36 15 65 50 65"/><path id="aB" fill="#333" d="M101-251c68 0 85 55 85 127S166 4 100 4C33 4 14-52 14-124c0-73 17-127 87-127m-1 229c47 0 54-49 54-102s-4-102-53-102c-51 0-55 48-55 102 0 53 5 102 54 102"/><path id="aC" fill="#333" d="M87 75C49 33 22-17 22-94c0-76 28-126 65-167h31c-38 41-64 92-64 168S80 34 118 75z"/><path id="aD" fill="#333" d="M85-194c31 0 48 13 60 33l-1-100h32l1 261h-30c-2-10 0-23-3-31C134-8 116 4 85 4 32 4 16-35 15-94c0-66 23-100 70-100m9 24c-40 0-46 34-46 75 0 40 6 74 45 74 42 0 51-32 51-76 0-42-9-74-50-73"/><path id="aE" fill="#333" d="M100-194c62-1 85 37 85 99 1 63-27 99-86 99S16-35 15-95c0-66 28-99 85-99M99-20c44 1 53-31 53-75 0-43-8-75-51-75s-53 32-53 75 10 74 51 75"/><path id="aF" fill="#333" d="M117-194c89-4 53 116 60 194h-32v-121c0-31-8-49-39-48C34-167 62-67 57 0H25l-1-190h30c1 10-1 24 2 32 11-22 29-35 61-36"/><path id="aG" fill="#333" d="M100-194c63 0 86 42 84 106H49c0 40 14 67 53 68 26 1 43-12 49-29l28 8c-11 28-37 45-77 45C44 4 14-33 15-96c1-61 26-98 85-98m52 81c6-60-76-77-97-28-3 7-6 17-6 28z"/><path id="aH" fill="#333" d="M33-261c38 41 65 92 65 168S71 34 33 75H2C39 34 66-17 66-93S39-220 2-261z"/><path id="aI" fill="#333" d="M126-127c33 6 58 20 58 59 0 88-139 92-164 29-3-8-5-16-6-25l32-3c6 27 21 44 54 44 32 0 52-15 52-46 0-38-36-46-79-43v-28c39 1 72-4 72-42 0-27-17-43-46-43-28 0-47 15-49 41l-32-3c6-42 35-63 81-64 48-1 79 21 79 65 0 36-21 52-52 59"/><path id="aJ" fill="#333" d="M134-131c28 9 52 24 51 62-1 50-34 73-85 73S17-19 16-69c0-36 21-54 49-61-75-25-45-126 34-121 46 3 78 18 79 63 0 33-17 51-44 57m-34-11c31 1 46-15 46-44 0-28-17-43-47-42-29 0-46 13-45 42 1 28 16 44 46 44m1 122c35 0 51-18 51-52 0-30-18-46-53-46-33 0-51 17-51 47 0 34 19 51 53 51"/><path id="aK" fill="#3a414a" d="M33 0v-38h34V0z"/><g id="a"><use xlink:href="#D" transform="scale(.08025)"/><use xlink:href="#E" transform="translate(26.642)scale(.08025)"/><use xlink:href="#F" transform="translate(42.691)scale(.08025)"/></g><g id="b"><use xlink:href="#F" transform="scale(.08025)"/><use xlink:href="#G" transform="translate(16.05)scale(.08025)"/><use xlink:href="#H" transform="translate(25.599)scale(.08025)"/><use xlink:href="#I" transform="translate(41.648)scale(.08025)"/><use xlink:href="#J" transform="translate(62.432)scale(.08025)"/><use xlink:href="#E" transform="translate(76.877)scale(.08025)"/><use xlink:href="#G" transform="translate(92.926)scale(.08025)"/></g><g id="c"><use xlink:href="#I" transform="scale(.08025)"/><use xlink:href="#K" transform="translate(20.784)scale(.08025)"/><use xlink:href="#L" transform="translate(27.123)scale(.08025)"/><use xlink:href="#M" transform="translate(35.148)scale(.08025)"/></g><g id="d"><use xlink:href="#N" transform="scale(.08025)"/><use xlink:href="#K" transform="translate(6.34)scale(.08025)"/><use xlink:href="#F" transform="translate(12.679)scale(.08025)"/><use xlink:href="#J" transform="translate(28.728)scale(.08025)"/><use xlink:href="#H" transform="translate(43.173)scale(.08025)"/><use xlink:href="#O" transform="translate(59.222)scale(.08025)"/><use xlink:href="#K" transform="translate(75.272)scale(.08025)"/><use xlink:href="#P" transform="translate(81.611)scale(.08025)"/><use xlink:href="#Q" transform="translate(97.66)scale(.08025)"/></g><g id="e"><use xlink:href="#R" transform="scale(.08025)"/><use xlink:href="#S" transform="translate(9.55)scale(.08025)"/><use xlink:href="#T" transform="translate(28.809)scale(.08025)"/></g><g id="f"><use xlink:href="#U" transform="scale(.09877)"/><use xlink:href="#V" transform="translate(23.704)scale(.09877)"/><use xlink:href="#W" transform="translate(45.333)scale(.09877)"/><use xlink:href="#X" transform="translate(65.086)scale(.09877)"/><use xlink:href="#Y" transform="translate(78.914)scale(.09877)"/><use xlink:href="#Z" transform="translate(98.667)scale(.09877)"/><use xlink:href="#aa" transform="translate(120.296)scale(.09877)"/><use xlink:href="#ab" transform="translate(132.05)scale(.09877)"/><use xlink:href="#ac" transform="translate(141.926)scale(.09877)"/><use xlink:href="#V" transform="translate(163.556)scale(.09877)"/></g><g id="g"><use xlink:href="#ad" transform="scale(.08025)"/><use xlink:href="#ae" transform="translate(16.05)scale(.08025)"/><use xlink:href="#af" transform="translate(30.494)scale(.08025)"/><use xlink:href="#ag" transform="translate(46.543)scale(.08025)"/></g><g id="h"><use xlink:href="#ah" transform="scale(.08025)"/><use xlink:href="#ai" transform="translate(6.34)scale(.08025)"/><use xlink:href="#aj" transform="translate(22.389)scale(.08025)"/><use xlink:href="#ad" transform="translate(38.438)scale(.08025)"/><use xlink:href="#ak" transform="translate(54.488)scale(.08025)"/></g><g id="i"><use xlink:href="#al" transform="scale(.08025)"/><use xlink:href="#ad" transform="translate(16.05)scale(.08025)"/><use xlink:href="#ak" transform="translate(32.099)scale(.08025)"/><use xlink:href="#aj" transform="translate(40.123)scale(.08025)"/><use xlink:href="#ad" transform="translate(56.173)scale(.08025)"/><use xlink:href="#ak" transform="translate(72.222)scale(.08025)"/></g><g id="j"><use xlink:href="#al" transform="scale(.08025)"/><use xlink:href="#ak" transform="translate(16.05)scale(.08025)"/><use xlink:href="#am" transform="translate(24.074)scale(.08025)"/><use xlink:href="#af" transform="translate(40.123)scale(.08025)"/><use xlink:href="#ag" transform="translate(56.173)scale(.08025)"/></g><g id="k"><use xlink:href="#an" transform="scale(.08025)"/><use xlink:href="#ao" transform="translate(16.05)scale(.08025)"/><use xlink:href="#ak" transform="translate(32.099)scale(.08025)"/><use xlink:href="#ao" transform="translate(40.123)scale(.08025)"/></g><g id="l"><use xlink:href="#ae" transform="scale(.08025)"/><use xlink:href="#ad" transform="translate(14.444)scale(.08025)"/><use xlink:href="#ap" transform="translate(30.494)scale(.08025)"/><use xlink:href="#aj" transform="translate(46.543)scale(.08025)"/><use xlink:href="#ag" transform="translate(62.593)scale(.08025)"/><use xlink:href="#al" transform="translate(72.142)scale(.08025)"/><use xlink:href="#aq" transform="translate(88.191)scale(.08025)"/><use xlink:href="#af" transform="translate(102.636)scale(.08025)"/><use xlink:href="#ae" transform="translate(118.685)scale(.08025)"/><use xlink:href="#ae" transform="translate(133.13)scale(.08025)"/></g><g id="m"><use xlink:href="#ah" transform="scale(.08025)"/><use xlink:href="#ai" transform="translate(6.34)scale(.08025)"/><use xlink:href="#aj" transform="translate(22.389)scale(.08025)"/><use xlink:href="#ad" transform="translate(38.438)scale(.08025)"/><use xlink:href="#ak" transform="translate(54.488)scale(.08025)"/></g><g id="n"><use xlink:href="#ar" transform="scale(.08025)"/><use xlink:href="#as" transform="translate(9.55)scale(.08025)"/><use xlink:href="#ah" transform="translate(15.889)scale(.08025)"/><use xlink:href="#ai" transform="translate(22.228)scale(.08025)"/><use xlink:href="#at" transform="translate(38.278)scale(.08025)"/><use xlink:href="#au" transform="translate(52.722)scale(.08025)"/></g><g id="p"><use xlink:href="#al" transform="scale(.08025)"/><use xlink:href="#ad" transform="translate(16.05)scale(.08025)"/><use xlink:href="#ak" transform="translate(32.099)scale(.08025)"/><use xlink:href="#aj" transform="translate(40.123)scale(.08025)"/><use xlink:href="#ad" transform="translate(56.173)scale(.08025)"/><use xlink:href="#ak" transform="translate(72.222)scale(.08025)"/></g><g id="q"><use xlink:href="#aq" transform="scale(.08025)"/><use xlink:href="#ah" transform="translate(14.444)scale(.08025)"/><use xlink:href="#aj" transform="translate(20.784)scale(.08025)"/><use xlink:href="#am" transform="translate(36.833)scale(.08025)"/><use xlink:href="#af" transform="translate(52.883)scale(.08025)"/><use xlink:href="#ag" transform="translate(68.932)scale(.08025)"/></g><g id="r"><use xlink:href="#an" transform="scale(.08025)"/><use xlink:href="#ao" transform="translate(16.05)scale(.08025)"/><use xlink:href="#ak" transform="translate(32.099)scale(.08025)"/><use xlink:href="#ao" transform="translate(40.123)scale(.08025)"/></g><g id="s"><use xlink:href="#ar" transform="scale(.08025)"/><use xlink:href="#aq" transform="translate(9.55)scale(.08025)"/><use xlink:href="#an" transform="translate(23.994)scale(.08025)"/><use xlink:href="#av" transform="translate(40.043 4.044)scale(.05617)"/><use xlink:href="#au" transform="translate(51.278)scale(.08025)"/></g><g id="t"><use xlink:href="#an" transform="scale(.08025)"/><use xlink:href="#ao" transform="translate(16.05)scale(.08025)"/><use xlink:href="#ak" transform="translate(32.099)scale(.08025)"/><use xlink:href="#ao" transform="translate(40.123)scale(.08025)"/></g><g id="u"><use xlink:href="#ar" transform="scale(.08025)"/><use xlink:href="#aq" transform="translate(9.55)scale(.08025)"/><use xlink:href="#an" transform="translate(23.994)scale(.08025)"/><use xlink:href="#au" transform="translate(40.043)scale(.08025)"/></g><g id="v"><use xlink:href="#ar" transform="scale(.08025)"/><use xlink:href="#aw" transform="translate(9.55)scale(.08025)"/><use xlink:href="#au" transform="translate(28.809)scale(.08025)"/></g><g id="w"><use xlink:href="#ar" transform="scale(.08025)"/><use xlink:href="#aq" transform="translate(9.55)scale(.08025)"/><use xlink:href="#an" transform="translate(23.994)scale(.08025)"/><use xlink:href="#ax" transform="translate(40.043 4.044)scale(.05617)"/><use xlink:href="#au" transform="translate(54.592)scale(.08025)"/></g><g id="x"><use xlink:href="#ay" transform="scale(.05556)"/><use xlink:href="#az" transform="translate(11.111)scale(.05556)"/></g><g id="y"><use xlink:href="#aA" transform="scale(.05556)"/><use xlink:href="#aB" transform="translate(11.111)scale(.05556)"/></g><g id="z"><use xlink:href="#aC" transform="scale(.05556)"/><use xlink:href="#aD" transform="translate(6.611)scale(.05556)"/><use xlink:href="#aE" transform="translate(17.722)scale(.05556)"/><use xlink:href="#aF" transform="translate(28.833)scale(.05556)"/><use xlink:href="#aG" transform="translate(39.944)scale(.05556)"/><use xlink:href="#aH" transform="translate(51.056)scale(.05556)"/></g><g id="A"><use xlink:href="#aI" transform="scale(.05556)"/><use xlink:href="#az" transform="translate(11.111)scale(.05556)"/></g><g id="B"><use xlink:href="#ay" transform="scale(.05556)"/><use xlink:href="#aJ" transform="translate(11.111)scale(.05556)"/></g><g id="C"><use xlink:href="#aK" transform="scale(.12346)"/><use xlink:href="#aK" transform="translate(12.346)scale(.12346)"/><use xlink:href="#aK" transform="translate(24.691)scale(.12346)"/></g></defs></g></svg>