<svg xmlns="http://www.w3.org/2000/svg" xmlns:xlink="http://www.w3.org/1999/xlink" width="1524" height="1287" viewBox="0 0 1524 1287"><g transform="translate(-78 1060)"><path fill="none" stroke="#008a0e" stroke-width="4" d="M120-788a12 12 0 0 1 12-12h1416a12 12 0 0 1 12 12V28a12 12 0 0 1-12 12H132a12 12 0 0 1-12-12z"/><path fill="#f4d9ff" stroke="#3a414a" d="M261.33-490H460l-21.33 80H240z" class="qc-clickable" data-target="06"/><use xlink:href="#a" transform="translate(295.965 -461.057)"/><use xlink:href="#b" transform="translate(318.341 -426.39)"/><path fill="#ffcf99" stroke="#3a414a" d="M681.14-106.67H879.8l-21.33 80H659.8z"/><use xlink:href="#c" transform="translate(671.179 -77.722)"/><use xlink:href="#d" transform="translate(679.204 -77.722)"/><use xlink:href="#e" transform="translate(741.716 -77.722)"/><use xlink:href="#f" transform="translate(741.515 -43.056)"/><path fill="#979ea8" stroke="#979ea8" stroke-width=".05" d="m684.7-330.98 1.06.1 1.06.24 1 .42.95.58.83.7.7.84.58.93.42 1 .26 1.08.08 1.06v17.2h-1.95v-17.12l-.07-.83-.2-.75-.3-.73-.4-.67-.5-.6-.6-.5-.68-.43-.73-.3-.77-.18-.82-.06h-124.5v-1.96zm-333.66-4.23.18.75.3.73.42.67.5.6.6.5.68.43.73.3.76.18.84.06H537.9v1.96H355.97l-1.05-.1-1.06-.24-1-.42-.94-.58-.83-.7-.7-.84-.6-.93-.4-1-.26-1.08-.08-1.06v-72.54h1.96v72.46z"/><path fill="#979ea8" d="M350.98-408.47h-1.96v-1.03h1.96zm339.69 116.9-4.64-14.26h9.27z"/><path fill="#979ea8" stroke="#979ea8" stroke-width=".05" d="m690.67-288.4-5.98-18.4h11.94zm-3.3-16.46 3.3 10.13 3.3-10.13z"/><use xlink:href="#g" transform="translate(537.919 -326)"/><path fill="#008a0e" d="M120-788a12 12 0 0 1 12-12h416a12 12 0 0 1 12 12v39.33a12 12 0 0 1-12 12H132a12 12 0 0 1-12-12z"/><use xlink:href="#h" transform="translate(137.738 -762.186)"/><use xlink:href="#i" transform="translate(204.503 -762.186)"/><use xlink:href="#j" transform="translate(315.003 -762.186)"/><use xlink:href="#k" transform="translate(374.225 -762.186)"/><use xlink:href="#l" transform="translate(503.904 -762.186)"/><path fill="#dfe3e8" d="M120-1002.45a17.55 17.55 0 0 1 17.55-17.55h184.9a17.55 17.55 0 0 1 17.55 17.55v140.4a17.55 17.55 0 0 1-17.55 17.55h-184.9A17.55 17.55 0 0 1 120-862.05z"/><use xlink:href="#m" transform="translate(140 -946.222)"/><use xlink:href="#n" transform="translate(140 -903.556)"/><use xlink:href="#o" transform="translate(246.47 -903.556)"/><path fill="#979ea8" stroke="#979ea8" stroke-width=".05" d="m724.7-370.98 1.06.1 1.06.24 1 .42.95.58.83.7.7.84.58.93.42 1 .26 1.08.08 1.06v56.7h-1.95v-56.62l-.07-.83-.2-.75-.3-.73-.4-.67-.5-.6-.6-.5-.68-.43-.73-.3-.77-.18-.82-.06h-54.2v-1.96zm-113.66-4.23.18.75.3.73.42.67.5.6.6.5.68.43.73.3.76.18.84.06h32.18v1.96h-32.26l-1.05-.1-1.06-.24-1-.42-.94-.58-.83-.7-.72-.84-.57-.93-.42-1-.25-1.08-.08-1.06v-32.54H611v32.46z"/><path fill="#979ea8" d="M610.98-408.47H609v-1.03h2zm119.69 116.4-4.64-14.26h9.27z"/><path fill="#979ea8" stroke="#979ea8" stroke-width=".05" d="m730.67-288.9-5.98-18.4h11.94zm-3.3-16.46 3.3 10.13 3.3-10.13z"/><use xlink:href="#g" transform="translate(648.227 -366)"/><path fill="#979ea8" stroke="#979ea8" stroke-width=".05" d="M770.78-125.67h-1.95v-10.66h1.95zm0-34.66h-1.95v-28.17h1.95z"/><path fill="#979ea8" stroke="#979ea8" stroke-width=".05" d="M770.78-188.47h-1.95v-1.03h1.95z"/><path fill="#979ea8" d="m769.8-110.4-4.63-14.27h9.27z"/><path fill="#979ea8" stroke="#979ea8" stroke-width=".05" d="m769.8-107.25-5.97-18.4h11.95zm-3.3-16.44 3.3 10.14 3.3-10.13z"/><use xlink:href="#p" transform="translate(758.696 -144.333)"/><path fill="#f4d9ff" stroke="#3a414a" d="M521.33-490H720l-21.33 80H500z" class="qc-clickable" data-target="07"/><use xlink:href="#q" transform="translate(548.783 -461.057)"/><use xlink:href="#r" transform="translate(635.289 -461.057)"/><use xlink:href="#s" transform="translate(574.718 -426.39)"/><path fill="#cfe682" stroke="#3a414a" d="M127.73 65h51.44l-7.74 29H120z"/><path fill="#cfe4ff" stroke="#3a414a" d="M127.73 161.5h51.44l-7.74 29H120z"/><path fill="#fff7a1" stroke="#3a414a" d="M127.73 113.25h51.44l-7.74 29H120z"/><path fill="none" d="M200 60h225.93v38.67H200z"/><use xlink:href="#t" transform="translate(205 88.564)"/><use xlink:href="#u" transform="translate(269.117 88.564)"/><path fill="none" d="M200 108.5h240v38.67H200z"/><use xlink:href="#t" transform="translate(205 137.064)"/><use xlink:href="#v" transform="translate(269.117 137.064)"/><path fill="none" d="M200 157.67h240v38.66H200z"/><use xlink:href="#w" transform="translate(205 186.23)"/><use xlink:href="#x" transform="translate(278.747 186.23)"/><path fill="#f4d9ff" stroke="#3a414a" d="M507.73 68.83h51.44l-7.74 29H500z"/><path fill="none" d="M580 65h340v36.67H580z"/><use xlink:href="#y" transform="translate(585 93.111)"/><use xlink:href="#z" transform="translate(740.599 93.111)"/><use xlink:href="#A" transform="translate(811.136 93.111)"/><use xlink:href="#B" transform="translate(585 127.778)"/><path fill="#ffcf99" stroke="#3a414a" d="M507.73 117.08h51.44l-7.74 29H500z"/><path fill="none" d="M580 113.25h260v36.67H580z"/><use xlink:href="#y" transform="translate(585 141.361)"/><use xlink:href="#C" transform="translate(740.599 141.361)"/><use xlink:href="#B" transform="translate(585 176.028)"/><path fill="#fff" stroke="#3a414a" d="M661.05-276.33a12 12 0 0 1 12-12h196a12 12 0 0 1 12 12v76a12 12 0 0 1-12 12h-196a12 12 0 0 1-12-12z"/><path fill="none" d="M661.05-288.33h220v40h-220z"/><use xlink:href="#D" transform="translate(675.157 -263.68)"/><use xlink:href="#E" transform="translate(761.454 -263.68)"/><use xlink:href="#F" transform="translate(773.367 -263.68)"/><path fill="none" stroke="#3a414a" stroke-width="2" d="M662.05-248.33h218.5m-218.47 0h-1.03m219.48 0h1.02"/><path fill="none" d="M661.05-248.33h220v60h-220z"/><use xlink:href="#G" transform="translate(687.287 -225.165)"/><use xlink:href="#H" transform="translate(794.447 -225.165)"/><use xlink:href="#I" transform="translate(751.978 -198.498)"/><path fill="#f4d9ff" stroke="#3a414a" d="M841.33-490H1040l-21.33 80H820z" class="qc-clickable" data-target="06"/><use xlink:href="#J" transform="translate(872.835 -461.057)"/><use xlink:href="#K" transform="translate(917.613 -461.057)"/><use xlink:href="#L" transform="translate(898.382 -426.39)"/><path fill="#979ea8" stroke="#979ea8" stroke-width=".05" d="M872.22-369.02h-56.85l-.82.06-.77.18-.73.3-.67.42-.6.5-.5.6-.42.68-.3.73-.2.76-.05.84v56.63h-1.94v-56.7l.08-1.06.26-1.06.42-1 .57-.94.7-.83.83-.7.93-.6 1.02-.4 1.06-.26 1.05-.08h56.92zm58.75-6.94-.08 1.05-.26 1.06-.42 1-.58.94-.7.83-.84.7-.93.6-1 .4-1.08.26-1.06.08h-29.6V-371h29.52l.83-.06.75-.18.73-.3.67-.42.6-.5.5-.6.43-.68.3-.73.18-.76.06-.84v-32.46H931z"/><path fill="#979ea8" d="M930.98-408.47H929v-1.03h2zm-121.65 116.4-4.63-14.26h9.27z"/><path fill="#979ea8" stroke="#979ea8" stroke-width=".05" d="m809.33-288.9-5.97-18.4h11.95zm-3.3-16.46 3.3 10.13 3.3-10.13z"/><use xlink:href="#g" transform="translate(872.227 -366)"/><path fill="#979ea8" stroke="#979ea8" stroke-width=".05" d="M976.04-329.02h-122l-.83.06-.75.18-.73.3-.67.42-.6.5-.5.6-.43.68-.3.73-.18.76-.06.84v16.63H847v-16.7l.1-1.06.24-1.06.42-1 .58-.94.7-.83.84-.7.93-.6 1-.4 1.08-.26 1.06-.08h122.08zm214.93-6.94-.08 1.05-.26 1.06-.42 1-.58.94-.7.83-.84.7-.93.6-1 .4-1.08.26-1.06.08H998.26V-331h185.7l.83-.06.75-.18.73-.3.67-.42.6-.5.5-.6.42-.68.3-.73.2-.76.06-.84v-72.46h1.94z"/><path fill="#979ea8" d="M1190.97-408.47h-1.94v-1.03h1.94zM848-292.07l-4.63-14.26h9.26z"/><path fill="#979ea8" stroke="#979ea8" stroke-width=".05" d="m848-288.9-5.98-18.4h11.96zm-3.3-16.46 3.3 10.13 3.3-10.13z"/><use xlink:href="#g" transform="translate(976.041 -326)"/><path fill="#f4d9ff" stroke="#3a414a" d="M961.33-757H1160l-21.33 80H940z" class="qc-clickable" data-target="04"/><use xlink:href="#M" transform="translate(960.736 -728.057)"/><use xlink:href="#N" transform="translate(1092.1 -728.057)"/><use xlink:href="#O" transform="translate(1013.755 -693.39)"/><path fill="none" stroke="#1071e5" d="M1110-607h160l-80 40z"/><path fill="#cfe4ff" stroke="#3a414a" d="M1101.33-490H1300l-21.33 80H1080z"/><use xlink:href="#M" transform="translate(1100.736 -461.057)"/><use xlink:href="#N" transform="translate(1232.1 -461.057)"/><use xlink:href="#P" transform="translate(1153.165 -426.39)"/><path fill="#f4d9ff" stroke="#3a414a" d="M1243.53-757h198.67l-21.33 80H1222.2z" class="qc-clickable" data-target="09"/><use xlink:href="#Q" transform="translate(1263.8 -728.057)"/><use xlink:href="#R" transform="translate(1364.67 -728.057)"/><use xlink:href="#S" transform="translate(1303.659 -693.39)"/><path fill="#979ea8" stroke="#979ea8" stroke-width=".05" d="M1264.65-646.02h-29.28l-.82.06-.77.18-.73.3-.67.42-.6.5-.5.6-.42.68-.3.73-.2.76-.05.84V-626h-1.94v-15.04l.08-1.05.26-1.06.42-1 .57-.94.7-.83.83-.72.93-.57 1.02-.42 1.06-.25 1.06-.08h29.36zm68.52-6.94-.08 1.05-.26 1.06-.42 1-.58.94-.7.83-.84.72-.93.57-1 .42-1.08.25-1.06.08h-39.36V-648h39.28l.82-.06.77-.18.73-.3.67-.42.6-.5.5-.6.42-.68.3-.73.2-.76.05-.84v-22.46h1.95z"/><path fill="#979ea8" d="M1333.17-675.47h-1.95v-1.03h1.95zm-103.84 64.73L1224.7-625h9.27z"/><path fill="#979ea8" stroke="#979ea8" stroke-width=".05" d="m1229.33-607.58-5.97-18.4h11.95zm-3.3-16.45 3.3 10.14 3.3-10.13z"/><use xlink:href="#T" transform="translate(1264.66 -643)"/><path fill="#979ea8" stroke="#979ea8" stroke-width=".05" d="m1146.04-647.98 1.05.1 1.06.24 1 .42.94.58.83.7.7.84.6.93.4 1 .26 1.08.07 1.06V-626h-1.94v-14.96l-.07-.83-.18-.75-.3-.73-.42-.67-.5-.6-.6-.5-.68-.43-.73-.3-.76-.18-.84-.06h-28.85V-648zm-95-4.23.18.75.3.73.42.67.5.6.6.5.68.43.73.3.76.18.84.06h38.85v1.96h-38.94l-1.05-.1-1.06-.24-1-.42-.94-.58-.83-.7-.7-.84-.6-.93-.4-1-.26-1.08-.07-1.06v-22.54h1.94v22.46z"/><path fill="#979ea8" d="M1050.97-675.47h-1.94v-1.03h1.94zM1152-610.74l-4.63-14.26h9.27z"/><path fill="#979ea8" stroke="#979ea8" stroke-width=".05" d="m1152-607.58-5.98-18.4h11.96zm-3.3-16.45 3.3 10.14 3.3-10.13z"/><use xlink:href="#T" transform="translate(1094.894 -643)"/><path fill="#979ea8" stroke="#979ea8" stroke-width=".05" d="M1190.97-509h-1.94v-12.76h1.94zm0-36.76h-1.94v-19.68h1.94z"/><path fill="#979ea8" d="M1190.97-565.4h-1.94v-1.53l.97.5.97-.5zm-.97 71.66-4.63-14.26h9.27z"/><path fill="#979ea8" stroke="#979ea8" stroke-width=".05" d="m1190-490.58-5.98-18.4h11.96zm-3.3-16.45 3.3 10.14 3.3-10.13z"/><use xlink:href="#U" transform="translate(1178.894 -529.761)"/><defs><path id="V" fill="#3a414a" d="M210-169c-67 3-38 105-44 169h-31v-121c0-29-5-50-35-48C34-165 62-65 56 0H25l-1-190h30c1 10-1 24 2 32 10-44 99-50 107 0 11-21 27-35 58-36 85-2 47 119 55 194h-31v-121c0-29-5-49-35-48"/><path id="W" fill="#3a414a" d="M100-194c63 0 86 42 84 106H49c0 40 14 67 53 68 26 1 43-12 49-29l28 8c-11 28-37 45-77 45C44 4 14-33 15-96c1-61 26-98 85-98m52 81c6-60-76-77-97-28-3 7-6 17-6 28z"/><path id="X" fill="#3a414a" d="M135-143c-3-34-86-38-87 0 15 53 115 12 119 90S17 21 10-45l28-5c4 36 97 45 98 0-10-56-113-15-118-90-4-57 82-63 122-42 12 7 21 19 24 35"/><path id="Y" fill="#3a414a" d="M141-36C126-15 110 5 73 4 37 3 15-17 15-53c-1-64 63-63 125-63 3-35-9-54-41-54-24 1-41 7-42 31l-33-3c5-37 33-52 76-52 45 0 72 20 72 64v82c-1 20 7 32 28 27v20c-31 9-61-2-59-35M48-53c0 20 12 33 32 33 41-3 63-29 60-74-43 2-92-5-92 41"/><path id="Z" fill="#3a414a" d="M177-190C167-65 218 103 67 71c-23-6-38-20-44-43l32-5c15 47 100 32 89-28v-30C133-14 115 1 83 1 29 1 15-40 15-95c0-56 16-97 71-98 29-1 48 16 59 35 1-10 0-23 2-32zM94-22c36 0 50-32 50-73 0-42-14-75-50-75-39 0-46 34-46 75s6 73 46 73"/><path id="aa" fill="#3a414a" d="M87 75C49 33 22-17 22-94c0-76 28-126 65-167h31c-38 41-64 92-64 168S80 34 118 75z"/><path id="ab" fill="#3a414a" d="M101-251c68 0 85 55 85 127S166 4 100 4C33 4 14-52 14-124c0-73 17-127 87-127m-1 229c47 0 54-49 54-102s-4-102-53-102c-51 0-55 48-55 102 0 53 5 102 54 102"/><path id="ac" fill="#3a414a" d="M33-261c38 41 65 92 65 168S71 34 33 75H2C39 34 66-17 66-93S39-220 2-261z"/><path id="ad" fill="#3a414a" d="M117-194c89-4 53 116 60 194h-32v-121c0-31-8-49-39-48C34-167 62-67 57 0H25l-1-190h30c1 10-1 24 2 32 11-22 29-35 61-36"/><path id="ae" fill="#3a414a" d="M96-169c-40 0-48 33-48 73s9 75 48 75c24 0 41-14 43-38l32 2c-6 37-31 61-74 61-59 0-76-41-82-99-10-93 101-131 147-64 4 7 5 14 7 22l-32 3c-4-21-16-35-41-35"/><path id="af" fill="#3a414a" d="M114-163C36-179 61-72 57 0H25l-1-190h30c1 12-1 29 2 39 6-27 23-49 58-41z"/><path id="ag" fill="#3a414a" d="M179-190 93 31C79 59 56 82 12 73V49c39 6 53-20 64-50L1-190h34L92-34l54-156z"/><path id="ah" fill="#3a414a" d="M115-194c55 1 70 41 70 98S169 2 115 4C84 4 66-9 55-30l1 105H24l-1-265h31l2 30c10-21 28-34 59-34m-8 174c40 0 45-34 45-75s-6-73-45-74c-42 0-51 32-51 76 0 43 10 73 51 73"/><path id="ai" fill="#3a414a" d="M59-47c-2 24 18 29 38 22v24C64 9 27 4 27-40v-127H5v-23h24l9-43h21v43h35v23H59z"/><path id="aj" fill="#3a414a" d="M85-194c31 0 48 13 60 33l-1-100h32l1 261h-30c-2-10 0-23-3-31C134-8 116 4 85 4 32 4 16-35 15-94c0-66 23-100 70-100m9 24c-40 0-46 34-46 75 0 40 6 74 45 74 42 0 51-32 51-76 0-42-9-74-50-73"/><path id="ak" fill="#3a414a" d="M30 0v-248h187v28H63v79h144v27H63v87h162V0z"/><path id="al" fill="#333" d="M126-127c33 6 58 20 58 59 0 88-139 92-164 29-3-8-5-16-6-25l32-3c6 27 21 44 54 44 32 0 52-15 52-46 0-38-36-46-79-43v-28c39 1 72-4 72-42 0-27-17-43-46-43-28 0-47 15-49 41l-32-3c6-42 35-63 81-64 48-1 79 21 79 65 0 36-21 52-52 59"/><path id="am" fill="#333" d="M101-251c68 0 85 55 85 127S166 4 100 4C33 4 14-52 14-124c0-73 17-127 87-127m-1 229c47 0 54-49 54-102s-4-102-53-102c-51 0-55 48-55 102 0 53 5 102 54 102"/><path id="an" fill="#fff" d="M266 0h-40l-56-210L115 0H75L2-248h35L96-30l15-64 43-154h32l59 218 59-218h35"/><path id="ao" fill="#fff" d="M100-194c63 0 86 42 84 106H49c0 40 14 67 53 68 26 1 43-12 49-29l28 8c-11 28-37 45-77 45C44 4 14-33 15-96c1-61 26-98 85-98m52 81c6-60-76-77-97-28-3 7-6 17-6 28z"/><path id="ap" fill="#fff" d="M115-194c53 0 69 39 70 98 0 66-23 100-70 100C84 3 66-7 56-30L54 0H23l1-261h32v101c10-23 28-34 59-34m-8 174c40 0 45-34 45-75 0-40-5-75-45-74-42 0-51 32-51 76 0 43 10 73 51 73"/><path id="aq" fill="#fff" d="M114-163C36-179 61-72 57 0H25l-1-190h30c1 12-1 29 2 39 6-27 23-49 58-41z"/><path id="ar" fill="#fff" d="M100-194c62-1 85 37 85 99 1 63-27 99-86 99S16-35 15-95c0-66 28-99 85-99M99-20c44 1 53-31 53-75 0-43-8-75-51-75s-53 32-53 75 10 74 51 75"/><path id="as" fill="#fff" d="M206 0h-36l-40-164L89 0H53L-1-190h32L70-26l43-164h34l41 164 42-164h31"/><path id="at" fill="#fff" d="M135-143c-3-34-86-38-87 0 15 53 115 12 119 90S17 21 10-45l28-5c4 36 97 45 98 0-10-56-113-15-118-90-4-57 82-63 122-42 12 7 21 19 24 35"/><path id="au" fill="#fff" d="M24-231v-30h32v30zM24 0v-190h32V0z"/><path id="av" fill="#fff" d="M59-47c-2 24 18 29 38 22v24C64 9 27 4 27-40v-127H5v-23h24l9-43h21v43h35v23H59z"/><path id="aw" fill="#fff" d="M106-169C34-169 62-67 57 0H25v-261h32l-1 103c12-21 28-36 61-36 89 0 53 116 60 194h-32v-121c2-32-8-49-39-48"/><path id="ax" fill="#fff" d="M24 0v-261h32V0z"/><path id="ay" fill="#fff" d="M85-194c31 0 48 13 60 33l-1-100h32l1 261h-30c-2-10 0-23-3-31C134-8 116 4 85 4 32 4 16-35 15-94c0-66 23-100 70-100m9 24c-40 0-46 34-46 75 0 40 6 74 45 74 42 0 51-32 51-76 0-42-9-74-50-73"/><path id="az" fill="#fff" d="M84 4C-5 8 30-112 23-190h32v120c0 31 7 50 39 49 72-2 45-101 50-169h31l1 190h-30c-1-10 1-25-2-33-11 22-28 36-60 37"/><path id="aA" fill="#fff" d="M210-169c-67 3-38 105-44 169h-31v-121c0-29-5-50-35-48C34-165 62-65 56 0H25l-1-190h30c1 10-1 24 2 32 10-44 99-50 107 0 11-21 27-35 58-36 85-2 47 119 55 194h-31v-121c0-29-5-49-35-48"/><path id="aB" fill="#fff" d="M87 75C49 33 22-17 22-94c0-76 28-126 65-167h31c-38 41-64 92-64 168S80 34 118 75z"/><path id="aC" fill="#fff" d="M160-131c35 5 61 23 61 61C221 17 115-2 30 0v-248c76 3 177-17 177 60 0 33-19 50-47 57m-97-11c50-1 110 9 110-42 0-47-63-36-110-37zm0 115c55-2 124 14 124-45 0-56-70-42-124-44z"/><path id="aD" fill="#fff" d="M33-261c38 41 65 92 65 168S71 34 33 75H2C39 34 66-17 66-93S39-220 2-261z"/><path id="aE" fill="#3a414a" d="M24 0v-248h195v40H76v63h132v40H76v65h150V0z"/><path id="aF" fill="#3a414a" d="M135-194c87-1 58 113 63 194h-50c-7-57 23-157-34-157-59 0-34 97-39 157H25l-1-190h47c2 12-1 28 3 38 12-26 28-41 61-42"/><path id="aG" fill="#3a414a" d="M190-63c-7 42-38 67-86 67-59 0-84-38-90-98-12-110 154-137 174-36l-49 2c-2-19-15-32-35-32-30 0-35 28-38 64-6 74 65 87 74 30"/><path id="aH" fill="#3a414a" d="M135-150c-39-12-60 13-60 57V0H25l-1-190h47c2 13-1 29 3 40 6-28 27-53 61-41z"/><path id="aI" fill="#3a414a" d="M123 10C108 53 80 86 19 72V37c35 8 53-11 59-39L3-190h52l48 148c12-52 28-100 44-148h51"/><path id="aJ" fill="#3a414a" d="M135-194c53 0 70 44 70 98 0 56-19 98-73 100-31 1-45-17-59-34 3 33 2 69 2 105H25l-1-265h48c2 10 0 23 3 31 11-24 29-35 60-35M114-30c33 0 39-31 40-66 0-38-9-64-40-64-56 0-55 130 0 130"/><path id="aK" fill="#3a414a" d="M115-3C79 11 28 4 28-45v-112H4v-33h27l15-45h31v45h36v33H77v99c-1 23 16 31 38 25z"/><path id="aL" fill="#3a414a" d="M182-130c37 4 62 22 62 59C244 23 116-4 24 0v-248c84 5 203-23 205 63 0 31-19 50-47 55M76-148c40-3 101 13 101-30 0-44-60-28-101-31zm0 110c48-3 116 14 116-37 0-48-69-32-116-35z"/><path id="aM" fill="#3a414a" d="M25 0v-261h50V0z"/><path id="aN" fill="#3a414a" d="M110-194c64 0 96 36 96 99 0 64-35 99-97 99-61 0-95-36-95-99 0-62 34-99 96-99m-1 164c35 0 45-28 45-65 0-40-10-65-43-65-34 0-45 26-45 65 0 36 10 65 43 65"/><path id="aO" fill="#3a414a" d="M147 0 96-86 75-71V0H25v-261h50v150l67-79h53l-66 74L201 0z"/><path id="aP" fill="#3a414a" d="M101-251c68 0 84 54 84 127C185-50 166 4 99 4S15-52 14-124c-1-75 17-127 87-127m-1 216c37-5 36-46 36-89s4-89-36-89c-39 0-36 45-36 89 0 43-3 85 36 89"/><path id="aQ" fill="#333" d="M27 0v-27h64v-190l-56 39v-29l58-41h29v221h61V0z"/><path id="aR" fill="#3a414a" d="M24-231v-30h32v30zM24 0v-190h32V0z"/><path id="aS" fill="#3a414a" d="M106-169C34-169 62-67 57 0H25v-261h32l-1 103c12-21 28-36 61-36 89 0 53 116 60 194h-32v-121c2-32-8-49-39-48"/><path id="aT" fill="#3a414a" d="M143 0 79-87 56-68V0H24v-261h32v163l83-92h37l-77 82L181 0z"/><path id="aU" fill="#3a414a" d="m240 0 2-218c-23 76-54 145-80 218h-23L58-218 59 0H30v-248h44l77 211c21-75 51-140 76-211h43V0z"/><path id="aV" fill="#3a414a" d="M84 4C-5 8 30-112 23-190h32v120c0 31 7 50 39 49 72-2 45-101 50-169h31l1 190h-30c-1-10 1-25-2-33-11 22-28 36-60 37"/><path id="aW" fill="#3a414a" d="M100-194c62-1 85 37 85 99 1 63-27 99-86 99S16-35 15-95c0-66 28-99 85-99M99-20c44 1 53-31 53-75 0-43-8-75-51-75s-53 32-53 75 10 74 51 75"/><path id="aX" fill="#3a414a" d="M115-194c53 0 69 39 70 98 0 66-23 100-70 100C84 3 66-7 56-30L54 0H23l1-261h32v101c10-23 28-34 59-34m-8 174c40 0 45-34 45-75 0-40-5-75-45-74-42 0-51 32-51 76 0 43 10 73 51 73"/><path id="aY" fill="#3a414a" d="M24 0v-261h32V0z"/><path id="aZ" fill="#3a414a" d="M185-189c-5-48-123-54-124 2 14 75 158 14 163 119 3 78-121 87-175 55-17-10-28-26-33-46l33-7c5 56 141 63 141-1 0-78-155-14-162-118-5-82 145-84 179-34 5 7 8 16 11 25"/><path id="ba" fill="#3a414a" d="M212-179c-10-28-35-45-73-45-59 0-87 40-87 99 0 60 29 101 89 101 43 0 62-24 78-52l27 14C228-24 195 4 139 4 59 4 22-46 18-125c-6-104 99-153 187-111 19 9 31 26 39 46"/><path id="bb" fill="#3a414a" d="M32 76v-337h29V76z"/><path id="bc" fill="#3a414a" d="M108 0H70L1-190h34L89-25l56-165h34"/><path id="bd" fill="#3a414a" d="M33 0v-248h34V0z"/><path id="be" fill="#3a414a" d="M137 0h-34L2-248h35l83 218 83-218h36"/><path id="bf" fill="#3a414a" d="M63-220v92h138v28H63V0H30v-248h175v28z"/><path id="bg" fill="#3a414a" d="m195 0-74-108L45 0H8l94-129-87-119h37l69 98 67-98h37l-84 118L233 0z"/><path id="bh" fill="#333" d="M101-251c82-7 93 87 43 132L82-64C71-53 59-42 53-27h129V0H18c2-99 128-94 128-182 0-28-16-43-45-43s-46 15-49 41l-32-3c6-41 34-60 81-64"/><path id="bi" fill="#333" d="M134-131c28 9 52 24 51 62-1 50-34 73-85 73S17-19 16-69c0-36 21-54 49-61-75-25-45-126 34-121 46 3 78 18 79 63 0 33-17 51-44 57m-34-11c31 1 46-15 46-44 0-28-17-43-47-42-29 0-46 13-45 42 1 28 16 44 46 44m1 122c35 0 51-18 51-52 0-30-18-46-53-46-33 0-51 17-51 47 0 34 19 51 53 51"/><path id="bj" fill="#333" d="M99-251c64 0 84 50 84 122C183-37 130 33 47-8c-14-7-20-23-25-40l30-5c6 39 69 39 84 7 9-19 16-44 16-74-10 22-31 35-62 35-49 0-73-33-73-83 0-54 28-83 82-83m-1 141c31-1 51-18 51-49 0-36-14-67-51-67-34 0-49 23-49 58 0 34 15 58 49 58"/><g id="a"><use xlink:href="#V" transform="scale(.08025)"/><use xlink:href="#W" transform="translate(23.994)scale(.08025)"/><use xlink:href="#X" transform="translate(40.043)scale(.08025)"/><use xlink:href="#X" transform="translate(54.488)scale(.08025)"/><use xlink:href="#Y" transform="translate(68.932)scale(.08025)"/><use xlink:href="#Z" transform="translate(84.981)scale(.08025)"/><use xlink:href="#W" transform="translate(101.03)scale(.08025)"/></g><g id="b"><use xlink:href="#aa" transform="scale(.08025)"/><use xlink:href="#V" transform="translate(9.55)scale(.08025)"/><use xlink:href="#ab" transform="translate(33.543 4.044)scale(.05617)"/><use xlink:href="#ac" transform="translate(44.778)scale(.08025)"/></g><g id="d"><use xlink:href="#V" transform="scale(.08025)"/><use xlink:href="#X" transform="translate(23.994)scale(.08025)"/><use xlink:href="#Z" transform="translate(38.438)scale(.08025)"/></g><g id="e"><use xlink:href="#W" transform="scale(.08025)"/><use xlink:href="#ad" transform="translate(16.05)scale(.08025)"/><use xlink:href="#ae" transform="translate(32.099)scale(.08025)"/><use xlink:href="#af" transform="translate(46.543)scale(.08025)"/><use xlink:href="#ag" transform="translate(56.093)scale(.08025)"/><use xlink:href="#ah" transform="translate(70.537)scale(.08025)"/><use xlink:href="#ai" transform="translate(86.586)scale(.08025)"/><use xlink:href="#W" transform="translate(94.611)scale(.08025)"/><use xlink:href="#aj" transform="translate(110.66)scale(.08025)"/></g><g id="f"><use xlink:href="#aa" transform="scale(.08025)"/><use xlink:href="#V" transform="translate(9.55)scale(.08025)"/><use xlink:href="#ak" transform="translate(33.543 4.044)scale(.05617)"/><use xlink:href="#ac" transform="translate(47.025)scale(.08025)"/></g><g id="g"><use xlink:href="#al" transform="scale(.05556)"/><use xlink:href="#am" transform="translate(11.111)scale(.05556)"/></g><g id="h"><use xlink:href="#an" transform="scale(.08025)"/><use xlink:href="#ao" transform="translate(26.642)scale(.08025)"/><use xlink:href="#ap" transform="translate(42.691)scale(.08025)"/></g><g id="i"><use xlink:href="#ap" transform="scale(.08025)"/><use xlink:href="#aq" transform="translate(16.05)scale(.08025)"/><use xlink:href="#ar" transform="translate(25.599)scale(.08025)"/><use xlink:href="#as" transform="translate(41.648)scale(.08025)"/><use xlink:href="#at" transform="translate(62.432)scale(.08025)"/><use xlink:href="#ao" transform="translate(76.877)scale(.08025)"/><use xlink:href="#aq" transform="translate(92.926)scale(.08025)"/></g><g id="j"><use xlink:href="#as" transform="scale(.08025)"/><use xlink:href="#au" transform="translate(20.784)scale(.08025)"/><use xlink:href="#av" transform="translate(27.123)scale(.08025)"/><use xlink:href="#aw" transform="translate(35.148)scale(.08025)"/></g><g id="k"><use xlink:href="#ax" transform="scale(.08025)"/><use xlink:href="#au" transform="translate(6.34)scale(.08025)"/><use xlink:href="#ap" transform="translate(12.679)scale(.08025)"/><use xlink:href="#at" transform="translate(28.728)scale(.08025)"/><use xlink:href="#ar" transform="translate(43.173)scale(.08025)"/><use xlink:href="#ay" transform="translate(59.222)scale(.08025)"/><use xlink:href="#au" transform="translate(75.272)scale(.08025)"/><use xlink:href="#az" transform="translate(81.611)scale(.08025)"/><use xlink:href="#aA" transform="translate(97.66)scale(.08025)"/></g><g id="l"><use xlink:href="#aB" transform="scale(.08025)"/><use xlink:href="#aC" transform="translate(9.55)scale(.08025)"/><use xlink:href="#aD" transform="translate(28.809)scale(.08025)"/></g><g id="m"><use xlink:href="#aE" transform="scale(.09877)"/><use xlink:href="#aF" transform="translate(23.704)scale(.09877)"/><use xlink:href="#aG" transform="translate(45.333)scale(.09877)"/><use xlink:href="#aH" transform="translate(65.086)scale(.09877)"/><use xlink:href="#aI" transform="translate(78.914)scale(.09877)"/><use xlink:href="#aJ" transform="translate(98.667)scale(.09877)"/><use xlink:href="#aK" transform="translate(120.296)scale(.09877)"/></g><g id="n"><use xlink:href="#aL" transform="scale(.09877)"/><use xlink:href="#aM" transform="translate(25.58)scale(.09877)"/><use xlink:href="#aN" transform="translate(35.457)scale(.09877)"/><use xlink:href="#aG" transform="translate(57.086)scale(.09877)"/><use xlink:href="#aO" transform="translate(76.84)scale(.09877)"/></g><g id="p"><use xlink:href="#al" transform="scale(.05556)"/><use xlink:href="#aQ" transform="translate(11.111)scale(.05556)"/></g><g id="q"><use xlink:href="#ae" transform="scale(.08025)"/><use xlink:href="#aR" transform="translate(14.444)scale(.08025)"/><use xlink:href="#ah" transform="translate(20.784)scale(.08025)"/><use xlink:href="#aS" transform="translate(36.833)scale(.08025)"/><use xlink:href="#W" transform="translate(52.883)scale(.08025)"/><use xlink:href="#af" transform="translate(68.932)scale(.08025)"/></g><g id="r"><use xlink:href="#aT" transform="scale(.08025)"/><use xlink:href="#W" transform="translate(14.444)scale(.08025)"/><use xlink:href="#ag" transform="translate(30.494)scale(.08025)"/></g><g id="s"><use xlink:href="#aa" transform="scale(.08025)"/><use xlink:href="#aT" transform="translate(9.55)scale(.08025)"/><use xlink:href="#aU" transform="translate(23.994 4.044)scale(.05617)"/><use xlink:href="#ab" transform="translate(40.79 4.044)scale(.05617)"/><use xlink:href="#ac" transform="translate(52.024)scale(.08025)"/></g><g id="t"><use xlink:href="#aV" transform="scale(.08025)"/><use xlink:href="#X" transform="translate(16.05)scale(.08025)"/><use xlink:href="#W" transform="translate(30.494)scale(.08025)"/><use xlink:href="#af" transform="translate(46.543)scale(.08025)"/></g><g id="u"><use xlink:href="#aR" transform="scale(.08025)"/><use xlink:href="#ad" transform="translate(6.34)scale(.08025)"/><use xlink:href="#ah" transform="translate(22.389)scale(.08025)"/><use xlink:href="#aV" transform="translate(38.438)scale(.08025)"/><use xlink:href="#ai" transform="translate(54.488)scale(.08025)"/></g><g id="v"><use xlink:href="#aW" transform="scale(.08025)"/><use xlink:href="#aV" transform="translate(16.05)scale(.08025)"/><use xlink:href="#ai" transform="translate(32.099)scale(.08025)"/><use xlink:href="#ah" transform="translate(40.123)scale(.08025)"/><use xlink:href="#aV" transform="translate(56.173)scale(.08025)"/><use xlink:href="#ai" transform="translate(72.222)scale(.08025)"/></g><g id="w"><use xlink:href="#aW" transform="scale(.08025)"/><use xlink:href="#ai" transform="translate(16.05)scale(.08025)"/><use xlink:href="#aS" transform="translate(24.074)scale(.08025)"/><use xlink:href="#W" transform="translate(40.123)scale(.08025)"/><use xlink:href="#af" transform="translate(56.173)scale(.08025)"/></g><g id="x"><use xlink:href="#aj" transform="scale(.08025)"/><use xlink:href="#Y" transform="translate(16.05)scale(.08025)"/><use xlink:href="#ai" transform="translate(32.099)scale(.08025)"/><use xlink:href="#Y" transform="translate(40.123)scale(.08025)"/></g><g id="y"><use xlink:href="#X" transform="scale(.08025)"/><use xlink:href="#aV" transform="translate(14.444)scale(.08025)"/><use xlink:href="#aX" transform="translate(30.494)scale(.08025)"/><use xlink:href="#ah" transform="translate(46.543)scale(.08025)"/><use xlink:href="#af" transform="translate(62.593)scale(.08025)"/><use xlink:href="#aW" transform="translate(72.142)scale(.08025)"/><use xlink:href="#ae" transform="translate(88.191)scale(.08025)"/><use xlink:href="#W" transform="translate(102.636)scale(.08025)"/><use xlink:href="#X" transform="translate(118.685)scale(.08025)"/><use xlink:href="#X" transform="translate(133.13)scale(.08025)"/></g><g id="z"><use xlink:href="#aR" transform="scale(.08025)"/><use xlink:href="#ad" transform="translate(6.34)scale(.08025)"/><use xlink:href="#ah" transform="translate(22.389)scale(.08025)"/><use xlink:href="#aV" transform="translate(38.438)scale(.08025)"/><use xlink:href="#ai" transform="translate(54.488)scale(.08025)"/></g><g id="A"><use xlink:href="#aa" transform="scale(.08025)"/><use xlink:href="#aY" transform="translate(9.55)scale(.08025)"/><use xlink:href="#aR" transform="translate(15.889)scale(.08025)"/><use xlink:href="#ad" transform="translate(22.228)scale(.08025)"/><use xlink:href="#aT" transform="translate(38.278)scale(.08025)"/><use xlink:href="#ac" transform="translate(52.722)scale(.08025)"/></g><g id="C"><use xlink:href="#aW" transform="scale(.08025)"/><use xlink:href="#aV" transform="translate(16.05)scale(.08025)"/><use xlink:href="#ai" transform="translate(32.099)scale(.08025)"/><use xlink:href="#ah" transform="translate(40.123)scale(.08025)"/><use xlink:href="#aV" transform="translate(56.173)scale(.08025)"/><use xlink:href="#ai" transform="translate(72.222)scale(.08025)"/></g><g id="D"><use xlink:href="#aZ" transform="scale(.06173)"/><use xlink:href="#ba" transform="translate(14.815)scale(.06173)"/><use xlink:href="#af" transform="translate(30.802)scale(.06173)"/><use xlink:href="#ag" transform="translate(38.148)scale(.06173)"/><use xlink:href="#ah" transform="translate(49.26)scale(.06173)"/><use xlink:href="#ai" transform="translate(61.605)scale(.06173)"/><use xlink:href="#aW" transform="translate(67.778)scale(.06173)"/></g><g id="F"><use xlink:href="#aY" transform="scale(.06173)"/><use xlink:href="#aR" transform="translate(4.877)scale(.06173)"/><use xlink:href="#aX" transform="translate(9.753)scale(.06173)"/><use xlink:href="#X" transform="translate(22.099)scale(.06173)"/><use xlink:href="#aW" transform="translate(33.21)scale(.06173)"/><use xlink:href="#aj" transform="translate(45.556)scale(.06173)"/><use xlink:href="#aR" transform="translate(57.901)scale(.06173)"/><use xlink:href="#aV" transform="translate(62.778)scale(.06173)"/><use xlink:href="#V" transform="translate(75.123)scale(.06173)"/></g><g id="G"><use xlink:href="#X" transform="scale(.06173)"/><use xlink:href="#ag" transform="translate(11.111)scale(.06173)"/><use xlink:href="#V" transform="translate(22.222)scale(.06173)"/><use xlink:href="#V" transform="translate(40.679)scale(.06173)"/><use xlink:href="#W" transform="translate(59.136)scale(.06173)"/><use xlink:href="#ai" transform="translate(71.481)scale(.06173)"/><use xlink:href="#af" transform="translate(77.654)scale(.06173)"/><use xlink:href="#aR" transform="translate(85)scale(.06173)"/><use xlink:href="#ae" transform="translate(89.877)scale(.06173)"/></g><g id="H"><use xlink:href="#ae" transform="scale(.06173)"/><use xlink:href="#aR" transform="translate(11.111)scale(.06173)"/><use xlink:href="#ah" transform="translate(15.988)scale(.06173)"/><use xlink:href="#aS" transform="translate(28.333)scale(.06173)"/><use xlink:href="#W" transform="translate(40.679)scale(.06173)"/><use xlink:href="#af" transform="translate(53.025)scale(.06173)"/></g><g id="I"><use xlink:href="#aa" transform="scale(.06173)"/><use xlink:href="#ak" transform="translate(7.346)scale(.06173)"/><use xlink:href="#Y" transform="translate(22.16 3.111)scale(.04321)"/><use xlink:href="#ac" transform="translate(30.802)scale(.06173)"/></g><g id="J"><use xlink:href="#aR" transform="scale(.08025)"/><use xlink:href="#ad" transform="translate(6.34)scale(.08025)"/><use xlink:href="#aR" transform="translate(22.389)scale(.08025)"/><use xlink:href="#ai" transform="translate(28.728)scale(.08025)"/></g><g id="K"><use xlink:href="#bc" transform="scale(.08025)"/><use xlink:href="#W" transform="translate(14.444)scale(.08025)"/><use xlink:href="#ae" transform="translate(30.494)scale(.08025)"/><use xlink:href="#ai" transform="translate(44.938)scale(.08025)"/><use xlink:href="#aW" transform="translate(52.963)scale(.08025)"/><use xlink:href="#af" transform="translate(69.012)scale(.08025)"/></g><g id="L"><use xlink:href="#aa" transform="scale(.08025)"/><use xlink:href="#ad" transform="translate(9.55)scale(.08025)"/><use xlink:href="#bd" transform="translate(25.599 4.044)scale(.05617)"/><use xlink:href="#be" transform="translate(31.216 4.044)scale(.05617)"/><use xlink:href="#ac" transform="translate(44.698)scale(.08025)"/></g><g id="M"><use xlink:href="#Y" transform="scale(.08025)"/><use xlink:href="#aj" transform="translate(16.05)scale(.08025)"/><use xlink:href="#aj" transform="translate(32.099)scale(.08025)"/><use xlink:href="#aR" transform="translate(48.148)scale(.08025)"/><use xlink:href="#ai" transform="translate(54.488)scale(.08025)"/><use xlink:href="#aR" transform="translate(62.512)scale(.08025)"/><use xlink:href="#aW" transform="translate(68.852)scale(.08025)"/><use xlink:href="#ad" transform="translate(84.901)scale(.08025)"/><use xlink:href="#Y" transform="translate(100.95)scale(.08025)"/><use xlink:href="#aY" transform="translate(117)scale(.08025)"/></g><g id="N"><use xlink:href="#aj" transform="scale(.08025)"/><use xlink:href="#Y" transform="translate(16.05)scale(.08025)"/><use xlink:href="#ai" transform="translate(32.099)scale(.08025)"/><use xlink:href="#Y" transform="translate(40.123)scale(.08025)"/></g><g id="O"><use xlink:href="#aa" transform="scale(.08025)"/><use xlink:href="#Y" transform="translate(9.55)scale(.08025)"/><use xlink:href="#aj" transform="translate(25.599)scale(.08025)"/><use xlink:href="#bf" transform="translate(41.648 4.044)scale(.05617)"/><use xlink:href="#ac" transform="translate(53.95)scale(.08025)"/></g><g id="P"><use xlink:href="#aa" transform="scale(.08025)"/><use xlink:href="#Y" transform="translate(9.55)scale(.08025)"/><use xlink:href="#aj" transform="translate(25.599)scale(.08025)"/><use xlink:href="#bg" transform="translate(41.648 4.044)scale(.05617)"/><use xlink:href="#ac" transform="translate(55.13)scale(.08025)"/></g><g id="Q"><use xlink:href="#ae" transform="scale(.08025)"/><use xlink:href="#aW" transform="translate(14.444)scale(.08025)"/><use xlink:href="#V" transform="translate(30.494)scale(.08025)"/><use xlink:href="#V" transform="translate(54.488)scale(.08025)"/><use xlink:href="#aR" transform="translate(78.481)scale(.08025)"/><use xlink:href="#ai" transform="translate(84.821)scale(.08025)"/></g><g id="R"><use xlink:href="#aT" transform="scale(.08025)"/><use xlink:href="#W" transform="translate(14.444)scale(.08025)"/><use xlink:href="#ag" transform="translate(30.494)scale(.08025)"/></g><g id="S"><use xlink:href="#aa" transform="scale(.08025)"/><use xlink:href="#aT" transform="translate(9.55)scale(.08025)"/><use xlink:href="#ba" transform="translate(23.994 4.044)scale(.05617)"/><use xlink:href="#ac" transform="translate(38.543)scale(.08025)"/></g><g id="T"><use xlink:href="#bh" transform="scale(.05556)"/><use xlink:href="#bi" transform="translate(11.111)scale(.05556)"/></g><g id="U"><use xlink:href="#bh" transform="scale(.05556)"/><use xlink:href="#bj" transform="translate(11.111)scale(.05556)"/></g><use xlink:href="#aP" id="o" transform="scale(.09877)"/><use xlink:href="#bb" id="E" transform="scale(.06173)"/></defs></g></svg>