<svg xmlns="http://www.w3.org/2000/svg" xmlns:lucid="lucid" xmlns:xlink="http://www.w3.org/1999/xlink" width="1524" height="1289" viewBox="0 0 1524 1289"><g lucid:page-tab-id="a8_ZrU_0Hiqy" transform="translate(-78 1060)"><path fill="none" stroke="#008a0e" stroke-width="4" d="M120-788a12 12 0 0 1 12-12h1416a12 12 0 0 1 12 12V28a12 12 0 0 1-12 12H132a12 12 0 0 1-12-12z"/><path fill="#ffcf99" stroke="#3a414a" d="M1290.98-638.33h198.67l-21.33 80h-198.67z"/><use xlink:href="#a" transform="translate(1289.123 -608.003)"/><use xlink:href="#b" transform="translate(1353.24 -608.003)"/><use xlink:href="#c" transform="translate(1349.806 -573.337)"/><path fill="#fff" stroke="#3a414a" d="M1000-868.5a12 12 0 0 1 12-12h196a12 12 0 0 1 12 12v76a12 12 0 0 1-12 12h-196a12 12 0 0 1-12-12z"/><path fill="none" d="M1000-880.5h220v40h-220z"/><use xlink:href="#d" transform="translate(1045.864 -855.847)"/><path fill="none" stroke="#3a414a" stroke-width="2" d="M1001-840.5h218.5m-218.47 0H1000m219.47 0h1.03"/><path fill="none" d="M1000-842.17h220v63.34h-220z"/><use xlink:href="#e" transform="translate(1022.407 -818.967)"/><use xlink:href="#f" transform="translate(1110.062 -818.967)"/><use xlink:href="#g" transform="translate(1093.426 -792.3)"/><path fill="#fff" stroke="#3a414a" d="M1269.65-970.5a12 12 0 0 1 12-12h196a12 12 0 0 1 12 12v76a12 12 0 0 1-12 12h-196a12 12 0 0 1-12-12z"/><path fill="none" d="M1269.65-982.5h220v40h-220z"/><use xlink:href="#h" transform="translate(1277.273 -957.847)"/><path fill="none" stroke="#3a414a" stroke-width="2" d="M1270.65-942.5h218.5m-218.48 0h-1.02m219.47 0h1.03"/><path fill="none" d="M1269.65-944.17h220v63.34h-220z"/><use xlink:href="#i" transform="translate(1297.643 -920.967)"/><use xlink:href="#j" transform="translate(1400.05 -920.967)"/><use xlink:href="#k" transform="translate(1364.896 -894.3)"/><path fill="#979ea8" stroke="#979ea8" stroke-width=".05" d="m1043.34-974.97 1.07.26 1.02.4.93.58.83.7.7.85.6.93.4 1 .26 1.08.08 1.05v68.6h-1.94v-68.53l-.07-.83-.17-.76-.3-.73-.42-.67-.5-.6-.6-.52-.67-.4-.73-.3-.76-.2-.83-.06h-15.3v-1.95h15.4zM873.2-973.1v-1.95h22.66v1.95z"/><path fill="#979ea8" d="M873.2-973.1h-4v-1.95h4zm175.05 88.86-4.63-14.26h9.27z"/><path fill="#979ea8" stroke="#979ea8" stroke-width=".05" d="m1048.25-881.08-5.98-18.4h11.96zm-3.3-16.45 3.3 10.14 3.3-10.13z"/><use xlink:href="#l" transform="translate(895.858 -970.073)"/><use xlink:href="#m" transform="translate(918.08 -970.073)"/><path fill="#979ea8" stroke="#979ea8" stroke-width=".05" d="m1162.22-744.37.07.82.17.77.3.73.42.67.5.6.6.5.67.42.73.3.76.2.83.05h28.95v1.94h-29.04l-1.04-.08-1.07-.26-1.02-.42-.93-.57-.83-.7-.7-.83-.6-.93-.4-1.02-.26-1.06-.08-1.05v-17.2h1.94zm158.15-98.13.1.08v98.13l-.08 1.06-.26 1.06-.42 1-.58.95-.7.83-.84.7-.93.58-1 .42-1.08.26-1.06.08h-8.46v-1.95h8.38l.83-.07.75-.2.73-.3.67-.4.6-.5.5-.6.42-.68.3-.73.2-.77.06-.82v-97.08l-.1-.08-.03-21.97h1.95z"/><path fill="#979ea8" d="M1165.88-762.5h-9.27l4.65-14.26z"/><path fill="#979ea8" stroke="#979ea8" stroke-width=".05" d="M1167.23-761.52h-11.96l5.98-18.4zm-9.27-1.95h6.58l-3.3-10.14z"/><path fill="#979ea8" d="M1324-864.5h-9.26l4.64-14.26z"/><path fill="#979ea8" stroke="#979ea8" stroke-width=".05" d="M1325.36-863.52h-11.96l5.98-18.4zm-9.27-1.95h6.57l-3.3-10.14z"/><use xlink:href="#n" transform="translate(1196.255 -734.333)"/><use xlink:href="#o" transform="translate(1218.477 -734.333)"/><path fill="#cfe4ff" stroke="#3a414a" d="M231.33-460H430l-21.33 80H210z"/><use xlink:href="#p" transform="translate(243.536 -431.057)"/><use xlink:href="#q" transform="translate(349.301 -431.057)"/><use xlink:href="#r" transform="translate(301.18 -396.39)"/><path fill="#979ea8" stroke="#979ea8" stroke-width=".05" d="M1380.62-657.34h-1.95v-164h1.95zm0-188h-1.95v-34.5h1.95z"/><path fill="#979ea8" d="m1379.65-642.07-4.64-14.26h9.28z"/><path fill="#979ea8" stroke="#979ea8" stroke-width=".05" d="m1379.65-638.9-5.98-18.4h11.96zm-3.3-16.46 3.3 10.13 3.3-10.13z"/><path fill="#979ea8" d="M1380.62-879.8h-1.95v-1.03h1.95z"/><use xlink:href="#s" transform="translate(1374.099 -829.333)"/><path fill="#ffcf99" stroke="#3a414a" d="M231.33-220H430l-21.33 80H210z"/><use xlink:href="#t" transform="translate(302.076 -191.057)"/><use xlink:href="#u" transform="translate(291.19 -156.39)"/><path fill="#979ea8" stroke="#979ea8" stroke-width=".05" d="m181.12-186.04.07.83.17.75.3.73.42.67.5.6.6.5.67.42.73.3.76.2.83.06h15.45v1.94H186.1l-1.04-.08-1.07-.26-1.02-.42-.93-.57-.84-.72-.7-.83-.57-.93-.42-1-.24-1.08-.1-1.06v-21.37h1.96zm0-45.3h-1.95V-334h1.95zM219.15-419H186.2l-.84.06-.76.18-.73.3-.67.42-.6.5-.5.6-.42.68-.3.73-.2.76-.06.84V-358h-1.95v-56.04l.1-1.05.24-1.06.43-1 .57-.94.72-.83.83-.7.93-.6 1-.4 1.08-.26 1.05-.08h33.05z"/><path fill="#979ea8" d="M219.9-419.02h-.78v-1.96h1.3zm-3 239.02-14.25 4.63v-9.26z"/><path fill="#979ea8" stroke="#979ea8" stroke-width=".05" d="m220.07-180-18.4 5.98v-11.96zm-16.45 3.3 10.14-3.3-10.14-3.3z"/><use xlink:href="#v" transform="translate(174.599 -215.333)"/><path fill="#fff" stroke="#3a414a" d="M210-628a12 12 0 0 1 12-12h196a12 12 0 0 1 12 12v76a12 12 0 0 1-12 12H222a12 12 0 0 1-12-12z"/><path fill="none" d="M210-640h220v40H210z"/><use xlink:href="#w" transform="translate(273.21 -615.347)"/><path fill="none" stroke="#3a414a" stroke-width="2" d="M211-600h218.5m-218.47 0H210m219.47 0h1.03"/><path fill="none" d="M210-601.67h220v63.34H210z"/><use xlink:href="#x" transform="translate(234.26 -578.467)"/><use xlink:href="#y" transform="translate(304.012 -551.8)"/><path fill="#979ea8" stroke="#979ea8" stroke-width=".05" d="M320.98-479h-1.96v-13h1.96zm0-37h-1.96v-21.33h1.96z"/><path fill="#979ea8" d="M320.98-537.3h-1.96v-1.03h1.96zm-.98 73.56L315.37-478h9.26z"/><path fill="#979ea8" stroke="#979ea8" stroke-width=".05" d="m320-460.58-5.98-18.4h11.96zm-3.3-16.45 3.3 10.14 3.3-10.13z"/><use xlink:href="#z" transform="translate(314.45 -500)"/><path fill="#008a0e" d="M120-788a12 12 0 0 1 12-12h416a12 12 0 0 1 12 12v39.33a12 12 0 0 1-12 12H132a12 12 0 0 1-12-12z"/><use xlink:href="#A" transform="translate(137.738 -762.186)"/><use xlink:href="#B" transform="translate(204.503 -762.186)"/><use xlink:href="#C" transform="translate(315.003 -762.186)"/><use xlink:href="#D" transform="translate(374.225 -762.186)"/><use xlink:href="#E" transform="translate(503.904 -762.186)"/><path fill="#454545" d="M818.57-971.68h6.93c1.64 0 3.2-.1 4.85-.1 13.08-.27 23.73.65 33.7 10.1 5.88 6.9 8.05 14.43 8.14 23.34v2.2c0 1.93-.1 3.86-.27 5.7-2.52 2.57-4 2.3-7.37 2.3h-71.2c-5.2 0-5.2 0-7.36-2.3-1.22-11.76-.1-21.3 7.62-30.77 6.84-7.27 15.16-10.4 24.95-10.48zm20.79-46.12c5.7 3.4 9.1 8.18 11.08 14.33 1.56 6.34.7 11.12-2.16 16.9-2.86 4.6-7.28 8.18-12.3 10.1-7.37.93-14.3 1.2-20.45-3.48-5.45-5.05-8.22-9.65-8.92-17.18.2-5.97 2.1-11.66 6-16.16 7.44-6.6 17.5-8.72 26.76-4.5z"/><path fill="#dfe3e8" d="M120-1002.45a17.55 17.55 0 0 1 17.55-17.55h184.9a17.55 17.55 0 0 1 17.55 17.55v140.4a17.55 17.55 0 0 1-17.55 17.55h-184.9A17.55 17.55 0 0 1 120-862.05z"/><use xlink:href="#F" transform="translate(140 -946.222)"/><use xlink:href="#G" transform="translate(140 -903.556)"/><path fill="#ffcf99" stroke="#3a414a" d="M231.33-340H430l-21.33 80H210z"/><use xlink:href="#H" transform="translate(262.835 -311.057)"/><use xlink:href="#I" transform="translate(307.613 -311.057)"/><use xlink:href="#J" transform="translate(288.382 -276.39)"/><path fill="#979ea8" stroke="#979ea8" stroke-width=".05" d="m181.12-306.04.07.83.17.75.3.73.42.67.5.6.6.5.67.43.73.3.76.18.83.06h15.45v1.96H186.1l-1.04-.1-1.07-.24-1.02-.42-.93-.58-.84-.7-.7-.84-.57-.93-.42-1-.24-1.08-.1-1.06V-334h1.96zm0-51.96h-1.95v-12.33h1.95z"/><path fill="#979ea8" stroke="#979ea8" stroke-width=".05" d="M181.12-370.3h-1.95v-1.03h1.95z"/><path fill="#979ea8" d="m216.9-300-14.25 4.63v-9.26z"/><path fill="#979ea8" stroke="#979ea8" stroke-width=".05" d="m220.07-300-18.4 5.98v-11.96zm-16.45 3.3 10.14-3.3-10.14-3.3z"/><use xlink:href="#v" transform="translate(174.599 -342)"/><path fill="#cfe682" stroke="#3a414a" d="M127.73 65h51.44l-7.74 29H120z"/><path fill="#cfe4ff" stroke="#3a414a" d="M127.73 161.5h51.44l-7.74 29H120z"/><path fill="#fff7a1" stroke="#3a414a" d="M127.73 113.25h51.44l-7.74 29H120z"/><path fill="none" d="M200 60h225.93v38.67H200z"/><use xlink:href="#a" transform="translate(205 88.564)"/><use xlink:href="#K" transform="translate(269.117 88.564)"/><path fill="none" d="M200 108.5h240v38.67H200z"/><use xlink:href="#a" transform="translate(205 137.064)"/><use xlink:href="#L" transform="translate(269.117 137.064)"/><path fill="none" d="M200 157.67h240v38.66H200z"/><use xlink:href="#M" transform="translate(205 186.23)"/><use xlink:href="#N" transform="translate(278.747 186.23)"/><path fill="#f4d9ff" stroke="#3a414a" d="M507.73 68.83h51.44l-7.74 29H500z"/><path fill="none" d="M580 65h340v36.67H580z"/><use xlink:href="#O" transform="translate(585 93.111)"/><use xlink:href="#P" transform="translate(740.599 93.111)"/><use xlink:href="#Q" transform="translate(811.136 93.111)"/><use xlink:href="#R" transform="translate(585 127.778)"/><path fill="#ffcf99" stroke="#3a414a" d="M507.73 117.08h51.44l-7.74 29H500z"/><path fill="none" d="M580 113.25h260v36.67H580z"/><use xlink:href="#O" transform="translate(585 141.361)"/><use xlink:href="#S" transform="translate(740.599 141.361)"/><use xlink:href="#R" transform="translate(585 176.028)"/><path fill="none" d="M802-928.15h53.75v40H802z"/><use xlink:href="#T" transform="translate(809.821 -899.566)"/><path fill="#cfe682" stroke="#3a414a" d="M566.33-636.67H765l-21.33 80H545z"/><use xlink:href="#U" transform="translate(600.283 -607.724)"/><use xlink:href="#V" transform="translate(632.93 -573.057)"/><path fill="#979ea8" stroke="#979ea8" stroke-width=".05" d="M722.92-738.52h-61.88l-.83.06-.75.18-.73.3-.67.42-.6.5-.5.6-.43.68-.3.73-.18.76-.06.84v77.8H654v-77.88l.1-1.05.24-1.06.42-1 .58-.94.7-.83.84-.72.93-.57 1-.42 1.08-.25 1.06-.08h61.96zm106.93-6.94-.08 1.05-.26 1.06-.4 1-.58.94-.7.83-.84.72-.94.57-1 .42-1.07.25-1.06.08h-88.87v-1.96h88.8l.83-.06.77-.18.73-.3.67-.42.6-.5.5-.6.42-.68.3-.73.2-.76.05-.84v-141.6h1.95z"/><path fill="#979ea8" d="M829.85-887.12h-1.95v-1.03h1.95zM655-640.4l-4.63-14.27h9.26z"/><path fill="#979ea8" stroke="#979ea8" stroke-width=".05" d="m655-637.25-5.98-18.4h11.96zm-3.3-16.44 3.3 10.14 3.3-10.13z"/><use xlink:href="#W" transform="translate(722.921 -735.5)"/><path fill="#cfe682" stroke="#3a414a" d="M893.52-638.33h198.67l-21.35 80H872.2z"/><use xlink:href="#X" transform="translate(928.151 -609.39)"/><use xlink:href="#Y" transform="translate(956.145 -574.724)"/><path fill="#979ea8" stroke="#979ea8" stroke-width=".05" d="m976.22-740.48 1.06.1 1.06.24 1 .42.95.58.82.7.7.84.58.93.42 1 .26 1.08.08 1.06v76.2h-1.95v-76.12l-.05-.83-.2-.75-.3-.73-.4-.67-.5-.6-.6-.5-.68-.43-.73-.3-.77-.18-.82-.06h-29.9v-1.96zm-146.3-4.23.18.75.3.73.4.67.52.6.6.5.68.43.72.3.77.18.8.06h100.25v1.96h-100.3l-1.07-.1-1.06-.24-1-.42-.95-.58-.83-.7-.7-.84-.58-.93-.42-1-.26-1.08-.08-1.06v-82.58h1.95v82.5z"/><path fill="#979ea8" stroke="#979ea8" stroke-width=".05" d="M829.85-828.02h-1.95v-1.02h1.95z"/><path fill="#979ea8" d="m982.2-642.07-4.65-14.26h9.27z"/><path fill="#979ea8" stroke="#979ea8" stroke-width=".05" d="m982.2-638.9-6-18.4h11.96zm-3.3-16.46 3.3 10.13 3.28-10.13z"/><use xlink:href="#W" transform="translate(935.153 -735.5)"/><path fill="#ffcf99" stroke="#3a414a" d="M893.52-518.33h198.67l-21.35 80H872.2z"/><use xlink:href="#Z" transform="translate(909.734 -489.39)"/><use xlink:href="#aa" transform="translate(972.247 -489.39)"/><use xlink:href="#ab" transform="translate(1047.599 -489.39)"/><use xlink:href="#ac" transform="translate(950.528 -454.724)"/><path fill="#ffcf99" stroke="#3a414a" d="M893.52-398.33h198.67l-21.35 80H872.2z"/><use xlink:href="#Z" transform="translate(907.367 -369.39)"/><use xlink:href="#aa" transform="translate(969.88 -369.39)"/><use xlink:href="#ad" transform="translate(1045.231 -369.39)"/><use xlink:href="#ae" transform="translate(936.833 -334.724)"/><path fill="#979ea8" stroke="#979ea8" stroke-width=".05" d="m1135.97-364.3-.08 1.06-.26 1.06-.42 1-.58.95-.7.83-.84.7-.93.58-1 .42-1.08.26-1.06.08h-28.5v-1.95h28.42l.83-.07.75-.2.73-.3.67-.4.6-.5.5-.6.42-.68.3-.73.2-.77.06-.82v-14.76h1.94zm0-38.83h-1.94v-102.65h1.94zm-5.88-196.1 1.06.26 1 .42.94.57.83.7.7.85.6.93.4 1 .26 1.08.07 1.05v62.6h-1.94v-62.52l-.07-.82-.18-.76-.3-.73-.42-.68-.5-.6-.6-.52-.68-.4-.73-.3-.76-.2-.84-.06h-45.92v-1.95h46z"/><path fill="#979ea8" d="M1083.06-597.36h-1.28l.52-1.95h.76zm16.48 243.66-14.27-4.63 14.27-4.64z"/><path fill="#979ea8" stroke="#979ea8" stroke-width=".05" d="m1100.5-352.36-18.38-5.97 18.4-5.98zm-12.07-5.97 10.13 3.3v-6.6z"/><use xlink:href="#af" transform="translate(1129.45 -387.131)"/><path fill="#979ea8" stroke="#979ea8" stroke-width=".05" d="m1135.97-484.3-.08 1.06-.26 1.06-.42 1-.58.95-.7.83-.84.7-.93.58-1 .42-1.08.26-1.06.08h-28.5v-1.95h28.42l.83-.07.75-.2.73-.3.67-.4.6-.5.5-.6.42-.68.3-.73.2-.77.06-.82v-21.4h1.94zm0-45.48h-1.94V-544h1.94z"/><path fill="#979ea8" stroke="#979ea8" stroke-width=".05" d="M1135.97-543.97h-1.94V-545h1.94z"/><path fill="#979ea8" d="m1099.54-473.7-14.27-4.63 14.27-4.64z"/><path fill="#979ea8" stroke="#979ea8" stroke-width=".05" d="m1100.5-472.36-18.38-5.97 18.4-5.98zm-12.07-5.97 10.13 3.3v-6.6z"/><use xlink:href="#af" transform="translate(1129.45 -513.779)"/><defs><path id="ag" fill="#3a414a" d="M84 4C-5 8 30-112 23-190h32v120c0 31 7 50 39 49 72-2 45-101 50-169h31l1 190h-30c-1-10 1-25-2-33-11 22-28 36-60 37"/><path id="ah" fill="#3a414a" d="M135-143c-3-34-86-38-87 0 15 53 115 12 119 90S17 21 10-45l28-5c4 36 97 45 98 0-10-56-113-15-118-90-4-57 82-63 122-42 12 7 21 19 24 35"/><path id="ai" fill="#3a414a" d="M100-194c63 0 86 42 84 106H49c0 40 14 67 53 68 26 1 43-12 49-29l28 8c-11 28-37 45-77 45C44 4 14-33 15-96c1-61 26-98 85-98m52 81c6-60-76-77-97-28-3 7-6 17-6 28z"/><path id="aj" fill="#3a414a" d="M114-163C36-179 61-72 57 0H25l-1-190h30c1 12-1 29 2 39 6-27 23-49 58-41z"/><path id="ak" fill="#3a414a" d="M96-169c-40 0-48 33-48 73s9 75 48 75c24 0 41-14 43-38l32 2c-6 37-31 61-74 61-59 0-76-41-82-99-10-93 101-131 147-64 4 7 5 14 7 22l-32 3c-4-21-16-35-41-35"/><path id="al" fill="#3a414a" d="M85-194c31 0 48 13 60 33l-1-100h32l1 261h-30c-2-10 0-23-3-31C134-8 116 4 85 4 32 4 16-35 15-94c0-66 23-100 70-100m9 24c-40 0-46 34-46 75 0 40 6 74 45 74 42 0 51-32 51-76 0-42-9-74-50-73"/><path id="am" fill="#3a414a" d="M117-194c89-4 53 116 60 194h-32v-121c0-31-8-49-39-48C34-167 62-67 57 0H25l-1-190h30c1 10-1 24 2 32 11-22 29-35 61-36"/><path id="an" fill="#3a414a" d="M59-47c-2 24 18 29 38 22v24C64 9 27 4 27-40v-127H5v-23h24l9-43h21v43h35v23H59z"/><path id="ao" fill="#3a414a" d="M24-231v-30h32v30zM24 0v-190h32V0z"/><path id="ap" fill="#3a414a" d="M141-36C126-15 110 5 73 4 37 3 15-17 15-53c-1-64 63-63 125-63 3-35-9-54-41-54-24 1-41 7-42 31l-33-3c5-37 33-52 76-52 45 0 72 20 72 64v82c-1 20 7 32 28 27v20c-31 9-61-2-59-35M48-53c0 20 12 33 32 33 41-3 63-29 60-74-43 2-92-5-92 41"/><path id="aq" fill="#3a414a" d="M24 0v-261h32V0z"/><path id="ar" fill="#3a414a" d="M87 75C49 33 22-17 22-94c0-76 28-126 65-167h31c-38 41-64 92-64 168S80 34 118 75z"/><path id="as" fill="#3a414a" d="M212-179c-10-28-35-45-73-45-59 0-87 40-87 99 0 60 29 101 89 101 43 0 62-24 78-52l27 14C228-24 195 4 139 4 59 4 22-46 18-125c-6-104 99-153 187-111 19 9 31 26 39 46"/><path id="at" fill="#3a414a" d="M33-261c38 41 65 92 65 168S71 34 33 75H2C39 34 66-17 66-93S39-220 2-261z"/><path id="au" fill="#3a414a" d="M106-169C34-169 62-67 57 0H25v-261h32l-1 103c12-21 28-36 61-36 89 0 53 116 60 194h-32v-121c2-32-8-49-39-48"/><path id="av" fill="#3a414a" d="M100-194c62-1 85 37 85 99 1 63-27 99-86 99S16-35 15-95c0-66 28-99 85-99M99-20c44 1 53-31 53-75 0-43-8-75-51-75s-53 32-53 75 10 74 51 75"/><path id="aw" fill="#3a414a" d="M115-194c55 1 70 41 70 98S169 2 115 4C84 4 66-9 55-30l1 105H24l-1-265h31l2 30c10-21 28-34 59-34m-8 174c40 0 45-34 45-75s-6-73-45-74c-42 0-51 32-51 76 0 43 10 73 51 73"/><path id="ax" fill="#3a414a" d="M143 0 79-87 56-68V0H24v-261h32v163l83-92h37l-77 82L181 0z"/><path id="ay" fill="#3a414a" d="M179-190 93 31C79 59 56 82 12 73V49c39 6 53-20 64-50L1-190h34L92-34l54-156z"/><path id="az" fill="#3a414a" d="M210-169c-67 3-38 105-44 169h-31v-121c0-29-5-50-35-48C34-165 62-65 56 0H25l-1-190h30c1 10-1 24 2 32 10-44 99-50 107 0 11-21 27-35 58-36 85-2 47 119 55 194h-31v-121c0-29-5-49-35-48"/><path id="aA" fill="#3a414a" d="M177-190C167-65 218 103 67 71c-23-6-38-20-44-43l32-5c15 47 100 32 89-28v-30C133-14 115 1 83 1 29 1 15-40 15-95c0-56 16-97 71-98 29-1 48 16 59 35 1-10 0-23 2-32zM94-22c36 0 50-32 50-73 0-42-14-75-50-75-39 0-46 34-46 75s6 73 46 73"/><path id="aB" fill="#3a414a" d="m240 0 2-218c-23 76-54 145-80 218h-23L58-218 59 0H30v-248h44l77 211c21-75 51-140 76-211h43V0z"/><path id="aC" fill="#3a414a" d="M33-154v-36h34v36zM33 0v-36h34V0z"/><path id="aD" fill="#3a414a" d="m0 4 72-265h28L28 4z"/><path id="aE" fill="#3a414a" d="M145-31C134-9 116 4 85 4 32 4 16-35 15-94c0-59 17-99 70-100 32-1 48 14 60 33 0-11-1-24 2-32h30l-1 268h-32zM93-21c41 0 51-33 51-76s-8-73-50-73c-40 0-46 35-46 75s5 74 45 74"/><path id="aF" fill="#3a414a" d="M33 0v-38h34V0z"/><path id="aG" fill="#3a414a" d="M206 0h-36l-40-164L89 0H53L-1-190h32L70-26l43-164h34l41 164 42-164h31"/><path id="aH" fill="#3a414a" d="M115-194c53 0 69 39 70 98 0 66-23 100-70 100C84 3 66-7 56-30L54 0H23l1-261h32v101c10-23 28-34 59-34m-8 174c40 0 45-34 45-75 0-40-5-75-45-74-42 0-51 32-51 76 0 43 10 73 51 73"/><path id="aI" fill="#3a414a" d="M108 0H70L1-190h34L89-25l56-165h34"/><path id="aJ" fill="#3a414a" d="M185-189c-5-48-123-54-124 2 14 75 158 14 163 119 3 78-121 87-175 55-17-10-28-26-33-46l33-7c5 56 141 63 141-1 0-78-155-14-162-118-5-82 145-84 179-34 5 7 8 16 11 25"/><path id="aK" fill="#333" d="M27 0v-27h64v-190l-56 39v-29l58-41h29v221h61V0z"/><path id="aL" fill="#333" d="M33 0v-38h34V0z"/><path id="aM" fill="#333" d="M141-36C126-15 110 5 73 4 37 3 15-17 15-53c-1-64 63-63 125-63 3-35-9-54-41-54-24 1-41 7-42 31l-33-3c5-37 33-52 76-52 45 0 72 20 72 64v82c-1 20 7 32 28 27v20c-31 9-61-2-59-35M48-53c0 20 12 33 32 33 41-3 63-29 60-74-43 2-92-5-92 41"/><path id="aN" fill="#333" d="M84 4C-5 8 30-112 23-190h32v120c0 31 7 50 39 49 72-2 45-101 50-169h31l1 190h-30c-1-10 1-25-2-33-11 22-28 36-60 37"/><path id="aO" fill="#333" d="M59-47c-2 24 18 29 38 22v24C64 9 27 4 27-40v-127H5v-23h24l9-43h21v43h35v23H59z"/><path id="aP" fill="#333" d="M106-169C34-169 62-67 57 0H25v-261h32l-1 103c12-21 28-36 61-36 89 0 53 116 60 194h-32v-121c2-32-8-49-39-48"/><path id="aQ" fill="#333" d="M100-194c63 0 86 42 84 106H49c0 40 14 67 53 68 26 1 43-12 49-29l28 8c-11 28-37 45-77 45C44 4 14-33 15-96c1-61 26-98 85-98m52 81c6-60-76-77-97-28-3 7-6 17-6 28z"/><path id="aR" fill="#333" d="M117-194c89-4 53 116 60 194h-32v-121c0-31-8-49-39-48C34-167 62-67 57 0H25l-1-190h30c1 10-1 24 2 32 11-22 29-35 61-36"/><path id="aS" fill="#333" d="M24-231v-30h32v30zM24 0v-190h32V0z"/><path id="aT" fill="#333" d="M96-169c-40 0-48 33-48 73s9 75 48 75c24 0 41-14 43-38l32 2c-6 37-31 61-74 61-59 0-76-41-82-99-10-93 101-131 147-64 4 7 5 14 7 22l-32 3c-4-21-16-35-41-35"/><path id="aU" fill="#3a414a" d="M101-251c82-7 93 87 43 132L82-64C71-53 59-42 53-27h129V0H18c2-99 128-94 128-182 0-28-16-43-45-43s-46 15-49 41l-32-3c6-41 34-60 81-64"/><path id="aV" fill="#333" d="M126-127c33 6 58 20 58 59 0 88-139 92-164 29-3-8-5-16-6-25l32-3c6 27 21 44 54 44 32 0 52-15 52-46 0-38-36-46-79-43v-28c39 1 72-4 72-42 0-27-17-43-46-43-28 0-47 15-49 41l-32-3c6-42 35-63 81-64 48-1 79 21 79 65 0 36-21 52-52 59"/><path id="aW" fill="#333" d="M64 0c3-98 48-159 88-221H18v-27h164v26C143-157 98-101 97 0z"/><path id="aX" fill="#3a414a" d="M-5 72V49h209v23z"/><path id="aY" fill="#3a414a" d="M101-234c-31-9-42 10-38 44h38v23H63V0H32v-167H5v-23h27c-7-52 17-82 69-68z"/><path id="aZ" fill="#3a414a" d="M143 4C61 4 22-44 18-125c-5-107 100-154 193-111 17 8 29 25 37 43l-32 9c-13-25-37-40-76-40-61 0-88 39-88 99 0 61 29 100 91 101 35 0 62-11 79-27v-45h-74v-28h105v86C228-13 192 4 143 4"/><path id="ba" fill="#333" d="M110-160c48 1 74 30 74 79 0 53-28 85-80 85-65 0-83-55-86-122-5-90 50-162 133-122 14 7 22 21 27 39l-31 6c-5-40-67-38-82-6-9 19-15 44-15 74 11-20 30-34 60-33m-7 138c34 0 49-23 49-58s-16-56-50-56c-29 0-50 16-49 49 1 36 15 65 50 65"/><path id="bb" fill="#fff" d="M266 0h-40l-56-210L115 0H75L2-248h35L96-30l15-64 43-154h32l59 218 59-218h35"/><path id="bc" fill="#fff" d="M100-194c63 0 86 42 84 106H49c0 40 14 67 53 68 26 1 43-12 49-29l28 8c-11 28-37 45-77 45C44 4 14-33 15-96c1-61 26-98 85-98m52 81c6-60-76-77-97-28-3 7-6 17-6 28z"/><path id="bd" fill="#fff" d="M115-194c53 0 69 39 70 98 0 66-23 100-70 100C84 3 66-7 56-30L54 0H23l1-261h32v101c10-23 28-34 59-34m-8 174c40 0 45-34 45-75 0-40-5-75-45-74-42 0-51 32-51 76 0 43 10 73 51 73"/><path id="be" fill="#fff" d="M114-163C36-179 61-72 57 0H25l-1-190h30c1 12-1 29 2 39 6-27 23-49 58-41z"/><path id="bf" fill="#fff" d="M100-194c62-1 85 37 85 99 1 63-27 99-86 99S16-35 15-95c0-66 28-99 85-99M99-20c44 1 53-31 53-75 0-43-8-75-51-75s-53 32-53 75 10 74 51 75"/><path id="bg" fill="#fff" d="M206 0h-36l-40-164L89 0H53L-1-190h32L70-26l43-164h34l41 164 42-164h31"/><path id="bh" fill="#fff" d="M135-143c-3-34-86-38-87 0 15 53 115 12 119 90S17 21 10-45l28-5c4 36 97 45 98 0-10-56-113-15-118-90-4-57 82-63 122-42 12 7 21 19 24 35"/><path id="bi" fill="#fff" d="M24-231v-30h32v30zM24 0v-190h32V0z"/><path id="bj" fill="#fff" d="M59-47c-2 24 18 29 38 22v24C64 9 27 4 27-40v-127H5v-23h24l9-43h21v43h35v23H59z"/><path id="bk" fill="#fff" d="M106-169C34-169 62-67 57 0H25v-261h32l-1 103c12-21 28-36 61-36 89 0 53 116 60 194h-32v-121c2-32-8-49-39-48"/><path id="bl" fill="#fff" d="M24 0v-261h32V0z"/><path id="bm" fill="#fff" d="M85-194c31 0 48 13 60 33l-1-100h32l1 261h-30c-2-10 0-23-3-31C134-8 116 4 85 4 32 4 16-35 15-94c0-66 23-100 70-100m9 24c-40 0-46 34-46 75 0 40 6 74 45 74 42 0 51-32 51-76 0-42-9-74-50-73"/><path id="bn" fill="#fff" d="M84 4C-5 8 30-112 23-190h32v120c0 31 7 50 39 49 72-2 45-101 50-169h31l1 190h-30c-1-10 1-25-2-33-11 22-28 36-60 37"/><path id="bo" fill="#fff" d="M210-169c-67 3-38 105-44 169h-31v-121c0-29-5-50-35-48C34-165 62-65 56 0H25l-1-190h30c1 10-1 24 2 32 10-44 99-50 107 0 11-21 27-35 58-36 85-2 47 119 55 194h-31v-121c0-29-5-49-35-48"/><path id="bp" fill="#fff" d="M87 75C49 33 22-17 22-94c0-76 28-126 65-167h31c-38 41-64 92-64 168S80 34 118 75z"/><path id="bq" fill="#fff" d="M160-131c35 5 61 23 61 61C221 17 115-2 30 0v-248c76 3 177-17 177 60 0 33-19 50-47 57m-97-11c50-1 110 9 110-42 0-47-63-36-110-37zm0 115c55-2 124 14 124-45 0-56-70-42-124-44z"/><path id="br" fill="#fff" d="M33-261c38 41 65 92 65 168S71 34 33 75H2C39 34 66-17 66-93S39-220 2-261z"/><path id="bs" fill="#3a414a" d="M140-251c80 0 125 45 125 126S219 4 139 4C58 4 15-44 15-125s44-126 125-126m-1 214c52 0 73-35 73-88 0-50-21-86-72-86-52 0-73 35-73 86s22 88 72 88"/><path id="bt" fill="#3a414a" d="M135-194c52 0 70 43 70 98 0 56-19 99-73 100-30 1-46-15-58-35L72 0H24l1-261h50v104c11-23 29-37 60-37M114-30c31 0 40-27 40-66 0-37-7-63-39-63s-41 28-41 65c0 36 8 64 40 64"/><path id="bu" fill="#3a414a" d="M115-3C79 11 28 4 28-45v-112H4v-33h27l15-45h31v45h36v33H77v99c-1 23 16 31 38 25z"/><path id="bv" fill="#3a414a" d="M133-34C117-15 103 5 69 4 32 3 11-16 11-54c-1-60 55-63 116-61 1-26-3-47-28-47-18 1-26 9-28 27l-52-2c7-38 36-58 82-57s74 22 75 68l1 82c-1 14 12 18 25 15v27c-30 8-71 5-69-32m-48 3c29 0 43-24 42-57-32 0-66-3-65 30 0 17 8 27 23 27"/><path id="bw" fill="#3a414a" d="M25-224v-37h50v37zM25 0v-190h50V0z"/><path id="bx" fill="#3a414a" d="M135-194c87-1 58 113 63 194h-50c-7-57 23-157-34-157-59 0-34 97-39 157H25l-1-190h47c2 12-1 28 3 38 12-26 28-41 61-42"/><path id="by" fill="#3a414a" d="M24 0v-248h52V0z"/><path id="bz" fill="#3a414a" d="M135-194c53 0 70 44 70 98 0 56-19 98-73 100-31 1-45-17-59-34 3 33 2 69 2 105H25l-1-265h48c2 10 0 23 3 31 11-24 29-35 60-35M114-30c33 0 39-31 40-66 0-38-9-64-40-64-56 0-55 130 0 130"/><path id="bA" fill="#3a414a" d="M85 4C-2 5 27-109 22-190h50c7 57-23 150 33 157 60-5 35-97 40-157h50l1 190h-47c-2-12 1-28-3-38-12 25-28 42-61 42"/><path id="bB" fill="#3a414a" d="M33 0v-248h34V0z"/><path id="bC" fill="#3a414a" d="M137 0h-34L2-248h35l83 218 83-218h36"/><path id="bD" fill="#3a414a" d="m205 0-28-72H64L36 0H1l101-248h38L239 0zm-38-99-47-123c-12 45-31 82-46 123z"/><path id="bE" fill="#333" d="M155-56V0h-30v-56H8v-25l114-167h33v167h35v25zm-30-156c-27 46-58 90-88 131h88z"/><path id="bF" fill="#3a414a" d="M101-251c68 0 85 55 85 127S166 4 100 4C33 4 14-52 14-124c0-73 17-127 87-127m-1 229c47 0 54-49 54-102s-4-102-53-102c-51 0-55 48-55 102 0 53 5 102 54 102"/><path id="bG" fill="#3a414a" d="M190 0 58-211 59 0H30v-248h39L202-35l-2-213h31V0z"/><path id="bH" fill="#333" d="M54-142c48-35 137-8 131 61C196 18 31 33 14-55l32-4c7 23 22 37 52 37 35-1 51-22 54-58 4-55-73-65-99-34H22l8-134h141v27H59"/><g id="a"><use xlink:href="#ag" transform="scale(.08025)"/><use xlink:href="#ah" transform="translate(16.05)scale(.08025)"/><use xlink:href="#ai" transform="translate(30.494)scale(.08025)"/><use xlink:href="#aj" transform="translate(46.543)scale(.08025)"/></g><g id="b"><use xlink:href="#ak" transform="scale(.08025)"/><use xlink:href="#aj" transform="translate(14.444)scale(.08025)"/><use xlink:href="#ai" transform="translate(23.994)scale(.08025)"/><use xlink:href="#al" transform="translate(40.043)scale(.08025)"/><use xlink:href="#ai" transform="translate(56.093)scale(.08025)"/><use xlink:href="#am" transform="translate(72.142)scale(.08025)"/><use xlink:href="#an" transform="translate(88.191)scale(.08025)"/><use xlink:href="#ao" transform="translate(96.216)scale(.08025)"/><use xlink:href="#ap" transform="translate(102.556)scale(.08025)"/><use xlink:href="#aq" transform="translate(118.605)scale(.08025)"/></g><g id="c"><use xlink:href="#ar" transform="scale(.08025)"/><use xlink:href="#ag" transform="translate(9.55)scale(.08025)"/><use xlink:href="#as" transform="translate(25.599 4.044)scale(.05617)"/><use xlink:href="#at" transform="translate(40.148)scale(.08025)"/></g><g id="d"><use xlink:href="#ap" transform="scale(.06173)"/><use xlink:href="#ag" transform="translate(12.346)scale(.06173)"/><use xlink:href="#an" transform="translate(24.691)scale(.06173)"/><use xlink:href="#au" transform="translate(30.864)scale(.06173)"/><use xlink:href="#ai" transform="translate(43.21)scale(.06173)"/><use xlink:href="#am" transform="translate(55.556)scale(.06173)"/><use xlink:href="#an" transform="translate(67.901)scale(.06173)"/><use xlink:href="#ao" transform="translate(74.074)scale(.06173)"/><use xlink:href="#ak" transform="translate(78.95)scale(.06173)"/><use xlink:href="#ap" transform="translate(90.062)scale(.06173)"/><use xlink:href="#an" transform="translate(102.407)scale(.06173)"/><use xlink:href="#av" transform="translate(108.58)scale(.06173)"/><use xlink:href="#aj" transform="translate(120.926)scale(.06173)"/></g><g id="e"><use xlink:href="#aw" transform="scale(.06173)"/><use xlink:href="#ap" transform="translate(12.346)scale(.06173)"/><use xlink:href="#ah" transform="translate(24.691)scale(.06173)"/><use xlink:href="#ah" transform="translate(35.802)scale(.06173)"/><use xlink:href="#ax" transform="translate(46.914)scale(.06173)"/><use xlink:href="#ai" transform="translate(58.025)scale(.06173)"/><use xlink:href="#ay" transform="translate(70.37)scale(.06173)"/></g><g id="f"><use xlink:href="#az" transform="scale(.06173)"/><use xlink:href="#ap" transform="translate(18.457)scale(.06173)"/><use xlink:href="#am" transform="translate(30.802)scale(.06173)"/><use xlink:href="#ap" transform="translate(43.148)scale(.06173)"/><use xlink:href="#aA" transform="translate(55.494)scale(.06173)"/><use xlink:href="#ai" transform="translate(67.84)scale(.06173)"/><use xlink:href="#aj" transform="translate(80.185)scale(.06173)"/></g><g id="g"><use xlink:href="#ar" transform="scale(.06173)"/><use xlink:href="#aB" transform="translate(7.346)scale(.06173)"/><use xlink:href="#at" transform="translate(25.802)scale(.06173)"/></g><g id="h"><use xlink:href="#au" transform="scale(.06173)"/><use xlink:href="#an" transform="translate(12.346)scale(.06173)"/><use xlink:href="#an" transform="translate(18.519)scale(.06173)"/><use xlink:href="#aw" transform="translate(24.691)scale(.06173)"/><use xlink:href="#ah" transform="translate(37.037)scale(.06173)"/><use xlink:href="#aC" transform="translate(48.148)scale(.06173)"/><use xlink:href="#aD" transform="translate(54.321)scale(.06173)"/><use xlink:href="#aD" transform="translate(60.494)scale(.06173)"/><use xlink:href="#aE" transform="translate(66.667)scale(.06173)"/><use xlink:href="#ag" transform="translate(79.012)scale(.06173)"/><use xlink:href="#ao" transform="translate(91.358)scale(.06173)"/><use xlink:href="#ak" transform="translate(96.235)scale(.06173)"/><use xlink:href="#ax" transform="translate(107.346)scale(.06173)"/><use xlink:href="#ak" transform="translate(118.457)scale(.06173)"/><use xlink:href="#aj" transform="translate(129.568)scale(.06173)"/><use xlink:href="#ay" transform="translate(136.914)scale(.06173)"/><use xlink:href="#aw" transform="translate(148.025)scale(.06173)"/><use xlink:href="#an" transform="translate(160.37)scale(.06173)"/><use xlink:href="#aF" transform="translate(166.543)scale(.06173)"/><use xlink:href="#av" transform="translate(172.716)scale(.06173)"/><use xlink:href="#aj" transform="translate(185.062)scale(.06173)"/><use xlink:href="#aA" transform="translate(192.407)scale(.06173)"/></g><g id="i"><use xlink:href="#aG" transform="scale(.06173)"/><use xlink:href="#ai" transform="translate(15.988)scale(.06173)"/><use xlink:href="#aH" transform="translate(28.333)scale(.06173)"/><use xlink:href="#ap" transform="translate(40.679)scale(.06173)"/><use xlink:href="#ag" transform="translate(53.025)scale(.06173)"/><use xlink:href="#an" transform="translate(65.37)scale(.06173)"/><use xlink:href="#au" transform="translate(71.543)scale(.06173)"/><use xlink:href="#am" transform="translate(83.889)scale(.06173)"/></g><g id="j"><use xlink:href="#ah" transform="scale(.06173)"/><use xlink:href="#ai" transform="translate(11.111)scale(.06173)"/><use xlink:href="#aj" transform="translate(23.457)scale(.06173)"/><use xlink:href="#aI" transform="translate(30.802)scale(.06173)"/><use xlink:href="#ai" transform="translate(41.914)scale(.06173)"/><use xlink:href="#aj" transform="translate(54.26)scale(.06173)"/></g><g id="k"><use xlink:href="#ar" transform="scale(.06173)"/><use xlink:href="#aJ" transform="translate(7.346)scale(.06173)"/><use xlink:href="#at" transform="translate(22.16)scale(.06173)"/></g><g id="l"><use xlink:href="#aK" transform="scale(.05556)"/><use xlink:href="#aL" transform="translate(11.111)scale(.05556)"/></g><g id="m"><use xlink:href="#aM" transform="scale(.05556)"/><use xlink:href="#aN" transform="translate(11.111)scale(.05556)"/><use xlink:href="#aO" transform="translate(22.222)scale(.05556)"/><use xlink:href="#aP" transform="translate(27.778)scale(.05556)"/><use xlink:href="#aQ" transform="translate(38.889)scale(.05556)"/><use xlink:href="#aR" transform="translate(50)scale(.05556)"/><use xlink:href="#aO" transform="translate(61.111)scale(.05556)"/><use xlink:href="#aS" transform="translate(66.667)scale(.05556)"/><use xlink:href="#aT" transform="translate(71.056)scale(.05556)"/><use xlink:href="#aM" transform="translate(81.056)scale(.05556)"/><use xlink:href="#aO" transform="translate(92.167)scale(.05556)"/><use xlink:href="#aQ" transform="translate(97.722)scale(.05556)"/></g><g id="n"><use xlink:href="#aU" transform="scale(.05556)"/><use xlink:href="#aF" transform="translate(11.111)scale(.05556)"/></g><g id="o"><use xlink:href="#aG" transform="scale(.05556)"/><use xlink:href="#ai" transform="translate(14.389)scale(.05556)"/><use xlink:href="#aH" transform="translate(25.5)scale(.05556)"/><use xlink:href="#ap" transform="translate(36.611)scale(.05556)"/><use xlink:href="#ag" transform="translate(47.722)scale(.05556)"/><use xlink:href="#an" transform="translate(58.833)scale(.05556)"/><use xlink:href="#au" transform="translate(64.389)scale(.05556)"/><use xlink:href="#am" transform="translate(75.5)scale(.05556)"/></g><g id="p"><use xlink:href="#aj" transform="scale(.08025)"/><use xlink:href="#ap" transform="translate(9.55)scale(.08025)"/><use xlink:href="#am" transform="translate(25.599)scale(.08025)"/><use xlink:href="#al" transform="translate(41.648)scale(.08025)"/><use xlink:href="#av" transform="translate(57.698)scale(.08025)"/><use xlink:href="#az" transform="translate(73.747)scale(.08025)"/></g><g id="q"><use xlink:href="#al" transform="scale(.08025)"/><use xlink:href="#ap" transform="translate(16.05)scale(.08025)"/><use xlink:href="#an" transform="translate(32.099)scale(.08025)"/><use xlink:href="#ap" transform="translate(40.123)scale(.08025)"/></g><g id="r"><use xlink:href="#ar" transform="scale(.08025)"/><use xlink:href="#aj" transform="translate(9.55)scale(.08025)"/><use xlink:href="#at" transform="translate(19.099)scale(.08025)"/></g><g id="t"><use xlink:href="#ah" transform="scale(.08025)"/><use xlink:href="#ap" transform="translate(14.444)scale(.08025)"/><use xlink:href="#aq" transform="translate(30.494)scale(.08025)"/><use xlink:href="#an" transform="translate(36.833)scale(.08025)"/></g><g id="u"><use xlink:href="#ar" transform="scale(.08025)"/><use xlink:href="#am" transform="translate(9.55)scale(.08025)"/><use xlink:href="#aJ" transform="translate(25.599 4.044)scale(.05617)"/><use xlink:href="#at" transform="translate(39.08)scale(.08025)"/></g><g id="w"><use xlink:href="#aq" transform="scale(.06173)"/><use xlink:href="#ao" transform="translate(4.877)scale(.06173)"/><use xlink:href="#aH" transform="translate(9.753)scale(.06173)"/><use xlink:href="#ah" transform="translate(22.099)scale(.06173)"/><use xlink:href="#av" transform="translate(33.21)scale(.06173)"/><use xlink:href="#al" transform="translate(45.556)scale(.06173)"/><use xlink:href="#ao" transform="translate(57.901)scale(.06173)"/><use xlink:href="#ag" transform="translate(62.778)scale(.06173)"/><use xlink:href="#az" transform="translate(75.123)scale(.06173)"/></g><g id="x"><use xlink:href="#aj" transform="scale(.06173)"/><use xlink:href="#ap" transform="translate(7.346)scale(.06173)"/><use xlink:href="#am" transform="translate(19.691)scale(.06173)"/><use xlink:href="#al" transform="translate(32.037)scale(.06173)"/><use xlink:href="#av" transform="translate(44.383)scale(.06173)"/><use xlink:href="#az" transform="translate(56.728)scale(.06173)"/><use xlink:href="#aH" transform="translate(75.185)scale(.06173)"/><use xlink:href="#ay" transform="translate(87.53)scale(.06173)"/><use xlink:href="#an" transform="translate(98.642)scale(.06173)"/><use xlink:href="#ai" transform="translate(104.815)scale(.06173)"/><use xlink:href="#ah" transform="translate(117.16)scale(.06173)"/><use xlink:href="#aX" transform="translate(128.272)scale(.06173)"/><use xlink:href="#aH" transform="translate(140.617)scale(.06173)"/><use xlink:href="#ag" transform="translate(152.963)scale(.06173)"/><use xlink:href="#aY" transform="translate(165.309)scale(.06173)"/></g><g id="y"><use xlink:href="#ar" transform="scale(.06173)"/><use xlink:href="#aZ" transform="translate(7.346)scale(.06173)"/><use xlink:href="#at" transform="translate(24.63)scale(.06173)"/></g><g id="A"><use xlink:href="#bb" transform="scale(.08025)"/><use xlink:href="#bc" transform="translate(26.642)scale(.08025)"/><use xlink:href="#bd" transform="translate(42.691)scale(.08025)"/></g><g id="B"><use xlink:href="#bd" transform="scale(.08025)"/><use xlink:href="#be" transform="translate(16.05)scale(.08025)"/><use xlink:href="#bf" transform="translate(25.599)scale(.08025)"/><use xlink:href="#bg" transform="translate(41.648)scale(.08025)"/><use xlink:href="#bh" transform="translate(62.432)scale(.08025)"/><use xlink:href="#bc" transform="translate(76.877)scale(.08025)"/><use xlink:href="#be" transform="translate(92.926)scale(.08025)"/></g><g id="C"><use xlink:href="#bg" transform="scale(.08025)"/><use xlink:href="#bi" transform="translate(20.784)scale(.08025)"/><use xlink:href="#bj" transform="translate(27.123)scale(.08025)"/><use xlink:href="#bk" transform="translate(35.148)scale(.08025)"/></g><g id="D"><use xlink:href="#bl" transform="scale(.08025)"/><use xlink:href="#bi" transform="translate(6.34)scale(.08025)"/><use xlink:href="#bd" transform="translate(12.679)scale(.08025)"/><use xlink:href="#bh" transform="translate(28.728)scale(.08025)"/><use xlink:href="#bf" transform="translate(43.173)scale(.08025)"/><use xlink:href="#bm" transform="translate(59.222)scale(.08025)"/><use xlink:href="#bi" transform="translate(75.272)scale(.08025)"/><use xlink:href="#bn" transform="translate(81.611)scale(.08025)"/><use xlink:href="#bo" transform="translate(97.66)scale(.08025)"/></g><g id="E"><use xlink:href="#bp" transform="scale(.08025)"/><use xlink:href="#bq" transform="translate(9.55)scale(.08025)"/><use xlink:href="#br" transform="translate(28.809)scale(.08025)"/></g><g id="F"><use xlink:href="#bs" transform="scale(.09877)"/><use xlink:href="#bt" transform="translate(27.654)scale(.09877)"/><use xlink:href="#bu" transform="translate(49.284)scale(.09877)"/><use xlink:href="#bv" transform="translate(61.037)scale(.09877)"/><use xlink:href="#bw" transform="translate(80.79)scale(.09877)"/><use xlink:href="#bx" transform="translate(90.667)scale(.09877)"/></g><g id="G"><use xlink:href="#by" transform="scale(.09877)"/><use xlink:href="#bx" transform="translate(9.877)scale(.09877)"/><use xlink:href="#bz" transform="translate(31.506)scale(.09877)"/><use xlink:href="#bA" transform="translate(53.136)scale(.09877)"/><use xlink:href="#bu" transform="translate(74.765)scale(.09877)"/></g><g id="H"><use xlink:href="#ao" transform="scale(.08025)"/><use xlink:href="#am" transform="translate(6.34)scale(.08025)"/><use xlink:href="#ao" transform="translate(22.389)scale(.08025)"/><use xlink:href="#an" transform="translate(28.728)scale(.08025)"/></g><g id="I"><use xlink:href="#aI" transform="scale(.08025)"/><use xlink:href="#ai" transform="translate(14.444)scale(.08025)"/><use xlink:href="#ak" transform="translate(30.494)scale(.08025)"/><use xlink:href="#an" transform="translate(44.938)scale(.08025)"/><use xlink:href="#av" transform="translate(52.963)scale(.08025)"/><use xlink:href="#aj" transform="translate(69.012)scale(.08025)"/></g><g id="J"><use xlink:href="#ar" transform="scale(.08025)"/><use xlink:href="#am" transform="translate(9.55)scale(.08025)"/><use xlink:href="#bB" transform="translate(25.599 4.044)scale(.05617)"/><use xlink:href="#bC" transform="translate(31.216 4.044)scale(.05617)"/><use xlink:href="#at" transform="translate(44.698)scale(.08025)"/></g><g id="K"><use xlink:href="#ao" transform="scale(.08025)"/><use xlink:href="#am" transform="translate(6.34)scale(.08025)"/><use xlink:href="#aw" transform="translate(22.389)scale(.08025)"/><use xlink:href="#ag" transform="translate(38.438)scale(.08025)"/><use xlink:href="#an" transform="translate(54.488)scale(.08025)"/></g><g id="L"><use xlink:href="#av" transform="scale(.08025)"/><use xlink:href="#ag" transform="translate(16.05)scale(.08025)"/><use xlink:href="#an" transform="translate(32.099)scale(.08025)"/><use xlink:href="#aw" transform="translate(40.123)scale(.08025)"/><use xlink:href="#ag" transform="translate(56.173)scale(.08025)"/><use xlink:href="#an" transform="translate(72.222)scale(.08025)"/></g><g id="M"><use xlink:href="#av" transform="scale(.08025)"/><use xlink:href="#an" transform="translate(16.05)scale(.08025)"/><use xlink:href="#au" transform="translate(24.074)scale(.08025)"/><use xlink:href="#ai" transform="translate(40.123)scale(.08025)"/><use xlink:href="#aj" transform="translate(56.173)scale(.08025)"/></g><g id="N"><use xlink:href="#al" transform="scale(.08025)"/><use xlink:href="#ap" transform="translate(16.05)scale(.08025)"/><use xlink:href="#an" transform="translate(32.099)scale(.08025)"/><use xlink:href="#ap" transform="translate(40.123)scale(.08025)"/></g><g id="O"><use xlink:href="#ah" transform="scale(.08025)"/><use xlink:href="#ag" transform="translate(14.444)scale(.08025)"/><use xlink:href="#aH" transform="translate(30.494)scale(.08025)"/><use xlink:href="#aw" transform="translate(46.543)scale(.08025)"/><use xlink:href="#aj" transform="translate(62.593)scale(.08025)"/><use xlink:href="#av" transform="translate(72.142)scale(.08025)"/><use xlink:href="#ak" transform="translate(88.191)scale(.08025)"/><use xlink:href="#ai" transform="translate(102.636)scale(.08025)"/><use xlink:href="#ah" transform="translate(118.685)scale(.08025)"/><use xlink:href="#ah" transform="translate(133.13)scale(.08025)"/></g><g id="P"><use xlink:href="#ao" transform="scale(.08025)"/><use xlink:href="#am" transform="translate(6.34)scale(.08025)"/><use xlink:href="#aw" transform="translate(22.389)scale(.08025)"/><use xlink:href="#ag" transform="translate(38.438)scale(.08025)"/><use xlink:href="#an" transform="translate(54.488)scale(.08025)"/></g><g id="Q"><use xlink:href="#ar" transform="scale(.08025)"/><use xlink:href="#aq" transform="translate(9.55)scale(.08025)"/><use xlink:href="#ao" transform="translate(15.889)scale(.08025)"/><use xlink:href="#am" transform="translate(22.228)scale(.08025)"/><use xlink:href="#ax" transform="translate(38.278)scale(.08025)"/><use xlink:href="#at" transform="translate(52.722)scale(.08025)"/></g><g id="S"><use xlink:href="#av" transform="scale(.08025)"/><use xlink:href="#ag" transform="translate(16.05)scale(.08025)"/><use xlink:href="#an" transform="translate(32.099)scale(.08025)"/><use xlink:href="#aw" transform="translate(40.123)scale(.08025)"/><use xlink:href="#ag" transform="translate(56.173)scale(.08025)"/><use xlink:href="#an" transform="translate(72.222)scale(.08025)"/></g><g id="T"><use xlink:href="#ar" transform="scale(.08025)"/><use xlink:href="#bD" transform="translate(9.55)scale(.08025)"/><use xlink:href="#at" transform="translate(28.809)scale(.08025)"/></g><g id="U"><use xlink:href="#ap" transform="scale(.08025)"/><use xlink:href="#aq" transform="translate(16.05)scale(.08025)"/><use xlink:href="#aA" transform="translate(22.389)scale(.08025)"/><use xlink:href="#av" transform="translate(38.438)scale(.08025)"/><use xlink:href="#aj" transform="translate(54.488)scale(.08025)"/><use xlink:href="#ao" transform="translate(64.037)scale(.08025)"/><use xlink:href="#an" transform="translate(70.377)scale(.08025)"/><use xlink:href="#au" transform="translate(78.401)scale(.08025)"/><use xlink:href="#az" transform="translate(94.45)scale(.08025)"/></g><g id="V"><use xlink:href="#ar" transform="scale(.08025)"/><use xlink:href="#ap" transform="translate(9.55)scale(.08025)"/><use xlink:href="#at" transform="translate(25.599)scale(.08025)"/></g><g id="X"><use xlink:href="#az" transform="scale(.08025)"/><use xlink:href="#ai" transform="translate(23.994)scale(.08025)"/><use xlink:href="#ah" transform="translate(40.043)scale(.08025)"/><use xlink:href="#ah" transform="translate(54.488)scale(.08025)"/><use xlink:href="#ap" transform="translate(68.932)scale(.08025)"/><use xlink:href="#aA" transform="translate(84.981)scale(.08025)"/><use xlink:href="#ai" transform="translate(101.03)scale(.08025)"/></g><g id="Y"><use xlink:href="#ar" transform="scale(.08025)"/><use xlink:href="#az" transform="translate(9.55)scale(.08025)"/><use xlink:href="#at" transform="translate(33.543)scale(.08025)"/></g><g id="Z"><use xlink:href="#az" transform="scale(.08025)"/><use xlink:href="#ah" transform="translate(23.994)scale(.08025)"/><use xlink:href="#aA" transform="translate(38.438)scale(.08025)"/></g><g id="aa"><use xlink:href="#aH" transform="scale(.08025)"/><use xlink:href="#aq" transform="translate(16.05)scale(.08025)"/><use xlink:href="#av" transform="translate(22.389)scale(.08025)"/><use xlink:href="#ak" transform="translate(38.438)scale(.08025)"/><use xlink:href="#ax" transform="translate(52.883)scale(.08025)"/></g><g id="ac"><use xlink:href="#ar" transform="scale(.08025)"/><use xlink:href="#az" transform="translate(9.55)scale(.08025)"/><use xlink:href="#bF" transform="translate(33.543 4.044)scale(.05617)"/><use xlink:href="#at" transform="translate(44.778)scale(.08025)"/></g><g id="ae"><use xlink:href="#ar" transform="scale(.08025)"/><use xlink:href="#az" transform="translate(9.55)scale(.08025)"/><use xlink:href="#bG" transform="translate(33.543 4.044)scale(.05617)"/><use xlink:href="#at" transform="translate(48.092)scale(.08025)"/><use xlink:href="#aF" transform="translate(57.641)scale(.08025)"/><use xlink:href="#aF" transform="translate(65.666)scale(.08025)"/><use xlink:href="#aF" transform="translate(73.69)scale(.08025)"/></g><use xlink:href="#aV" id="s" transform="scale(.05556)"/><use xlink:href="#aW" id="v" transform="scale(.05556)"/><use xlink:href="#ba" id="z" transform="scale(.05556)"/><use xlink:href="#bE" id="W" transform="scale(.05556)"/><use xlink:href="#bF" id="ab" transform="scale(.08025)"/><use xlink:href="#bG" id="ad" transform="scale(.08025)"/><use xlink:href="#bH" id="af" transform="scale(.05556)"/></defs></g></svg>