<svg xmlns="http://www.w3.org/2000/svg" xmlns:lucid="lucid" xmlns:xlink="http://www.w3.org/1999/xlink" width="1524" height="1289" viewBox="0 0 1524 1289"><g lucid:page-tab-id="yT.ZT1ARE_jJ" transform="translate(-78 1060)"><path fill="none" stroke="#008a0e" stroke-width="4" d="M120-788a12 12 0 0 1 12-12h1416a12 12 0 0 1 12 12V28a12 12 0 0 1-12 12H132a12 12 0 0 1-12-12z"/><path fill="#f4d9ff" stroke="#3a414a" d="M376.66-640h198.67L554-560H355.3z" class="qc-clickable" data-target="06"/><use xlink:href="#a" transform="translate(447.4 -611.057)"/><use xlink:href="#b" transform="translate(436.515 -576.39)"/><path fill="#979ea8" stroke="#979ea8" stroke-width=".05" d="M840.98-139H839v-17.67h2zm0-41.67H839v-17.77h2z"/><path fill="#979ea8" d="M840.98-198.4H839v-1.53l.98.5.98-.5zm-.98 74.66L835.37-138h9.26z"/><path fill="#979ea8" stroke="#979ea8" stroke-width=".05" d="m840-120.58-5.98-18.4h11.96zm-3.3-16.45 3.3 10.14 3.3-10.13z"/><use xlink:href="#c" transform="translate(828.894 -164.667)"/><path fill="#cfe4ff" stroke="#3a414a" d="M200.5-500h198.67l-21.34 80H179.17z"/><use xlink:href="#d" transform="translate(227.107 -471.057)"/><use xlink:href="#e" transform="translate(289.62 -471.057)"/><use xlink:href="#f" transform="translate(263.928 -436.39)"/><path fill="#979ea8" stroke="#979ea8" stroke-width=".05" d="m814.7-490.48 1.06.1 1.06.24 1 .42.95.58.83.7.7.84.58.93.42 1 .26 1.08.08 1.06V-259h-1.95v-224.46l-.07-.83-.2-.75-.3-.73-.4-.67-.5-.6-.6-.5-.68-.43-.73-.3-.77-.18-.82-.06H711.78v-1.96zm-348.34-4.23.2.75.3.73.4.67.5.6.6.5.7.43.7.3.78.18.82.06h218.2v1.96H471.3l-1.07-.1-1.06-.24-1-.42-.95-.58-.83-.7-.72-.84-.57-.93-.4-1-.27-1.08-.08-1.06v-63.04h1.95v62.96z"/><path fill="#979ea8" d="M466.3-558.47h-1.95v-1.03h1.95zm354.37 314.73L816.03-258h9.27z"/><path fill="#979ea8" stroke="#979ea8" stroke-width=".05" d="m820.67-240.58-5.98-18.4h11.94zm-3.3-16.45 3.3 10.14 3.3-10.13z"/><use xlink:href="#g" transform="translate(689.56 -485.5)"/><path fill="#ffcf99" stroke="#3a414a" d="M751.33-120H950l-21.33 80H730z"/><use xlink:href="#h" transform="translate(750.736 -91.057)"/><use xlink:href="#i" transform="translate(882.1 -91.057)"/><use xlink:href="#j" transform="translate(803.755 -56.39)"/><path fill="#f4d9ff" stroke="#3a414a" d="M1156.66-640h198.66L1334-560h-198.67z" class="qc-clickable" data-target="07"/><use xlink:href="#k" transform="translate(1159.27 -611.615)"/><use xlink:href="#l" transform="translate(1269.77 -611.615)"/><use xlink:href="#m" transform="translate(1228.11 -576.949)"/><path fill="none" stroke="#1071e5" d="M760-240h160l-80 40z"/><path fill="#979ea8" stroke="#979ea8" stroke-width=".05" d="M1002.72-488.52h-116l-.84.06-.76.18-.73.3-.68.42-.6.5-.52.6-.4.68-.3.73-.2.76-.06.84V-259h-1.95v-224.54l.07-1.05.26-1.06.42-1 .57-.94.7-.83.85-.7.93-.6 1-.4 1.08-.26 1.05-.08h116.1zm243.58-6.94-.08 1.05-.26 1.06-.42 1-.57.94-.7.83-.84.7-.94.6-1.02.4-1.06.26-1.06.08h-214.42v-1.96h214.35l.8-.06.78-.18.72-.3.68-.42.6-.5.5-.6.42-.68.3-.73.2-.76.05-.84v-62.96h1.95z"/><path fill="#979ea8" d="M1246.3-558.47h-1.95v-1.03h1.95zM880.67-243.74 876.03-258h9.27z"/><path fill="#979ea8" stroke="#979ea8" stroke-width=".05" d="m880.67-240.58-5.98-18.4h11.94zm-3.3-16.45 3.3 10.14 3.3-10.13z"/><use xlink:href="#g" transform="translate(1002.727 -485.5)"/><path fill="#f4d9ff" stroke="#3a414a" d="M636.66-640h198.67L814-560H615.32z" class="qc-clickable" data-target="06"/><use xlink:href="#n" transform="translate(670.607 -611.057)"/><use xlink:href="#o" transform="translate(703.256 -576.39)"/><path fill="#979ea8" stroke="#979ea8" stroke-width=".05" d="m774.1-340.9 1.06.26 1 .42.94.58.83.7.72.84.57.93.42 1 .25 1.08.08 1.06V-259H778v-74.96l-.06-.83-.18-.75-.3-.73-.42-.67-.5-.6-.6-.5-.68-.43-.73-.3-.76-.18-.84-.06h-128.1v-1.96h128.18zM390-339v-1.96h232.63v1.96z"/><path fill="#979ea8" d="M390.04-339.02h-1.28l.52-1.96h.76zM779-243.74 774.37-258h9.26z"/><path fill="#979ea8" stroke="#979ea8" stroke-width=".05" d="m779-240.58-5.98-18.4h11.96zm-3.3-16.45 3.3 10.14 3.3-10.13z"/><use xlink:href="#g" transform="translate(622.653 -336)"/><path fill="#008a0e" d="M120-788a12 12 0 0 1 12-12h416a12 12 0 0 1 12 12v39.33a12 12 0 0 1-12 12H132a12 12 0 0 1-12-12z"/><use xlink:href="#p" transform="translate(137.738 -762.186)"/><use xlink:href="#q" transform="translate(204.503 -762.186)"/><use xlink:href="#r" transform="translate(315.003 -762.186)"/><use xlink:href="#s" transform="translate(374.225 -762.186)"/><use xlink:href="#t" transform="translate(503.904 -762.186)"/><path fill="#dfe3e8" d="M120-1002.45a17.55 17.55 0 0 1 17.55-17.55h184.9a17.55 17.55 0 0 1 17.55 17.55v140.4a17.55 17.55 0 0 1-17.55 17.55h-184.9A17.55 17.55 0 0 1 120-862.05z"/><use xlink:href="#u" transform="translate(140 -967.556)"/><use xlink:href="#v" transform="translate(140 -924.889)"/><use xlink:href="#w" transform="translate(246.47 -924.889)"/><use xlink:href="#x" transform="translate(140 -882.222)"/><path fill="#979ea8" stroke="#979ea8" stroke-width=".05" d="m793.1-460.9 1.06.26 1 .42.94.58.83.7.72.84.57.93.42 1 .25 1.08.08 1.06V-259H797v-194.96l-.06-.83-.18-.75-.3-.73-.42-.67-.5-.6-.6-.5-.68-.43-.73-.3-.76-.18-.84-.06H649.1v-1.96h142.94zM390-459v-1.96h236.9v1.96z"/><path fill="#979ea8" d="M390.04-459.02h-1.28l.52-1.96h.76zM798-243.74 793.37-258h9.26z"/><path fill="#979ea8" stroke="#979ea8" stroke-width=".05" d="m798-240.58-5.98-18.4h11.96zm-3.3-16.45 3.3 10.14 3.3-10.13z"/><use xlink:href="#g" transform="translate(626.894 -456)"/><path fill="#979ea8" stroke="#979ea8" stroke-width=".05" d="m834.04-520.98 1.05.1 1.06.24 1 .42.94.58.83.7.72.84.57.93.42 1 .25 1.08.08 1.06V-259H839v-254.96l-.06-.83-.18-.75-.3-.73-.42-.67-.5-.6-.6-.5-.68-.43-.73-.3-.76-.18-.84-.06h-26.18V-521zm-107.68-4.23.2.75.3.73.4.67.5.6.6.5.68.43.73.3.77.18.82.06h54.2v1.96H731.3l-1.07-.1-1.06-.24-1-.42-.95-.58-.83-.7-.72-.84-.57-.93-.4-1-.27-1.08-.08-1.06v-32.54h1.95v32.46z"/><path fill="#979ea8" d="M726.3-558.47h-1.95v-1.03h1.95zM840-243.74 835.37-258h9.26z"/><path fill="#979ea8" stroke="#979ea8" stroke-width=".05" d="m840-240.58-5.98-18.4h11.96zm-3.3-16.45 3.3 10.14 3.3-10.13z"/><use xlink:href="#g" transform="translate(785.56 -516)"/><path fill="#cfe682" stroke="#3a414a" d="M127.73 65h51.44l-7.74 29H120z"/><path fill="#cfe4ff" stroke="#3a414a" d="M127.73 161.5h51.44l-7.74 29H120z"/><path fill="#fff7a1" stroke="#3a414a" d="M127.73 113.25h51.44l-7.74 29H120z"/><path fill="none" d="M200 60h225.93v38.67H200z"/><use xlink:href="#y" transform="translate(205 88.564)"/><use xlink:href="#z" transform="translate(269.117 88.564)"/><path fill="none" d="M200 108.5h240v38.67H200z"/><use xlink:href="#y" transform="translate(205 137.064)"/><use xlink:href="#A" transform="translate(269.117 137.064)"/><path fill="none" d="M200 157.67h240v38.66H200z"/><use xlink:href="#B" transform="translate(205 186.23)"/><use xlink:href="#C" transform="translate(278.747 186.23)"/><path fill="#f4d9ff" stroke="#3a414a" d="M507.73 68.83h51.44l-7.74 29H500z"/><path fill="none" d="M580 65h340v36.67H580z"/><use xlink:href="#D" transform="translate(585 93.111)"/><use xlink:href="#E" transform="translate(740.599 93.111)"/><use xlink:href="#F" transform="translate(811.136 93.111)"/><use xlink:href="#G" transform="translate(585 127.778)"/><path fill="#ffcf99" stroke="#3a414a" d="M507.73 117.08h51.44l-7.74 29H500z"/><path fill="none" d="M580 113.25h260v36.67H580z"/><use xlink:href="#D" transform="translate(585 141.361)"/><use xlink:href="#H" transform="translate(740.599 141.361)"/><use xlink:href="#G" transform="translate(585 176.028)"/><path fill="#454545" d="M975.02-971.68h6.93c1.64 0 3.2-.1 4.85-.1 13.08-.27 23.73.65 33.7 10.1 5.88 6.9 8.05 14.43 8.14 23.34v2.2c0 1.93-.1 3.86-.26 5.7-2.52 2.57-4 2.3-7.37 2.3h-71.19c-5.2 0-5.2 0-7.35-2.3-1.22-11.76-.1-21.3 7.62-30.77 6.84-7.27 15.16-10.4 24.95-10.48zm20.78-46.12c5.72 3.4 9.1 8.18 11.1 14.33 1.55 6.34.7 11.12-2.17 16.9-2.86 4.6-7.28 8.18-12.3 10.1-7.36.93-14.3 1.2-20.44-3.48-5.47-5.05-8.24-9.65-8.94-17.18.18-5.97 2.08-11.66 5.98-16.16 7.45-6.6 17.5-8.72 26.77-4.5z"/><path fill="none" d="M958.45-928.15h53.75v40h-53.75z"/><use xlink:href="#I" transform="translate(966.27 -899.566)"/><path fill="#cfe682" stroke="#3a414a" d="M896.66-640h198.67L1074-560H875.32z"/><use xlink:href="#d" transform="translate(934.5 -611.057)"/><use xlink:href="#J" transform="translate(997.012 -611.057)"/><use xlink:href="#K" transform="translate(960.086 -576.39)"/><path fill="#979ea8" stroke="#979ea8" stroke-width=".05" d="M986.3-659h-1.95v-56.9h1.95zm0-80.9h-1.95v-147.25h1.95z"/><path fill="#979ea8" d="M986.3-887.12h-1.95v-1.03h1.95zm-.97 243.38L980.7-658h9.26z"/><path fill="#979ea8" stroke="#979ea8" stroke-width=".05" d="m985.33-640.58-5.98-18.4h11.95zm-3.3-16.45 3.3 10.14 3.3-10.13z"/><use xlink:href="#L" transform="translate(979.774 -723.906)"/><path fill="#979ea8" stroke="#979ea8" stroke-width=".05" d="M901.56-519.02h-33.52l-.83.06-.75.18-.73.3-.67.42-.6.5-.5.6-.43.68-.3.73-.18.76-.06.84V-259H861v-255.04l.1-1.05.24-1.06.42-1 .58-.94.7-.83.84-.72.93-.57 1-.42 1.08-.25 1.06-.08h33.6zm84.74-6.94-.08 1.05-.26 1.06-.42 1-.57.94-.7.83-.84.72-.94.57-1.02.42-1.06.25-1.06.08h-55.58V-521h55.5l.83-.06.78-.18.73-.3.68-.42.6-.5.5-.6.42-.68.3-.73.18-.76.07-.84v-32.46h1.95z"/><path fill="#979ea8" d="M986.3-558.47h-1.95v-1.03h1.95zM862-243.74 857.37-258h9.26z"/><path fill="#979ea8" stroke="#979ea8" stroke-width=".05" d="m862-240.58-5.98-18.4h11.96zm-3.3-16.45 3.3 10.14 3.3-10.13z"/><use xlink:href="#g" transform="translate(901.56 -516)"/><path fill="#979ea8" stroke="#979ea8" stroke-width=".05" d="M1034.96-339.02H906.7l-.82.06-.76.18-.73.3-.68.42-.6.5-.52.6-.4.68-.3.73-.2.76-.06.84V-259h-1.95v-75.04l.07-1.05.26-1.06.42-1 .57-.94.7-.83.85-.7.93-.6 1-.4 1.08-.26 1.05-.08h128.33zm255.02 0h-232.8v-1.96H1290z"/><path fill="#979ea8" d="M1290.72-339.02h-.76v-1.96h1.28zm-390.05 95.28L896.03-258h9.27z"/><path fill="#979ea8" stroke="#979ea8" stroke-width=".05" d="m900.67-240.58-5.98-18.4h11.94zm-3.3-16.45 3.3 10.14 3.3-10.13z"/><use xlink:href="#g" transform="translate(1034.968 -336)"/><path fill="#f4d9ff" stroke="#3a414a" d="M200.5-380h198.67l-21.34 80H179.17z" class="qc-clickable" data-target="08"/><use xlink:href="#M" transform="translate(203.073 -351.057)"/><use xlink:href="#N" transform="translate(337.807 -351.057)"/><use xlink:href="#O" transform="translate(260.357 -316.39)"/><path fill="#f4d9ff" stroke="#3a414a" d="M200.5-260h198.67l-21.34 80H179.17z" class="qc-clickable" data-target="08"/><use xlink:href="#P" transform="translate(199.863 -231.057)"/><use xlink:href="#Q" transform="translate(254.35 -231.057)"/><use xlink:href="#R" transform="translate(308.919 -231.057)"/><use xlink:href="#S" transform="translate(257.187 -196.39)"/><path fill="#979ea8" stroke="#979ea8" stroke-width=".05" d="M629.56-219.03H390.02v-1.94h239.54zm151.94 0H651.78v-1.94H781.5z"/><path fill="#979ea8" d="M390.04-219.03h-1.28l.52-1.94h.76zm406.72-.97-14.26 4.63v-9.26z"/><path fill="#979ea8" stroke="#979ea8" stroke-width=".05" d="m799.92-220-18.4 5.98v-11.96zm-16.45 3.3 10.14-3.3-10.13-3.3z"/><use xlink:href="#g" transform="translate(629.56 -216)"/><path fill="#979ea8" stroke="#979ea8" stroke-width=".05" d="M1032.22-219.03H898.5v-1.94h133.72zm257.76 0h-235.54v-1.94h235.54z"/><path fill="#979ea8" d="M1290.72-219.03h-.76v-1.94h1.28zm-393.22 3.66L883.24-220l14.26-4.63z"/><path fill="#979ea8" stroke="#979ea8" stroke-width=".05" d="m898.48-214.02-18.4-5.98 18.4-5.98zm-12.1-5.98 10.15 3.3v-6.6z"/><use xlink:href="#g" transform="translate(1032.227 -216)"/><path fill="#cfe4ff" stroke="#3a414a" d="M1302.17-260h198.66l-21.33 80h-198.67z"/><use xlink:href="#T" transform="translate(1339.286 -231.057)"/><use xlink:href="#U" transform="translate(1404.928 -231.057)"/><use xlink:href="#V" transform="translate(1372.777 -196.39)"/><path fill="#f4d9ff" stroke="#3a414a" d="M1302.17-380h198.66l-21.33 80h-198.67z" class="qc-clickable" data-target="06"/><use xlink:href="#W" transform="translate(1333.669 -351.057)"/><use xlink:href="#X" transform="translate(1378.446 -351.057)"/><use xlink:href="#Y" transform="translate(1359.215 -316.39)"/><path fill="#cfe682" stroke="#3a414a" d="M762.15-596.5h51.43l-7.73 29h-51.43zm521.58 1h51.44l-7.74 29H1276z"/><defs><path id="Z" fill="#3a414a" d="M135-143c-3-34-86-38-87 0 15 53 115 12 119 90S17 21 10-45l28-5c4 36 97 45 98 0-10-56-113-15-118-90-4-57 82-63 122-42 12 7 21 19 24 35"/><path id="aa" fill="#3a414a" d="M141-36C126-15 110 5 73 4 37 3 15-17 15-53c-1-64 63-63 125-63 3-35-9-54-41-54-24 1-41 7-42 31l-33-3c5-37 33-52 76-52 45 0 72 20 72 64v82c-1 20 7 32 28 27v20c-31 9-61-2-59-35M48-53c0 20 12 33 32 33 41-3 63-29 60-74-43 2-92-5-92 41"/><path id="ab" fill="#3a414a" d="M24 0v-261h32V0z"/><path id="ac" fill="#3a414a" d="M59-47c-2 24 18 29 38 22v24C64 9 27 4 27-40v-127H5v-23h24l9-43h21v43h35v23H59z"/><path id="ad" fill="#3a414a" d="M87 75C49 33 22-17 22-94c0-76 28-126 65-167h31c-38 41-64 92-64 168S80 34 118 75z"/><path id="ae" fill="#3a414a" d="M117-194c89-4 53 116 60 194h-32v-121c0-31-8-49-39-48C34-167 62-67 57 0H25l-1-190h30c1 10-1 24 2 32 11-22 29-35 61-36"/><path id="af" fill="#3a414a" d="M185-189c-5-48-123-54-124 2 14 75 158 14 163 119 3 78-121 87-175 55-17-10-28-26-33-46l33-7c5 56 141 63 141-1 0-78-155-14-162-118-5-82 145-84 179-34 5 7 8 16 11 25"/><path id="ag" fill="#3a414a" d="M33-261c38 41 65 92 65 168S71 34 33 75H2C39 34 66-17 66-93S39-220 2-261z"/><path id="ah" fill="#333" d="M101-251c82-7 93 87 43 132L82-64C71-53 59-42 53-27h129V0H18c2-99 128-94 128-182 0-28-16-43-45-43s-46 15-49 41l-32-3c6-41 34-60 81-64"/><path id="ai" fill="#333" d="M110-160c48 1 74 30 74 79 0 53-28 85-80 85-65 0-83-55-86-122-5-90 50-162 133-122 14 7 22 21 27 39l-31 6c-5-40-67-38-82-6-9 19-15 44-15 74 11-20 30-34 60-33m-7 138c34 0 49-23 49-58s-16-56-50-56c-29 0-50 16-49 49 1 36 15 65 50 65"/><path id="aj" fill="#3a414a" d="M100-194c62-1 85 37 85 99 1 63-27 99-86 99S16-35 15-95c0-66 28-99 85-99M99-20c44 1 53-31 53-75 0-43-8-75-51-75s-53 32-53 75 10 74 51 75"/><path id="ak" fill="#3a414a" d="M115-194c55 1 70 41 70 98S169 2 115 4C84 4 66-9 55-30l1 105H24l-1-265h31l2 30c10-21 28-34 59-34m-8 174c40 0 45-34 45-75s-6-73-45-74c-42 0-51 32-51 76 0 43 10 73 51 73"/><path id="al" fill="#3a414a" d="M96-169c-40 0-48 33-48 73s9 75 48 75c24 0 41-14 43-38l32 2c-6 37-31 61-74 61-59 0-76-41-82-99-10-93 101-131 147-64 4 7 5 14 7 22l-32 3c-4-21-16-35-41-35"/><path id="am" fill="#3a414a" d="M84 4C-5 8 30-112 23-190h32v120c0 31 7 50 39 49 72-2 45-101 50-169h31l1 190h-30c-1-10 1-25-2-33-11 22-28 36-60 37"/><path id="an" fill="#333" d="M54-142c48-35 137-8 131 61C196 18 31 33 14-55l32-4c7 23 22 37 52 37 35-1 51-22 54-58 4-55-73-65-99-34H22l8-134h141v27H59"/><path id="ao" fill="#3a414a" d="M85-194c31 0 48 13 60 33l-1-100h32l1 261h-30c-2-10 0-23-3-31C134-8 116 4 85 4 32 4 16-35 15-94c0-66 23-100 70-100m9 24c-40 0-46 34-46 75 0 40 6 74 45 74 42 0 51-32 51-76 0-42-9-74-50-73"/><path id="ap" fill="#3a414a" d="M24-231v-30h32v30zM24 0v-190h32V0z"/><path id="aq" fill="#3a414a" d="M63-220v92h138v28H63V0H30v-248h175v28z"/><path id="ar" fill="#3a414a" d="M100-194c63 0 86 42 84 106H49c0 40 14 67 53 68 26 1 43-12 49-29l28 8c-11 28-37 45-77 45C44 4 14-33 15-96c1-61 26-98 85-98m52 81c6-60-76-77-97-28-3 7-6 17-6 28z"/><path id="as" fill="#3a414a" d="M114-163C36-179 61-72 57 0H25l-1-190h30c1 12-1 29 2 39 6-27 23-49 58-41z"/><path id="at" fill="#3a414a" d="M177-190C167-65 218 103 67 71c-23-6-38-20-44-43l32-5c15 47 100 32 89-28v-30C133-14 115 1 83 1 29 1 15-40 15-95c0-56 16-97 71-98 29-1 48 16 59 35 1-10 0-23 2-32zM94-22c36 0 50-32 50-73 0-42-14-75-50-75-39 0-46 34-46 75s6 73 46 73"/><path id="au" fill="#3a414a" d="M106-169C34-169 62-67 57 0H25v-261h32l-1 103c12-21 28-36 61-36 89 0 53 116 60 194h-32v-121c2-32-8-49-39-48"/><path id="av" fill="#3a414a" d="M210-169c-67 3-38 105-44 169h-31v-121c0-29-5-50-35-48C34-165 62-65 56 0H25l-1-190h30c1 10-1 24 2 32 10-44 99-50 107 0 11-21 27-35 58-36 85-2 47 119 55 194h-31v-121c0-29-5-49-35-48"/><path id="aw" fill="#fff" d="M266 0h-40l-56-210L115 0H75L2-248h35L96-30l15-64 43-154h32l59 218 59-218h35"/><path id="ax" fill="#fff" d="M100-194c63 0 86 42 84 106H49c0 40 14 67 53 68 26 1 43-12 49-29l28 8c-11 28-37 45-77 45C44 4 14-33 15-96c1-61 26-98 85-98m52 81c6-60-76-77-97-28-3 7-6 17-6 28z"/><path id="ay" fill="#fff" d="M115-194c53 0 69 39 70 98 0 66-23 100-70 100C84 3 66-7 56-30L54 0H23l1-261h32v101c10-23 28-34 59-34m-8 174c40 0 45-34 45-75 0-40-5-75-45-74-42 0-51 32-51 76 0 43 10 73 51 73"/><path id="az" fill="#fff" d="M114-163C36-179 61-72 57 0H25l-1-190h30c1 12-1 29 2 39 6-27 23-49 58-41z"/><path id="aA" fill="#fff" d="M100-194c62-1 85 37 85 99 1 63-27 99-86 99S16-35 15-95c0-66 28-99 85-99M99-20c44 1 53-31 53-75 0-43-8-75-51-75s-53 32-53 75 10 74 51 75"/><path id="aB" fill="#fff" d="M206 0h-36l-40-164L89 0H53L-1-190h32L70-26l43-164h34l41 164 42-164h31"/><path id="aC" fill="#fff" d="M135-143c-3-34-86-38-87 0 15 53 115 12 119 90S17 21 10-45l28-5c4 36 97 45 98 0-10-56-113-15-118-90-4-57 82-63 122-42 12 7 21 19 24 35"/><path id="aD" fill="#fff" d="M24-231v-30h32v30zM24 0v-190h32V0z"/><path id="aE" fill="#fff" d="M59-47c-2 24 18 29 38 22v24C64 9 27 4 27-40v-127H5v-23h24l9-43h21v43h35v23H59z"/><path id="aF" fill="#fff" d="M106-169C34-169 62-67 57 0H25v-261h32l-1 103c12-21 28-36 61-36 89 0 53 116 60 194h-32v-121c2-32-8-49-39-48"/><path id="aG" fill="#fff" d="M24 0v-261h32V0z"/><path id="aH" fill="#fff" d="M85-194c31 0 48 13 60 33l-1-100h32l1 261h-30c-2-10 0-23-3-31C134-8 116 4 85 4 32 4 16-35 15-94c0-66 23-100 70-100m9 24c-40 0-46 34-46 75 0 40 6 74 45 74 42 0 51-32 51-76 0-42-9-74-50-73"/><path id="aI" fill="#fff" d="M84 4C-5 8 30-112 23-190h32v120c0 31 7 50 39 49 72-2 45-101 50-169h31l1 190h-30c-1-10 1-25-2-33-11 22-28 36-60 37"/><path id="aJ" fill="#fff" d="M210-169c-67 3-38 105-44 169h-31v-121c0-29-5-50-35-48C34-165 62-65 56 0H25l-1-190h30c1 10-1 24 2 32 10-44 99-50 107 0 11-21 27-35 58-36 85-2 47 119 55 194h-31v-121c0-29-5-49-35-48"/><path id="aK" fill="#fff" d="M87 75C49 33 22-17 22-94c0-76 28-126 65-167h31c-38 41-64 92-64 168S80 34 118 75z"/><path id="aL" fill="#fff" d="M160-131c35 5 61 23 61 61C221 17 115-2 30 0v-248c76 3 177-17 177 60 0 33-19 50-47 57m-97-11c50-1 110 9 110-42 0-47-63-36-110-37zm0 115c55-2 124 14 124-45 0-56-70-42-124-44z"/><path id="aM" fill="#fff" d="M33-261c38 41 65 92 65 168S71 34 33 75H2C39 34 66-17 66-93S39-220 2-261z"/><path id="aN" fill="#3a414a" d="M24-248c93 1 206-16 204 79-1 75-69 88-152 82V0H24zm52 121c47 0 100 7 100-41 0-47-54-39-100-39z"/><path id="aO" fill="#3a414a" d="M133-34C117-15 103 5 69 4 32 3 11-16 11-54c-1-60 55-63 116-61 1-26-3-47-28-47-18 1-26 9-28 27l-52-2c7-38 36-58 82-57s74 22 75 68l1 82c-1 14 12 18 25 15v27c-30 8-71 5-69-32m-48 3c29 0 43-24 42-57-32 0-66-3-65 30 0 17 8 27 23 27"/><path id="aP" fill="#3a414a" d="M190-63c-7 42-38 67-86 67-59 0-84-38-90-98-12-110 154-137 174-36l-49 2c-2-19-15-32-35-32-30 0-35 28-38 64-6 74 65 87 74 30"/><path id="aQ" fill="#3a414a" d="M147 0 96-86 75-71V0H25v-261h50v150l67-79h53l-66 74L201 0z"/><path id="aR" fill="#3a414a" d="M182-130c37 4 62 22 62 59C244 23 116-4 24 0v-248c84 5 203-23 205 63 0 31-19 50-47 55M76-148c40-3 101 13 101-30 0-44-60-28-101-31zm0 110c48-3 116 14 116-37 0-48-69-32-116-35z"/><path id="aS" fill="#3a414a" d="M25 0v-261h50V0z"/><path id="aT" fill="#3a414a" d="M110-194c64 0 96 36 96 99 0 64-35 99-97 99-61 0-95-36-95-99 0-62 34-99 96-99m-1 164c35 0 45-28 45-65 0-40-10-65-43-65-34 0-45 26-45 65 0 36 10 65 43 65"/><path id="aU" fill="#3a414a" d="M101-251c68 0 84 54 84 127C185-50 166 4 99 4S15-52 14-124c-1-75 17-127 87-127m-1 216c37-5 36-46 36-89s4-89-36-89c-39 0-36 45-36 89 0 43-3 85 36 89"/><path id="aV" fill="#3a414a" d="m199 0-22-63H83L61 0H9l90-248h61L250 0zm-33-102-36-108c-10 38-24 72-36 108z"/><path id="aW" fill="#3a414a" d="M24-248c120-7 223 5 221 122C244-46 201 0 124 0H24zM76-40c74 7 117-18 117-86 0-67-45-88-117-82z"/><path id="aX" fill="#3a414a" d="M115-194c53 0 69 39 70 98 0 66-23 100-70 100C84 3 66-7 56-30L54 0H23l1-261h32v101c10-23 28-34 59-34m-8 174c40 0 45-34 45-75 0-40-5-75-45-74-42 0-51 32-51 76 0 43 10 73 51 73"/><path id="aY" fill="#3a414a" d="M143 0 79-87 56-68V0H24v-261h32v163l83-92h37l-77 82L181 0z"/><path id="aZ" fill="#3a414a" d="m205 0-28-72H64L36 0H1l101-248h38L239 0zm-38-99-47-123c-12 45-31 82-46 123z"/><path id="ba" fill="#333" d="M155-56V0h-30v-56H8v-25l114-167h33v167h35v25zm-30-156c-27 46-58 90-88 131h88z"/><path id="bb" fill="#3a414a" d="M179-190 93 31C79 59 56 82 12 73V49c39 6 53-20 64-50L1-190h34L92-34l54-156z"/><path id="bc" fill="#3a414a" d="M30 0v-248h187v28H63v79h144v27H63v87h162V0z"/><path id="bd" fill="#3a414a" d="M101-234c-31-9-42 10-38 44h38v23H63V0H32v-167H5v-23h27c-7-52 17-82 69-68z"/><path id="be" fill="#3a414a" d="M108 0H70L1-190h34L89-25l56-165h34"/><path id="bf" fill="#3a414a" d="M33 0v-248h34V0z"/><path id="bg" fill="#3a414a" d="M137 0h-34L2-248h35l83 218 83-218h36"/><g id="a"><use xlink:href="#Z" transform="scale(.08025)"/><use xlink:href="#aa" transform="translate(14.444)scale(.08025)"/><use xlink:href="#ab" transform="translate(30.494)scale(.08025)"/><use xlink:href="#ac" transform="translate(36.833)scale(.08025)"/></g><g id="b"><use xlink:href="#ad" transform="scale(.08025)"/><use xlink:href="#ae" transform="translate(9.55)scale(.08025)"/><use xlink:href="#af" transform="translate(25.599 4.044)scale(.05617)"/><use xlink:href="#ag" transform="translate(39.08)scale(.08025)"/></g><g id="c"><use xlink:href="#ah" transform="scale(.05556)"/><use xlink:href="#ai" transform="translate(11.111)scale(.05556)"/></g><g id="d"><use xlink:href="#ab" transform="scale(.08025)"/><use xlink:href="#aj" transform="translate(6.34)scale(.08025)"/><use xlink:href="#aj" transform="translate(22.389)scale(.08025)"/><use xlink:href="#ak" transform="translate(38.438)scale(.08025)"/></g><g id="e"><use xlink:href="#al" transform="scale(.08025)"/><use xlink:href="#aj" transform="translate(14.444)scale(.08025)"/><use xlink:href="#am" transform="translate(30.494)scale(.08025)"/><use xlink:href="#ae" transform="translate(46.543)scale(.08025)"/><use xlink:href="#ac" transform="translate(62.593)scale(.08025)"/></g><g id="f"><use xlink:href="#ad" transform="scale(.08025)"/><use xlink:href="#ab" transform="translate(9.55)scale(.08025)"/><use xlink:href="#ak" transform="translate(15.889)scale(.08025)"/><use xlink:href="#ag" transform="translate(31.938)scale(.08025)"/></g><g id="g"><use xlink:href="#ah" transform="scale(.05556)"/><use xlink:href="#an" transform="translate(11.111)scale(.05556)"/></g><g id="h"><use xlink:href="#aa" transform="scale(.08025)"/><use xlink:href="#ao" transform="translate(16.05)scale(.08025)"/><use xlink:href="#ao" transform="translate(32.099)scale(.08025)"/><use xlink:href="#ap" transform="translate(48.148)scale(.08025)"/><use xlink:href="#ac" transform="translate(54.488)scale(.08025)"/><use xlink:href="#ap" transform="translate(62.512)scale(.08025)"/><use xlink:href="#aj" transform="translate(68.852)scale(.08025)"/><use xlink:href="#ae" transform="translate(84.901)scale(.08025)"/><use xlink:href="#aa" transform="translate(100.95)scale(.08025)"/><use xlink:href="#ab" transform="translate(117)scale(.08025)"/></g><g id="i"><use xlink:href="#ao" transform="scale(.08025)"/><use xlink:href="#aa" transform="translate(16.05)scale(.08025)"/><use xlink:href="#ac" transform="translate(32.099)scale(.08025)"/><use xlink:href="#aa" transform="translate(40.123)scale(.08025)"/></g><g id="j"><use xlink:href="#ad" transform="scale(.08025)"/><use xlink:href="#aa" transform="translate(9.55)scale(.08025)"/><use xlink:href="#ao" transform="translate(25.599)scale(.08025)"/><use xlink:href="#aq" transform="translate(41.648 4.044)scale(.05617)"/><use xlink:href="#ag" transform="translate(53.95)scale(.08025)"/></g><g id="k"><use xlink:href="#ap" transform="scale(.08025)"/><use xlink:href="#ac" transform="translate(6.34)scale(.08025)"/><use xlink:href="#ar" transform="translate(14.364)scale(.08025)"/><use xlink:href="#as" transform="translate(30.414)scale(.08025)"/><use xlink:href="#aa" transform="translate(39.963)scale(.08025)"/><use xlink:href="#ac" transform="translate(56.012)scale(.08025)"/><use xlink:href="#ap" transform="translate(64.037)scale(.08025)"/><use xlink:href="#aj" transform="translate(70.377)scale(.08025)"/><use xlink:href="#ae" transform="translate(86.426)scale(.08025)"/></g><g id="l"><use xlink:href="#al" transform="scale(.08025)"/><use xlink:href="#aj" transform="translate(14.444)scale(.08025)"/><use xlink:href="#am" transform="translate(30.494)scale(.08025)"/><use xlink:href="#ae" transform="translate(46.543)scale(.08025)"/><use xlink:href="#ac" transform="translate(62.593)scale(.08025)"/></g><g id="m"><use xlink:href="#ad" transform="scale(.08025)"/><use xlink:href="#ap" transform="translate(9.55)scale(.08025)"/><use xlink:href="#ag" transform="translate(15.889)scale(.08025)"/></g><g id="n"><use xlink:href="#aa" transform="scale(.08025)"/><use xlink:href="#ab" transform="translate(16.05)scale(.08025)"/><use xlink:href="#at" transform="translate(22.389)scale(.08025)"/><use xlink:href="#aj" transform="translate(38.438)scale(.08025)"/><use xlink:href="#as" transform="translate(54.488)scale(.08025)"/><use xlink:href="#ap" transform="translate(64.037)scale(.08025)"/><use xlink:href="#ac" transform="translate(70.377)scale(.08025)"/><use xlink:href="#au" transform="translate(78.401)scale(.08025)"/><use xlink:href="#av" transform="translate(94.45)scale(.08025)"/></g><g id="o"><use xlink:href="#ad" transform="scale(.08025)"/><use xlink:href="#aa" transform="translate(9.55)scale(.08025)"/><use xlink:href="#ag" transform="translate(25.599)scale(.08025)"/></g><g id="p"><use xlink:href="#aw" transform="scale(.08025)"/><use xlink:href="#ax" transform="translate(26.642)scale(.08025)"/><use xlink:href="#ay" transform="translate(42.691)scale(.08025)"/></g><g id="q"><use xlink:href="#ay" transform="scale(.08025)"/><use xlink:href="#az" transform="translate(16.05)scale(.08025)"/><use xlink:href="#aA" transform="translate(25.599)scale(.08025)"/><use xlink:href="#aB" transform="translate(41.648)scale(.08025)"/><use xlink:href="#aC" transform="translate(62.432)scale(.08025)"/><use xlink:href="#ax" transform="translate(76.877)scale(.08025)"/><use xlink:href="#az" transform="translate(92.926)scale(.08025)"/></g><g id="r"><use xlink:href="#aB" transform="scale(.08025)"/><use xlink:href="#aD" transform="translate(20.784)scale(.08025)"/><use xlink:href="#aE" transform="translate(27.123)scale(.08025)"/><use xlink:href="#aF" transform="translate(35.148)scale(.08025)"/></g><g id="s"><use xlink:href="#aG" transform="scale(.08025)"/><use xlink:href="#aD" transform="translate(6.34)scale(.08025)"/><use xlink:href="#ay" transform="translate(12.679)scale(.08025)"/><use xlink:href="#aC" transform="translate(28.728)scale(.08025)"/><use xlink:href="#aA" transform="translate(43.173)scale(.08025)"/><use xlink:href="#aH" transform="translate(59.222)scale(.08025)"/><use xlink:href="#aD" transform="translate(75.272)scale(.08025)"/><use xlink:href="#aI" transform="translate(81.611)scale(.08025)"/><use xlink:href="#aJ" transform="translate(97.66)scale(.08025)"/></g><g id="t"><use xlink:href="#aK" transform="scale(.08025)"/><use xlink:href="#aL" transform="translate(9.55)scale(.08025)"/><use xlink:href="#aM" transform="translate(28.809)scale(.08025)"/></g><g id="u"><use xlink:href="#aN" transform="scale(.09877)"/><use xlink:href="#aO" transform="translate(23.704)scale(.09877)"/><use xlink:href="#aP" transform="translate(43.457)scale(.09877)"/><use xlink:href="#aQ" transform="translate(63.21)scale(.09877)"/></g><g id="v"><use xlink:href="#aR" transform="scale(.09877)"/><use xlink:href="#aS" transform="translate(25.58)scale(.09877)"/><use xlink:href="#aT" transform="translate(35.457)scale(.09877)"/><use xlink:href="#aP" transform="translate(57.086)scale(.09877)"/><use xlink:href="#aQ" transform="translate(76.84)scale(.09877)"/></g><g id="x"><use xlink:href="#aV" transform="scale(.09877)"/><use xlink:href="#aW" transform="translate(25.58)scale(.09877)"/></g><g id="y"><use xlink:href="#am" transform="scale(.08025)"/><use xlink:href="#Z" transform="translate(16.05)scale(.08025)"/><use xlink:href="#ar" transform="translate(30.494)scale(.08025)"/><use xlink:href="#as" transform="translate(46.543)scale(.08025)"/></g><g id="z"><use xlink:href="#ap" transform="scale(.08025)"/><use xlink:href="#ae" transform="translate(6.34)scale(.08025)"/><use xlink:href="#ak" transform="translate(22.389)scale(.08025)"/><use xlink:href="#am" transform="translate(38.438)scale(.08025)"/><use xlink:href="#ac" transform="translate(54.488)scale(.08025)"/></g><g id="A"><use xlink:href="#aj" transform="scale(.08025)"/><use xlink:href="#am" transform="translate(16.05)scale(.08025)"/><use xlink:href="#ac" transform="translate(32.099)scale(.08025)"/><use xlink:href="#ak" transform="translate(40.123)scale(.08025)"/><use xlink:href="#am" transform="translate(56.173)scale(.08025)"/><use xlink:href="#ac" transform="translate(72.222)scale(.08025)"/></g><g id="B"><use xlink:href="#aj" transform="scale(.08025)"/><use xlink:href="#ac" transform="translate(16.05)scale(.08025)"/><use xlink:href="#au" transform="translate(24.074)scale(.08025)"/><use xlink:href="#ar" transform="translate(40.123)scale(.08025)"/><use xlink:href="#as" transform="translate(56.173)scale(.08025)"/></g><g id="C"><use xlink:href="#ao" transform="scale(.08025)"/><use xlink:href="#aa" transform="translate(16.05)scale(.08025)"/><use xlink:href="#ac" transform="translate(32.099)scale(.08025)"/><use xlink:href="#aa" transform="translate(40.123)scale(.08025)"/></g><g id="D"><use xlink:href="#Z" transform="scale(.08025)"/><use xlink:href="#am" transform="translate(14.444)scale(.08025)"/><use xlink:href="#aX" transform="translate(30.494)scale(.08025)"/><use xlink:href="#ak" transform="translate(46.543)scale(.08025)"/><use xlink:href="#as" transform="translate(62.593)scale(.08025)"/><use xlink:href="#aj" transform="translate(72.142)scale(.08025)"/><use xlink:href="#al" transform="translate(88.191)scale(.08025)"/><use xlink:href="#ar" transform="translate(102.636)scale(.08025)"/><use xlink:href="#Z" transform="translate(118.685)scale(.08025)"/><use xlink:href="#Z" transform="translate(133.13)scale(.08025)"/></g><g id="E"><use xlink:href="#ap" transform="scale(.08025)"/><use xlink:href="#ae" transform="translate(6.34)scale(.08025)"/><use xlink:href="#ak" transform="translate(22.389)scale(.08025)"/><use xlink:href="#am" transform="translate(38.438)scale(.08025)"/><use xlink:href="#ac" transform="translate(54.488)scale(.08025)"/></g><g id="F"><use xlink:href="#ad" transform="scale(.08025)"/><use xlink:href="#ab" transform="translate(9.55)scale(.08025)"/><use xlink:href="#ap" transform="translate(15.889)scale(.08025)"/><use xlink:href="#ae" transform="translate(22.228)scale(.08025)"/><use xlink:href="#aY" transform="translate(38.278)scale(.08025)"/><use xlink:href="#ag" transform="translate(52.722)scale(.08025)"/></g><g id="H"><use xlink:href="#aj" transform="scale(.08025)"/><use xlink:href="#am" transform="translate(16.05)scale(.08025)"/><use xlink:href="#ac" transform="translate(32.099)scale(.08025)"/><use xlink:href="#ak" transform="translate(40.123)scale(.08025)"/><use xlink:href="#am" transform="translate(56.173)scale(.08025)"/><use xlink:href="#ac" transform="translate(72.222)scale(.08025)"/></g><g id="I"><use xlink:href="#ad" transform="scale(.08025)"/><use xlink:href="#aZ" transform="translate(9.55)scale(.08025)"/><use xlink:href="#ag" transform="translate(28.809)scale(.08025)"/></g><g id="J"><use xlink:href="#ar" transform="scale(.08025)"/><use xlink:href="#ae" transform="translate(16.05)scale(.08025)"/><use xlink:href="#ao" transform="translate(32.099)scale(.08025)"/></g><g id="K"><use xlink:href="#ad" transform="scale(.08025)"/><use xlink:href="#ab" transform="translate(9.55)scale(.08025)"/><use xlink:href="#ar" transform="translate(15.889)scale(.08025)"/><use xlink:href="#ag" transform="translate(31.938)scale(.08025)"/></g><g id="M"><use xlink:href="#ar" transform="scale(.08025)"/><use xlink:href="#ae" transform="translate(16.05)scale(.08025)"/><use xlink:href="#al" transform="translate(32.099)scale(.08025)"/><use xlink:href="#as" transform="translate(46.543)scale(.08025)"/><use xlink:href="#bb" transform="translate(56.093)scale(.08025)"/><use xlink:href="#ak" transform="translate(70.537)scale(.08025)"/><use xlink:href="#ac" transform="translate(86.586)scale(.08025)"/><use xlink:href="#ar" transform="translate(94.611)scale(.08025)"/><use xlink:href="#ao" transform="translate(110.66)scale(.08025)"/></g><g id="N"><use xlink:href="#au" transform="scale(.08025)"/><use xlink:href="#ap" transform="translate(16.05)scale(.08025)"/><use xlink:href="#ae" transform="translate(22.389)scale(.08025)"/><use xlink:href="#ac" transform="translate(38.438)scale(.08025)"/></g><g id="O"><use xlink:href="#ad" transform="scale(.08025)"/><use xlink:href="#au" transform="translate(9.55)scale(.08025)"/><use xlink:href="#bc" transform="translate(25.599 4.044)scale(.05617)"/><use xlink:href="#ag" transform="translate(39.08)scale(.08025)"/></g><g id="P"><use xlink:href="#au" transform="scale(.08025)"/><use xlink:href="#ap" transform="translate(16.05)scale(.08025)"/><use xlink:href="#ae" transform="translate(22.389)scale(.08025)"/><use xlink:href="#ac" transform="translate(38.438)scale(.08025)"/></g><g id="Q"><use xlink:href="#ar" transform="scale(.08025)"/><use xlink:href="#ae" transform="translate(16.05)scale(.08025)"/><use xlink:href="#al" transform="translate(32.099)scale(.08025)"/></g><g id="R"><use xlink:href="#ab" transform="scale(.08025)"/><use xlink:href="#ar" transform="translate(6.34)scale(.08025)"/><use xlink:href="#ae" transform="translate(22.389)scale(.08025)"/><use xlink:href="#at" transform="translate(38.438)scale(.08025)"/><use xlink:href="#ac" transform="translate(54.488)scale(.08025)"/><use xlink:href="#au" transform="translate(62.512)scale(.08025)"/></g><g id="S"><use xlink:href="#ad" transform="scale(.08025)"/><use xlink:href="#au" transform="translate(9.55)scale(.08025)"/><use xlink:href="#bc" transform="translate(25.599 4.044)scale(.05617)"/><use xlink:href="#ab" transform="translate(39.08)scale(.08025)"/><use xlink:href="#ag" transform="translate(45.42)scale(.08025)"/></g><g id="T"><use xlink:href="#ac" transform="scale(.08025)"/><use xlink:href="#ar" transform="translate(8.025)scale(.08025)"/><use xlink:href="#as" transform="translate(24.074)scale(.08025)"/><use xlink:href="#av" transform="translate(33.623)scale(.08025)"/></g><g id="U"><use xlink:href="#bd" transform="scale(.08025)"/><use xlink:href="#ab" transform="translate(8.025)scale(.08025)"/><use xlink:href="#aa" transform="translate(14.364)scale(.08025)"/><use xlink:href="#at" transform="translate(30.414)scale(.08025)"/></g><g id="V"><use xlink:href="#ad" transform="scale(.08025)"/><use xlink:href="#bd" transform="translate(9.55)scale(.08025)"/><use xlink:href="#ag" transform="translate(17.574)scale(.08025)"/></g><g id="W"><use xlink:href="#ap" transform="scale(.08025)"/><use xlink:href="#ae" transform="translate(6.34)scale(.08025)"/><use xlink:href="#ap" transform="translate(22.389)scale(.08025)"/><use xlink:href="#ac" transform="translate(28.728)scale(.08025)"/></g><g id="X"><use xlink:href="#be" transform="scale(.08025)"/><use xlink:href="#ar" transform="translate(14.444)scale(.08025)"/><use xlink:href="#al" transform="translate(30.494)scale(.08025)"/><use xlink:href="#ac" transform="translate(44.938)scale(.08025)"/><use xlink:href="#aj" transform="translate(52.963)scale(.08025)"/><use xlink:href="#as" transform="translate(69.012)scale(.08025)"/></g><g id="Y"><use xlink:href="#ad" transform="scale(.08025)"/><use xlink:href="#ae" transform="translate(9.55)scale(.08025)"/><use xlink:href="#bf" transform="translate(25.599 4.044)scale(.05617)"/><use xlink:href="#bg" transform="translate(31.216 4.044)scale(.05617)"/><use xlink:href="#ag" transform="translate(44.698)scale(.08025)"/></g><use xlink:href="#aU" id="w" transform="scale(.09877)"/><use xlink:href="#ba" id="L" transform="scale(.05556)"/></defs></g></svg>