<svg xmlns="http://www.w3.org/2000/svg" xmlns:lucid="lucid" xmlns:xlink="http://www.w3.org/1999/xlink" width="1524" height="1287" viewBox="0 0 1524 1287"><g lucid:page-tab-id="OwB0BA3-xFTP" transform="translate(-78 1060)"><path fill="none" stroke="#008a0e" stroke-width="4" d="M120-788a12 12 0 0 1 12-12h1416a12 12 0 0 1 12 12V28a12 12 0 0 1-12 12H132a12 12 0 0 1-12-12z"/><path fill="#979ea8" stroke="#979ea8" stroke-width=".05" d="M670.98-199H669v-15.67h2zm0-39.67H669v-19.77h2z"/><path fill="#979ea8" d="M670.98-258.42H669v-1.5l.98.48.98-.5zm-.98 74.68L665.37-198h9.26z"/><path fill="#979ea8" stroke="#979ea8" stroke-width=".05" d="m670-180.58-5.98-18.4h11.96zm-3.3-16.45 3.3 10.14 3.3-10.13z"/><use xlink:href="#a" transform="translate(658.894 -222.667)"/><path fill="#979ea8" stroke="#979ea8" stroke-width=".05" d="m633.37-400.98 1.05.1 1.07.24 1 .42.93.58.84.7.7.84.58.93.42 1 .25 1.08.1 1.06V-319h-1.96v-74.96l-.07-.83-.2-.75-.3-.73-.4-.67-.52-.6-.6-.5-.67-.43-.72-.3-.76-.18-.83-.06h-99.22v-1.96zm-222.33-4.23.18.75.3.73.42.67.5.6.6.5.68.43.73.3.76.18.84.06h95.82v1.96h-95.9l-1.05-.1-1.06-.24-1-.42-.94-.58-.83-.7-.7-.84-.6-.93-.4-1-.26-1.08-.08-1.06v-52.54h1.96v52.46z"/><path fill="#979ea8" d="M410.98-458.47h-1.96v-1.03h1.96zm228.35 154.73L634.7-318h9.27z"/><path fill="#979ea8" stroke="#979ea8" stroke-width=".05" d="m639.33-300.58-5.97-18.4h11.95zm-3.3-16.45 3.3 10.14 3.3-10.13z"/><use xlink:href="#b" transform="translate(511.86 -396)"/><path fill="#ffcf99" stroke="#3a414a" d="M581.33-180H780l-21.33 80H560z"/><use xlink:href="#c" transform="translate(580.736 -151.057)"/><use xlink:href="#d" transform="translate(712.1 -151.057)"/><use xlink:href="#e" transform="translate(633.755 -116.39)"/><path fill="none" stroke="#1071e5" d="M590-300h160l-80 40z"/><path fill="#f4d9ff" stroke="#3a414a" d="M581.33-540H780l-21.33 80H560z" class="qc-clickable" data-target="06"/><use xlink:href="#f" transform="translate(615.283 -511.057)"/><use xlink:href="#g" transform="translate(647.93 -476.39)"/><path fill="#008a0e" d="M120-788a12 12 0 0 1 12-12h416a12 12 0 0 1 12 12v39.33a12 12 0 0 1-12 12H132a12 12 0 0 1-12-12z"/><use xlink:href="#h" transform="translate(137.738 -762.186)"/><use xlink:href="#i" transform="translate(204.503 -762.186)"/><use xlink:href="#j" transform="translate(315.003 -762.186)"/><use xlink:href="#k" transform="translate(374.225 -762.186)"/><use xlink:href="#l" transform="translate(503.904 -762.186)"/><path fill="#dfe3e8" d="M120-1002.45a17.55 17.55 0 0 1 17.55-17.55h184.9a17.55 17.55 0 0 1 17.55 17.55v140.4a17.55 17.55 0 0 1-17.55 17.55h-184.9A17.55 17.55 0 0 1 120-862.05z"/><use xlink:href="#m" transform="translate(140 -967.556)"/><use xlink:href="#n" transform="translate(140 -924.889)"/><use xlink:href="#o" transform="translate(246.47 -924.889)"/><use xlink:href="#p" transform="translate(140 -882.222)"/><path fill="#979ea8" stroke="#979ea8" stroke-width=".05" d="M670.98-319H669v-80.25h2zm0-104.25H669v-35.25h2z"/><path fill="#979ea8" d="M670.98-458.47H669v-1.03h2zM670-303.74 665.37-318h9.26z"/><path fill="#979ea8" stroke="#979ea8" stroke-width=".05" d="m670-300.58-5.98-18.4h11.96zm-3.3-16.45 3.3 10.14 3.3-10.13z"/><use xlink:href="#b" transform="translate(658.894 -407.255)"/><path fill="#cfe682" stroke="#3a414a" d="M127.73 65h51.44l-7.74 29H120z"/><path fill="#cfe4ff" stroke="#3a414a" d="M127.73 161.5h51.44l-7.74 29H120z"/><path fill="#fff7a1" stroke="#3a414a" d="M127.73 113.25h51.44l-7.74 29H120z"/><path fill="none" d="M200 60h225.93v38.67H200z"/><use xlink:href="#q" transform="translate(205 88.564)"/><use xlink:href="#r" transform="translate(269.117 88.564)"/><path fill="none" d="M200 108.5h240v38.67H200z"/><use xlink:href="#q" transform="translate(205 137.064)"/><use xlink:href="#s" transform="translate(269.117 137.064)"/><path fill="none" d="M200 157.67h240v38.66H200z"/><use xlink:href="#t" transform="translate(205 186.23)"/><use xlink:href="#u" transform="translate(278.747 186.23)"/><path fill="#f4d9ff" stroke="#3a414a" d="M507.73 68.83h51.44l-7.74 29H500z"/><path fill="none" d="M580 65h340v36.67H580z"/><use xlink:href="#v" transform="translate(585 93.111)"/><use xlink:href="#w" transform="translate(740.599 93.111)"/><use xlink:href="#x" transform="translate(811.136 93.111)"/><use xlink:href="#y" transform="translate(585 127.778)"/><path fill="#ffcf99" stroke="#3a414a" d="M507.73 117.08h51.44l-7.74 29H500z"/><path fill="none" d="M580 113.25h260v36.67H580z"/><use xlink:href="#v" transform="translate(585 141.361)"/><use xlink:href="#z" transform="translate(740.599 141.361)"/><use xlink:href="#y" transform="translate(585 176.028)"/><path fill="#979ea8" stroke="#979ea8" stroke-width=".05" d="M784.9-399.02h-76.86l-.83.06-.75.18-.73.3-.67.42-.6.5-.5.6-.43.68-.3.73-.18.76-.06.84V-319H701v-75.04l.1-1.05.24-1.06.42-1 .58-.94.7-.83.84-.7.93-.6 1-.4 1.08-.26 1.06-.08h76.93zm146.08-6.94-.1 1.05-.24 1.06-.42 1-.58.94-.7.83-.84.7-.93.6-1 .4-1.08.26-1.06.08H807.1V-401h116.86l.83-.06.75-.18.73-.3.67-.42.6-.5.5-.6.43-.68.3-.73.18-.76.06-.84v-52.46H931z"/><path fill="#979ea8" d="M930.98-458.47H929v-1.03h2zM702-303.74 697.37-318h9.26z"/><path fill="#979ea8" stroke="#979ea8" stroke-width=".05" d="m702-300.58-5.98-18.4h11.96zm-3.3-16.45 3.3 10.14 3.3-10.13z"/><use xlink:href="#b" transform="translate(784.894 -396)"/><path fill="#cfe4ff" stroke="#3a414a" d="M321.33-540H520l-21.33 80H300z"/><use xlink:href="#A" transform="translate(358.453 -511.057)"/><use xlink:href="#B" transform="translate(424.095 -511.057)"/><use xlink:href="#C" transform="translate(391.943 -476.39)"/><path fill="#cfe4ff" stroke="#3a414a" d="M841.33-540H1040l-21.33 80H820z"/><use xlink:href="#D" transform="translate(872.835 -511.057)"/><use xlink:href="#E" transform="translate(917.613 -511.057)"/><use xlink:href="#F" transform="translate(898.382 -476.39)"/><path fill="#cfe682" stroke="#3a414a" d="M708.73-496h51.44l-7.74 29H701z"/><path fill="#cfe4ff" stroke="#3a414a" d="M841.33-700H1040l-21.33 80H820z"/><use xlink:href="#G" transform="translate(853.536 -671.057)"/><use xlink:href="#H" transform="translate(959.301 -671.057)"/><use xlink:href="#I" transform="translate(911.18 -636.39)"/><path fill="#979ea8" stroke="#979ea8" stroke-width=".05" d="M930.98-559H929v-15.67h2zm0-39.67H929v-19.83h2z"/><path fill="#979ea8" d="M930.98-618.47H929v-1.03h2zm-.98 74.73L925.37-558h9.26z"/><path fill="#979ea8" stroke="#979ea8" stroke-width=".05" d="m930-540.58-5.98-18.4h11.96zm-3.3-16.45 3.3 10.14 3.3-10.13z"/><use xlink:href="#J" transform="translate(918.894 -582.667)"/><path fill="#fff" stroke="#3a414a" d="M1129.85-700.5a12 12 0 0 1 12-12h196a12 12 0 0 1 12 12v76a12 12 0 0 1-12 12h-196a12 12 0 0 1-12-12z"/><path fill="none" d="M1129.85-712.5h220v40h-220z"/><use xlink:href="#K" transform="translate(1193.06 -687.847)"/><path fill="none" stroke="#3a414a" stroke-width="2" d="M1130.85-672.5h218.5m-218.47 0h-1.03m219.48 0h1.02"/><path fill="none" d="M1129.85-674.17h220v63.34h-220z"/><use xlink:href="#L" transform="translate(1154.11 -650.967)"/><use xlink:href="#M" transform="translate(1223.863 -624.3)"/><path fill="#979ea8" stroke="#979ea8" stroke-width=".05" d="M1074.48-659.02h-26.13V-661h26.13zm54.37-.34h-32.15v-1.95h32.15z"/><path fill="#979ea8" d="M1129.85-659.36h-1.02v-1.95h1.02zm-82.5 3.99L1033.1-660l14.25-4.63z"/><path fill="#979ea8" stroke="#979ea8" stroke-width=".05" d="m1048.33-654.02-18.4-5.98 18.4-5.98zm-12.1-5.98 10.15 3.3v-6.6z"/><use xlink:href="#N" transform="translate(1074.486 -656.333)"/><defs><path id="O" fill="#333" d="M155-56V0h-30v-56H8v-25l114-167h33v167h35v25zm-30-156c-27 46-58 90-88 131h88z"/><path id="P" fill="#333" d="M101-251c82-7 93 87 43 132L82-64C71-53 59-42 53-27h129V0H18c2-99 128-94 128-182 0-28-16-43-45-43s-46 15-49 41l-32-3c6-41 34-60 81-64"/><path id="Q" fill="#333" d="M27 0v-27h64v-190l-56 39v-29l58-41h29v221h61V0z"/><path id="R" fill="#3a414a" d="M141-36C126-15 110 5 73 4 37 3 15-17 15-53c-1-64 63-63 125-63 3-35-9-54-41-54-24 1-41 7-42 31l-33-3c5-37 33-52 76-52 45 0 72 20 72 64v82c-1 20 7 32 28 27v20c-31 9-61-2-59-35M48-53c0 20 12 33 32 33 41-3 63-29 60-74-43 2-92-5-92 41"/><path id="S" fill="#3a414a" d="M85-194c31 0 48 13 60 33l-1-100h32l1 261h-30c-2-10 0-23-3-31C134-8 116 4 85 4 32 4 16-35 15-94c0-66 23-100 70-100m9 24c-40 0-46 34-46 75 0 40 6 74 45 74 42 0 51-32 51-76 0-42-9-74-50-73"/><path id="T" fill="#3a414a" d="M24-231v-30h32v30zM24 0v-190h32V0z"/><path id="U" fill="#3a414a" d="M59-47c-2 24 18 29 38 22v24C64 9 27 4 27-40v-127H5v-23h24l9-43h21v43h35v23H59z"/><path id="V" fill="#3a414a" d="M100-194c62-1 85 37 85 99 1 63-27 99-86 99S16-35 15-95c0-66 28-99 85-99M99-20c44 1 53-31 53-75 0-43-8-75-51-75s-53 32-53 75 10 74 51 75"/><path id="W" fill="#3a414a" d="M117-194c89-4 53 116 60 194h-32v-121c0-31-8-49-39-48C34-167 62-67 57 0H25l-1-190h30c1 10-1 24 2 32 11-22 29-35 61-36"/><path id="X" fill="#3a414a" d="M24 0v-261h32V0z"/><path id="Y" fill="#3a414a" d="M87 75C49 33 22-17 22-94c0-76 28-126 65-167h31c-38 41-64 92-64 168S80 34 118 75z"/><path id="Z" fill="#3a414a" d="M63-220v92h138v28H63V0H30v-248h175v28z"/><path id="aa" fill="#3a414a" d="M33-261c38 41 65 92 65 168S71 34 33 75H2C39 34 66-17 66-93S39-220 2-261z"/><path id="ab" fill="#3a414a" d="M177-190C167-65 218 103 67 71c-23-6-38-20-44-43l32-5c15 47 100 32 89-28v-30C133-14 115 1 83 1 29 1 15-40 15-95c0-56 16-97 71-98 29-1 48 16 59 35 1-10 0-23 2-32zM94-22c36 0 50-32 50-73 0-42-14-75-50-75-39 0-46 34-46 75s6 73 46 73"/><path id="ac" fill="#3a414a" d="M114-163C36-179 61-72 57 0H25l-1-190h30c1 12-1 29 2 39 6-27 23-49 58-41z"/><path id="ad" fill="#3a414a" d="M106-169C34-169 62-67 57 0H25v-261h32l-1 103c12-21 28-36 61-36 89 0 53 116 60 194h-32v-121c2-32-8-49-39-48"/><path id="ae" fill="#3a414a" d="M210-169c-67 3-38 105-44 169h-31v-121c0-29-5-50-35-48C34-165 62-65 56 0H25l-1-190h30c1 10-1 24 2 32 10-44 99-50 107 0 11-21 27-35 58-36 85-2 47 119 55 194h-31v-121c0-29-5-49-35-48"/><path id="af" fill="#fff" d="M266 0h-40l-56-210L115 0H75L2-248h35L96-30l15-64 43-154h32l59 218 59-218h35"/><path id="ag" fill="#fff" d="M100-194c63 0 86 42 84 106H49c0 40 14 67 53 68 26 1 43-12 49-29l28 8c-11 28-37 45-77 45C44 4 14-33 15-96c1-61 26-98 85-98m52 81c6-60-76-77-97-28-3 7-6 17-6 28z"/><path id="ah" fill="#fff" d="M115-194c53 0 69 39 70 98 0 66-23 100-70 100C84 3 66-7 56-30L54 0H23l1-261h32v101c10-23 28-34 59-34m-8 174c40 0 45-34 45-75 0-40-5-75-45-74-42 0-51 32-51 76 0 43 10 73 51 73"/><path id="ai" fill="#fff" d="M114-163C36-179 61-72 57 0H25l-1-190h30c1 12-1 29 2 39 6-27 23-49 58-41z"/><path id="aj" fill="#fff" d="M100-194c62-1 85 37 85 99 1 63-27 99-86 99S16-35 15-95c0-66 28-99 85-99M99-20c44 1 53-31 53-75 0-43-8-75-51-75s-53 32-53 75 10 74 51 75"/><path id="ak" fill="#fff" d="M206 0h-36l-40-164L89 0H53L-1-190h32L70-26l43-164h34l41 164 42-164h31"/><path id="al" fill="#fff" d="M135-143c-3-34-86-38-87 0 15 53 115 12 119 90S17 21 10-45l28-5c4 36 97 45 98 0-10-56-113-15-118-90-4-57 82-63 122-42 12 7 21 19 24 35"/><path id="am" fill="#fff" d="M24-231v-30h32v30zM24 0v-190h32V0z"/><path id="an" fill="#fff" d="M59-47c-2 24 18 29 38 22v24C64 9 27 4 27-40v-127H5v-23h24l9-43h21v43h35v23H59z"/><path id="ao" fill="#fff" d="M106-169C34-169 62-67 57 0H25v-261h32l-1 103c12-21 28-36 61-36 89 0 53 116 60 194h-32v-121c2-32-8-49-39-48"/><path id="ap" fill="#fff" d="M24 0v-261h32V0z"/><path id="aq" fill="#fff" d="M85-194c31 0 48 13 60 33l-1-100h32l1 261h-30c-2-10 0-23-3-31C134-8 116 4 85 4 32 4 16-35 15-94c0-66 23-100 70-100m9 24c-40 0-46 34-46 75 0 40 6 74 45 74 42 0 51-32 51-76 0-42-9-74-50-73"/><path id="ar" fill="#fff" d="M84 4C-5 8 30-112 23-190h32v120c0 31 7 50 39 49 72-2 45-101 50-169h31l1 190h-30c-1-10 1-25-2-33-11 22-28 36-60 37"/><path id="as" fill="#fff" d="M210-169c-67 3-38 105-44 169h-31v-121c0-29-5-50-35-48C34-165 62-65 56 0H25l-1-190h30c1 10-1 24 2 32 10-44 99-50 107 0 11-21 27-35 58-36 85-2 47 119 55 194h-31v-121c0-29-5-49-35-48"/><path id="at" fill="#fff" d="M87 75C49 33 22-17 22-94c0-76 28-126 65-167h31c-38 41-64 92-64 168S80 34 118 75z"/><path id="au" fill="#fff" d="M160-131c35 5 61 23 61 61C221 17 115-2 30 0v-248c76 3 177-17 177 60 0 33-19 50-47 57m-97-11c50-1 110 9 110-42 0-47-63-36-110-37zm0 115c55-2 124 14 124-45 0-56-70-42-124-44z"/><path id="av" fill="#fff" d="M33-261c38 41 65 92 65 168S71 34 33 75H2C39 34 66-17 66-93S39-220 2-261z"/><path id="aw" fill="#3a414a" d="M24-248c93 1 206-16 204 79-1 75-69 88-152 82V0H24zm52 121c47 0 100 7 100-41 0-47-54-39-100-39z"/><path id="ax" fill="#3a414a" d="M133-34C117-15 103 5 69 4 32 3 11-16 11-54c-1-60 55-63 116-61 1-26-3-47-28-47-18 1-26 9-28 27l-52-2c7-38 36-58 82-57s74 22 75 68l1 82c-1 14 12 18 25 15v27c-30 8-71 5-69-32m-48 3c29 0 43-24 42-57-32 0-66-3-65 30 0 17 8 27 23 27"/><path id="ay" fill="#3a414a" d="M190-63c-7 42-38 67-86 67-59 0-84-38-90-98-12-110 154-137 174-36l-49 2c-2-19-15-32-35-32-30 0-35 28-38 64-6 74 65 87 74 30"/><path id="az" fill="#3a414a" d="M147 0 96-86 75-71V0H25v-261h50v150l67-79h53l-66 74L201 0z"/><path id="aA" fill="#3a414a" d="M182-130c37 4 62 22 62 59C244 23 116-4 24 0v-248c84 5 203-23 205 63 0 31-19 50-47 55M76-148c40-3 101 13 101-30 0-44-60-28-101-31zm0 110c48-3 116 14 116-37 0-48-69-32-116-35z"/><path id="aB" fill="#3a414a" d="M25 0v-261h50V0z"/><path id="aC" fill="#3a414a" d="M110-194c64 0 96 36 96 99 0 64-35 99-97 99-61 0-95-36-95-99 0-62 34-99 96-99m-1 164c35 0 45-28 45-65 0-40-10-65-43-65-34 0-45 26-45 65 0 36 10 65 43 65"/><path id="aD" fill="#3a414a" d="M175 0 67-191c6 58 2 128 3 191H24v-248h59L193-55c-6-58-2-129-3-193h46V0z"/><path id="aE" fill="#3a414a" d="m199 0-22-63H83L61 0H9l90-248h61L250 0zm-33-102-36-108c-10 38-24 72-36 108z"/><path id="aF" fill="#3a414a" d="M24-248c120-7 223 5 221 122C244-46 201 0 124 0H24zM76-40c74 7 117-18 117-86 0-67-45-88-117-82z"/><path id="aG" fill="#3a414a" d="M84 4C-5 8 30-112 23-190h32v120c0 31 7 50 39 49 72-2 45-101 50-169h31l1 190h-30c-1-10 1-25-2-33-11 22-28 36-60 37"/><path id="aH" fill="#3a414a" d="M135-143c-3-34-86-38-87 0 15 53 115 12 119 90S17 21 10-45l28-5c4 36 97 45 98 0-10-56-113-15-118-90-4-57 82-63 122-42 12 7 21 19 24 35"/><path id="aI" fill="#3a414a" d="M100-194c63 0 86 42 84 106H49c0 40 14 67 53 68 26 1 43-12 49-29l28 8c-11 28-37 45-77 45C44 4 14-33 15-96c1-61 26-98 85-98m52 81c6-60-76-77-97-28-3 7-6 17-6 28z"/><path id="aJ" fill="#3a414a" d="M115-194c55 1 70 41 70 98S169 2 115 4C84 4 66-9 55-30l1 105H24l-1-265h31l2 30c10-21 28-34 59-34m-8 174c40 0 45-34 45-75s-6-73-45-74c-42 0-51 32-51 76 0 43 10 73 51 73"/><path id="aK" fill="#3a414a" d="M115-194c53 0 69 39 70 98 0 66-23 100-70 100C84 3 66-7 56-30L54 0H23l1-261h32v101c10-23 28-34 59-34m-8 174c40 0 45-34 45-75 0-40-5-75-45-74-42 0-51 32-51 76 0 43 10 73 51 73"/><path id="aL" fill="#3a414a" d="M96-169c-40 0-48 33-48 73s9 75 48 75c24 0 41-14 43-38l32 2c-6 37-31 61-74 61-59 0-76-41-82-99-10-93 101-131 147-64 4 7 5 14 7 22l-32 3c-4-21-16-35-41-35"/><path id="aM" fill="#3a414a" d="M143 0 79-87 56-68V0H24v-261h32v163l83-92h37l-77 82L181 0z"/><path id="aN" fill="#3a414a" d="M101-234c-31-9-42 10-38 44h38v23H63V0H32v-167H5v-23h27c-7-52 17-82 69-68z"/><path id="aO" fill="#3a414a" d="M108 0H70L1-190h34L89-25l56-165h34"/><path id="aP" fill="#3a414a" d="M33 0v-248h34V0z"/><path id="aQ" fill="#3a414a" d="M137 0h-34L2-248h35l83 218 83-218h36"/><path id="aR" fill="#333" d="M101-251c68 0 85 55 85 127S166 4 100 4C33 4 14-52 14-124c0-73 17-127 87-127m-1 229c47 0 54-49 54-102s-4-102-53-102c-51 0-55 48-55 102 0 53 5 102 54 102"/><path id="aS" fill="#3a414a" d="M179-190 93 31C79 59 56 82 12 73V49c39 6 53-20 64-50L1-190h34L92-34l54-156z"/><path id="aT" fill="#3a414a" d="M-5 72V49h209v23z"/><path id="aU" fill="#3a414a" d="M143 4C61 4 22-44 18-125c-5-107 100-154 193-111 17 8 29 25 37 43l-32 9c-13-25-37-40-76-40-61 0-88 39-88 99 0 61 29 100 91 101 35 0 62-11 79-27v-45h-74v-28h105v86C228-13 192 4 143 4"/><path id="aV" fill="#333" d="M126-127c33 6 58 20 58 59 0 88-139 92-164 29-3-8-5-16-6-25l32-3c6 27 21 44 54 44 32 0 52-15 52-46 0-38-36-46-79-43v-28c39 1 72-4 72-42 0-27-17-43-46-43-28 0-47 15-49 41l-32-3c6-42 35-63 81-64 48-1 79 21 79 65 0 36-21 52-52 59"/><path id="aW" fill="#333" d="M99-251c64 0 84 50 84 122C183-37 130 33 47-8c-14-7-20-23-25-40l30-5c6 39 69 39 84 7 9-19 16-44 16-74-10 22-31 35-62 35-49 0-73-33-73-83 0-54 28-83 82-83m-1 141c31-1 51-18 51-49 0-36-14-67-51-67-34 0-49 23-49 58 0 34 15 58 49 58"/><g id="a"><use xlink:href="#O" transform="scale(.05556)"/><use xlink:href="#P" transform="translate(11.111)scale(.05556)"/></g><g id="b"><use xlink:href="#O" transform="scale(.05556)"/><use xlink:href="#Q" transform="translate(11.111)scale(.05556)"/></g><g id="c"><use xlink:href="#R" transform="scale(.08025)"/><use xlink:href="#S" transform="translate(16.05)scale(.08025)"/><use xlink:href="#S" transform="translate(32.099)scale(.08025)"/><use xlink:href="#T" transform="translate(48.148)scale(.08025)"/><use xlink:href="#U" transform="translate(54.488)scale(.08025)"/><use xlink:href="#T" transform="translate(62.512)scale(.08025)"/><use xlink:href="#V" transform="translate(68.852)scale(.08025)"/><use xlink:href="#W" transform="translate(84.901)scale(.08025)"/><use xlink:href="#R" transform="translate(100.95)scale(.08025)"/><use xlink:href="#X" transform="translate(117)scale(.08025)"/></g><g id="d"><use xlink:href="#S" transform="scale(.08025)"/><use xlink:href="#R" transform="translate(16.05)scale(.08025)"/><use xlink:href="#U" transform="translate(32.099)scale(.08025)"/><use xlink:href="#R" transform="translate(40.123)scale(.08025)"/></g><g id="e"><use xlink:href="#Y" transform="scale(.08025)"/><use xlink:href="#R" transform="translate(9.55)scale(.08025)"/><use xlink:href="#S" transform="translate(25.599)scale(.08025)"/><use xlink:href="#Z" transform="translate(41.648 4.044)scale(.05617)"/><use xlink:href="#aa" transform="translate(53.95)scale(.08025)"/></g><g id="f"><use xlink:href="#R" transform="scale(.08025)"/><use xlink:href="#X" transform="translate(16.05)scale(.08025)"/><use xlink:href="#ab" transform="translate(22.389)scale(.08025)"/><use xlink:href="#V" transform="translate(38.438)scale(.08025)"/><use xlink:href="#ac" transform="translate(54.488)scale(.08025)"/><use xlink:href="#T" transform="translate(64.037)scale(.08025)"/><use xlink:href="#U" transform="translate(70.377)scale(.08025)"/><use xlink:href="#ad" transform="translate(78.401)scale(.08025)"/><use xlink:href="#ae" transform="translate(94.45)scale(.08025)"/></g><g id="g"><use xlink:href="#Y" transform="scale(.08025)"/><use xlink:href="#R" transform="translate(9.55)scale(.08025)"/><use xlink:href="#aa" transform="translate(25.599)scale(.08025)"/></g><g id="h"><use xlink:href="#af" transform="scale(.08025)"/><use xlink:href="#ag" transform="translate(26.642)scale(.08025)"/><use xlink:href="#ah" transform="translate(42.691)scale(.08025)"/></g><g id="i"><use xlink:href="#ah" transform="scale(.08025)"/><use xlink:href="#ai" transform="translate(16.05)scale(.08025)"/><use xlink:href="#aj" transform="translate(25.599)scale(.08025)"/><use xlink:href="#ak" transform="translate(41.648)scale(.08025)"/><use xlink:href="#al" transform="translate(62.432)scale(.08025)"/><use xlink:href="#ag" transform="translate(76.877)scale(.08025)"/><use xlink:href="#ai" transform="translate(92.926)scale(.08025)"/></g><g id="j"><use xlink:href="#ak" transform="scale(.08025)"/><use xlink:href="#am" transform="translate(20.784)scale(.08025)"/><use xlink:href="#an" transform="translate(27.123)scale(.08025)"/><use xlink:href="#ao" transform="translate(35.148)scale(.08025)"/></g><g id="k"><use xlink:href="#ap" transform="scale(.08025)"/><use xlink:href="#am" transform="translate(6.34)scale(.08025)"/><use xlink:href="#ah" transform="translate(12.679)scale(.08025)"/><use xlink:href="#al" transform="translate(28.728)scale(.08025)"/><use xlink:href="#aj" transform="translate(43.173)scale(.08025)"/><use xlink:href="#aq" transform="translate(59.222)scale(.08025)"/><use xlink:href="#am" transform="translate(75.272)scale(.08025)"/><use xlink:href="#ar" transform="translate(81.611)scale(.08025)"/><use xlink:href="#as" transform="translate(97.66)scale(.08025)"/></g><g id="l"><use xlink:href="#at" transform="scale(.08025)"/><use xlink:href="#au" transform="translate(9.55)scale(.08025)"/><use xlink:href="#av" transform="translate(28.809)scale(.08025)"/></g><g id="m"><use xlink:href="#aw" transform="scale(.09877)"/><use xlink:href="#ax" transform="translate(23.704)scale(.09877)"/><use xlink:href="#ay" transform="translate(43.457)scale(.09877)"/><use xlink:href="#az" transform="translate(63.21)scale(.09877)"/></g><g id="n"><use xlink:href="#aA" transform="scale(.09877)"/><use xlink:href="#aB" transform="translate(25.58)scale(.09877)"/><use xlink:href="#aC" transform="translate(35.457)scale(.09877)"/><use xlink:href="#ay" transform="translate(57.086)scale(.09877)"/><use xlink:href="#az" transform="translate(76.84)scale(.09877)"/></g><g id="p"><use xlink:href="#aE" transform="scale(.09877)"/><use xlink:href="#aF" transform="translate(25.58)scale(.09877)"/></g><g id="q"><use xlink:href="#aG" transform="scale(.08025)"/><use xlink:href="#aH" transform="translate(16.05)scale(.08025)"/><use xlink:href="#aI" transform="translate(30.494)scale(.08025)"/><use xlink:href="#ac" transform="translate(46.543)scale(.08025)"/></g><g id="r"><use xlink:href="#T" transform="scale(.08025)"/><use xlink:href="#W" transform="translate(6.34)scale(.08025)"/><use xlink:href="#aJ" transform="translate(22.389)scale(.08025)"/><use xlink:href="#aG" transform="translate(38.438)scale(.08025)"/><use xlink:href="#U" transform="translate(54.488)scale(.08025)"/></g><g id="s"><use xlink:href="#V" transform="scale(.08025)"/><use xlink:href="#aG" transform="translate(16.05)scale(.08025)"/><use xlink:href="#U" transform="translate(32.099)scale(.08025)"/><use xlink:href="#aJ" transform="translate(40.123)scale(.08025)"/><use xlink:href="#aG" transform="translate(56.173)scale(.08025)"/><use xlink:href="#U" transform="translate(72.222)scale(.08025)"/></g><g id="t"><use xlink:href="#V" transform="scale(.08025)"/><use xlink:href="#U" transform="translate(16.05)scale(.08025)"/><use xlink:href="#ad" transform="translate(24.074)scale(.08025)"/><use xlink:href="#aI" transform="translate(40.123)scale(.08025)"/><use xlink:href="#ac" transform="translate(56.173)scale(.08025)"/></g><g id="u"><use xlink:href="#S" transform="scale(.08025)"/><use xlink:href="#R" transform="translate(16.05)scale(.08025)"/><use xlink:href="#U" transform="translate(32.099)scale(.08025)"/><use xlink:href="#R" transform="translate(40.123)scale(.08025)"/></g><g id="v"><use xlink:href="#aH" transform="scale(.08025)"/><use xlink:href="#aG" transform="translate(14.444)scale(.08025)"/><use xlink:href="#aK" transform="translate(30.494)scale(.08025)"/><use xlink:href="#aJ" transform="translate(46.543)scale(.08025)"/><use xlink:href="#ac" transform="translate(62.593)scale(.08025)"/><use xlink:href="#V" transform="translate(72.142)scale(.08025)"/><use xlink:href="#aL" transform="translate(88.191)scale(.08025)"/><use xlink:href="#aI" transform="translate(102.636)scale(.08025)"/><use xlink:href="#aH" transform="translate(118.685)scale(.08025)"/><use xlink:href="#aH" transform="translate(133.13)scale(.08025)"/></g><g id="w"><use xlink:href="#T" transform="scale(.08025)"/><use xlink:href="#W" transform="translate(6.34)scale(.08025)"/><use xlink:href="#aJ" transform="translate(22.389)scale(.08025)"/><use xlink:href="#aG" transform="translate(38.438)scale(.08025)"/><use xlink:href="#U" transform="translate(54.488)scale(.08025)"/></g><g id="x"><use xlink:href="#Y" transform="scale(.08025)"/><use xlink:href="#X" transform="translate(9.55)scale(.08025)"/><use xlink:href="#T" transform="translate(15.889)scale(.08025)"/><use xlink:href="#W" transform="translate(22.228)scale(.08025)"/><use xlink:href="#aM" transform="translate(38.278)scale(.08025)"/><use xlink:href="#aa" transform="translate(52.722)scale(.08025)"/></g><g id="z"><use xlink:href="#V" transform="scale(.08025)"/><use xlink:href="#aG" transform="translate(16.05)scale(.08025)"/><use xlink:href="#U" transform="translate(32.099)scale(.08025)"/><use xlink:href="#aJ" transform="translate(40.123)scale(.08025)"/><use xlink:href="#aG" transform="translate(56.173)scale(.08025)"/><use xlink:href="#U" transform="translate(72.222)scale(.08025)"/></g><g id="A"><use xlink:href="#U" transform="scale(.08025)"/><use xlink:href="#aI" transform="translate(8.025)scale(.08025)"/><use xlink:href="#ac" transform="translate(24.074)scale(.08025)"/><use xlink:href="#ae" transform="translate(33.623)scale(.08025)"/></g><g id="B"><use xlink:href="#aN" transform="scale(.08025)"/><use xlink:href="#X" transform="translate(8.025)scale(.08025)"/><use xlink:href="#R" transform="translate(14.364)scale(.08025)"/><use xlink:href="#ab" transform="translate(30.414)scale(.08025)"/></g><g id="C"><use xlink:href="#Y" transform="scale(.08025)"/><use xlink:href="#aN" transform="translate(9.55)scale(.08025)"/><use xlink:href="#aa" transform="translate(17.574)scale(.08025)"/></g><g id="D"><use xlink:href="#T" transform="scale(.08025)"/><use xlink:href="#W" transform="translate(6.34)scale(.08025)"/><use xlink:href="#T" transform="translate(22.389)scale(.08025)"/><use xlink:href="#U" transform="translate(28.728)scale(.08025)"/></g><g id="E"><use xlink:href="#aO" transform="scale(.08025)"/><use xlink:href="#aI" transform="translate(14.444)scale(.08025)"/><use xlink:href="#aL" transform="translate(30.494)scale(.08025)"/><use xlink:href="#U" transform="translate(44.938)scale(.08025)"/><use xlink:href="#V" transform="translate(52.963)scale(.08025)"/><use xlink:href="#ac" transform="translate(69.012)scale(.08025)"/></g><g id="F"><use xlink:href="#Y" transform="scale(.08025)"/><use xlink:href="#W" transform="translate(9.55)scale(.08025)"/><use xlink:href="#aP" transform="translate(25.599 4.044)scale(.05617)"/><use xlink:href="#aQ" transform="translate(31.216 4.044)scale(.05617)"/><use xlink:href="#aa" transform="translate(44.698)scale(.08025)"/></g><g id="G"><use xlink:href="#ac" transform="scale(.08025)"/><use xlink:href="#R" transform="translate(9.55)scale(.08025)"/><use xlink:href="#W" transform="translate(25.599)scale(.08025)"/><use xlink:href="#S" transform="translate(41.648)scale(.08025)"/><use xlink:href="#V" transform="translate(57.698)scale(.08025)"/><use xlink:href="#ae" transform="translate(73.747)scale(.08025)"/></g><g id="H"><use xlink:href="#S" transform="scale(.08025)"/><use xlink:href="#R" transform="translate(16.05)scale(.08025)"/><use xlink:href="#U" transform="translate(32.099)scale(.08025)"/><use xlink:href="#R" transform="translate(40.123)scale(.08025)"/></g><g id="I"><use xlink:href="#Y" transform="scale(.08025)"/><use xlink:href="#ac" transform="translate(9.55)scale(.08025)"/><use xlink:href="#aa" transform="translate(19.099)scale(.08025)"/></g><g id="J"><use xlink:href="#O" transform="scale(.05556)"/><use xlink:href="#aR" transform="translate(11.111)scale(.05556)"/></g><g id="K"><use xlink:href="#X" transform="scale(.06173)"/><use xlink:href="#T" transform="translate(4.877)scale(.06173)"/><use xlink:href="#aK" transform="translate(9.753)scale(.06173)"/><use xlink:href="#aH" transform="translate(22.099)scale(.06173)"/><use xlink:href="#V" transform="translate(33.21)scale(.06173)"/><use xlink:href="#S" transform="translate(45.556)scale(.06173)"/><use xlink:href="#T" transform="translate(57.901)scale(.06173)"/><use xlink:href="#aG" transform="translate(62.778)scale(.06173)"/><use xlink:href="#ae" transform="translate(75.123)scale(.06173)"/></g><g id="L"><use xlink:href="#ac" transform="scale(.06173)"/><use xlink:href="#R" transform="translate(7.346)scale(.06173)"/><use xlink:href="#W" transform="translate(19.691)scale(.06173)"/><use xlink:href="#S" transform="translate(32.037)scale(.06173)"/><use xlink:href="#V" transform="translate(44.383)scale(.06173)"/><use xlink:href="#ae" transform="translate(56.728)scale(.06173)"/><use xlink:href="#aK" transform="translate(75.185)scale(.06173)"/><use xlink:href="#aS" transform="translate(87.53)scale(.06173)"/><use xlink:href="#U" transform="translate(98.642)scale(.06173)"/><use xlink:href="#aI" transform="translate(104.815)scale(.06173)"/><use xlink:href="#aH" transform="translate(117.16)scale(.06173)"/><use xlink:href="#aT" transform="translate(128.272)scale(.06173)"/><use xlink:href="#aK" transform="translate(140.617)scale(.06173)"/><use xlink:href="#aG" transform="translate(152.963)scale(.06173)"/><use xlink:href="#aN" transform="translate(165.309)scale(.06173)"/></g><g id="M"><use xlink:href="#Y" transform="scale(.06173)"/><use xlink:href="#aU" transform="translate(7.346)scale(.06173)"/><use xlink:href="#aa" transform="translate(24.63)scale(.06173)"/></g><g id="N"><use xlink:href="#aV" transform="scale(.05556)"/><use xlink:href="#aW" transform="translate(11.111)scale(.05556)"/></g><use xlink:href="#aD" id="o" transform="scale(.09877)"/></defs></g></svg>