<svg xmlns="http://www.w3.org/2000/svg" xmlns:xlink="http://www.w3.org/1999/xlink" width="1524" height="1289" viewBox="0 0 1524 1289"><g transform="translate(-78 1060)"><path fill="none" stroke="#008a0e" stroke-width="4" d="M120-788a12 12 0 0 1 12-12h1416a12 12 0 0 1 12 12V28a12 12 0 0 1-12 12H132a12 12 0 0 1-12-12z"/><path fill="#008a0e" d="M120-788a12 12 0 0 1 12-12h416a12 12 0 0 1 12 12v39.33a12 12 0 0 1-12 12H132a12 12 0 0 1-12-12z"/><use xlink:href="#a" transform="translate(137.738 -762.186)"/><use xlink:href="#b" transform="translate(204.503 -762.186)"/><use xlink:href="#c" transform="translate(315.003 -762.186)"/><use xlink:href="#d" transform="translate(374.225 -762.186)"/><use xlink:href="#e" transform="translate(503.904 -762.186)"/><path fill="#dfe3e8" d="M120-1002.45a17.55 17.55 0 0 1 17.55-17.55h184.9a17.55 17.55 0 0 1 17.55 17.55v140.4a17.55 17.55 0 0 1-17.55 17.55h-184.9A17.55 17.55 0 0 1 120-862.05z"/><use xlink:href="#f" transform="translate(140 -946.222)"/><use xlink:href="#g" transform="translate(140 -903.556)"/><use xlink:href="#h" transform="translate(246.47 -903.556)"/><path fill="#cfe682" stroke="#3a414a" d="M127.73 65h51.44l-7.74 29H120z"/><path fill="#cfe4ff" stroke="#3a414a" d="M127.73 161.5h51.44l-7.74 29H120z"/><path fill="#fff7a1" stroke="#3a414a" d="M127.73 113.25h51.44l-7.74 29H120z"/><path fill="none" d="M200 60h225.93v38.67H200z"/><use xlink:href="#i" transform="translate(205 88.564)"/><use xlink:href="#j" transform="translate(269.117 88.564)"/><path fill="none" d="M200 108.5h240v38.67H200z"/><use xlink:href="#i" transform="translate(205 137.064)"/><use xlink:href="#k" transform="translate(269.117 137.064)"/><path fill="none" d="M200 157.67h240v38.66H200z"/><use xlink:href="#l" transform="translate(205 186.23)"/><use xlink:href="#m" transform="translate(278.747 186.23)"/><path fill="#f4d9ff" stroke="#3a414a" d="M507.73 68.83h51.44l-7.74 29H500z"/><path fill="none" d="M580 65h340v36.67H580z"/><use xlink:href="#n" transform="translate(585 93.111)"/><use xlink:href="#o" transform="translate(740.599 93.111)"/><use xlink:href="#p" transform="translate(811.136 93.111)"/><use xlink:href="#q" transform="translate(585 127.778)"/><path fill="#ffcf99" stroke="#3a414a" d="M507.73 117.08h51.44l-7.74 29H500z"/><path fill="none" d="M580 113.25h260v36.67H580z"/><use xlink:href="#n" transform="translate(585 141.361)"/><use xlink:href="#r" transform="translate(740.599 141.361)"/><use xlink:href="#q" transform="translate(585 176.028)"/><path fill="#f4d9ff" stroke="#3a414a" d="M782.33-660H981l-21.33 80H761z" class="qc-clickable" data-target="05"/><use xlink:href="#s" transform="translate(803.363 -631.057)"/><use xlink:href="#t" transform="translate(902.709 -631.057)"/><use xlink:href="#u" transform="translate(842.993 -596.39)"/><path fill="#cfe4ff" stroke="#3a414a" d="M1139.83-512.6h198.67l-21.33 80H1118.5z"/><use xlink:href="#v" transform="translate(1181.687 -483.652)"/><use xlink:href="#w" transform="translate(1244.2 -483.652)"/><use xlink:href="#x" transform="translate(1210.443 -448.985)"/><path fill="#f4d9ff" stroke="#3a414a" d="M261.33-660H460l-21.33 80H240z" class="qc-clickable" data-target="03"/><use xlink:href="#y" transform="translate(250.534 -631.056)"/><use xlink:href="#z" transform="translate(258.559 -631.056)"/><use xlink:href="#A" transform="translate(322.756 -631.056)"/><use xlink:href="#B" transform="translate(321.713 -596.389)"/><path fill="#ffcf99" stroke="#3a414a" d="M1139.83-80h198.67l-21.33 80H1118.5z"/><use xlink:href="#C" transform="translate(1161.665 -51.057)"/><use xlink:href="#D" transform="translate(1248.172 -51.057)"/><use xlink:href="#E" transform="translate(1193.591 -16.39)"/><path fill="#f4d9ff" stroke="#3a414a" d="M521.58-660h199.17l-21.33 80H500.25z" class="qc-clickable" data-target="04"/><use xlink:href="#F" transform="translate(521.486 -631.057)"/><use xlink:href="#G" transform="translate(652.85 -631.057)"/><use xlink:href="#H" transform="translate(574.005 -596.39)"/><path fill="#979ea8" stroke="#979ea8" stroke-width=".05" d="M872.48-530.9h-1.96v-6.37h1.96zm-.5-30.37H870v-17.23h2z"/><path fill="#979ea8" d="M871.98-578.47H870v-1.03h2zm-.48 62.84-4.63-14.27h9.26z"/><path fill="#979ea8" stroke="#979ea8" stroke-width=".05" d="m871.5-512.48-5.98-18.4h11.96zm-3.3-16.44 3.3 10.13 3.3-10.12z"/><use xlink:href="#I" transform="translate(859.894 -545.269)"/><path fill="#979ea8" stroke="#979ea8" stroke-width=".05" d="M1031.5-451.82H982v-1.95h49.5zm73.37 0h-51.15v-1.95h51.15z"/><path fill="#979ea8" d="m1120.13-452.8-14.26 4.63v-9.27z"/><path fill="#979ea8" stroke="#979ea8" stroke-width=".05" d="m1123.3-452.8-18.4 5.98v-11.96zm-16.46 3.3 10.14-3.3-10.14-3.3z"/><path fill="#979ea8" d="M982.03-451.82H981v-1.95h1.03z"/><use xlink:href="#J" transform="translate(1031.503 -448.8)"/><path fill="#979ea8" stroke="#979ea8" stroke-width=".05" d="M1274.97-199h-1.94v-155.7h1.94zm0-179.7h-1.94v-52.4h1.94z"/><path fill="#979ea8" d="M1274.97-431.07h-1.94v-1.03h1.94zm-.97 247.33-4.63-14.26h9.27z"/><path fill="#979ea8" stroke="#979ea8" stroke-width=".05" d="m1274-180.58-5.98-18.4h11.96zm-3.3-16.45 3.3 10.14 3.3-10.13z"/><use xlink:href="#K" transform="translate(1262.894 -362.7)"/><path fill="#979ea8" stroke="#979ea8" stroke-width=".05" d="M1229.47-99h-1.94v-8.25h1.94zm0-32.25h-1.94v-7.2h1.94z"/><path fill="#979ea8" d="M1229.47-138.4h-1.94v-1.53l.97.5.97-.5zm-.97 54.66L1223.87-98h9.27z"/><path fill="#979ea8" stroke="#979ea8" stroke-width=".05" d="m1228.5-80.58-5.98-18.4h11.96zm-3.3-16.45 3.3 10.14 3.3-10.13z"/><use xlink:href="#L" transform="translate(1217.394 -115.246)"/><path fill="#979ea8" stroke="#979ea8" stroke-width=".05" d="m443.46-494.14 1.06.08 1.06.26 1 .42.95.57.83.7.7.83.58.94.42 1 .26 1.07.08 1.05v68.2h-1.95v-68.13l-.06-.82-.2-.77-.3-.73-.4-.67-.52-.6-.6-.5-.68-.42-.72-.3-.77-.2-.8-.05H414v-1.94zm-92.42-4.24.18.76.3.73.42.68.5.6.6.5.68.43.73.3.76.2.84.06h35.73v1.95h-35.8l-1.06-.07-1.06-.26-1-.42-.94-.57-.83-.7-.7-.85-.6-.93-.4-1-.26-1.08-.08-1.05v-79.37h1.96v79.3z"/><path fill="#979ea8" d="M350.98-578.47h-1.96v-1.03h1.96zm98.45 174.73L444.8-418h9.26z"/><path fill="#979ea8" stroke="#979ea8" stroke-width=".05" d="m449.43-400.58-5.98-18.4h11.95zm-3.3-16.45 3.3 10.14 3.3-10.13z"/><use xlink:href="#M" transform="translate(391.774 -489.167)"/><path fill="#cfe4ff" stroke="#3a414a" d="M601.33-300H800l-21.33 80H580z"/><use xlink:href="#N" transform="translate(643.99 -271.057)"/><use xlink:href="#O" transform="translate(619.53 -236.39)"/><use xlink:href="#P" transform="translate(681.505 -236.39)"/><use xlink:href="#Q" transform="translate(704.455 -236.39)"/><path fill="#979ea8" stroke="#979ea8" stroke-width=".05" d="m480.14-266.04.07.83.2.75.3.73.4.67.52.6.6.5.67.43.72.3.76.18.82.06h86.45v1.96h-86.52l-1.06-.1-1.06-.24-1-.42-.94-.58-.83-.7-.7-.84-.58-.93-.42-1-.25-1.08-.1-1.06V-284h1.96zm0-41.96h-1.95v-50.44h1.94z"/><path fill="#979ea8" d="M480.14-358.42h-1.95v-1.5l.97.48.97-.5zM586.9-260l-14.25 4.63v-9.26z"/><path fill="#979ea8" stroke="#979ea8" stroke-width=".05" d="m590.07-260-18.4 5.98v-11.96zm-16.45 3.3 10.14-3.3-10.14-3.3z"/><use xlink:href="#R" transform="translate(468.06 -291.996)"/><path fill="#979ea8" stroke="#979ea8" stroke-width=".05" d="M744.55-354.64h-48.5l-.84.06-.75.2-.73.3-.67.4-.6.5-.5.6-.43.7-.3.7-.18.78-.06.82v48.08H689v-48.15l.1-1.06.24-1.07.42-1 .58-.95.7-.83.84-.7.93-.58 1-.42 1.08-.26 1.06-.1h48.6zm77.75-6.94-.08 1.06-.26 1.06-.42 1-.57.95-.7.82-.84.7-.94.58-1.02.42-1.06.26-1.05.08h-48.6v-1.95h48.52l.8-.05.78-.2.73-.3.68-.4.6-.5.5-.6.42-.7.3-.7.2-.78.05-.82v-30.58h1.95z"/><path fill="#979ea8" d="M690.98-300.5H689v-1.03h2zm134.98-92.73h-9.27l4.63-14.26z"/><path fill="#979ea8" stroke="#979ea8" stroke-width=".05" d="M827.3-392.25h-11.95l5.98-18.4zm-9.27-1.95h6.6l-3.3-10.14z"/><use xlink:href="#I" transform="translate(744.557 -351.615)"/><path fill="#cfe4ff" stroke="#3a414a" d="M601.33-188H800l-21.33 80H580z"/><use xlink:href="#S" transform="translate(600.696 -159.057)"/><use xlink:href="#T" transform="translate(709.752 -159.057)"/><use xlink:href="#U" transform="translate(672.786 -124.39)"/><path fill="#cfe4ff" stroke="#3a414a" d="M981.33-380H1180l-21.33 80H960z"/><use xlink:href="#V" transform="translate(1016.005 -351.057)"/><use xlink:href="#W" transform="translate(1116.956 -351.057)"/><use xlink:href="#X" transform="translate(1048.733 -316.39)"/><path fill="#fff" stroke="#3a414a" d="M761-500.4a12 12 0 0 1 12-12h196a12 12 0 0 1 12 12v76a12 12 0 0 1-12 12H773a12 12 0 0 1-12-12z"/><path fill="none" stroke="#3a414a" stroke-width="2" d="M762-472.4h218.5m-218.47 0H761m219.47 0h1.03"/><path fill="none" d="M761-512.4h220v40H761z"/><use xlink:href="#Y" transform="translate(824.21 -487.743)"/><path fill="none" d="M761-474.06h220v63.33H761z"/><use xlink:href="#Z" transform="translate(771.648 -450.863)"/><use xlink:href="#aa" transform="translate(874.117 -450.863)"/><use xlink:href="#ab" transform="translate(918.562 -450.863)"/><use xlink:href="#ac" transform="translate(855.66 -424.196)"/><path fill="#979ea8" stroke="#979ea8" stroke-width=".05" d="m871.98-173.67-.1 1.05-.24 1.06-.42 1.02-.58.93-.7.82-.84.7-.93.6-1 .4-1.08.26-1.06.08H796.1v-1.95h68.86l.83-.05.75-.2.73-.3.67-.4.6-.5.5-.6.43-.68.3-.73.18-.77.06-.82V-313.7H872zm0-164.03H870v-54.53h2z"/><path fill="#979ea8" d="M796.13-166.74h-1.28l.52-1.95h.76zm79.5-226.49h-9.26L871-407.5z"/><path fill="#979ea8" stroke="#979ea8" stroke-width=".05" d="M876.98-392.25h-11.96l5.98-18.4zm-9.27-1.95h6.6l-3.3-10.14z"/><use xlink:href="#I" transform="translate(859.894 -321.699)"/><path fill="none" stroke="#979ea8" stroke-width="2" d="M690-218.5v-.75"/><path fill="#979ea8" stroke="#979ea8" stroke-width=".05" d="M690.98-218.47H689v-1.03h2z"/><path fill="#979ea8" stroke="#979ea8" stroke-width="2" d="m690-189.9 14.85-14.86L690-219.6l-14.85 14.84z"/><path fill="#979ea8" stroke="#979ea8" stroke-width=".05" d="m1248.16-340.9 1.07.26 1 .42.94.58.84.7.72.84.57.93.4 1 .26 1.08.1 1.06V-199h-1.96v-134.96l-.07-.83-.18-.75-.3-.73-.4-.67-.53-.6-.6-.5-.67-.43-.73-.3-.76-.18-.83-.06h-23.45v-1.96h23.53zm-77.3 1.88v-1.96h30.5v1.96z"/><path fill="#979ea8" d="M1170.88-339.02h-1.3l.53-1.96h.78zm82.19 155.28-4.63-14.26h9.27z"/><path fill="#979ea8" stroke="#979ea8" stroke-width=".05" d="m1253.07-180.58-5.97-18.4h11.95zm-3.3-16.45 3.3 10.14 3.3-10.13z"/><use xlink:href="#K" transform="translate(1201.365 -336)"/><path fill="#979ea8" stroke="#979ea8" stroke-width=".05" d="m926.86-346.04.07.83.18.75.3.73.42.67.5.6.6.5.7.43.7.3.78.18.82.06h37.23v1.96h-37.3l-1.06-.1-1.07-.24-1-.42-.95-.58-.83-.7-.7-.84-.58-.93-.42-1-.26-1.08-.1-1.06v-5.57h1.96zm0-29.5h-1.95v-17.85h1.96z"/><path fill="#979ea8" d="M969.9-339.02h-.78v-1.96h1.3zm-39.38-55.38h-9.27l4.64-14.26z"/><path fill="#979ea8" stroke="#979ea8" stroke-width=".05" d="M931.86-393.42H919.9l6-18.4zm-9.27-1.95h6.58l-3.3-10.13z"/><use xlink:href="#I" transform="translate(914.78 -359.534)"/><path fill="#979ea8" stroke="#979ea8" stroke-width=".05" d="M1101.32-229.03H994.7l-.84.07-.76.18-.73.3-.67.42-.6.5-.5.6-.43.68-.3.73-.18.76-.08.84v89.5l-.08 1.04-.25 1.07-.43 1-.58.94-.72.83-.83.7-.93.58-1 .43-1.08.25-1.05.1H785.64v-1.96H982.6l.83-.07.77-.18.73-.3.67-.42.6-.5.5-.6.42-.68.3-.73.2-.76.05-.83v-89.5l.1-1.04.24-1.06.43-1 .57-.94.72-.83.83-.72.93-.57 1-.42 1.08-.25 1.05-.07h106.72zm80.55-1.86 1.07.26 1 .42.94.57.83.72.72.83.58.93.4 1 .27 1.08.08 1.06V-199h-1.95v-24.96l-.06-.83-.18-.75-.3-.73-.42-.67-.5-.6-.6-.5-.68-.42-.73-.3-.77-.2-.82-.06h-57.2v-1.94h57.28z"/><path fill="#979ea8" d="M785.68-127.53h-1.3l.53-1.95h.78zm401.1-56.21-4.64-14.26h9.27z"/><path fill="#979ea8" stroke="#979ea8" stroke-width=".05" d="m1186.78-180.58-5.98-18.4h11.96zm-3.3-16.45 3.3 10.14 3.3-10.13z"/><use xlink:href="#K" transform="translate(1101.326 -226)"/><path fill="#979ea8" stroke="#979ea8" stroke-width=".05" d="m1199.76-260.98 1.05.1 1.08.24 1 .42.94.58.83.7.7.84.6.93.4 1 .26 1.08.1 1.06V-199h-1.96v-54.96l-.06-.83-.18-.75-.3-.73-.42-.67-.5-.6-.6-.5-.68-.43-.73-.3-.76-.18-.82-.06h-30v-1.96zm-323.1-1 .17 1h270.6v1.96H875.18l-.35-2.17-1.47-2-2.43-.8-1.1.18-2.03 1.47-1.1 3.33h-75.85v-1.96h74.44l.84-2.57 2.9-2.12 2.04-.33 3.47 1.14z"/><path fill="#979ea8" d="M790.88-259.02h-1.3l.53-1.96h.78zm414.84 75.28-4.64-14.26h9.28z"/><path fill="#979ea8" stroke="#979ea8" stroke-width=".05" d="m1205.72-180.58-5.98-18.4h11.96zm-3.3-16.45 3.3 10.14 3.3-10.13z"/><use xlink:href="#K" transform="translate(1147.45 -256)"/><path fill="#cfe4ff" stroke="#3a414a" d="M1143.58-660h198.67l-21.33 80h-198.67z"/><use xlink:href="#ad" transform="translate(1158.996 -631.057)"/><use xlink:href="#ae" transform="translate(1211.879 -631.057)"/><use xlink:href="#w" transform="translate(1274.39 -631.057)"/><use xlink:href="#af" transform="translate(1208.576 -596.39)"/><path fill="#979ea8" stroke="#979ea8" stroke-width=".05" d="M1229.47-514.1h-1.94v-10.43h1.94zm0-34.43h-1.94V-561h1.94z"/><path fill="#979ea8" d="M1229.47-513.1h-1.94v-1.02h1.94zm3.66-48.9h-9.27l4.64-14.26z"/><path fill="#979ea8" stroke="#979ea8" stroke-width=".05" d="M1234.48-561.02h-11.96l5.98-18.4zm-9.27-1.95h6.6l-3.3-10.14z"/><use xlink:href="#ag" transform="translate(1217.394 -532.529)"/><path fill="#979ea8" stroke="#979ea8" stroke-width=".05" d="m1057.92-498.93-.08 1.05-.25 1.07-.43 1-.58.93-.72.84-.83.7-.93.58-1 .42-1.08.25-1.05.1h-51v-1.96h50.9l.83-.07.77-.2.73-.3.67-.4.6-.52.5-.6.42-.67.3-.72.2-.76.05-.83v-45.48h1.95zm73.48-120.1H1063l-.84.07-.76.18-.73.3-.67.42-.6.5-.5.6-.43.68-.3.73-.18.76-.08.84v45.48h-1.95v-45.56l.1-1.05.24-1.06.43-1 .57-.94.72-.83.83-.72.93-.57 1-.42 1.08-.25 1.05-.08h68.5z"/><path fill="#979ea8" d="M1132.14-619.02h-.77V-621h1.3zM999-488.33l-14.26-4.64L999-497.6z"/><path fill="#979ea8" stroke="#979ea8" stroke-width=".05" d="m999.98-487-18.4-5.97 18.4-5.97zm-12.1-5.97 10.15 3.3v-6.6z"/><use xlink:href="#I" transform="translate(1045.844 -552.484)"/><path fill="#979ea8" stroke="#979ea8" stroke-width=".05" d="M1233.22-679h-1.94v-10.6h1.94zm0-34.6h-1.94v-10.72h1.94z"/><path fill="#979ea8" d="m1232.25-663.74-4.63-14.26h9.27z"/><path fill="#979ea8" stroke="#979ea8" stroke-width=".05" d="m1232.25-660.58-5.98-18.4h11.96zm-3.3-16.45 3.3 10.14 3.3-10.13z"/><path fill="#979ea8" d="M1233.22-724.3h-1.94v-1.02h1.94z"/><use xlink:href="#ah" transform="translate(1226.7 -697.585)"/><path fill="#979ea8" stroke="#979ea8" stroke-width=".05" d="M544.43-492.2h-31.47l-.82.07-.77.2-.73.3-.67.4-.6.5-.5.6-.42.68-.3.73-.2.77-.05.82V-419h-1.95v-68.2l.08-1.06.26-1.06.4-1 .58-.95.7-.83.84-.7.94-.58 1-.42 1.07-.26 1.06-.08h31.53zm67.05-6.93-.1 1.05-.24 1.07-.42 1-.58.93-.7.84-.84.7-.93.58-1 .42-1.08.25-1.06.1h-37.88v-1.96h37.8l.83-.07.75-.2.73-.3.67-.4.6-.52.5-.6.43-.67.3-.72.18-.76.06-.83v-79.3h1.96z"/><path fill="#979ea8" d="M611.48-578.47h-1.96v-1.03h1.96zM506.93-403.74 502.3-418h9.26z"/><path fill="#979ea8" stroke="#979ea8" stroke-width=".05" d="m506.93-400.58-5.98-18.4h11.95zm-3.3-16.45 3.3 10.14 3.3-10.13z"/><use xlink:href="#M" transform="translate(544.44 -489.167)"/><path fill="none" stroke="#1071e5" d="M1148.5-180h160l-80 40zM399.17-400h160l-80 40z"/><path fill="none" d="M1200.15-760h64.2v34.68h-64.2z"/><use xlink:href="#ai" transform="translate(1200.548 -736.889)"/><defs><path id="aj" fill="#fff" d="M266 0h-40l-56-210L115 0H75L2-248h35L96-30l15-64 43-154h32l59 218 59-218h35"/><path id="ak" fill="#fff" d="M100-194c63 0 86 42 84 106H49c0 40 14 67 53 68 26 1 43-12 49-29l28 8c-11 28-37 45-77 45C44 4 14-33 15-96c1-61 26-98 85-98m52 81c6-60-76-77-97-28-3 7-6 17-6 28z"/><path id="al" fill="#fff" d="M115-194c53 0 69 39 70 98 0 66-23 100-70 100C84 3 66-7 56-30L54 0H23l1-261h32v101c10-23 28-34 59-34m-8 174c40 0 45-34 45-75 0-40-5-75-45-74-42 0-51 32-51 76 0 43 10 73 51 73"/><path id="am" fill="#fff" d="M114-163C36-179 61-72 57 0H25l-1-190h30c1 12-1 29 2 39 6-27 23-49 58-41z"/><path id="an" fill="#fff" d="M100-194c62-1 85 37 85 99 1 63-27 99-86 99S16-35 15-95c0-66 28-99 85-99M99-20c44 1 53-31 53-75 0-43-8-75-51-75s-53 32-53 75 10 74 51 75"/><path id="ao" fill="#fff" d="M206 0h-36l-40-164L89 0H53L-1-190h32L70-26l43-164h34l41 164 42-164h31"/><path id="ap" fill="#fff" d="M135-143c-3-34-86-38-87 0 15 53 115 12 119 90S17 21 10-45l28-5c4 36 97 45 98 0-10-56-113-15-118-90-4-57 82-63 122-42 12 7 21 19 24 35"/><path id="aq" fill="#fff" d="M24-231v-30h32v30zM24 0v-190h32V0z"/><path id="ar" fill="#fff" d="M59-47c-2 24 18 29 38 22v24C64 9 27 4 27-40v-127H5v-23h24l9-43h21v43h35v23H59z"/><path id="as" fill="#fff" d="M106-169C34-169 62-67 57 0H25v-261h32l-1 103c12-21 28-36 61-36 89 0 53 116 60 194h-32v-121c2-32-8-49-39-48"/><path id="at" fill="#fff" d="M24 0v-261h32V0z"/><path id="au" fill="#fff" d="M85-194c31 0 48 13 60 33l-1-100h32l1 261h-30c-2-10 0-23-3-31C134-8 116 4 85 4 32 4 16-35 15-94c0-66 23-100 70-100m9 24c-40 0-46 34-46 75 0 40 6 74 45 74 42 0 51-32 51-76 0-42-9-74-50-73"/><path id="av" fill="#fff" d="M84 4C-5 8 30-112 23-190h32v120c0 31 7 50 39 49 72-2 45-101 50-169h31l1 190h-30c-1-10 1-25-2-33-11 22-28 36-60 37"/><path id="aw" fill="#fff" d="M210-169c-67 3-38 105-44 169h-31v-121c0-29-5-50-35-48C34-165 62-65 56 0H25l-1-190h30c1 10-1 24 2 32 10-44 99-50 107 0 11-21 27-35 58-36 85-2 47 119 55 194h-31v-121c0-29-5-49-35-48"/><path id="ax" fill="#fff" d="M87 75C49 33 22-17 22-94c0-76 28-126 65-167h31c-38 41-64 92-64 168S80 34 118 75z"/><path id="ay" fill="#fff" d="M160-131c35 5 61 23 61 61C221 17 115-2 30 0v-248c76 3 177-17 177 60 0 33-19 50-47 57m-97-11c50-1 110 9 110-42 0-47-63-36-110-37zm0 115c55-2 124 14 124-45 0-56-70-42-124-44z"/><path id="az" fill="#fff" d="M33-261c38 41 65 92 65 168S71 34 33 75H2C39 34 66-17 66-93S39-220 2-261z"/><path id="aA" fill="#3a414a" d="M169-182c-1-43-94-46-97-3 18 66 151 10 154 114 3 95-165 93-204 36-6-8-10-19-12-30l50-8c3 46 112 56 116 5-17-69-150-10-154-114-4-87 153-88 188-35 5 8 8 18 10 28"/><path id="aB" fill="#3a414a" d="M25-224v-37h50v37zM25 0v-190h50V0z"/><path id="aC" fill="#3a414a" d="M195-6C206 82 75 100 31 46c-4-6-6-13-8-21l49-6c3 16 16 24 34 25 40 0 42-37 40-79-11 22-30 35-61 35-53 0-70-43-70-97 0-56 18-96 73-97 30 0 46 14 59 34l2-30h47zm-90-29c32 0 41-27 41-63 0-35-9-62-40-62-32 0-39 29-40 63 0 36 9 62 39 62"/><path id="aD" fill="#3a414a" d="M135-194c87-1 58 113 63 194h-50c-7-57 23-157-34-157-59 0-34 97-39 157H25l-1-190h47c2 12-1 28 3 38 12-26 28-41 61-42"/><path id="aE" fill="#3a414a" d="M182-130c37 4 62 22 62 59C244 23 116-4 24 0v-248c84 5 203-23 205 63 0 31-19 50-47 55M76-148c40-3 101 13 101-30 0-44-60-28-101-31zm0 110c48-3 116 14 116-37 0-48-69-32-116-35z"/><path id="aF" fill="#3a414a" d="M25 0v-261h50V0z"/><path id="aG" fill="#3a414a" d="M110-194c64 0 96 36 96 99 0 64-35 99-97 99-61 0-95-36-95-99 0-62 34-99 96-99m-1 164c35 0 45-28 45-65 0-40-10-65-43-65-34 0-45 26-45 65 0 36 10 65 43 65"/><path id="aH" fill="#3a414a" d="M190-63c-7 42-38 67-86 67-59 0-84-38-90-98-12-110 154-137 174-36l-49 2c-2-19-15-32-35-32-30 0-35 28-38 64-6 74 65 87 74 30"/><path id="aI" fill="#3a414a" d="M147 0 96-86 75-71V0H25v-261h50v150l67-79h53l-66 74L201 0z"/><path id="aJ" fill="#3a414a" d="M101-251c68 0 84 54 84 127C185-50 166 4 99 4S15-52 14-124c-1-75 17-127 87-127m-1 216c37-5 36-46 36-89s4-89-36-89c-39 0-36 45-36 89 0 43-3 85 36 89"/><path id="aK" fill="#3a414a" d="M84 4C-5 8 30-112 23-190h32v120c0 31 7 50 39 49 72-2 45-101 50-169h31l1 190h-30c-1-10 1-25-2-33-11 22-28 36-60 37"/><path id="aL" fill="#3a414a" d="M135-143c-3-34-86-38-87 0 15 53 115 12 119 90S17 21 10-45l28-5c4 36 97 45 98 0-10-56-113-15-118-90-4-57 82-63 122-42 12 7 21 19 24 35"/><path id="aM" fill="#3a414a" d="M100-194c63 0 86 42 84 106H49c0 40 14 67 53 68 26 1 43-12 49-29l28 8c-11 28-37 45-77 45C44 4 14-33 15-96c1-61 26-98 85-98m52 81c6-60-76-77-97-28-3 7-6 17-6 28z"/><path id="aN" fill="#3a414a" d="M114-163C36-179 61-72 57 0H25l-1-190h30c1 12-1 29 2 39 6-27 23-49 58-41z"/><path id="aO" fill="#3a414a" d="M24-231v-30h32v30zM24 0v-190h32V0z"/><path id="aP" fill="#3a414a" d="M117-194c89-4 53 116 60 194h-32v-121c0-31-8-49-39-48C34-167 62-67 57 0H25l-1-190h30c1 10-1 24 2 32 11-22 29-35 61-36"/><path id="aQ" fill="#3a414a" d="M115-194c55 1 70 41 70 98S169 2 115 4C84 4 66-9 55-30l1 105H24l-1-265h31l2 30c10-21 28-34 59-34m-8 174c40 0 45-34 45-75s-6-73-45-74c-42 0-51 32-51 76 0 43 10 73 51 73"/><path id="aR" fill="#3a414a" d="M59-47c-2 24 18 29 38 22v24C64 9 27 4 27-40v-127H5v-23h24l9-43h21v43h35v23H59z"/><path id="aS" fill="#3a414a" d="M100-194c62-1 85 37 85 99 1 63-27 99-86 99S16-35 15-95c0-66 28-99 85-99M99-20c44 1 53-31 53-75 0-43-8-75-51-75s-53 32-53 75 10 74 51 75"/><path id="aT" fill="#3a414a" d="M106-169C34-169 62-67 57 0H25v-261h32l-1 103c12-21 28-36 61-36 89 0 53 116 60 194h-32v-121c2-32-8-49-39-48"/><path id="aU" fill="#3a414a" d="M85-194c31 0 48 13 60 33l-1-100h32l1 261h-30c-2-10 0-23-3-31C134-8 116 4 85 4 32 4 16-35 15-94c0-66 23-100 70-100m9 24c-40 0-46 34-46 75 0 40 6 74 45 74 42 0 51-32 51-76 0-42-9-74-50-73"/><path id="aV" fill="#3a414a" d="M141-36C126-15 110 5 73 4 37 3 15-17 15-53c-1-64 63-63 125-63 3-35-9-54-41-54-24 1-41 7-42 31l-33-3c5-37 33-52 76-52 45 0 72 20 72 64v82c-1 20 7 32 28 27v20c-31 9-61-2-59-35M48-53c0 20 12 33 32 33 41-3 63-29 60-74-43 2-92-5-92 41"/><path id="aW" fill="#3a414a" d="M115-194c53 0 69 39 70 98 0 66-23 100-70 100C84 3 66-7 56-30L54 0H23l1-261h32v101c10-23 28-34 59-34m-8 174c40 0 45-34 45-75 0-40-5-75-45-74-42 0-51 32-51 76 0 43 10 73 51 73"/><path id="aX" fill="#3a414a" d="M96-169c-40 0-48 33-48 73s9 75 48 75c24 0 41-14 43-38l32 2c-6 37-31 61-74 61-59 0-76-41-82-99-10-93 101-131 147-64 4 7 5 14 7 22l-32 3c-4-21-16-35-41-35"/><path id="aY" fill="#3a414a" d="M87 75C49 33 22-17 22-94c0-76 28-126 65-167h31c-38 41-64 92-64 168S80 34 118 75z"/><path id="aZ" fill="#3a414a" d="M24 0v-261h32V0z"/><path id="ba" fill="#3a414a" d="M143 0 79-87 56-68V0H24v-261h32v163l83-92h37l-77 82L181 0z"/><path id="bb" fill="#3a414a" d="M33-261c38 41 65 92 65 168S71 34 33 75H2C39 34 66-17 66-93S39-220 2-261z"/><path id="bc" fill="#3a414a" d="M177-190C167-65 218 103 67 71c-23-6-38-20-44-43l32-5c15 47 100 32 89-28v-30C133-14 115 1 83 1 29 1 15-40 15-95c0-56 16-97 71-98 29-1 48 16 59 35 1-10 0-23 2-32zM94-22c36 0 50-32 50-73 0-42-14-75-50-75-39 0-46 34-46 75s6 73 46 73"/><path id="bd" fill="#3a414a" d="M179-190 93 31C79 59 56 82 12 73V49c39 6 53-20 64-50L1-190h34L92-34l54-156z"/><path id="be" fill="#3a414a" d="M185-189c-5-48-123-54-124 2 14 75 158 14 163 119 3 78-121 87-175 55-17-10-28-26-33-46l33-7c5 56 141 63 141-1 0-78-155-14-162-118-5-82 145-84 179-34 5 7 8 16 11 25"/><path id="bf" fill="#3a414a" d="M210-169c-67 3-38 105-44 169h-31v-121c0-29-5-50-35-48C34-165 62-65 56 0H25l-1-190h30c1 10-1 24 2 32 10-44 99-50 107 0 11-21 27-35 58-36 85-2 47 119 55 194h-31v-121c0-29-5-49-35-48"/><path id="bg" fill="#3a414a" d="M30 0v-248h187v28H63v79h144v27H63v87h162V0z"/><path id="bh" fill="#3a414a" d="M101-251c68 0 85 55 85 127S166 4 100 4C33 4 14-52 14-124c0-73 17-127 87-127m-1 229c47 0 54-49 54-102s-4-102-53-102c-51 0-55 48-55 102 0 53 5 102 54 102"/><path id="bi" fill="#3a414a" d="M63-220v92h138v28H63V0H30v-248h175v28z"/><path id="bj" fill="#333" d="M126-127c33 6 58 20 58 59 0 88-139 92-164 29-3-8-5-16-6-25l32-3c6 27 21 44 54 44 32 0 52-15 52-46 0-38-36-46-79-43v-28c39 1 72-4 72-42 0-27-17-43-46-43-28 0-47 15-49 41l-32-3c6-42 35-63 81-64 48-1 79 21 79 65 0 36-21 52-52 59"/><path id="bk" fill="#333" d="M155-56V0h-30v-56H8v-25l114-167h33v167h35v25zm-30-156c-27 46-58 90-88 131h88z"/><path id="bl" fill="#333" d="M54-142c48-35 137-8 131 61C196 18 31 33 14-55l32-4c7 23 22 37 52 37 35-1 51-22 54-58 4-55-73-65-99-34H22l8-134h141v27H59"/><path id="bm" fill="#333" d="M64 0c3-98 48-159 88-221H18v-27h164v26C143-157 98-101 97 0z"/><path id="bn" fill="#333" d="M134-131c28 9 52 24 51 62-1 50-34 73-85 73S17-19 16-69c0-36 21-54 49-61-75-25-45-126 34-121 46 3 78 18 79 63 0 33-17 51-44 57m-34-11c31 1 46-15 46-44 0-28-17-43-47-42-29 0-46 13-45 42 1 28 16 44 46 44m1 122c35 0 51-18 51-52 0-30-18-46-53-46-33 0-51 17-51 47 0 34 19 51 53 51"/><path id="bo" fill="#333" d="M101-251c82-7 93 87 43 132L82-64C71-53 59-42 53-27h129V0H18c2-99 128-94 128-182 0-28-16-43-45-43s-46 15-49 41l-32-3c6-41 34-60 81-64"/><path id="bp" fill="#3a414a" d="M32 76v-337h29V76z"/><path id="bq" fill="#3a414a" d="M108 0H70L1-190h34L89-25l56-165h34"/><path id="br" fill="#3a414a" d="M64 0c3-98 48-159 88-221H18v-27h164v26C143-157 98-101 97 0z"/><path id="bs" fill="#3a414a" d="M160-131c35 5 61 23 61 61C221 17 115-2 30 0v-248c76 3 177-17 177 60 0 33-19 50-47 57m-97-11c50-1 110 9 110-42 0-47-63-36-110-37zm0 115c55-2 124 14 124-45 0-56-70-42-124-44z"/><path id="bt" fill="#3a414a" d="M30 0v-248h33v221h125V0z"/><path id="bu" fill="#3a414a" d="m205 0-28-72H64L36 0H1l101-248h38L239 0zm-38-99-47-123c-12 45-31 82-46 123z"/><path id="bv" fill="#3a414a" d="M194 0 95-120 63-95V0H30v-248h33v124l119-124h40L117-140 236 0z"/><path id="bw" fill="#3a414a" d="M101-251c82-7 93 87 43 132L82-64C71-53 59-42 53-27h129V0H18c2-99 128-94 128-182 0-28-16-43-45-43s-46 15-49 41l-32-3c6-41 34-60 81-64"/><path id="bx" fill="#3a414a" d="M197 0v-115H63V0H30v-248h33v105h134v-105h34V0z"/><path id="by" fill="#333" d="M110-160c48 1 74 30 74 79 0 53-28 85-80 85-65 0-83-55-86-122-5-90 50-162 133-122 14 7 22 21 27 39l-31 6c-5-40-67-38-82-6-9 19-15 44-15 74 11-20 30-34 60-33m-7 138c34 0 49-23 49-58s-16-56-50-56c-29 0-50 16-49 49 1 36 15 65 50 65"/><path id="bz" fill="#333" d="M27 0v-27h64v-190l-56 39v-29l58-41h29v221h61V0z"/><path id="bA" fill="#3a414a" d="m144 0-44-69L55 0H2l70-98-66-92h53l41 62 40-62h54l-67 91 71 99z"/><g id="a"><use xlink:href="#aj" transform="scale(.08025)"/><use xlink:href="#ak" transform="translate(26.642)scale(.08025)"/><use xlink:href="#al" transform="translate(42.691)scale(.08025)"/></g><g id="b"><use xlink:href="#al" transform="scale(.08025)"/><use xlink:href="#am" transform="translate(16.05)scale(.08025)"/><use xlink:href="#an" transform="translate(25.599)scale(.08025)"/><use xlink:href="#ao" transform="translate(41.648)scale(.08025)"/><use xlink:href="#ap" transform="translate(62.432)scale(.08025)"/><use xlink:href="#ak" transform="translate(76.877)scale(.08025)"/><use xlink:href="#am" transform="translate(92.926)scale(.08025)"/></g><g id="c"><use xlink:href="#ao" transform="scale(.08025)"/><use xlink:href="#aq" transform="translate(20.784)scale(.08025)"/><use xlink:href="#ar" transform="translate(27.123)scale(.08025)"/><use xlink:href="#as" transform="translate(35.148)scale(.08025)"/></g><g id="d"><use xlink:href="#at" transform="scale(.08025)"/><use xlink:href="#aq" transform="translate(6.34)scale(.08025)"/><use xlink:href="#al" transform="translate(12.679)scale(.08025)"/><use xlink:href="#ap" transform="translate(28.728)scale(.08025)"/><use xlink:href="#an" transform="translate(43.173)scale(.08025)"/><use xlink:href="#au" transform="translate(59.222)scale(.08025)"/><use xlink:href="#aq" transform="translate(75.272)scale(.08025)"/><use xlink:href="#av" transform="translate(81.611)scale(.08025)"/><use xlink:href="#aw" transform="translate(97.66)scale(.08025)"/></g><g id="e"><use xlink:href="#ax" transform="scale(.08025)"/><use xlink:href="#ay" transform="translate(9.55)scale(.08025)"/><use xlink:href="#az" transform="translate(28.809)scale(.08025)"/></g><g id="f"><use xlink:href="#aA" transform="scale(.09877)"/><use xlink:href="#aB" transform="translate(23.704)scale(.09877)"/><use xlink:href="#aC" transform="translate(33.58)scale(.09877)"/><use xlink:href="#aD" transform="translate(55.21)scale(.09877)"/></g><g id="g"><use xlink:href="#aE" transform="scale(.09877)"/><use xlink:href="#aF" transform="translate(25.58)scale(.09877)"/><use xlink:href="#aG" transform="translate(35.457)scale(.09877)"/><use xlink:href="#aH" transform="translate(57.086)scale(.09877)"/><use xlink:href="#aI" transform="translate(76.84)scale(.09877)"/></g><g id="i"><use xlink:href="#aK" transform="scale(.08025)"/><use xlink:href="#aL" transform="translate(16.05)scale(.08025)"/><use xlink:href="#aM" transform="translate(30.494)scale(.08025)"/><use xlink:href="#aN" transform="translate(46.543)scale(.08025)"/></g><g id="j"><use xlink:href="#aO" transform="scale(.08025)"/><use xlink:href="#aP" transform="translate(6.34)scale(.08025)"/><use xlink:href="#aQ" transform="translate(22.389)scale(.08025)"/><use xlink:href="#aK" transform="translate(38.438)scale(.08025)"/><use xlink:href="#aR" transform="translate(54.488)scale(.08025)"/></g><g id="k"><use xlink:href="#aS" transform="scale(.08025)"/><use xlink:href="#aK" transform="translate(16.05)scale(.08025)"/><use xlink:href="#aR" transform="translate(32.099)scale(.08025)"/><use xlink:href="#aQ" transform="translate(40.123)scale(.08025)"/><use xlink:href="#aK" transform="translate(56.173)scale(.08025)"/><use xlink:href="#aR" transform="translate(72.222)scale(.08025)"/></g><g id="l"><use xlink:href="#aS" transform="scale(.08025)"/><use xlink:href="#aR" transform="translate(16.05)scale(.08025)"/><use xlink:href="#aT" transform="translate(24.074)scale(.08025)"/><use xlink:href="#aM" transform="translate(40.123)scale(.08025)"/><use xlink:href="#aN" transform="translate(56.173)scale(.08025)"/></g><g id="m"><use xlink:href="#aU" transform="scale(.08025)"/><use xlink:href="#aV" transform="translate(16.05)scale(.08025)"/><use xlink:href="#aR" transform="translate(32.099)scale(.08025)"/><use xlink:href="#aV" transform="translate(40.123)scale(.08025)"/></g><g id="n"><use xlink:href="#aL" transform="scale(.08025)"/><use xlink:href="#aK" transform="translate(14.444)scale(.08025)"/><use xlink:href="#aW" transform="translate(30.494)scale(.08025)"/><use xlink:href="#aQ" transform="translate(46.543)scale(.08025)"/><use xlink:href="#aN" transform="translate(62.593)scale(.08025)"/><use xlink:href="#aS" transform="translate(72.142)scale(.08025)"/><use xlink:href="#aX" transform="translate(88.191)scale(.08025)"/><use xlink:href="#aM" transform="translate(102.636)scale(.08025)"/><use xlink:href="#aL" transform="translate(118.685)scale(.08025)"/><use xlink:href="#aL" transform="translate(133.13)scale(.08025)"/></g><g id="o"><use xlink:href="#aO" transform="scale(.08025)"/><use xlink:href="#aP" transform="translate(6.34)scale(.08025)"/><use xlink:href="#aQ" transform="translate(22.389)scale(.08025)"/><use xlink:href="#aK" transform="translate(38.438)scale(.08025)"/><use xlink:href="#aR" transform="translate(54.488)scale(.08025)"/></g><g id="p"><use xlink:href="#aY" transform="scale(.08025)"/><use xlink:href="#aZ" transform="translate(9.55)scale(.08025)"/><use xlink:href="#aO" transform="translate(15.889)scale(.08025)"/><use xlink:href="#aP" transform="translate(22.228)scale(.08025)"/><use xlink:href="#ba" transform="translate(38.278)scale(.08025)"/><use xlink:href="#bb" transform="translate(52.722)scale(.08025)"/></g><g id="r"><use xlink:href="#aS" transform="scale(.08025)"/><use xlink:href="#aK" transform="translate(16.05)scale(.08025)"/><use xlink:href="#aR" transform="translate(32.099)scale(.08025)"/><use xlink:href="#aQ" transform="translate(40.123)scale(.08025)"/><use xlink:href="#aK" transform="translate(56.173)scale(.08025)"/><use xlink:href="#aR" transform="translate(72.222)scale(.08025)"/></g><g id="s"><use xlink:href="#aL" transform="scale(.08025)"/><use xlink:href="#aO" transform="translate(14.444)scale(.08025)"/><use xlink:href="#bc" transform="translate(20.784)scale(.08025)"/><use xlink:href="#aP" transform="translate(36.833)scale(.08025)"/><use xlink:href="#aO" transform="translate(52.883)scale(.08025)"/><use xlink:href="#aP" transform="translate(59.222)scale(.08025)"/><use xlink:href="#bc" transform="translate(75.272)scale(.08025)"/></g><g id="t"><use xlink:href="#ba" transform="scale(.08025)"/><use xlink:href="#aM" transform="translate(14.444)scale(.08025)"/><use xlink:href="#bd" transform="translate(30.494)scale(.08025)"/></g><g id="u"><use xlink:href="#aY" transform="scale(.08025)"/><use xlink:href="#ba" transform="translate(9.55)scale(.08025)"/><use xlink:href="#be" transform="translate(23.994 4.044)scale(.05617)"/><use xlink:href="#bb" transform="translate(37.475)scale(.08025)"/></g><g id="v"><use xlink:href="#bf" transform="scale(.08025)"/><use xlink:href="#aV" transform="translate(23.994)scale(.08025)"/><use xlink:href="#aX" transform="translate(40.043)scale(.08025)"/></g><g id="w"><use xlink:href="#aR" transform="scale(.08025)"/><use xlink:href="#aV" transform="translate(8.025)scale(.08025)"/><use xlink:href="#bc" transform="translate(24.074)scale(.08025)"/></g><g id="x"><use xlink:href="#aY" transform="scale(.08025)"/><use xlink:href="#aR" transform="translate(9.55)scale(.08025)"/><use xlink:href="#bb" transform="translate(17.574)scale(.08025)"/></g><g id="z"><use xlink:href="#aU" transform="scale(.08025)"/><use xlink:href="#aV" transform="translate(16.05)scale(.08025)"/><use xlink:href="#aR" transform="translate(32.099)scale(.08025)"/><use xlink:href="#aV" transform="translate(40.123)scale(.08025)"/></g><g id="A"><use xlink:href="#aM" transform="scale(.08025)"/><use xlink:href="#aP" transform="translate(16.05)scale(.08025)"/><use xlink:href="#aX" transform="translate(32.099)scale(.08025)"/><use xlink:href="#aN" transform="translate(46.543)scale(.08025)"/><use xlink:href="#bd" transform="translate(56.093)scale(.08025)"/><use xlink:href="#aQ" transform="translate(70.537)scale(.08025)"/><use xlink:href="#aR" transform="translate(86.586)scale(.08025)"/><use xlink:href="#aM" transform="translate(94.611)scale(.08025)"/><use xlink:href="#aU" transform="translate(110.66)scale(.08025)"/></g><g id="B"><use xlink:href="#aY" transform="scale(.08025)"/><use xlink:href="#bf" transform="translate(9.55)scale(.08025)"/><use xlink:href="#bg" transform="translate(33.543 4.044)scale(.05617)"/><use xlink:href="#bb" transform="translate(47.025)scale(.08025)"/></g><g id="C"><use xlink:href="#aX" transform="scale(.08025)"/><use xlink:href="#aO" transform="translate(14.444)scale(.08025)"/><use xlink:href="#aQ" transform="translate(20.784)scale(.08025)"/><use xlink:href="#aT" transform="translate(36.833)scale(.08025)"/><use xlink:href="#aM" transform="translate(52.883)scale(.08025)"/><use xlink:href="#aN" transform="translate(68.932)scale(.08025)"/></g><g id="D"><use xlink:href="#aU" transform="scale(.08025)"/><use xlink:href="#aV" transform="translate(16.05)scale(.08025)"/><use xlink:href="#aR" transform="translate(32.099)scale(.08025)"/><use xlink:href="#aV" transform="translate(40.123)scale(.08025)"/></g><g id="E"><use xlink:href="#aY" transform="scale(.08025)"/><use xlink:href="#aX" transform="translate(9.55)scale(.08025)"/><use xlink:href="#aU" transform="translate(23.994)scale(.08025)"/><use xlink:href="#bh" transform="translate(40.043 4.044)scale(.05617)"/><use xlink:href="#bb" transform="translate(51.278)scale(.08025)"/></g><g id="F"><use xlink:href="#aV" transform="scale(.08025)"/><use xlink:href="#aU" transform="translate(16.05)scale(.08025)"/><use xlink:href="#aU" transform="translate(32.099)scale(.08025)"/><use xlink:href="#aO" transform="translate(48.148)scale(.08025)"/><use xlink:href="#aR" transform="translate(54.488)scale(.08025)"/><use xlink:href="#aO" transform="translate(62.512)scale(.08025)"/><use xlink:href="#aS" transform="translate(68.852)scale(.08025)"/><use xlink:href="#aP" transform="translate(84.901)scale(.08025)"/><use xlink:href="#aV" transform="translate(100.95)scale(.08025)"/><use xlink:href="#aZ" transform="translate(117)scale(.08025)"/></g><g id="G"><use xlink:href="#aU" transform="scale(.08025)"/><use xlink:href="#aV" transform="translate(16.05)scale(.08025)"/><use xlink:href="#aR" transform="translate(32.099)scale(.08025)"/><use xlink:href="#aV" transform="translate(40.123)scale(.08025)"/></g><g id="H"><use xlink:href="#aY" transform="scale(.08025)"/><use xlink:href="#aV" transform="translate(9.55)scale(.08025)"/><use xlink:href="#aU" transform="translate(25.599)scale(.08025)"/><use xlink:href="#bi" transform="translate(41.648 4.044)scale(.05617)"/><use xlink:href="#bb" transform="translate(53.95)scale(.08025)"/></g><g id="I"><use xlink:href="#bj" transform="scale(.05556)"/><use xlink:href="#bk" transform="translate(11.111)scale(.05556)"/></g><g id="J"><use xlink:href="#bj" transform="scale(.05556)"/><use xlink:href="#bl" transform="translate(11.111)scale(.05556)"/></g><g id="K"><use xlink:href="#bj" transform="scale(.05556)"/><use xlink:href="#bm" transform="translate(11.111)scale(.05556)"/></g><g id="L"><use xlink:href="#bj" transform="scale(.05556)"/><use xlink:href="#bn" transform="translate(11.111)scale(.05556)"/></g><g id="M"><use xlink:href="#bj" transform="scale(.05556)"/><use xlink:href="#bo" transform="translate(11.111)scale(.05556)"/></g><g id="N"><use xlink:href="#aQ" transform="scale(.08025)"/><use xlink:href="#aV" transform="translate(16.05)scale(.08025)"/><use xlink:href="#bd" transform="translate(32.099)scale(.08025)"/><use xlink:href="#aZ" transform="translate(46.543)scale(.08025)"/><use xlink:href="#aS" transform="translate(52.883)scale(.08025)"/><use xlink:href="#aV" transform="translate(68.932)scale(.08025)"/><use xlink:href="#aU" transform="translate(84.981)scale(.08025)"/></g><g id="O"><use xlink:href="#aY" transform="scale(.08025)"/><use xlink:href="#aV" transform="translate(9.55)scale(.08025)"/><use xlink:href="#aU" transform="translate(25.599)scale(.08025)"/><use xlink:href="#bi" transform="translate(41.648 4.044)scale(.05617)"/></g><g id="P"><use xlink:href="#bp" transform="scale(.08025)"/><use xlink:href="#bp" transform="translate(7.463)scale(.08025)"/></g><g id="Q"><use xlink:href="#bf" transform="scale(.08025)"/><use xlink:href="#bg" transform="translate(23.994 4.044)scale(.05617)"/><use xlink:href="#bb" transform="translate(37.475)scale(.08025)"/></g><g id="R"><use xlink:href="#bj" transform="scale(.05556)"/><use xlink:href="#bj" transform="translate(11.111)scale(.05556)"/></g><g id="S"><use xlink:href="#aQ" transform="scale(.08025)"/><use xlink:href="#aV" transform="translate(16.05)scale(.08025)"/><use xlink:href="#bd" transform="translate(32.099)scale(.08025)"/><use xlink:href="#aZ" transform="translate(46.543)scale(.08025)"/><use xlink:href="#aS" transform="translate(52.883)scale(.08025)"/><use xlink:href="#aV" transform="translate(68.932)scale(.08025)"/><use xlink:href="#aU" transform="translate(84.981)scale(.08025)"/></g><g id="T"><use xlink:href="#aZ" transform="scale(.08025)"/><use xlink:href="#aM" transform="translate(6.34)scale(.08025)"/><use xlink:href="#aP" transform="translate(22.389)scale(.08025)"/><use xlink:href="#bc" transform="translate(38.438)scale(.08025)"/><use xlink:href="#aR" transform="translate(54.488)scale(.08025)"/><use xlink:href="#aT" transform="translate(62.512)scale(.08025)"/></g><g id="U"><use xlink:href="#aY" transform="scale(.08025)"/><use xlink:href="#aZ" transform="translate(9.55)scale(.08025)"/><use xlink:href="#bb" transform="translate(15.889)scale(.08025)"/></g><g id="V"><use xlink:href="#bq" transform="scale(.08025)"/><use xlink:href="#aM" transform="translate(14.444)scale(.08025)"/><use xlink:href="#aN" transform="translate(30.494)scale(.08025)"/><use xlink:href="#aL" transform="translate(40.043)scale(.08025)"/><use xlink:href="#aO" transform="translate(54.488)scale(.08025)"/><use xlink:href="#aS" transform="translate(60.827)scale(.08025)"/><use xlink:href="#aP" transform="translate(76.877)scale(.08025)"/></g><g id="X"><use xlink:href="#aY" transform="scale(.08025)"/><use xlink:href="#bq" transform="translate(9.55)scale(.08025)"/><use xlink:href="#bb" transform="translate(23.994)scale(.08025)"/></g><g id="Y"><use xlink:href="#aZ" transform="scale(.06173)"/><use xlink:href="#aO" transform="translate(4.877)scale(.06173)"/><use xlink:href="#aW" transform="translate(9.753)scale(.06173)"/><use xlink:href="#aL" transform="translate(22.099)scale(.06173)"/><use xlink:href="#aS" transform="translate(33.21)scale(.06173)"/><use xlink:href="#aU" transform="translate(45.556)scale(.06173)"/><use xlink:href="#aO" transform="translate(57.901)scale(.06173)"/><use xlink:href="#aK" transform="translate(62.778)scale(.06173)"/><use xlink:href="#bf" transform="translate(75.123)scale(.06173)"/></g><g id="Z"><use xlink:href="#bs" transform="scale(.06173)"/><use xlink:href="#bt" transform="translate(14.815)scale(.06173)"/><use xlink:href="#bu" transform="translate(27.16)scale(.06173)"/><use xlink:href="#bv" transform="translate(41.975)scale(.06173)"/><use xlink:href="#bg" transform="translate(56.79)scale(.06173)"/><use xlink:href="#bw" transform="translate(71.605)scale(.06173)"/><use xlink:href="#aW" transform="translate(83.95)scale(.06173)"/></g><g id="aa"><use xlink:href="#bv" transform="scale(.06173)"/><use xlink:href="#bd" transform="translate(14.815)scale(.06173)"/><use xlink:href="#aU" transform="translate(25.926)scale(.06173)"/></g><g id="ab"><use xlink:href="#bx" transform="scale(.06173)"/><use xlink:href="#aV" transform="translate(15.988)scale(.06173)"/><use xlink:href="#aL" transform="translate(28.333)scale(.06173)"/><use xlink:href="#aT" transform="translate(39.444)scale(.06173)"/></g><g id="ac"><use xlink:href="#aY" transform="scale(.06173)"/><use xlink:href="#bx" transform="translate(7.346)scale(.06173)"/><use xlink:href="#bb" transform="translate(23.333)scale(.06173)"/></g><g id="ad"><use xlink:href="#aZ" transform="scale(.08025)"/><use xlink:href="#aV" transform="translate(6.34)scale(.08025)"/><use xlink:href="#aL" transform="translate(22.389)scale(.08025)"/><use xlink:href="#aR" transform="translate(36.833)scale(.08025)"/></g><g id="ae"><use xlink:href="#bf" transform="scale(.08025)"/><use xlink:href="#aV" transform="translate(23.994)scale(.08025)"/><use xlink:href="#aX" transform="translate(40.043)scale(.08025)"/></g><g id="af"><use xlink:href="#aY" transform="scale(.08025)"/><use xlink:href="#aR" transform="translate(9.55)scale(.08025)"/><use xlink:href="#bt" transform="translate(17.574 4.044)scale(.05617)"/><use xlink:href="#bb" transform="translate(28.809)scale(.08025)"/></g><g id="ag"><use xlink:href="#bj" transform="scale(.05556)"/><use xlink:href="#by" transform="translate(11.111)scale(.05556)"/></g><g id="ai"><use xlink:href="#aJ" transform="scale(.08025)"/><use xlink:href="#bA" transform="translate(16.05)scale(.08025)"/><use xlink:href="#aJ" transform="translate(32.099)scale(.08025)"/><use xlink:href="#aJ" transform="translate(48.148)scale(.08025)"/></g><use xlink:href="#aJ" id="h" transform="scale(.09877)"/><use xlink:href="#br" id="W" transform="scale(.08025)"/><use xlink:href="#bz" id="ah" transform="scale(.05556)"/></defs></g></svg>