<svg xmlns="http://www.w3.org/2000/svg" xmlns:xlink="http://www.w3.org/1999/xlink" width="1524" height="1287" viewBox="0 0 1524 1287"><g transform="translate(-78 1060)"><path fill="none" stroke="#008a0e" stroke-width="4" d="M120-788a12 12 0 0 1 12-12h1416a12 12 0 0 1 12 12V28a12 12 0 0 1-12 12H132a12 12 0 0 1-12-12z"/><path fill="#f4d9ff" stroke="#3a414a" d="M751.33-620H950l-21.33 80H730z" class="qc-clickable" data-target="11"/><use xlink:href="#a" transform="translate(750.736 -591.057)"/><use xlink:href="#b" transform="translate(882.1 -591.057)"/><use xlink:href="#c" transform="translate(803.755 -556.39)"/><path fill="#ffcf99" stroke="#3a414a" d="M750.33-260H949l-21.33 80H729z"/><use xlink:href="#d" transform="translate(784.283 -231.057)"/><use xlink:href="#e" transform="translate(816.93 -196.39)"/><path fill="#008a0e" d="M120-788a12 12 0 0 1 12-12h416a12 12 0 0 1 12 12v39.33a12 12 0 0 1-12 12H132a12 12 0 0 1-12-12z"/><use xlink:href="#f" transform="translate(137.738 -762.186)"/><use xlink:href="#g" transform="translate(204.503 -762.186)"/><use xlink:href="#h" transform="translate(315.003 -762.186)"/><use xlink:href="#i" transform="translate(374.225 -762.186)"/><use xlink:href="#j" transform="translate(503.904 -762.186)"/><path fill="#dfe3e8" d="M120-1002.45a17.55 17.55 0 0 1 17.55-17.55h184.9a17.55 17.55 0 0 1 17.55 17.55v140.4a17.55 17.55 0 0 1-17.55 17.55h-184.9A17.55 17.55 0 0 1 120-862.05z"/><use xlink:href="#k" transform="translate(140 -967.556)"/><use xlink:href="#l" transform="translate(140 -924.889)"/><use xlink:href="#m" transform="translate(246.47 -924.889)"/><use xlink:href="#n" transform="translate(140 -882.222)"/><path fill="#cfe682" stroke="#3a414a" d="M127.73 65h51.44l-7.74 29H120z"/><path fill="#cfe4ff" stroke="#3a414a" d="M127.73 161.5h51.44l-7.74 29H120z"/><path fill="#fff7a1" stroke="#3a414a" d="M127.73 113.25h51.44l-7.74 29H120z"/><path fill="none" d="M200 60h225.93v38.67H200z"/><use xlink:href="#o" transform="translate(205 88.564)"/><use xlink:href="#p" transform="translate(269.117 88.564)"/><path fill="none" d="M200 108.5h240v38.67H200z"/><use xlink:href="#o" transform="translate(205 137.064)"/><use xlink:href="#q" transform="translate(269.117 137.064)"/><path fill="none" d="M200 157.67h240v38.66H200z"/><use xlink:href="#r" transform="translate(205 186.23)"/><use xlink:href="#s" transform="translate(278.747 186.23)"/><path fill="#f4d9ff" stroke="#3a414a" d="M507.73 68.83h51.44l-7.74 29H500z"/><path fill="none" d="M580 65h340v36.67H580z"/><use xlink:href="#t" transform="translate(585 93.111)"/><use xlink:href="#u" transform="translate(740.599 93.111)"/><use xlink:href="#v" transform="translate(811.136 93.111)"/><use xlink:href="#w" transform="translate(585 127.778)"/><path fill="#ffcf99" stroke="#3a414a" d="M507.73 117.08h51.44l-7.74 29H500z"/><path fill="none" d="M580 113.25h260v36.67H580z"/><use xlink:href="#t" transform="translate(585 141.361)"/><use xlink:href="#x" transform="translate(740.599 141.361)"/><use xlink:href="#w" transform="translate(585 176.028)"/><path fill="none" stroke="#1071e5" d="M919-415H759l80-40z"/><path fill="#979ea8" stroke="#979ea8" stroke-width=".05" d="M839.98-474.06H838v-16.9h2zm1-40.9H839v-23.54h2z"/><path fill="#979ea8" d="M840.98-538.47H839v-1.03h2zM839-458.8l-4.63-14.26h9.26z"/><path fill="#979ea8" stroke="#979ea8" stroke-width=".05" d="m839-455.64-5.98-18.4h11.96zm-3.3-16.45 3.3 10.15 3.3-10.14z"/><use xlink:href="#y" transform="translate(828.894 -498.948)"/><path fill="#979ea8" stroke="#979ea8" stroke-width=".05" d="M660.56-334.02h-75.52l-.83.06-.75.18-.73.3-.67.42-.6.5-.5.6-.43.68-.3.73-.18.76-.06.84V-279H578v-50.04l.1-1.05.24-1.06.42-1 .58-.94.7-.83.84-.7.93-.6 1-.4 1.08-.26 1.06-.08h75.6zm143.75-6.94-.07 1.05-.26 1.06-.42 1-.57.94-.7.83-.85.7-.93.6-1 .4-1.08.26-1.05.08h-114.6V-336H797.3l.82-.06.76-.18.73-.3.68-.42.6-.5.52-.6.4-.68.3-.73.2-.76.06-.84v-72.46h1.95z"/><path fill="#979ea8" d="M804.3-413.47h-1.94v-1.03h1.95zM579-263.74 574.37-278h9.26z"/><path fill="#979ea8" stroke="#979ea8" stroke-width=".05" d="m579-260.58-5.98-18.4h11.96zm-3.3-16.45 3.3 10.14 3.3-10.13z"/><use xlink:href="#z" transform="translate(660.568 -331)"/><path fill="#979ea8" stroke="#979ea8" stroke-width=".05" d="M839.98-279H838v-19.67h2zm0-43.67H838v-90.83h2z"/><path fill="#979ea8" d="M839.98-413.47H838v-1.03h2zM839-263.74 834.37-278h9.26z"/><path fill="#979ea8" stroke="#979ea8" stroke-width=".05" d="m839-260.58-5.98-18.4h11.96zm-3.3-16.45 3.3 10.14 3.3-10.13z"/><use xlink:href="#z" transform="translate(827.894 -306.667)"/><path fill="#979ea8" stroke="#979ea8" stroke-width=".05" d="m1093.04-335.98 1.05.1 1.06.24 1 .42.94.58.83.7.7.84.6.93.4 1 .26 1.08.07 1.06V-279h-1.94v-49.96l-.07-.83-.18-.75-.3-.73-.42-.67-.5-.6-.6-.5-.68-.43-.73-.3-.76-.18-.84-.06h-65.88v-1.96zm-212.67-4.23.2.75.3.73.4.67.5.6.6.5.68.43.73.3.77.18.82.06h119.5v1.96H885.28l-1.06-.1-1.06-.24-1-.42-.95-.58-.83-.7-.7-.84-.58-.93-.42-1-.26-1.08-.08-1.06v-72.54h1.95v72.46z"/><path fill="#979ea8" d="M880.3-413.47h-1.94v-1.03h1.95zM1099-263.74l-4.63-14.26h9.27z"/><path fill="#979ea8" stroke="#979ea8" stroke-width=".05" d="m1099-260.58-5.98-18.4h11.96zm-3.3-16.45 3.3 10.14 3.3-10.13z"/><use xlink:href="#z" transform="translate(1004.868 -331)"/><path fill="#ffcf99" stroke="#3a414a" d="M1010.33-260H1209l-21.33 80H989z"/><use xlink:href="#A" transform="translate(1041.835 -231.057)"/><use xlink:href="#B" transform="translate(1086.613 -231.057)"/><use xlink:href="#C" transform="translate(1067.382 -196.39)"/><path fill="#ffcf99" stroke="#3a414a" d="M490.33-260H689l-21.33 80H469z"/><use xlink:href="#D" transform="translate(527.453 -231.057)"/><use xlink:href="#E" transform="translate(593.095 -231.057)"/><use xlink:href="#F" transform="translate(560.943 -196.39)"/><defs><path id="G" fill="#3a414a" d="M141-36C126-15 110 5 73 4 37 3 15-17 15-53c-1-64 63-63 125-63 3-35-9-54-41-54-24 1-41 7-42 31l-33-3c5-37 33-52 76-52 45 0 72 20 72 64v82c-1 20 7 32 28 27v20c-31 9-61-2-59-35M48-53c0 20 12 33 32 33 41-3 63-29 60-74-43 2-92-5-92 41"/><path id="H" fill="#3a414a" d="M85-194c31 0 48 13 60 33l-1-100h32l1 261h-30c-2-10 0-23-3-31C134-8 116 4 85 4 32 4 16-35 15-94c0-66 23-100 70-100m9 24c-40 0-46 34-46 75 0 40 6 74 45 74 42 0 51-32 51-76 0-42-9-74-50-73"/><path id="I" fill="#3a414a" d="M24-231v-30h32v30zM24 0v-190h32V0z"/><path id="J" fill="#3a414a" d="M59-47c-2 24 18 29 38 22v24C64 9 27 4 27-40v-127H5v-23h24l9-43h21v43h35v23H59z"/><path id="K" fill="#3a414a" d="M100-194c62-1 85 37 85 99 1 63-27 99-86 99S16-35 15-95c0-66 28-99 85-99M99-20c44 1 53-31 53-75 0-43-8-75-51-75s-53 32-53 75 10 74 51 75"/><path id="L" fill="#3a414a" d="M117-194c89-4 53 116 60 194h-32v-121c0-31-8-49-39-48C34-167 62-67 57 0H25l-1-190h30c1 10-1 24 2 32 11-22 29-35 61-36"/><path id="M" fill="#3a414a" d="M24 0v-261h32V0z"/><path id="N" fill="#3a414a" d="M87 75C49 33 22-17 22-94c0-76 28-126 65-167h31c-38 41-64 92-64 168S80 34 118 75z"/><path id="O" fill="#3a414a" d="M63-220v92h138v28H63V0H30v-248h175v28z"/><path id="P" fill="#3a414a" d="M33-261c38 41 65 92 65 168S71 34 33 75H2C39 34 66-17 66-93S39-220 2-261z"/><path id="Q" fill="#3a414a" d="M177-190C167-65 218 103 67 71c-23-6-38-20-44-43l32-5c15 47 100 32 89-28v-30C133-14 115 1 83 1 29 1 15-40 15-95c0-56 16-97 71-98 29-1 48 16 59 35 1-10 0-23 2-32zM94-22c36 0 50-32 50-73 0-42-14-75-50-75-39 0-46 34-46 75s6 73 46 73"/><path id="R" fill="#3a414a" d="M114-163C36-179 61-72 57 0H25l-1-190h30c1 12-1 29 2 39 6-27 23-49 58-41z"/><path id="S" fill="#3a414a" d="M106-169C34-169 62-67 57 0H25v-261h32l-1 103c12-21 28-36 61-36 89 0 53 116 60 194h-32v-121c2-32-8-49-39-48"/><path id="T" fill="#3a414a" d="M210-169c-67 3-38 105-44 169h-31v-121c0-29-5-50-35-48C34-165 62-65 56 0H25l-1-190h30c1 10-1 24 2 32 10-44 99-50 107 0 11-21 27-35 58-36 85-2 47 119 55 194h-31v-121c0-29-5-49-35-48"/><path id="U" fill="#fff" d="M266 0h-40l-56-210L115 0H75L2-248h35L96-30l15-64 43-154h32l59 218 59-218h35"/><path id="V" fill="#fff" d="M100-194c63 0 86 42 84 106H49c0 40 14 67 53 68 26 1 43-12 49-29l28 8c-11 28-37 45-77 45C44 4 14-33 15-96c1-61 26-98 85-98m52 81c6-60-76-77-97-28-3 7-6 17-6 28z"/><path id="W" fill="#fff" d="M115-194c53 0 69 39 70 98 0 66-23 100-70 100C84 3 66-7 56-30L54 0H23l1-261h32v101c10-23 28-34 59-34m-8 174c40 0 45-34 45-75 0-40-5-75-45-74-42 0-51 32-51 76 0 43 10 73 51 73"/><path id="X" fill="#fff" d="M114-163C36-179 61-72 57 0H25l-1-190h30c1 12-1 29 2 39 6-27 23-49 58-41z"/><path id="Y" fill="#fff" d="M100-194c62-1 85 37 85 99 1 63-27 99-86 99S16-35 15-95c0-66 28-99 85-99M99-20c44 1 53-31 53-75 0-43-8-75-51-75s-53 32-53 75 10 74 51 75"/><path id="Z" fill="#fff" d="M206 0h-36l-40-164L89 0H53L-1-190h32L70-26l43-164h34l41 164 42-164h31"/><path id="aa" fill="#fff" d="M135-143c-3-34-86-38-87 0 15 53 115 12 119 90S17 21 10-45l28-5c4 36 97 45 98 0-10-56-113-15-118-90-4-57 82-63 122-42 12 7 21 19 24 35"/><path id="ab" fill="#fff" d="M24-231v-30h32v30zM24 0v-190h32V0z"/><path id="ac" fill="#fff" d="M59-47c-2 24 18 29 38 22v24C64 9 27 4 27-40v-127H5v-23h24l9-43h21v43h35v23H59z"/><path id="ad" fill="#fff" d="M106-169C34-169 62-67 57 0H25v-261h32l-1 103c12-21 28-36 61-36 89 0 53 116 60 194h-32v-121c2-32-8-49-39-48"/><path id="ae" fill="#fff" d="M24 0v-261h32V0z"/><path id="af" fill="#fff" d="M85-194c31 0 48 13 60 33l-1-100h32l1 261h-30c-2-10 0-23-3-31C134-8 116 4 85 4 32 4 16-35 15-94c0-66 23-100 70-100m9 24c-40 0-46 34-46 75 0 40 6 74 45 74 42 0 51-32 51-76 0-42-9-74-50-73"/><path id="ag" fill="#fff" d="M84 4C-5 8 30-112 23-190h32v120c0 31 7 50 39 49 72-2 45-101 50-169h31l1 190h-30c-1-10 1-25-2-33-11 22-28 36-60 37"/><path id="ah" fill="#fff" d="M210-169c-67 3-38 105-44 169h-31v-121c0-29-5-50-35-48C34-165 62-65 56 0H25l-1-190h30c1 10-1 24 2 32 10-44 99-50 107 0 11-21 27-35 58-36 85-2 47 119 55 194h-31v-121c0-29-5-49-35-48"/><path id="ai" fill="#fff" d="M87 75C49 33 22-17 22-94c0-76 28-126 65-167h31c-38 41-64 92-64 168S80 34 118 75z"/><path id="aj" fill="#fff" d="M160-131c35 5 61 23 61 61C221 17 115-2 30 0v-248c76 3 177-17 177 60 0 33-19 50-47 57m-97-11c50-1 110 9 110-42 0-47-63-36-110-37zm0 115c55-2 124 14 124-45 0-56-70-42-124-44z"/><path id="ak" fill="#fff" d="M33-261c38 41 65 92 65 168S71 34 33 75H2C39 34 66-17 66-93S39-220 2-261z"/><path id="al" fill="#3a414a" d="M238-95c0 69-44 99-111 99C63 4 22-25 22-93v-155h51v151c-1 38 19 59 55 60 90 1 49-130 58-211h52z"/><path id="am" fill="#3a414a" d="M135-194c87-1 58 113 63 194h-50c-7-57 23-157-34-157-59 0-34 97-39 157H25l-1-190h47c2 12-1 28 3 38 12-26 28-41 61-42"/><path id="an" fill="#3a414a" d="M135-194c53 0 70 44 70 98 0 56-19 98-73 100-31 1-45-17-59-34 3 33 2 69 2 105H25l-1-265h48c2 10 0 23 3 31 11-24 29-35 60-35M114-30c33 0 39-31 40-66 0-38-9-64-40-64-56 0-55 130 0 130"/><path id="ao" fill="#3a414a" d="M133-34C117-15 103 5 69 4 32 3 11-16 11-54c-1-60 55-63 116-61 1-26-3-47-28-47-18 1-26 9-28 27l-52-2c7-38 36-58 82-57s74 22 75 68l1 82c-1 14 12 18 25 15v27c-30 8-71 5-69-32m-48 3c29 0 43-24 42-57-32 0-66-3-65 30 0 17 8 27 23 27"/><path id="ap" fill="#3a414a" d="M190-63c-7 42-38 67-86 67-59 0-84-38-90-98-12-110 154-137 174-36l-49 2c-2-19-15-32-35-32-30 0-35 28-38 64-6 74 65 87 74 30"/><path id="aq" fill="#3a414a" d="M147 0 96-86 75-71V0H25v-261h50v150l67-79h53l-66 74L201 0z"/><path id="ar" fill="#3a414a" d="M182-130c37 4 62 22 62 59C244 23 116-4 24 0v-248c84 5 203-23 205 63 0 31-19 50-47 55M76-148c40-3 101 13 101-30 0-44-60-28-101-31zm0 110c48-3 116 14 116-37 0-48-69-32-116-35z"/><path id="as" fill="#3a414a" d="M25 0v-261h50V0z"/><path id="at" fill="#3a414a" d="M110-194c64 0 96 36 96 99 0 64-35 99-97 99-61 0-95-36-95-99 0-62 34-99 96-99m-1 164c35 0 45-28 45-65 0-40-10-65-43-65-34 0-45 26-45 65 0 36 10 65 43 65"/><path id="au" fill="#3a414a" d="M175 0 67-191c6 58 2 128 3 191H24v-248h59L193-55c-6-58-2-129-3-193h46V0z"/><path id="av" fill="#3a414a" d="m199 0-22-63H83L61 0H9l90-248h61L250 0zm-33-102-36-108c-10 38-24 72-36 108z"/><path id="aw" fill="#3a414a" d="M24-248c120-7 223 5 221 122C244-46 201 0 124 0H24zM76-40c74 7 117-18 117-86 0-67-45-88-117-82z"/><path id="ax" fill="#3a414a" d="M84 4C-5 8 30-112 23-190h32v120c0 31 7 50 39 49 72-2 45-101 50-169h31l1 190h-30c-1-10 1-25-2-33-11 22-28 36-60 37"/><path id="ay" fill="#3a414a" d="M135-143c-3-34-86-38-87 0 15 53 115 12 119 90S17 21 10-45l28-5c4 36 97 45 98 0-10-56-113-15-118-90-4-57 82-63 122-42 12 7 21 19 24 35"/><path id="az" fill="#3a414a" d="M100-194c63 0 86 42 84 106H49c0 40 14 67 53 68 26 1 43-12 49-29l28 8c-11 28-37 45-77 45C44 4 14-33 15-96c1-61 26-98 85-98m52 81c6-60-76-77-97-28-3 7-6 17-6 28z"/><path id="aA" fill="#3a414a" d="M115-194c55 1 70 41 70 98S169 2 115 4C84 4 66-9 55-30l1 105H24l-1-265h31l2 30c10-21 28-34 59-34m-8 174c40 0 45-34 45-75s-6-73-45-74c-42 0-51 32-51 76 0 43 10 73 51 73"/><path id="aB" fill="#3a414a" d="M115-194c53 0 69 39 70 98 0 66-23 100-70 100C84 3 66-7 56-30L54 0H23l1-261h32v101c10-23 28-34 59-34m-8 174c40 0 45-34 45-75 0-40-5-75-45-74-42 0-51 32-51 76 0 43 10 73 51 73"/><path id="aC" fill="#3a414a" d="M96-169c-40 0-48 33-48 73s9 75 48 75c24 0 41-14 43-38l32 2c-6 37-31 61-74 61-59 0-76-41-82-99-10-93 101-131 147-64 4 7 5 14 7 22l-32 3c-4-21-16-35-41-35"/><path id="aD" fill="#3a414a" d="M143 0 79-87 56-68V0H24v-261h32v163l83-92h37l-77 82L181 0z"/><path id="aE" fill="#333" d="M155-56V0h-30v-56H8v-25l114-167h33v167h35v25zm-30-156c-27 46-58 90-88 131h88z"/><path id="aF" fill="#333" d="M54-142c48-35 137-8 131 61C196 18 31 33 14-55l32-4c7 23 22 37 52 37 35-1 51-22 54-58 4-55-73-65-99-34H22l8-134h141v27H59"/><path id="aG" fill="#3a414a" d="M108 0H70L1-190h34L89-25l56-165h34"/><path id="aH" fill="#3a414a" d="M33 0v-248h34V0z"/><path id="aI" fill="#3a414a" d="M137 0h-34L2-248h35l83 218 83-218h36"/><path id="aJ" fill="#3a414a" d="M101-234c-31-9-42 10-38 44h38v23H63V0H32v-167H5v-23h27c-7-52 17-82 69-68z"/><g id="a"><use xlink:href="#G" transform="scale(.08025)"/><use xlink:href="#H" transform="translate(16.05)scale(.08025)"/><use xlink:href="#H" transform="translate(32.099)scale(.08025)"/><use xlink:href="#I" transform="translate(48.148)scale(.08025)"/><use xlink:href="#J" transform="translate(54.488)scale(.08025)"/><use xlink:href="#I" transform="translate(62.512)scale(.08025)"/><use xlink:href="#K" transform="translate(68.852)scale(.08025)"/><use xlink:href="#L" transform="translate(84.901)scale(.08025)"/><use xlink:href="#G" transform="translate(100.95)scale(.08025)"/><use xlink:href="#M" transform="translate(117)scale(.08025)"/></g><g id="b"><use xlink:href="#H" transform="scale(.08025)"/><use xlink:href="#G" transform="translate(16.05)scale(.08025)"/><use xlink:href="#J" transform="translate(32.099)scale(.08025)"/><use xlink:href="#G" transform="translate(40.123)scale(.08025)"/></g><g id="c"><use xlink:href="#N" transform="scale(.08025)"/><use xlink:href="#G" transform="translate(9.55)scale(.08025)"/><use xlink:href="#H" transform="translate(25.599)scale(.08025)"/><use xlink:href="#O" transform="translate(41.648 4.044)scale(.05617)"/><use xlink:href="#P" transform="translate(53.95)scale(.08025)"/></g><g id="d"><use xlink:href="#G" transform="scale(.08025)"/><use xlink:href="#M" transform="translate(16.05)scale(.08025)"/><use xlink:href="#Q" transform="translate(22.389)scale(.08025)"/><use xlink:href="#K" transform="translate(38.438)scale(.08025)"/><use xlink:href="#R" transform="translate(54.488)scale(.08025)"/><use xlink:href="#I" transform="translate(64.037)scale(.08025)"/><use xlink:href="#J" transform="translate(70.377)scale(.08025)"/><use xlink:href="#S" transform="translate(78.401)scale(.08025)"/><use xlink:href="#T" transform="translate(94.45)scale(.08025)"/></g><g id="e"><use xlink:href="#N" transform="scale(.08025)"/><use xlink:href="#G" transform="translate(9.55)scale(.08025)"/><use xlink:href="#P" transform="translate(25.599)scale(.08025)"/></g><g id="f"><use xlink:href="#U" transform="scale(.08025)"/><use xlink:href="#V" transform="translate(26.642)scale(.08025)"/><use xlink:href="#W" transform="translate(42.691)scale(.08025)"/></g><g id="g"><use xlink:href="#W" transform="scale(.08025)"/><use xlink:href="#X" transform="translate(16.05)scale(.08025)"/><use xlink:href="#Y" transform="translate(25.599)scale(.08025)"/><use xlink:href="#Z" transform="translate(41.648)scale(.08025)"/><use xlink:href="#aa" transform="translate(62.432)scale(.08025)"/><use xlink:href="#V" transform="translate(76.877)scale(.08025)"/><use xlink:href="#X" transform="translate(92.926)scale(.08025)"/></g><g id="h"><use xlink:href="#Z" transform="scale(.08025)"/><use xlink:href="#ab" transform="translate(20.784)scale(.08025)"/><use xlink:href="#ac" transform="translate(27.123)scale(.08025)"/><use xlink:href="#ad" transform="translate(35.148)scale(.08025)"/></g><g id="i"><use xlink:href="#ae" transform="scale(.08025)"/><use xlink:href="#ab" transform="translate(6.34)scale(.08025)"/><use xlink:href="#W" transform="translate(12.679)scale(.08025)"/><use xlink:href="#aa" transform="translate(28.728)scale(.08025)"/><use xlink:href="#Y" transform="translate(43.173)scale(.08025)"/><use xlink:href="#af" transform="translate(59.222)scale(.08025)"/><use xlink:href="#ab" transform="translate(75.272)scale(.08025)"/><use xlink:href="#ag" transform="translate(81.611)scale(.08025)"/><use xlink:href="#ah" transform="translate(97.66)scale(.08025)"/></g><g id="j"><use xlink:href="#ai" transform="scale(.08025)"/><use xlink:href="#aj" transform="translate(9.55)scale(.08025)"/><use xlink:href="#ak" transform="translate(28.809)scale(.08025)"/></g><g id="k"><use xlink:href="#al" transform="scale(.09877)"/><use xlink:href="#am" transform="translate(25.58)scale(.09877)"/><use xlink:href="#an" transform="translate(47.21)scale(.09877)"/><use xlink:href="#ao" transform="translate(68.84)scale(.09877)"/><use xlink:href="#ap" transform="translate(88.593)scale(.09877)"/><use xlink:href="#aq" transform="translate(108.346)scale(.09877)"/></g><g id="l"><use xlink:href="#ar" transform="scale(.09877)"/><use xlink:href="#as" transform="translate(25.58)scale(.09877)"/><use xlink:href="#at" transform="translate(35.457)scale(.09877)"/><use xlink:href="#ap" transform="translate(57.086)scale(.09877)"/><use xlink:href="#aq" transform="translate(76.84)scale(.09877)"/></g><g id="n"><use xlink:href="#av" transform="scale(.09877)"/><use xlink:href="#aw" transform="translate(25.58)scale(.09877)"/></g><g id="o"><use xlink:href="#ax" transform="scale(.08025)"/><use xlink:href="#ay" transform="translate(16.05)scale(.08025)"/><use xlink:href="#az" transform="translate(30.494)scale(.08025)"/><use xlink:href="#R" transform="translate(46.543)scale(.08025)"/></g><g id="p"><use xlink:href="#I" transform="scale(.08025)"/><use xlink:href="#L" transform="translate(6.34)scale(.08025)"/><use xlink:href="#aA" transform="translate(22.389)scale(.08025)"/><use xlink:href="#ax" transform="translate(38.438)scale(.08025)"/><use xlink:href="#J" transform="translate(54.488)scale(.08025)"/></g><g id="q"><use xlink:href="#K" transform="scale(.08025)"/><use xlink:href="#ax" transform="translate(16.05)scale(.08025)"/><use xlink:href="#J" transform="translate(32.099)scale(.08025)"/><use xlink:href="#aA" transform="translate(40.123)scale(.08025)"/><use xlink:href="#ax" transform="translate(56.173)scale(.08025)"/><use xlink:href="#J" transform="translate(72.222)scale(.08025)"/></g><g id="r"><use xlink:href="#K" transform="scale(.08025)"/><use xlink:href="#J" transform="translate(16.05)scale(.08025)"/><use xlink:href="#S" transform="translate(24.074)scale(.08025)"/><use xlink:href="#az" transform="translate(40.123)scale(.08025)"/><use xlink:href="#R" transform="translate(56.173)scale(.08025)"/></g><g id="s"><use xlink:href="#H" transform="scale(.08025)"/><use xlink:href="#G" transform="translate(16.05)scale(.08025)"/><use xlink:href="#J" transform="translate(32.099)scale(.08025)"/><use xlink:href="#G" transform="translate(40.123)scale(.08025)"/></g><g id="t"><use xlink:href="#ay" transform="scale(.08025)"/><use xlink:href="#ax" transform="translate(14.444)scale(.08025)"/><use xlink:href="#aB" transform="translate(30.494)scale(.08025)"/><use xlink:href="#aA" transform="translate(46.543)scale(.08025)"/><use xlink:href="#R" transform="translate(62.593)scale(.08025)"/><use xlink:href="#K" transform="translate(72.142)scale(.08025)"/><use xlink:href="#aC" transform="translate(88.191)scale(.08025)"/><use xlink:href="#az" transform="translate(102.636)scale(.08025)"/><use xlink:href="#ay" transform="translate(118.685)scale(.08025)"/><use xlink:href="#ay" transform="translate(133.13)scale(.08025)"/></g><g id="u"><use xlink:href="#I" transform="scale(.08025)"/><use xlink:href="#L" transform="translate(6.34)scale(.08025)"/><use xlink:href="#aA" transform="translate(22.389)scale(.08025)"/><use xlink:href="#ax" transform="translate(38.438)scale(.08025)"/><use xlink:href="#J" transform="translate(54.488)scale(.08025)"/></g><g id="v"><use xlink:href="#N" transform="scale(.08025)"/><use xlink:href="#M" transform="translate(9.55)scale(.08025)"/><use xlink:href="#I" transform="translate(15.889)scale(.08025)"/><use xlink:href="#L" transform="translate(22.228)scale(.08025)"/><use xlink:href="#aD" transform="translate(38.278)scale(.08025)"/><use xlink:href="#P" transform="translate(52.722)scale(.08025)"/></g><g id="x"><use xlink:href="#K" transform="scale(.08025)"/><use xlink:href="#ax" transform="translate(16.05)scale(.08025)"/><use xlink:href="#J" transform="translate(32.099)scale(.08025)"/><use xlink:href="#aA" transform="translate(40.123)scale(.08025)"/><use xlink:href="#ax" transform="translate(56.173)scale(.08025)"/><use xlink:href="#J" transform="translate(72.222)scale(.08025)"/></g><g id="y"><use xlink:href="#aE" transform="scale(.05556)"/><use xlink:href="#aE" transform="translate(11.111)scale(.05556)"/></g><g id="z"><use xlink:href="#aE" transform="scale(.05556)"/><use xlink:href="#aF" transform="translate(11.111)scale(.05556)"/></g><g id="A"><use xlink:href="#I" transform="scale(.08025)"/><use xlink:href="#L" transform="translate(6.34)scale(.08025)"/><use xlink:href="#I" transform="translate(22.389)scale(.08025)"/><use xlink:href="#J" transform="translate(28.728)scale(.08025)"/></g><g id="B"><use xlink:href="#aG" transform="scale(.08025)"/><use xlink:href="#az" transform="translate(14.444)scale(.08025)"/><use xlink:href="#aC" transform="translate(30.494)scale(.08025)"/><use xlink:href="#J" transform="translate(44.938)scale(.08025)"/><use xlink:href="#K" transform="translate(52.963)scale(.08025)"/><use xlink:href="#R" transform="translate(69.012)scale(.08025)"/></g><g id="C"><use xlink:href="#N" transform="scale(.08025)"/><use xlink:href="#L" transform="translate(9.55)scale(.08025)"/><use xlink:href="#aH" transform="translate(25.599 4.044)scale(.05617)"/><use xlink:href="#aI" transform="translate(31.216 4.044)scale(.05617)"/><use xlink:href="#P" transform="translate(44.698)scale(.08025)"/></g><g id="D"><use xlink:href="#J" transform="scale(.08025)"/><use xlink:href="#az" transform="translate(8.025)scale(.08025)"/><use xlink:href="#R" transform="translate(24.074)scale(.08025)"/><use xlink:href="#T" transform="translate(33.623)scale(.08025)"/></g><g id="E"><use xlink:href="#aJ" transform="scale(.08025)"/><use xlink:href="#M" transform="translate(8.025)scale(.08025)"/><use xlink:href="#G" transform="translate(14.364)scale(.08025)"/><use xlink:href="#Q" transform="translate(30.414)scale(.08025)"/></g><g id="F"><use xlink:href="#N" transform="scale(.08025)"/><use xlink:href="#aJ" transform="translate(9.55)scale(.08025)"/><use xlink:href="#P" transform="translate(17.574)scale(.08025)"/></g><use xlink:href="#au" id="m" transform="scale(.09877)"/></defs></g></svg>