<svg xmlns="http://www.w3.org/2000/svg" xmlns:lucid="lucid" xmlns:xlink="http://www.w3.org/1999/xlink" width="1524" height="1292" viewBox="0 0 1524 1292"><g lucid:page-tab-id="uSM0NxChesEl" transform="translate(-78 1060)"><path fill="none" stroke="#008a0e" stroke-width="4" d="M120-788a12 12 0 0 1 12-12h1416a12 12 0 0 1 12 12V28a12 12 0 0 1-12 12H132a12 12 0 0 1-12-12z"/><path fill="#008a0e" d="M120-788a12 12 0 0 1 12-12h416a12 12 0 0 1 12 12v39.33a12 12 0 0 1-12 12H132a12 12 0 0 1-12-12z"/><use xlink:href="#a" transform="translate(137.738 -762.186)"/><use xlink:href="#b" transform="translate(204.503 -762.186)"/><use xlink:href="#c" transform="translate(315.003 -762.186)"/><use xlink:href="#d" transform="translate(374.225 -762.186)"/><use xlink:href="#e" transform="translate(503.904 -762.186)"/><path fill="#dfe3e8" d="M120-1002.45a17.55 17.55 0 0 1 17.55-17.55h184.9a17.55 17.55 0 0 1 17.55 17.55v140.4a17.55 17.55 0 0 1-17.55 17.55h-184.9A17.55 17.55 0 0 1 120-862.05z"/><use xlink:href="#f" transform="translate(140 -946.222)"/><use xlink:href="#g" transform="translate(140 -903.556)"/><use xlink:href="#h" transform="translate(246.47 -903.556)"/><path fill="#cfe682" stroke="#3a414a" d="M127.73 65h51.44l-7.74 29H120z"/><path fill="#cfe4ff" stroke="#3a414a" d="M127.73 161.5h51.44l-7.74 29H120z"/><path fill="#fff7a1" stroke="#3a414a" d="M127.73 113.25h51.44l-7.74 29H120z"/><path fill="none" d="M200 60h225.93v38.67H200z"/><use xlink:href="#i" transform="translate(205 88.564)"/><use xlink:href="#j" transform="translate(269.117 88.564)"/><path fill="none" d="M200 108.5h240v38.67H200z"/><use xlink:href="#i" transform="translate(205 137.064)"/><use xlink:href="#k" transform="translate(269.117 137.064)"/><path fill="none" d="M200 157.67h240v38.66H200z"/><use xlink:href="#l" transform="translate(205 186.23)"/><use xlink:href="#m" transform="translate(278.747 186.23)"/><path fill="#f4d9ff" stroke="#3a414a" d="M507.73 68.83h51.44l-7.74 29H500z"/><path fill="none" d="M580 65h340v36.67H580z"/><use xlink:href="#n" transform="translate(585 93.111)"/><use xlink:href="#o" transform="translate(740.599 93.111)"/><use xlink:href="#p" transform="translate(811.136 93.111)"/><use xlink:href="#q" transform="translate(585 127.778)"/><path fill="#ffcf99" stroke="#3a414a" d="M507.73 117.08h51.44l-7.74 29H500z"/><path fill="none" d="M580 113.25h260v36.67H580z"/><use xlink:href="#n" transform="translate(585 141.361)"/><use xlink:href="#r" transform="translate(740.599 141.361)"/><use xlink:href="#q" transform="translate(585 176.028)"/><path fill="#979ea8" stroke="#979ea8" stroke-width=".05" d="M741.8-599.06h-1.94v-15.6h1.95zm0-39.6h-1.94v-19.84h1.95z"/><path fill="#979ea8" d="M741.8-658.47h-1.94v-1.03h1.95zm-.97 74.67-4.63-14.26h9.27z"/><path fill="#979ea8" stroke="#979ea8" stroke-width=".05" d="m740.83-580.64-5.97-18.4h11.95zm-3.3-16.45 3.3 10.15 3.3-10.14z"/><use xlink:href="#s" transform="translate(729.727 -622.667)"/><path fill="#979ea8" stroke="#979ea8" stroke-width=".05" d="m802.48-506.04.06.83.18.75.3.73.42.67.5.6.6.5.68.43.73.3.76.18.84.06h7.35v1.96h-7.44l-1.05-.1-1.06-.24-1-.42-.94-.58-.83-.7-.72-.84-.57-.93-.42-1-.25-1.08-.08-1.06v-32.54h1.96zm40 5.06v1.96h-5.37v-1.96z"/><path fill="#979ea8" d="M802.48-538.47h-1.96v-1.03h1.96zM857.75-500l-14.27 4.63v-9.26z"/><path fill="#979ea8" stroke="#979ea8" stroke-width=".05" d="m860.9-500-18.4 5.98v-11.96zm-16.44 3.3 10.13-3.3-10.14-3.3z"/><use xlink:href="#t" transform="translate(814.894 -496)"/><path fill="#979ea8" stroke="#979ea8" stroke-width=".05" d="M575.7-494.22h-37.35v-1.95h37.37zm109.44-6.94-.08 1.06-.26 1.06-.42 1-.57.94-.7.84-.83.7-.93.58-1.02.42-1.06.26-1.05.08h-80.26v-1.95h80.2l.8-.07.78-.18.73-.3.67-.4.6-.52.5-.6.42-.68.3-.72.2-.77.05-.84v-37.26h1.94z"/><path fill="#979ea8" d="M685.14-538.47h-1.95v-1.03h1.94zm-147.79 47.91-14.26-4.64 14.25-4.63z"/><path fill="#979ea8" stroke="#979ea8" stroke-width=".05" d="m538.33-489.22-18.4-5.98 18.4-5.97zm-12.1-5.98 10.15 3.3v-6.6z"/><use xlink:href="#t" transform="translate(575.72 -491.196)"/><path fill="#979ea8" stroke="#979ea8" stroke-width=".05" d="M420.98-396.66h-1.96V-412h1.96zm0-39.34h-1.96v-17.7h1.96z"/><path fill="#979ea8" d="M420.98-453.67h-1.96v-1.03h1.96zM420-381.4l-4.63-14.26h9.26z"/><path fill="#979ea8" stroke="#979ea8" stroke-width=".05" d="m420-378.24-5.98-18.4h11.96zm-3.3-16.44 3.3 10.13 3.3-10.13z"/><use xlink:href="#u" transform="translate(408.894 -420)"/><path fill="#979ea8" stroke="#979ea8" stroke-width=".05" d="m537.47-306.3 1.05.08 1.07.26 1 .42.93.57.83.7.72.84.57.94.42 1.02.25 1.06.08 1.06V-279h-1.94v-20.3l-.07-.8-.2-.78-.3-.73-.4-.68-.52-.6-.6-.5-.67-.42-.72-.3-.76-.2-.83-.05h-21.72v-1.95zm-83.76-4.24.2.77.3.72.4.68.52.6.6.5.67.42.72.3.76.2.82.05h34.76v1.95h-34.83l-1.06-.08-1.06-.26-1-.4-.94-.58-.83-.7-.7-.84-.58-.94-.42-1-.25-1.07-.1-1.06v-24.8h1.96v24.74z"/><path fill="#979ea8" d="M453.64-336.07h-1.95v-1.03h1.94zm89.79 72.33L538.8-278h9.27z"/><path fill="#979ea8" stroke="#979ea8" stroke-width=".05" d="m543.43-260.58-5.98-18.4h11.96zm-3.3-16.45 3.3 10.14 3.3-10.13z"/><use xlink:href="#v" transform="translate(493.468 -301.325)"/><path fill="#979ea8" stroke="#979ea8" stroke-width=".05" d="M321.2-304.35h-26l-.82.06-.76.2-.73.3-.7.4-.58.52-.52.6-.4.67-.3.72-.2.77-.06.8v20.3h-1.95v-20.36l.07-1.06.26-1.06.42-1 .57-.95.7-.83.84-.7.94-.58 1-.42 1.07-.26 1.06-.08h26.07zm68.28-6.94-.1 1.07-.24 1.06-.42 1-.58.95-.7.83-.84.72-.93.57-1 .4-1.08.27-1.06.08h-39.12v-1.95h39.04l.83-.06.75-.2.73-.3.67-.4.6-.5.5-.6.43-.7.3-.7.18-.78.06-.82v-24.74h1.96z"/><path fill="#979ea8" d="M389.48-336.07h-1.96v-1.03h1.96zm-100.31 72.33L284.53-278h9.27z"/><path fill="#979ea8" stroke="#979ea8" stroke-width=".05" d="m289.17-260.58-5.98-18.4h11.94zm-3.3-16.45 3.3 10.14 3.3-10.13z"/><use xlink:href="#v" transform="translate(321.202 -301.325)"/><path fill="#cfe4ff" stroke="#3a414a" d="M331.33-535.2H530l-21.33 80H310z"/><use xlink:href="#w" transform="translate(369.977 -506.253)"/><use xlink:href="#x" transform="translate(378.002 -506.253)"/><use xlink:href="#y" transform="translate(355.68 -471.587)"/><use xlink:href="#z" transform="translate(405.354 -471.587)"/><use xlink:href="#A" transform="translate(428.304 -471.587)"/><path fill="#cfe4ff" stroke="#3a414a" d="M872.17-540h198.66l-21.33 80H850.83z"/><use xlink:href="#B" transform="translate(914.02 -511.057)"/><use xlink:href="#C" transform="translate(976.533 -511.057)"/><use xlink:href="#D" transform="translate(942.777 -476.39)"/><path fill="#ffcf99" stroke="#3a414a" d="M200.5-260h198.67l-21.34 80H179.17z"/><use xlink:href="#w" transform="translate(189.7 -231.056)"/><use xlink:href="#E" transform="translate(197.725 -231.056)"/><use xlink:href="#F" transform="translate(261.923 -231.056)"/><use xlink:href="#G" transform="translate(260.88 -196.389)"/><path fill="#979ea8" stroke="#979ea8" stroke-width=".05" d="m763.8-386.04.07.83.2.75.3.73.4.67.5.6.6.5.68.43.73.3.77.18.82.06h30.02v1.96h-30.1l-1.06-.1-1.06-.24-1-.42-.95-.58-.83-.7-.7-.84-.58-.93-.42-1-.26-1.08-.08-1.06V-538.5h1.95zm78.68 5.06v1.96H821.1v-1.96z"/><path fill="#979ea8" d="M763.8-538.47h-1.94v-1.03h1.95zM857.75-380l-14.27 4.63v-9.26z"/><path fill="#979ea8" stroke="#979ea8" stroke-width=".05" d="m860.9-380-18.4 5.98v-11.96zm-16.44 3.3 10.13-3.3-10.14-3.3z"/><use xlink:href="#t" transform="translate(798.894 -376)"/><path fill="#979ea8" stroke="#979ea8" stroke-width=".05" d="m721.14-266.04.07.83.2.75.3.73.4.67.52.6.6.5.67.43.72.3.76.18.83.06H842.5v1.96H726.13l-1.05-.1-1.07-.24-1-.42-.93-.58-.84-.7-.7-.84-.58-.93-.42-1-.25-1.08-.1-1.06v-28.8h1.96zm0-52.73h-1.95V-538.5h1.94z"/><path fill="#979ea8" d="M721.14-538.47h-1.95v-1.03h1.94zM857.75-260l-14.27 4.63v-9.26z"/><path fill="#979ea8" stroke="#979ea8" stroke-width=".05" d="m860.9-260-18.4 5.98v-11.96zm-16.44 3.3 10.13-3.3-10.14-3.3z"/><use xlink:href="#t" transform="translate(709.06 -302.773)"/><path fill="#ffcf99" stroke="#3a414a" d="M460.33-260h197.84l-21.34 80H439z"/><use xlink:href="#H" transform="translate(459.736 -231.057)"/><use xlink:href="#I" transform="translate(591.1 -231.057)"/><use xlink:href="#J" transform="translate(512.255 -196.39)"/><path fill="#fff" stroke="#3a414a" d="M1127.75-269.67a12 12 0 0 1 12-12h196a12 12 0 0 1 12 12v76a12 12 0 0 1-12 12h-196a12 12 0 0 1-12-12z"/><path fill="none" d="M1127.75-281.67h220v40h-220z"/><use xlink:href="#K" transform="translate(1190.96 -257.014)"/><path fill="none" stroke="#3a414a" stroke-width="2" d="M1128.75-241.67h218.5m-218.47 0h-1.03m219.47 0h1.03"/><path fill="none" d="M1127.75-243.33h220V-180h-220z"/><use xlink:href="#L" transform="translate(1168.151 -220.134)"/><use xlink:href="#M" transform="translate(1223.583 -220.134)"/><use xlink:href="#N" transform="translate(1222.997 -193.467)"/><path fill="#979ea8" stroke="#979ea8" stroke-width=".05" d="M1312.3-300.67h-1.94v-16.66h1.95zm0-40.66h-1.94v-17.17h1.95z"/><path fill="#979ea8" d="M1312.3-358.47h-1.94v-1.03h1.95zm-.97 73.07-4.63-14.27h9.27z"/><path fill="#979ea8" stroke="#979ea8" stroke-width=".05" d="m1311.33-282.25-5.97-18.4h11.95zm-3.3-16.44 3.3 10.14 3.3-10.13z"/><use xlink:href="#O" transform="translate(1300.227 -325.333)"/><path fill="none" stroke="#1071e5" d="M820.83-540h-160l80-40z"/><path fill="#f4d9ff" stroke="#3a414a" d="M652.17-740h198.66l-21.33 80H630.83z" class="qc-clickable" data-target="0f"/><use xlink:href="#P" transform="translate(673.999 -711.057)"/><use xlink:href="#Q" transform="translate(760.505 -711.057)"/><use xlink:href="#R" transform="translate(704.268 -676.39)"/><path fill="none" stroke="#1071e5" d="M500-337.6H340l80-40z"/><path fill="#979ea8" stroke="#979ea8" stroke-width=".05" d="M1202.97-300.67h-1.94v-38.4h1.94zm-5.88-181.2 1.06.24 1 .42.94.56.83.7.7.85.6.94.4 1 .26 1.08.07 1.05v111.96h-1.94v-111.88l-.07-.83-.18-.76-.3-.73-.42-.67-.5-.6-.6-.5-.68-.43-.73-.3-.76-.18-.84-.07H1056.6l.02-1.95h139.42z"/><path fill="#979ea8" d="M1056.64-480.02h-1.3l.54-1.95h.76zM1202-285.4l-4.63-14.27h9.27z"/><path fill="#979ea8" stroke="#979ea8" stroke-width=".05" d="m1202-282.25-5.98-18.4h11.96zm-3.3-16.44 3.3 10.14 3.3-10.13z"/><use xlink:href="#O" transform="translate(1190.894 -347.065)"/><path fill="#cfe4ff" stroke="#3a414a" d="M1301.33-440H1500l-21.33 80H1280z"/><use xlink:href="#S" transform="translate(1316.746 -411.057)"/><use xlink:href="#T" transform="translate(1369.628 -411.057)"/><use xlink:href="#C" transform="translate(1432.14 -411.057)"/><use xlink:href="#U" transform="translate(1366.326 -376.39)"/><path fill="#979ea8" stroke="#979ea8" stroke-width=".05" d="M1160-300.17h-1.96v-8.75h1.95zm-5.9-80.72 1.07.26 1 .42.95.58.83.7.7.84.58.93.42 1 .26 1.08.1 1.06v41.12h-1.96v-41.04l-.06-.83-.2-.75-.3-.73-.4-.67-.5-.6-.6-.5-.68-.43-.73-.3-.77-.18-.82-.06h-91.3v-1.96h91.38z"/><path fill="#979ea8" d="M1061.7-379.02h-1.28l.52-1.96h.77zm97.32 94.12-4.64-14.27h9.27z"/><path fill="#979ea8" stroke="#979ea8" stroke-width=".05" d="m1159.02-281.75-5.98-18.4H1165zm-3.3-16.44 3.3 10.14 3.3-10.13z"/><use xlink:href="#O" transform="translate(1147.911 -316.918)"/><path fill="#979ea8" stroke="#979ea8" stroke-width=".05" d="m488.8-385.03.07.82.2.76.3.73.4.66.5.6.6.5.68.42.73.3.77.2.82.05H670.7l1.06.1 1.06.24 1 .42.95.56.83.7.7.85.58.94.42 1 .26 1.08.08 1.05v170.32l.07.82.2.76.3.73.4.7.52.58.6.52.67.4.72.3.76.2.83.06h142.86v1.95H682.63l-1.05-.08-1.07-.25-1-.42-.93-.57-.84-.7-.7-.84-.58-.94-.42-1-.25-1.07-.1-1.06v-170.32l-.05-.83-.2-.76-.3-.73-.4-.67-.5-.6-.6-.5-.68-.42-.73-.3-.77-.2-.82-.06H493.8l-1.06-.08-1.06-.25-1-.42-.95-.58-.83-.7-.7-.84-.58-.92-.42-1-.26-1.08-.08-1.05v-68.75h1.95zm620.45 187.4v1.94H847.78v-1.94z"/><path fill="#979ea8" d="M488.8-453.67h-1.94v-1.03h1.95zm635.7 257-14.25 4.64v-9.27z"/><path fill="#979ea8" stroke="#979ea8" stroke-width=".05" d="m1127.67-196.67-18.4 5.98v-11.94zm-16.45 3.3 10.14-3.3-10.14-3.3z"/><use xlink:href="#O" transform="translate(825.56 -192.667)"/><path fill="#ffcf99" stroke="#3a414a" d="M872.17-420h198.66l-21.33 80H850.83z"/><use xlink:href="#V" transform="translate(906.838 -391.057)"/><use xlink:href="#W" transform="translate(1007.789 -391.057)"/><use xlink:href="#X" transform="translate(939.567 -356.39)"/><path fill="#ffcf99" stroke="#3a414a" d="M872.17-300h198.66l-21.33 80H850.83z"/><use xlink:href="#Y" transform="translate(871.53 -271.057)"/><use xlink:href="#Z" transform="translate(980.585 -271.057)"/><use xlink:href="#aa" transform="translate(943.62 -236.39)"/><path fill="#979ea8" stroke="#979ea8" stroke-width=".05" d="M1076.22-259.02h-14.54v-1.96h14.54zm33.03 0h-10.8v-1.96h10.8z"/><path fill="#979ea8" d="M1061.7-259.02h-1.28l.52-1.96h.77zm62.8-.98-14.25 4.63v-9.26z"/><path fill="#979ea8" stroke="#979ea8" stroke-width=".05" d="m1127.67-260-18.4 5.98v-11.96zm-16.45 3.3 10.14-3.3-10.14-3.3z"/><use xlink:href="#O" transform="translate(1076.227 -256)"/><path fill="#979ea8" stroke="#979ea8" stroke-width=".05" d="M1241.64-300.67h-1.95l.04-94.48h1.95zm.08-170.2-.02 51.72h-1.95l.03-51.73V-658.5h1.94z"/><path fill="#979ea8" d="M1241.72-658.47h-1.94v-1.03h1.94zm-1.05 373.07-4.64-14.27h9.27z"/><path fill="#979ea8" stroke="#979ea8" stroke-width=".05" d="m1240.67-282.25-5.98-18.4h11.94zm-3.3-16.44 3.3 10.14 3.3-10.13z"/><use xlink:href="#O" transform="translate(1229.56 -403.152)"/><path fill="#979ea8" stroke="#979ea8" stroke-width=".05" d="M1098.03-65.8h-18.84v-1.95h18.83zm64 0h-10.72v-1.95h10.73z"/><path fill="#979ea8" d="m1163.03-66.77 1.4.97H1162v-1.95h2.42zm-84.83 4.63-14.28-4.63 14.27-4.64z"/><path fill="#979ea8" stroke="#979ea8" stroke-width=".05" d="m1079.16-60.8-18.4-5.97 18.4-5.98zm-12.1-5.97 10.15 3.3v-6.6z"/><use xlink:href="#ab" transform="translate(1098.033 -62.774)"/><use xlink:href="#ac" transform="translate(1129.088 -62.774)"/><path fill="none" stroke="#1071e5" d="m1233.57-115.44 69.66 48.67-69.66 48.66-69.67-48.67z"/><use xlink:href="#ad" transform="translate(1204.289 -68.663)"/><use xlink:href="#ae" transform="translate(1216.326 -33.996)"/><path fill="#979ea8" stroke="#979ea8" stroke-width=".05" d="M1234.54-134.55h-1.95v-10.22h1.94zm.67-34.22h-1.94V-179h1.95z"/><path fill="#979ea8" d="m1233.57-119.3-4.64-14.25h9.27z"/><path fill="#979ea8" stroke="#979ea8" stroke-width=".05" d="m1233.57-116.13-5.98-18.4h11.94zm-3.3-16.45 3.3 10.14 3.3-10.14zm4.93-46.39h-1.94V-180h1.95z"/><use xlink:href="#af" transform="translate(1223.127 -152.774)"/><path fill="#fff7a1" stroke="#3a414a" d="M872.17-106.77h198.66l-21.33 80H850.83z"/><use xlink:href="#ag" transform="translate(872.412 -77.83)"/><use xlink:href="#ah" transform="translate(941.184 -77.83)"/><use xlink:href="#ai" transform="translate(929.215 -43.164)"/><path fill="#e81313" stroke="#e81313" stroke-width=".05" d="m961.8 106.05.07.82.2.77.3.72.4.67.5.6.6.52.68.4.73.3.77.2.82.06h55.55v1.96H966.8l-1.06-.1-1.06-.24-1-.42-.95-.57-.83-.7-.7-.84-.58-.95-.42-1-.26-1.08-.08-1.05v-131.4h1.95zm199.7 5.06v1.96h-53.63v-1.95z"/><path fill="#e81313" d="M961.8-25.25h-1.94v-1.02h1.95zm214.96 137.33-14.26 4.64v-9.27z"/><path fill="#e81313" stroke="#e81313" stroke-width=".05" d="m1179.92 112.08-18.4 5.98V106.1zm-16.45 3.3 10.14-3.3-10.13-3.3z"/><use xlink:href="#aj" transform="translate(1022.43 116.083)"/><use xlink:href="#ak" transform="translate(1050.208 116.083)"/><path fill="none" d="M1182.63 143.1h53.75v40h-53.75z"/><use xlink:href="#al" transform="translate(1190.45 171.676)"/><path fill="#454545" d="M1203 113.75h4.84c1.14 0 2.23-.07 3.38-.07 9.1-.2 16.54.45 23.48 7.05 4.1 4.8 5.62 10.05 5.68 16.26v1.53c0 1.34-.06 2.7-.18 3.97-1.75 1.8-2.78 1.6-5.13 1.6h-49.66c-3.62 0-3.62 0-5.13-1.6-.84-8.2-.06-14.86 5.32-21.45 4.77-5.06 10.56-7.24 17.4-7.3zm14.5-32.15c3.98 2.38 6.34 5.7 7.72 10 1.1 4.4.5 7.74-1.5 11.78-2 3.2-5.08 5.7-8.58 7.04-5.13.64-9.96.83-14.25-2.43-3.8-3.54-5.75-6.74-6.23-12 .12-4.15 1.45-8.12 4.17-11.26 5.2-4.6 12.2-6.08 18.66-3.13z"/><path fill="#f4d9ff" stroke="#3a414a" d="M1152.08-740h198.67l-21.33 80h-198.67z" class="qc-clickable" data-target="13"/><use xlink:href="#am" transform="translate(1173.113 -711.057)"/><use xlink:href="#an" transform="translate(1272.459 -711.057)"/><use xlink:href="#ao" transform="translate(1212.743 -676.39)"/><path fill="#979ea8" stroke="#979ea8" stroke-width=".05" d="m1384.04-520.14 1.05.08 1.06.26 1 .42.94.57.83.7.7.83.6.94.4 1 .26 1.07.07 1.06v54.2h-1.94v-54.13l-.07-.82-.18-.77-.3-.73-.42-.67-.5-.6-.6-.5-.68-.42-.73-.3-.76-.2-.84-.05h-37.52v-1.94zm-137.62-1 .16 1h77.64v1.95h-79.3l-.35-2.16-1.47-2-2.43-.8-1.1.17-2.03 1.48-1.08 3.33H1066.8v-1.94h168.24l.85-2.58 2.88-2.12 2.05-.33 3.48 1.14z"/><path fill="#979ea8" d="M1066.82-518.2h-1.28l.52-1.94h.76zM1390-443.74l-4.63-14.26h9.27z"/><path fill="#979ea8" stroke="#979ea8" stroke-width=".05" d="m1390-440.58-5.98-18.4h11.96zm-3.3-16.45 3.3 10.14 3.3-10.13z"/><use xlink:href="#ap" transform="translate(1324.227 -515.166)"/><path fill="#fff" stroke="#3a414a" d="M1418.18-66.77c0 9.7-7.87 17.57-17.58 17.57-9.7 0-17.57-7.87-17.57-17.57s7.87-17.58 17.57-17.58 17.58 7.87 17.58 17.58z"/><use xlink:href="#aq" transform="translate(1389.416 -62.537)"/><path fill="#979ea8" stroke="#979ea8" stroke-width=".05" d="M1316-65.8h-11.77v-1.95H1316zm48.02 0h-15.4v-1.95h15.4z"/><path fill="#979ea8" stroke="#979ea8" stroke-width=".05" d="M1304.26-65.8h-1.03v-1.95h1.03z"/><path fill="#979ea8" d="m1379.3-66.77-14.3 4.63v-9.27z"/><path fill="#979ea8" stroke="#979ea8" stroke-width=".05" d="m1382.44-66.77-18.4 5.97v-11.95zm-16.44 3.3 10.13-3.3-10.13-3.3z"/><use xlink:href="#ar" transform="translate(1316.014 -62.774)"/><defs><path id="as" fill="#fff" d="M266 0h-40l-56-210L115 0H75L2-248h35L96-30l15-64 43-154h32l59 218 59-218h35"/><path id="at" fill="#fff" d="M100-194c63 0 86 42 84 106H49c0 40 14 67 53 68 26 1 43-12 49-29l28 8c-11 28-37 45-77 45C44 4 14-33 15-96c1-61 26-98 85-98m52 81c6-60-76-77-97-28-3 7-6 17-6 28z"/><path id="au" fill="#fff" d="M115-194c53 0 69 39 70 98 0 66-23 100-70 100C84 3 66-7 56-30L54 0H23l1-261h32v101c10-23 28-34 59-34m-8 174c40 0 45-34 45-75 0-40-5-75-45-74-42 0-51 32-51 76 0 43 10 73 51 73"/><path id="av" fill="#fff" d="M114-163C36-179 61-72 57 0H25l-1-190h30c1 12-1 29 2 39 6-27 23-49 58-41z"/><path id="aw" fill="#fff" d="M100-194c62-1 85 37 85 99 1 63-27 99-86 99S16-35 15-95c0-66 28-99 85-99M99-20c44 1 53-31 53-75 0-43-8-75-51-75s-53 32-53 75 10 74 51 75"/><path id="ax" fill="#fff" d="M206 0h-36l-40-164L89 0H53L-1-190h32L70-26l43-164h34l41 164 42-164h31"/><path id="ay" fill="#fff" d="M135-143c-3-34-86-38-87 0 15 53 115 12 119 90S17 21 10-45l28-5c4 36 97 45 98 0-10-56-113-15-118-90-4-57 82-63 122-42 12 7 21 19 24 35"/><path id="az" fill="#fff" d="M24-231v-30h32v30zM24 0v-190h32V0z"/><path id="aA" fill="#fff" d="M59-47c-2 24 18 29 38 22v24C64 9 27 4 27-40v-127H5v-23h24l9-43h21v43h35v23H59z"/><path id="aB" fill="#fff" d="M106-169C34-169 62-67 57 0H25v-261h32l-1 103c12-21 28-36 61-36 89 0 53 116 60 194h-32v-121c2-32-8-49-39-48"/><path id="aC" fill="#fff" d="M24 0v-261h32V0z"/><path id="aD" fill="#fff" d="M85-194c31 0 48 13 60 33l-1-100h32l1 261h-30c-2-10 0-23-3-31C134-8 116 4 85 4 32 4 16-35 15-94c0-66 23-100 70-100m9 24c-40 0-46 34-46 75 0 40 6 74 45 74 42 0 51-32 51-76 0-42-9-74-50-73"/><path id="aE" fill="#fff" d="M84 4C-5 8 30-112 23-190h32v120c0 31 7 50 39 49 72-2 45-101 50-169h31l1 190h-30c-1-10 1-25-2-33-11 22-28 36-60 37"/><path id="aF" fill="#fff" d="M210-169c-67 3-38 105-44 169h-31v-121c0-29-5-50-35-48C34-165 62-65 56 0H25l-1-190h30c1 10-1 24 2 32 10-44 99-50 107 0 11-21 27-35 58-36 85-2 47 119 55 194h-31v-121c0-29-5-49-35-48"/><path id="aG" fill="#fff" d="M87 75C49 33 22-17 22-94c0-76 28-126 65-167h31c-38 41-64 92-64 168S80 34 118 75z"/><path id="aH" fill="#fff" d="M160-131c35 5 61 23 61 61C221 17 115-2 30 0v-248c76 3 177-17 177 60 0 33-19 50-47 57m-97-11c50-1 110 9 110-42 0-47-63-36-110-37zm0 115c55-2 124 14 124-45 0-56-70-42-124-44z"/><path id="aI" fill="#fff" d="M33-261c38 41 65 92 65 168S71 34 33 75H2C39 34 66-17 66-93S39-220 2-261z"/><path id="aJ" fill="#3a414a" d="M147 0H94L2-248h55l64 206c17-72 42-137 63-206h54"/><path id="aK" fill="#3a414a" d="M185-48c-13 30-37 53-82 52C43 2 14-33 14-96s30-98 90-98c62 0 83 45 84 108H66c0 31 8 55 39 56 18 0 30-7 34-22zm-45-69c5-46-57-63-70-21-2 6-4 13-4 21z"/><path id="aL" fill="#3a414a" d="M135-150c-39-12-60 13-60 57V0H25l-1-190h47c2 13-1 29 3 40 6-28 27-53 61-41z"/><path id="aM" fill="#3a414a" d="M25-224v-37h50v37zM25 0v-190h50V0z"/><path id="aN" fill="#3a414a" d="M121-226c-27-7-43 5-38 36h38v33H83V0H34v-157H6v-33h28c-9-59 32-81 87-68z"/><path id="aO" fill="#3a414a" d="M123 10C108 53 80 86 19 72V37c35 8 53-11 59-39L3-190h52l48 148c12-52 28-100 44-148h51"/><path id="aP" fill="#3a414a" d="M182-130c37 4 62 22 62 59C244 23 116-4 24 0v-248c84 5 203-23 205 63 0 31-19 50-47 55M76-148c40-3 101 13 101-30 0-44-60-28-101-31zm0 110c48-3 116 14 116-37 0-48-69-32-116-35z"/><path id="aQ" fill="#3a414a" d="M25 0v-261h50V0z"/><path id="aR" fill="#3a414a" d="M110-194c64 0 96 36 96 99 0 64-35 99-97 99-61 0-95-36-95-99 0-62 34-99 96-99m-1 164c35 0 45-28 45-65 0-40-10-65-43-65-34 0-45 26-45 65 0 36 10 65 43 65"/><path id="aS" fill="#3a414a" d="M190-63c-7 42-38 67-86 67-59 0-84-38-90-98-12-110 154-137 174-36l-49 2c-2-19-15-32-35-32-30 0-35 28-38 64-6 74 65 87 74 30"/><path id="aT" fill="#3a414a" d="M147 0 96-86 75-71V0H25v-261h50v150l67-79h53l-66 74L201 0z"/><path id="aU" fill="#3a414a" d="M175 0 67-191c6 58 2 128 3 191H24v-248h59L193-55c-6-58-2-129-3-193h46V0z"/><path id="aV" fill="#3a414a" d="M84 4C-5 8 30-112 23-190h32v120c0 31 7 50 39 49 72-2 45-101 50-169h31l1 190h-30c-1-10 1-25-2-33-11 22-28 36-60 37"/><path id="aW" fill="#3a414a" d="M135-143c-3-34-86-38-87 0 15 53 115 12 119 90S17 21 10-45l28-5c4 36 97 45 98 0-10-56-113-15-118-90-4-57 82-63 122-42 12 7 21 19 24 35"/><path id="aX" fill="#3a414a" d="M100-194c63 0 86 42 84 106H49c0 40 14 67 53 68 26 1 43-12 49-29l28 8c-11 28-37 45-77 45C44 4 14-33 15-96c1-61 26-98 85-98m52 81c6-60-76-77-97-28-3 7-6 17-6 28z"/><path id="aY" fill="#3a414a" d="M114-163C36-179 61-72 57 0H25l-1-190h30c1 12-1 29 2 39 6-27 23-49 58-41z"/><path id="aZ" fill="#3a414a" d="M24-231v-30h32v30zM24 0v-190h32V0z"/><path id="ba" fill="#3a414a" d="M117-194c89-4 53 116 60 194h-32v-121c0-31-8-49-39-48C34-167 62-67 57 0H25l-1-190h30c1 10-1 24 2 32 11-22 29-35 61-36"/><path id="bb" fill="#3a414a" d="M115-194c55 1 70 41 70 98S169 2 115 4C84 4 66-9 55-30l1 105H24l-1-265h31l2 30c10-21 28-34 59-34m-8 174c40 0 45-34 45-75s-6-73-45-74c-42 0-51 32-51 76 0 43 10 73 51 73"/><path id="bc" fill="#3a414a" d="M59-47c-2 24 18 29 38 22v24C64 9 27 4 27-40v-127H5v-23h24l9-43h21v43h35v23H59z"/><path id="bd" fill="#3a414a" d="M100-194c62-1 85 37 85 99 1 63-27 99-86 99S16-35 15-95c0-66 28-99 85-99M99-20c44 1 53-31 53-75 0-43-8-75-51-75s-53 32-53 75 10 74 51 75"/><path id="be" fill="#3a414a" d="M106-169C34-169 62-67 57 0H25v-261h32l-1 103c12-21 28-36 61-36 89 0 53 116 60 194h-32v-121c2-32-8-49-39-48"/><path id="bf" fill="#3a414a" d="M85-194c31 0 48 13 60 33l-1-100h32l1 261h-30c-2-10 0-23-3-31C134-8 116 4 85 4 32 4 16-35 15-94c0-66 23-100 70-100m9 24c-40 0-46 34-46 75 0 40 6 74 45 74 42 0 51-32 51-76 0-42-9-74-50-73"/><path id="bg" fill="#3a414a" d="M141-36C126-15 110 5 73 4 37 3 15-17 15-53c-1-64 63-63 125-63 3-35-9-54-41-54-24 1-41 7-42 31l-33-3c5-37 33-52 76-52 45 0 72 20 72 64v82c-1 20 7 32 28 27v20c-31 9-61-2-59-35M48-53c0 20 12 33 32 33 41-3 63-29 60-74-43 2-92-5-92 41"/><path id="bh" fill="#3a414a" d="M115-194c53 0 69 39 70 98 0 66-23 100-70 100C84 3 66-7 56-30L54 0H23l1-261h32v101c10-23 28-34 59-34m-8 174c40 0 45-34 45-75 0-40-5-75-45-74-42 0-51 32-51 76 0 43 10 73 51 73"/><path id="bi" fill="#3a414a" d="M96-169c-40 0-48 33-48 73s9 75 48 75c24 0 41-14 43-38l32 2c-6 37-31 61-74 61-59 0-76-41-82-99-10-93 101-131 147-64 4 7 5 14 7 22l-32 3c-4-21-16-35-41-35"/><path id="bj" fill="#3a414a" d="M87 75C49 33 22-17 22-94c0-76 28-126 65-167h31c-38 41-64 92-64 168S80 34 118 75z"/><path id="bk" fill="#3a414a" d="M24 0v-261h32V0z"/><path id="bl" fill="#3a414a" d="M143 0 79-87 56-68V0H24v-261h32v163l83-92h37l-77 82L181 0z"/><path id="bm" fill="#3a414a" d="M33-261c38 41 65 92 65 168S71 34 33 75H2C39 34 66-17 66-93S39-220 2-261z"/><path id="bn" fill="#333" d="M155-56V0h-30v-56H8v-25l114-167h33v167h35v25zm-30-156c-27 46-58 90-88 131h88z"/><path id="bo" fill="#333" d="M101-251c68 0 85 55 85 127S166 4 100 4C33 4 14-52 14-124c0-73 17-127 87-127m-1 229c47 0 54-49 54-102s-4-102-53-102c-51 0-55 48-55 102 0 53 5 102 54 102"/><path id="bp" fill="#333" d="M27 0v-27h64v-190l-56 39v-29l58-41h29v221h61V0z"/><path id="bq" fill="#333" d="M101-251c82-7 93 87 43 132L82-64C71-53 59-42 53-27h129V0H18c2-99 128-94 128-182 0-28-16-43-45-43s-46 15-49 41l-32-3c6-41 34-60 81-64"/><path id="br" fill="#333" d="M126-127c33 6 58 20 58 59 0 88-139 92-164 29-3-8-5-16-6-25l32-3c6 27 21 44 54 44 32 0 52-15 52-46 0-38-36-46-79-43v-28c39 1 72-4 72-42 0-27-17-43-46-43-28 0-47 15-49 41l-32-3c6-42 35-63 81-64 48-1 79 21 79 65 0 36-21 52-52 59"/><path id="bs" fill="#3a414a" d="M179-190 93 31C79 59 56 82 12 73V49c39 6 53-20 64-50L1-190h34L92-34l54-156z"/><path id="bt" fill="#3a414a" d="M32 76v-337h29V76z"/><path id="bu" fill="#3a414a" d="M210-169c-67 3-38 105-44 169h-31v-121c0-29-5-50-35-48C34-165 62-65 56 0H25l-1-190h30c1 10-1 24 2 32 10-44 99-50 107 0 11-21 27-35 58-36 85-2 47 119 55 194h-31v-121c0-29-5-49-35-48"/><path id="bv" fill="#3a414a" d="M30 0v-248h187v28H63v79h144v27H63v87h162V0z"/><path id="bw" fill="#3a414a" d="M177-190C167-65 218 103 67 71c-23-6-38-20-44-43l32-5c15 47 100 32 89-28v-30C133-14 115 1 83 1 29 1 15-40 15-95c0-56 16-97 71-98 29-1 48 16 59 35 1-10 0-23 2-32zM94-22c36 0 50-32 50-73 0-42-14-75-50-75-39 0-46 34-46 75s6 73 46 73"/><path id="bx" fill="#3a414a" d="M63-220v92h138v28H63V0H30v-248h175v28z"/><path id="by" fill="#3a414a" d="m240 0 2-218c-23 76-54 145-80 218h-23L58-218 59 0H30v-248h44l77 211c21-75 51-140 76-211h43V0z"/><path id="bz" fill="#3a414a" d="m205 0-28-72H64L36 0H1l101-248h38L239 0zm-38-99-47-123c-12 45-31 82-46 123z"/><path id="bA" fill="#3a414a" d="M212-179c-10-28-35-45-73-45-59 0-87 40-87 99 0 60 29 101 89 101 43 0 62-24 78-52l27 14C228-24 195 4 139 4 59 4 22-46 18-125c-6-104 99-153 187-111 19 9 31 26 39 46"/><path id="bB" fill="#3a414a" d="M108 0H70L1-190h34L89-25l56-165h34"/><path id="bC" fill="#3a414a" d="M137 0h-34L2-248h35l83 218 83-218h36"/><path id="bD" fill="#333" d="M110-160c48 1 74 30 74 79 0 53-28 85-80 85-65 0-83-55-86-122-5-90 50-162 133-122 14 7 22 21 27 39l-31 6c-5-40-67-38-82-6-9 19-15 44-15 74 11-20 30-34 60-33m-7 138c34 0 49-23 49-58s-16-56-50-56c-29 0-50 16-49 49 1 36 15 65 50 65"/><path id="bE" fill="#3a414a" d="M190 0 58-211 59 0H30v-248h39L202-35l-2-213h31V0z"/><path id="bF" fill="#3a414a" d="M30 0v-248h33v221h125V0z"/><path id="bG" fill="#3a414a" d="M64 0c3-98 48-159 88-221H18v-27h164v26C143-157 98-101 97 0z"/><path id="bH" fill="#333" d="M190 0 58-211 59 0H30v-248h39L202-35l-2-213h31V0z"/><path id="bI" fill="#333" d="M100-194c62-1 85 37 85 99 1 63-27 99-86 99S16-35 15-95c0-66 28-99 85-99M99-20c44 1 53-31 53-75 0-43-8-75-51-75s-53 32-53 75 10 74 51 75"/><path id="bJ" fill="#333" d="M99-251c64 0 84 50 84 122C183-37 130 33 47-8c-14-7-20-23-25-40l30-5c6 39 69 39 84 7 9-19 16-44 16-74-10 22-31 35-62 35-49 0-73-33-73-83 0-54 28-83 82-83m-1 141c31-1 51-18 51-49 0-36-14-67-51-67-34 0-49 23-49 58 0 34 15 58 49 58"/><path id="bK" fill="#333" d="M134-131c28 9 52 24 51 62-1 50-34 73-85 73S17-19 16-69c0-36 21-54 49-61-75-25-45-126 34-121 46 3 78 18 79 63 0 33-17 51-44 57m-34-11c31 1 46-15 46-44 0-28-17-43-47-42-29 0-46 13-45 42 1 28 16 44 46 44m1 122c35 0 51-18 51-52 0-30-18-46-53-46-33 0-51 17-51 47 0 34 19 51 53 51"/><path id="bL" fill="#333" d="M54-142c48-35 137-8 131 61C196 18 31 33 14-55l32-4c7 23 22 37 52 37 35-1 51-22 54-58 4-55-73-65-99-34H22l8-134h141v27H59"/><path id="bM" fill="#333" d="M87 75C49 33 22-17 22-94c0-76 28-126 65-167h31c-38 41-64 92-64 168S80 34 118 75z"/><path id="bN" fill="#333" d="M85-194c31 0 48 13 60 33l-1-100h32l1 261h-30c-2-10 0-23-3-31C134-8 116 4 85 4 32 4 16-35 15-94c0-66 23-100 70-100m9 24c-40 0-46 34-46 75 0 40 6 74 45 74 42 0 51-32 51-76 0-42-9-74-50-73"/><path id="bO" fill="#333" d="M117-194c89-4 53 116 60 194h-32v-121c0-31-8-49-39-48C34-167 62-67 57 0H25l-1-190h30c1 10-1 24 2 32 11-22 29-35 61-36"/><path id="bP" fill="#333" d="M100-194c63 0 86 42 84 106H49c0 40 14 67 53 68 26 1 43-12 49-29l28 8c-11 28-37 45-77 45C44 4 14-33 15-96c1-61 26-98 85-98m52 81c6-60-76-77-97-28-3 7-6 17-6 28z"/><path id="bQ" fill="#333" d="M33-261c38 41 65 92 65 168S71 34 33 75H2C39 34 66-17 66-93S39-220 2-261z"/><path id="bR" fill="#3a414a" d="M185-189c-5-48-123-54-124 2 14 75 158 14 163 119 3 78-121 87-175 55-17-10-28-26-33-46l33-7c5 56 141 63 141-1 0-78-155-14-162-118-5-82 145-84 179-34 5 7 8 16 11 25"/><path id="bS" fill="#333" d="M64 0c3-98 48-159 88-221H18v-27h164v26C143-157 98-101 97 0z"/><path id="bT" fill="#3a414a" d="M155-56V0h-30v-56H8v-25l114-167h33v167h35v25zm-30-156c-27 46-58 90-88 131h88z"/><path id="bU" fill="#3a414a" d="M99-251c64 0 84 50 84 122C183-37 130 33 47-8c-14-7-20-23-25-40l30-5c6 39 69 39 84 7 9-19 16-44 16-74-10 22-31 35-62 35-49 0-73-33-73-83 0-54 28-83 82-83m-1 141c31-1 51-18 51-49 0-36-14-67-51-67-34 0-49 23-49 58 0 34 15 58 49 58"/><path id="bV" fill="#333" d="M137-103V0h-34v-103L8-248h37l75 118 75-118h37"/><path id="bW" fill="#333" d="M135-143c-3-34-86-38-87 0 15 53 115 12 119 90S17 21 10-45l28-5c4 36 97 45 98 0-10-56-113-15-118-90-4-57 82-63 122-42 12 7 21 19 24 35"/><g id="a"><use xlink:href="#as" transform="scale(.08025)"/><use xlink:href="#at" transform="translate(26.642)scale(.08025)"/><use xlink:href="#au" transform="translate(42.691)scale(.08025)"/></g><g id="b"><use xlink:href="#au" transform="scale(.08025)"/><use xlink:href="#av" transform="translate(16.05)scale(.08025)"/><use xlink:href="#aw" transform="translate(25.599)scale(.08025)"/><use xlink:href="#ax" transform="translate(41.648)scale(.08025)"/><use xlink:href="#ay" transform="translate(62.432)scale(.08025)"/><use xlink:href="#at" transform="translate(76.877)scale(.08025)"/><use xlink:href="#av" transform="translate(92.926)scale(.08025)"/></g><g id="c"><use xlink:href="#ax" transform="scale(.08025)"/><use xlink:href="#az" transform="translate(20.784)scale(.08025)"/><use xlink:href="#aA" transform="translate(27.123)scale(.08025)"/><use xlink:href="#aB" transform="translate(35.148)scale(.08025)"/></g><g id="d"><use xlink:href="#aC" transform="scale(.08025)"/><use xlink:href="#az" transform="translate(6.34)scale(.08025)"/><use xlink:href="#au" transform="translate(12.679)scale(.08025)"/><use xlink:href="#ay" transform="translate(28.728)scale(.08025)"/><use xlink:href="#aw" transform="translate(43.173)scale(.08025)"/><use xlink:href="#aD" transform="translate(59.222)scale(.08025)"/><use xlink:href="#az" transform="translate(75.272)scale(.08025)"/><use xlink:href="#aE" transform="translate(81.611)scale(.08025)"/><use xlink:href="#aF" transform="translate(97.66)scale(.08025)"/></g><g id="e"><use xlink:href="#aG" transform="scale(.08025)"/><use xlink:href="#aH" transform="translate(9.55)scale(.08025)"/><use xlink:href="#aI" transform="translate(28.809)scale(.08025)"/></g><g id="f"><use xlink:href="#aJ" transform="scale(.09877)"/><use xlink:href="#aK" transform="translate(21.728)scale(.09877)"/><use xlink:href="#aL" transform="translate(41.481)scale(.09877)"/><use xlink:href="#aM" transform="translate(55.309)scale(.09877)"/><use xlink:href="#aN" transform="translate(65.185)scale(.09877)"/><use xlink:href="#aO" transform="translate(76.938)scale(.09877)"/></g><g id="g"><use xlink:href="#aP" transform="scale(.09877)"/><use xlink:href="#aQ" transform="translate(25.58)scale(.09877)"/><use xlink:href="#aR" transform="translate(35.457)scale(.09877)"/><use xlink:href="#aS" transform="translate(57.086)scale(.09877)"/><use xlink:href="#aT" transform="translate(76.84)scale(.09877)"/></g><g id="i"><use xlink:href="#aV" transform="scale(.08025)"/><use xlink:href="#aW" transform="translate(16.05)scale(.08025)"/><use xlink:href="#aX" transform="translate(30.494)scale(.08025)"/><use xlink:href="#aY" transform="translate(46.543)scale(.08025)"/></g><g id="j"><use xlink:href="#aZ" transform="scale(.08025)"/><use xlink:href="#ba" transform="translate(6.34)scale(.08025)"/><use xlink:href="#bb" transform="translate(22.389)scale(.08025)"/><use xlink:href="#aV" transform="translate(38.438)scale(.08025)"/><use xlink:href="#bc" transform="translate(54.488)scale(.08025)"/></g><g id="k"><use xlink:href="#bd" transform="scale(.08025)"/><use xlink:href="#aV" transform="translate(16.05)scale(.08025)"/><use xlink:href="#bc" transform="translate(32.099)scale(.08025)"/><use xlink:href="#bb" transform="translate(40.123)scale(.08025)"/><use xlink:href="#aV" transform="translate(56.173)scale(.08025)"/><use xlink:href="#bc" transform="translate(72.222)scale(.08025)"/></g><g id="l"><use xlink:href="#bd" transform="scale(.08025)"/><use xlink:href="#bc" transform="translate(16.05)scale(.08025)"/><use xlink:href="#be" transform="translate(24.074)scale(.08025)"/><use xlink:href="#aX" transform="translate(40.123)scale(.08025)"/><use xlink:href="#aY" transform="translate(56.173)scale(.08025)"/></g><g id="m"><use xlink:href="#bf" transform="scale(.08025)"/><use xlink:href="#bg" transform="translate(16.05)scale(.08025)"/><use xlink:href="#bc" transform="translate(32.099)scale(.08025)"/><use xlink:href="#bg" transform="translate(40.123)scale(.08025)"/></g><g id="n"><use xlink:href="#aW" transform="scale(.08025)"/><use xlink:href="#aV" transform="translate(14.444)scale(.08025)"/><use xlink:href="#bh" transform="translate(30.494)scale(.08025)"/><use xlink:href="#bb" transform="translate(46.543)scale(.08025)"/><use xlink:href="#aY" transform="translate(62.593)scale(.08025)"/><use xlink:href="#bd" transform="translate(72.142)scale(.08025)"/><use xlink:href="#bi" transform="translate(88.191)scale(.08025)"/><use xlink:href="#aX" transform="translate(102.636)scale(.08025)"/><use xlink:href="#aW" transform="translate(118.685)scale(.08025)"/><use xlink:href="#aW" transform="translate(133.13)scale(.08025)"/></g><g id="o"><use xlink:href="#aZ" transform="scale(.08025)"/><use xlink:href="#ba" transform="translate(6.34)scale(.08025)"/><use xlink:href="#bb" transform="translate(22.389)scale(.08025)"/><use xlink:href="#aV" transform="translate(38.438)scale(.08025)"/><use xlink:href="#bc" transform="translate(54.488)scale(.08025)"/></g><g id="p"><use xlink:href="#bj" transform="scale(.08025)"/><use xlink:href="#bk" transform="translate(9.55)scale(.08025)"/><use xlink:href="#aZ" transform="translate(15.889)scale(.08025)"/><use xlink:href="#ba" transform="translate(22.228)scale(.08025)"/><use xlink:href="#bl" transform="translate(38.278)scale(.08025)"/><use xlink:href="#bm" transform="translate(52.722)scale(.08025)"/></g><g id="r"><use xlink:href="#bd" transform="scale(.08025)"/><use xlink:href="#aV" transform="translate(16.05)scale(.08025)"/><use xlink:href="#bc" transform="translate(32.099)scale(.08025)"/><use xlink:href="#bb" transform="translate(40.123)scale(.08025)"/><use xlink:href="#aV" transform="translate(56.173)scale(.08025)"/><use xlink:href="#bc" transform="translate(72.222)scale(.08025)"/></g><g id="s"><use xlink:href="#bn" transform="scale(.05556)"/><use xlink:href="#bo" transform="translate(11.111)scale(.05556)"/></g><g id="t"><use xlink:href="#bn" transform="scale(.05556)"/><use xlink:href="#bp" transform="translate(11.111)scale(.05556)"/></g><g id="u"><use xlink:href="#bn" transform="scale(.05556)"/><use xlink:href="#bq" transform="translate(11.111)scale(.05556)"/></g><g id="v"><use xlink:href="#bn" transform="scale(.05556)"/><use xlink:href="#br" transform="translate(11.111)scale(.05556)"/></g><g id="x"><use xlink:href="#bb" transform="scale(.08025)"/><use xlink:href="#bg" transform="translate(16.05)scale(.08025)"/><use xlink:href="#bs" transform="translate(32.099)scale(.08025)"/><use xlink:href="#bk" transform="translate(46.543)scale(.08025)"/><use xlink:href="#bd" transform="translate(52.883)scale(.08025)"/><use xlink:href="#bg" transform="translate(68.932)scale(.08025)"/><use xlink:href="#bf" transform="translate(84.981)scale(.08025)"/></g><g id="y"><use xlink:href="#bj" transform="scale(.08025)"/><use xlink:href="#bg" transform="translate(9.55)scale(.08025)"/><use xlink:href="#bf" transform="translate(25.599)scale(.08025)"/></g><g id="z"><use xlink:href="#bt" transform="scale(.08025)"/><use xlink:href="#bt" transform="translate(7.463)scale(.08025)"/></g><g id="A"><use xlink:href="#bu" transform="scale(.08025)"/><use xlink:href="#bv" transform="translate(23.994 4.044)scale(.05617)"/><use xlink:href="#bm" transform="translate(37.475)scale(.08025)"/></g><g id="B"><use xlink:href="#bu" transform="scale(.08025)"/><use xlink:href="#bg" transform="translate(23.994)scale(.08025)"/><use xlink:href="#bi" transform="translate(40.043)scale(.08025)"/></g><g id="C"><use xlink:href="#bc" transform="scale(.08025)"/><use xlink:href="#bg" transform="translate(8.025)scale(.08025)"/><use xlink:href="#bw" transform="translate(24.074)scale(.08025)"/></g><g id="D"><use xlink:href="#bj" transform="scale(.08025)"/><use xlink:href="#bc" transform="translate(9.55)scale(.08025)"/><use xlink:href="#bm" transform="translate(17.574)scale(.08025)"/></g><g id="E"><use xlink:href="#bf" transform="scale(.08025)"/><use xlink:href="#bg" transform="translate(16.05)scale(.08025)"/><use xlink:href="#bc" transform="translate(32.099)scale(.08025)"/><use xlink:href="#bg" transform="translate(40.123)scale(.08025)"/></g><g id="F"><use xlink:href="#aX" transform="scale(.08025)"/><use xlink:href="#ba" transform="translate(16.05)scale(.08025)"/><use xlink:href="#bi" transform="translate(32.099)scale(.08025)"/><use xlink:href="#aY" transform="translate(46.543)scale(.08025)"/><use xlink:href="#bs" transform="translate(56.093)scale(.08025)"/><use xlink:href="#bb" transform="translate(70.537)scale(.08025)"/><use xlink:href="#bc" transform="translate(86.586)scale(.08025)"/><use xlink:href="#aX" transform="translate(94.611)scale(.08025)"/><use xlink:href="#bf" transform="translate(110.66)scale(.08025)"/></g><g id="G"><use xlink:href="#bj" transform="scale(.08025)"/><use xlink:href="#bu" transform="translate(9.55)scale(.08025)"/><use xlink:href="#bv" transform="translate(33.543 4.044)scale(.05617)"/><use xlink:href="#bm" transform="translate(47.025)scale(.08025)"/></g><g id="H"><use xlink:href="#bg" transform="scale(.08025)"/><use xlink:href="#bf" transform="translate(16.05)scale(.08025)"/><use xlink:href="#bf" transform="translate(32.099)scale(.08025)"/><use xlink:href="#aZ" transform="translate(48.148)scale(.08025)"/><use xlink:href="#bc" transform="translate(54.488)scale(.08025)"/><use xlink:href="#aZ" transform="translate(62.512)scale(.08025)"/><use xlink:href="#bd" transform="translate(68.852)scale(.08025)"/><use xlink:href="#ba" transform="translate(84.901)scale(.08025)"/><use xlink:href="#bg" transform="translate(100.95)scale(.08025)"/><use xlink:href="#bk" transform="translate(117)scale(.08025)"/></g><g id="I"><use xlink:href="#bf" transform="scale(.08025)"/><use xlink:href="#bg" transform="translate(16.05)scale(.08025)"/><use xlink:href="#bc" transform="translate(32.099)scale(.08025)"/><use xlink:href="#bg" transform="translate(40.123)scale(.08025)"/></g><g id="J"><use xlink:href="#bj" transform="scale(.08025)"/><use xlink:href="#bg" transform="translate(9.55)scale(.08025)"/><use xlink:href="#bf" transform="translate(25.599)scale(.08025)"/><use xlink:href="#bx" transform="translate(41.648 4.044)scale(.05617)"/><use xlink:href="#bm" transform="translate(53.95)scale(.08025)"/></g><g id="K"><use xlink:href="#bk" transform="scale(.06173)"/><use xlink:href="#aZ" transform="translate(4.877)scale(.06173)"/><use xlink:href="#bh" transform="translate(9.753)scale(.06173)"/><use xlink:href="#aW" transform="translate(22.099)scale(.06173)"/><use xlink:href="#bd" transform="translate(33.21)scale(.06173)"/><use xlink:href="#bf" transform="translate(45.556)scale(.06173)"/><use xlink:href="#aZ" transform="translate(57.901)scale(.06173)"/><use xlink:href="#aV" transform="translate(62.778)scale(.06173)"/><use xlink:href="#bu" transform="translate(75.123)scale(.06173)"/></g><g id="L"><use xlink:href="#by" transform="scale(.06173)"/><use xlink:href="#bz" transform="translate(18.457)scale(.06173)"/><use xlink:href="#bA" transform="translate(33.272)scale(.06173)"/></g><g id="M"><use xlink:href="#bB" transform="scale(.06173)"/><use xlink:href="#bg" transform="translate(11.111)scale(.06173)"/><use xlink:href="#bk" transform="translate(23.457)scale(.06173)"/><use xlink:href="#aZ" transform="translate(28.333)scale(.06173)"/><use xlink:href="#bf" transform="translate(33.21)scale(.06173)"/><use xlink:href="#bg" transform="translate(45.556)scale(.06173)"/><use xlink:href="#bc" transform="translate(57.901)scale(.06173)"/><use xlink:href="#bd" transform="translate(64.074)scale(.06173)"/><use xlink:href="#aY" transform="translate(76.42)scale(.06173)"/></g><g id="N"><use xlink:href="#bj" transform="scale(.06173)"/><use xlink:href="#bC" transform="translate(7.346)scale(.06173)"/><use xlink:href="#bm" transform="translate(22.16)scale(.06173)"/></g><g id="O"><use xlink:href="#bn" transform="scale(.05556)"/><use xlink:href="#bD" transform="translate(11.111)scale(.05556)"/></g><g id="P"><use xlink:href="#bi" transform="scale(.08025)"/><use xlink:href="#aZ" transform="translate(14.444)scale(.08025)"/><use xlink:href="#bb" transform="translate(20.784)scale(.08025)"/><use xlink:href="#be" transform="translate(36.833)scale(.08025)"/><use xlink:href="#aX" transform="translate(52.883)scale(.08025)"/><use xlink:href="#aY" transform="translate(68.932)scale(.08025)"/></g><g id="Q"><use xlink:href="#bf" transform="scale(.08025)"/><use xlink:href="#bg" transform="translate(16.05)scale(.08025)"/><use xlink:href="#bc" transform="translate(32.099)scale(.08025)"/><use xlink:href="#bg" transform="translate(40.123)scale(.08025)"/></g><g id="R"><use xlink:href="#bj" transform="scale(.08025)"/><use xlink:href="#bi" transform="translate(9.55)scale(.08025)"/><use xlink:href="#bf" transform="translate(23.994)scale(.08025)"/><use xlink:href="#bE" transform="translate(40.043 4.044)scale(.05617)"/><use xlink:href="#bm" transform="translate(54.592)scale(.08025)"/></g><g id="S"><use xlink:href="#bk" transform="scale(.08025)"/><use xlink:href="#bg" transform="translate(6.34)scale(.08025)"/><use xlink:href="#aW" transform="translate(22.389)scale(.08025)"/><use xlink:href="#bc" transform="translate(36.833)scale(.08025)"/></g><g id="T"><use xlink:href="#bu" transform="scale(.08025)"/><use xlink:href="#bg" transform="translate(23.994)scale(.08025)"/><use xlink:href="#bi" transform="translate(40.043)scale(.08025)"/></g><g id="U"><use xlink:href="#bj" transform="scale(.08025)"/><use xlink:href="#bc" transform="translate(9.55)scale(.08025)"/><use xlink:href="#bF" transform="translate(17.574 4.044)scale(.05617)"/><use xlink:href="#bm" transform="translate(28.809)scale(.08025)"/></g><g id="V"><use xlink:href="#bB" transform="scale(.08025)"/><use xlink:href="#aX" transform="translate(14.444)scale(.08025)"/><use xlink:href="#aY" transform="translate(30.494)scale(.08025)"/><use xlink:href="#aW" transform="translate(40.043)scale(.08025)"/><use xlink:href="#aZ" transform="translate(54.488)scale(.08025)"/><use xlink:href="#bd" transform="translate(60.827)scale(.08025)"/><use xlink:href="#ba" transform="translate(76.877)scale(.08025)"/></g><g id="X"><use xlink:href="#bj" transform="scale(.08025)"/><use xlink:href="#bB" transform="translate(9.55)scale(.08025)"/><use xlink:href="#bm" transform="translate(23.994)scale(.08025)"/></g><g id="Y"><use xlink:href="#bb" transform="scale(.08025)"/><use xlink:href="#bg" transform="translate(16.05)scale(.08025)"/><use xlink:href="#bs" transform="translate(32.099)scale(.08025)"/><use xlink:href="#bk" transform="translate(46.543)scale(.08025)"/><use xlink:href="#bd" transform="translate(52.883)scale(.08025)"/><use xlink:href="#bg" transform="translate(68.932)scale(.08025)"/><use xlink:href="#bf" transform="translate(84.981)scale(.08025)"/></g><g id="Z"><use xlink:href="#bk" transform="scale(.08025)"/><use xlink:href="#aX" transform="translate(6.34)scale(.08025)"/><use xlink:href="#ba" transform="translate(22.389)scale(.08025)"/><use xlink:href="#bw" transform="translate(38.438)scale(.08025)"/><use xlink:href="#bc" transform="translate(54.488)scale(.08025)"/><use xlink:href="#be" transform="translate(62.512)scale(.08025)"/></g><g id="aa"><use xlink:href="#bj" transform="scale(.08025)"/><use xlink:href="#bk" transform="translate(9.55)scale(.08025)"/><use xlink:href="#bm" transform="translate(15.889)scale(.08025)"/></g><g id="ab"><use xlink:href="#bH" transform="scale(.05556)"/><use xlink:href="#bI" transform="translate(14.389)scale(.05556)"/></g><g id="ac"><use xlink:href="#bn" transform="scale(.05556)"/><use xlink:href="#bJ" transform="translate(11.111)scale(.05556)"/></g><g id="ad"><use xlink:href="#bB" transform="scale(.08025)"/><use xlink:href="#bg" transform="translate(14.444)scale(.08025)"/><use xlink:href="#bk" transform="translate(30.494)scale(.08025)"/><use xlink:href="#aZ" transform="translate(36.833)scale(.08025)"/><use xlink:href="#bf" transform="translate(43.173)scale(.08025)"/></g><g id="ae"><use xlink:href="#bj" transform="scale(.08025)"/><use xlink:href="#bh" transform="translate(9.55)scale(.08025)"/><use xlink:href="#bm" transform="translate(25.599)scale(.08025)"/></g><g id="af"><use xlink:href="#bn" transform="scale(.05556)"/><use xlink:href="#bK" transform="translate(11.111)scale(.05556)"/></g><g id="ag"><use xlink:href="#aX" transform="scale(.08025)"/><use xlink:href="#aY" transform="translate(16.05)scale(.08025)"/><use xlink:href="#aY" transform="translate(25.599)scale(.08025)"/><use xlink:href="#bd" transform="translate(35.148)scale(.08025)"/><use xlink:href="#aY" transform="translate(51.198)scale(.08025)"/></g><g id="ah"><use xlink:href="#bu" transform="scale(.08025)"/><use xlink:href="#aX" transform="translate(23.994)scale(.08025)"/><use xlink:href="#aW" transform="translate(40.043)scale(.08025)"/><use xlink:href="#aW" transform="translate(54.488)scale(.08025)"/><use xlink:href="#bg" transform="translate(68.932)scale(.08025)"/><use xlink:href="#bw" transform="translate(84.981)scale(.08025)"/><use xlink:href="#aX" transform="translate(101.03)scale(.08025)"/></g><g id="ai"><use xlink:href="#bj" transform="scale(.08025)"/><use xlink:href="#aX" transform="translate(9.55)scale(.08025)"/><use xlink:href="#aY" transform="translate(25.599)scale(.08025)"/><use xlink:href="#aY" transform="translate(35.148)scale(.08025)"/><use xlink:href="#bm" transform="translate(44.698)scale(.08025)"/></g><g id="aj"><use xlink:href="#bL" transform="scale(.05556)"/><use xlink:href="#bo" transform="translate(11.111)scale(.05556)"/></g><g id="ak"><use xlink:href="#bM" transform="scale(.05556)"/><use xlink:href="#bN" transform="translate(6.611)scale(.05556)"/><use xlink:href="#bI" transform="translate(17.722)scale(.05556)"/><use xlink:href="#bO" transform="translate(28.833)scale(.05556)"/><use xlink:href="#bP" transform="translate(39.944)scale(.05556)"/><use xlink:href="#bQ" transform="translate(51.056)scale(.05556)"/></g><g id="al"><use xlink:href="#bj" transform="scale(.08025)"/><use xlink:href="#bz" transform="translate(9.55)scale(.08025)"/><use xlink:href="#bm" transform="translate(28.809)scale(.08025)"/></g><g id="am"><use xlink:href="#aW" transform="scale(.08025)"/><use xlink:href="#aZ" transform="translate(14.444)scale(.08025)"/><use xlink:href="#bw" transform="translate(20.784)scale(.08025)"/><use xlink:href="#ba" transform="translate(36.833)scale(.08025)"/><use xlink:href="#aZ" transform="translate(52.883)scale(.08025)"/><use xlink:href="#ba" transform="translate(59.222)scale(.08025)"/><use xlink:href="#bw" transform="translate(75.272)scale(.08025)"/></g><g id="an"><use xlink:href="#bl" transform="scale(.08025)"/><use xlink:href="#aX" transform="translate(14.444)scale(.08025)"/><use xlink:href="#bs" transform="translate(30.494)scale(.08025)"/></g><g id="ao"><use xlink:href="#bj" transform="scale(.08025)"/><use xlink:href="#bl" transform="translate(9.55)scale(.08025)"/><use xlink:href="#bR" transform="translate(23.994 4.044)scale(.05617)"/><use xlink:href="#bm" transform="translate(37.475)scale(.08025)"/></g><g id="ap"><use xlink:href="#bn" transform="scale(.05556)"/><use xlink:href="#bS" transform="translate(11.111)scale(.05556)"/></g><g id="aq"><use xlink:href="#bT" transform="scale(.05556)"/><use xlink:href="#bU" transform="translate(11.111)scale(.05556)"/></g><g id="ar"><use xlink:href="#bV" transform="scale(.05556)"/><use xlink:href="#bP" transform="translate(11.5)scale(.05556)"/><use xlink:href="#bW" transform="translate(22.611)scale(.05556)"/></g><use xlink:href="#aU" id="h" transform="scale(.09877)"/><use xlink:href="#bG" id="W" transform="scale(.08025)"/></defs></g></svg>