<?xml version="1.0" encoding="UTF-8"?>
<!-- Generated by Pixelmator Pro 3.5.3 -->
<svg width="32" height="32" viewBox="0 0 32 32" xmlns="http://www.w3.org/2000/svg">
    <path id="Path" fill="#000000" stroke="none" d="M 14.666667 25.333334 L 17.333334 25.333334 L 17.333334 21.333332 L 21.333334 21.333332 L 21.333334 18.666668 L 17.333334 18.666668 L 17.333334 14.666666 L 14.666667 14.666666 L 14.666667 18.666668 L 10.666667 18.666668 L 10.666667 21.333332 L 14.666667 21.333332 L 14.666667 25.333334 Z M 8 29.333334 C 7.266667 29.333334 6.638889 29.072222 6.116667 28.549999 C 5.594445 28.027777 5.333333 27.4 5.333333 26.666666 L 5.333333 13.333334 C 5.333333 12.6 5.594445 11.972222 6.116667 11.449999 C 6.638889 10.927777 7.266667 10.666666 8 10.666666 L 9.333333 10.666666 L 9.333333 8 C 9.333333 6.155554 9.983333 4.583332 11.283333 3.283333 C 12.583333 1.983334 14.155556 1.333334 16 1.333334 C 17.844444 1.333334 19.416667 1.983334 20.716667 3.283333 C 22.016666 4.583332 22.666666 6.155554 22.666666 8 L 22.666666 10.666666 L 24 10.666666 C 24.733334 10.666666 25.361111 10.927777 25.883333 11.449999 C 26.405555 11.972222 26.666666 12.6 26.666666 13.333334 L 26.666666 26.666666 C 26.666666 27.4 26.405555 28.027777 25.883333 28.549999 C 25.361111 29.072222 24.733334 29.333334 24 29.333334 L 8 29.333334 Z M 8 26.666666 L 24 26.666666 L 24 13.333334 L 8 13.333334 L 8 26.666666 Z M 12 10.666666 L 20 10.666666 L 20 8 C 20 6.888889 19.611111 5.944445 18.833334 5.166666 C 18.055555 4.388889 17.111111 4 16 4 C 14.888889 4 13.944444 4.388889 13.166667 5.166666 C 12.388889 5.944445 12 6.888889 12 8 L 12 10.666666 Z M 8 26.666666 L 8 13.333334 L 8 26.666666 Z"/>
</svg>
